<svg width="20" height="19" viewBox="0 0 20 19" fill="none" xmlns="http://www.w3.org/2000/svg">
<path d="M10 18.7334C14.9658 18.7334 19.0791 14.6289 19.0791 9.6543C19.0791 4.68848 14.9658 0.575195 9.99121 0.575195C5.02539 0.575195 0.920898 4.68848 0.920898 9.6543C0.920898 14.6289 5.03418 18.7334 10 18.7334ZM9.94727 6.64844C9.25293 6.64844 8.69043 6.08594 8.69043 5.3916C8.69043 4.67969 9.25293 4.12598 9.94727 4.12598C10.6416 4.12598 11.1953 4.67969 11.1953 5.3916C11.1953 6.08594 10.6416 6.64844 9.94727 6.64844ZM8.38281 14.7168C7.96973 14.7168 7.65332 14.418 7.65332 13.9961C7.65332 13.6094 7.96973 13.293 8.38281 13.293H9.47266V9.4873H8.5498C8.13672 9.4873 7.82031 9.18848 7.82031 8.7666C7.82031 8.37988 8.13672 8.06348 8.5498 8.06348H10.2812C10.7998 8.06348 11.0811 8.42383 11.0811 8.97754V13.293H12.0918C12.5049 13.293 12.8301 13.6094 12.8301 13.9961C12.8301 14.418 12.5049 14.7168 12.0918 14.7168H8.38281Z" fill="#8E66FE"/>
</svg>
