<svg width="20" height="19" viewBox="0 0 20 19" fill="none" xmlns="http://www.w3.org/2000/svg">
<path d="M10 18.7334C5.03418 18.7334 0.920898 14.6289 0.920898 9.6543C0.920898 4.68848 5.02539 0.575195 9.99121 0.575195C14.9658 0.575195 19.0791 4.68848 19.0791 9.6543C19.0791 14.6289 14.9658 18.7334 10 18.7334ZM7.84668 14.5059H12.5488C13.5684 14.5059 14.0869 13.9697 14.0869 12.9502V9.12695H10.4746C9.87695 9.12695 9.58691 8.83691 9.58691 8.23047V4.57422H7.84668C6.82715 4.57422 6.2998 5.11035 6.2998 6.12988V12.9502C6.2998 13.9785 6.82715 14.5059 7.84668 14.5059ZM10.6064 8.3623H14.0342C14.0078 8.15137 13.8584 7.94043 13.6035 7.69434L11.002 5.04883C10.7646 4.80273 10.5449 4.64453 10.334 4.61816V8.09863C10.334 8.27441 10.4307 8.3623 10.6064 8.3623Z" fill="#8E66FE"/>
</svg>
