<svg width="16" height="15" viewBox="0 0 16 15" fill="none" xmlns="http://www.w3.org/2000/svg">
<path d="M14.6094 1.07031C15.4141 1.86719 15.5625 2.97656 15.5625 4.39844V10.3438C15.5625 11.7656 15.4141 12.8672 14.6094 13.6719C13.8047 14.4688 12.6953 14.625 11.2734 14.625H5.28125C3.85938 14.625 2.75 14.4688 1.9375 13.6719C1.14062 12.8672 0.992188 11.7656 0.992188 10.3438V4.38281C0.992188 2.97656 1.14062 1.875 1.94531 1.07031C2.74219 0.273438 3.85938 0.109375 5.25781 0.109375H11.2734C12.6953 0.109375 13.8047 0.265625 14.6094 1.07031ZM14.0312 4.1875C14.0312 3.375 13.9297 2.625 13.4922 2.1875C13.0547 1.75781 12.2969 1.64062 11.4922 1.64062H5.07812C4.25781 1.64062 3.49219 1.75 3.05469 2.1875C2.625 2.625 2.52344 3.375 2.52344 4.20312V10.5547C2.52344 11.3672 2.625 12.1172 3.0625 12.5469C3.5 12.9844 4.25781 13.0938 5.0625 13.0938H11.4922C12.2969 13.0938 13.0547 12.9844 13.4922 12.5469C13.9219 12.1172 14.0312 11.3672 14.0312 10.5547V4.1875ZM4.67188 7.35938C4.67188 6.92188 4.96875 6.61719 5.40625 6.61719H7.54688V4.47656C7.54688 4.03906 7.85156 3.74219 8.27344 3.74219C8.70312 3.74219 9.01562 4.03906 9.01562 4.47656V6.61719H11.1641C11.5938 6.61719 11.8906 6.92188 11.8906 7.35938C11.8906 7.78125 11.5859 8.07812 11.1641 8.07812H9.01562V10.2266C9.01562 10.6562 8.70312 10.9609 8.27344 10.9609C7.85156 10.9609 7.54688 10.6562 7.54688 10.2266V8.07812H5.40625C4.97656 8.07812 4.67188 7.78125 4.67188 7.35938Z" fill="#8E66FE"/>
</svg>
