<svg width="33" height="20" viewBox="0 0 33 20" fill="none" xmlns="http://www.w3.org/2000/svg">
<path d="M4.04379 16.6572C3.87973 16.8506 3.67172 16.9502 3.41977 16.9561C3.16781 16.9561 2.93344 16.8418 2.71664 16.6133C1.99008 15.8398 1.43637 14.9404 1.05551 13.915C0.680508 12.8838 0.493008 11.7969 0.493008 10.6543C0.493008 9.51172 0.686367 8.42188 1.07309 7.38477C1.4598 6.34766 2.00766 5.45117 2.71664 4.69531C2.93344 4.46094 3.16781 4.34668 3.41977 4.35254C3.67172 4.3584 3.87973 4.45801 4.04379 4.65137C4.20199 4.83887 4.26352 5.04102 4.22836 5.25781C4.1932 5.47461 4.08773 5.67969 3.91195 5.87305C3.34945 6.49414 2.91586 7.21484 2.61117 8.03516C2.31234 8.85547 2.16293 9.72852 2.16293 10.6543C2.16293 11.5801 2.31234 12.4531 2.61117 13.2734C2.91586 14.0938 3.34945 14.8145 3.91195 15.4355C4.08187 15.6289 4.18441 15.8369 4.21957 16.0596C4.26059 16.2764 4.20199 16.4756 4.04379 16.6572ZM6.68051 14.126C6.5223 14.3252 6.30844 14.4248 6.03891 14.4248C5.77523 14.4248 5.54672 14.3076 5.35336 14.0732C4.97836 13.6338 4.69125 13.1182 4.49203 12.5264C4.29281 11.9346 4.1932 11.3105 4.1932 10.6543C4.1932 9.99805 4.29281 9.37402 4.49203 8.78223C4.69125 8.19043 4.97836 7.67188 5.35336 7.22656C5.54672 6.99805 5.77523 6.88379 6.03891 6.88379C6.30844 6.88379 6.5223 6.98047 6.68051 7.17383C6.83285 7.36133 6.88852 7.56055 6.8475 7.77148C6.81234 7.97656 6.72152 8.18164 6.57504 8.38672C6.34652 8.67969 6.17074 9.02832 6.0477 9.43262C5.92465 9.83105 5.86312 10.2383 5.86312 10.6543C5.86312 11.0703 5.92465 11.4805 6.0477 11.8848C6.17074 12.2832 6.34652 12.626 6.57504 12.9131C6.72738 13.1182 6.82113 13.3262 6.85629 13.5371C6.89145 13.748 6.83285 13.9443 6.68051 14.126ZM29.2772 16.6572C29.119 16.4756 29.0575 16.2764 29.0926 16.0596C29.1278 15.8369 29.2362 15.6289 29.4178 15.4355C29.9745 14.8145 30.4022 14.0938 30.701 13.2734C31.0057 12.4531 31.158 11.5801 31.158 10.6543C31.158 9.72852 31.0057 8.85547 30.701 8.03516C30.4022 7.21484 29.9745 6.49414 29.4178 5.87305C29.2362 5.67969 29.1278 5.47461 29.0926 5.25781C29.0575 5.04102 29.119 4.83887 29.2772 4.65137C29.4471 4.45801 29.658 4.3584 29.91 4.35254C30.162 4.34668 30.3963 4.46094 30.6131 4.69531C31.3162 5.45117 31.8612 6.34766 32.2479 7.38477C32.6346 8.42188 32.828 9.51172 32.828 10.6543C32.828 11.7969 32.6375 12.8838 32.2567 13.915C31.8817 14.9404 31.3338 15.8398 30.6131 16.6133C30.3905 16.8418 30.1532 16.9561 29.9012 16.9561C29.6493 16.9502 29.4412 16.8506 29.2772 16.6572ZM26.6317 14.126C26.4852 13.9443 26.4295 13.748 26.4647 13.5371C26.5057 13.3262 26.5995 13.1182 26.7459 12.9131C26.9686 12.626 27.1414 12.2832 27.2645 11.8848C27.3934 11.4805 27.4579 11.0703 27.4579 10.6543C27.4579 10.2383 27.3934 9.83105 27.2645 9.43262C27.1414 9.02832 26.9686 8.67969 26.7459 8.38672C26.5995 8.18164 26.5057 7.97656 26.4647 7.77148C26.4295 7.56055 26.4852 7.36133 26.6317 7.17383C26.7957 6.98047 27.0096 6.88379 27.2733 6.88379C27.5428 6.88379 27.7772 6.99805 27.9764 7.22656C28.3455 7.67188 28.6297 8.19043 28.8289 8.78223C29.034 9.37402 29.1366 9.99805 29.1366 10.6543C29.1366 11.3105 29.034 11.9346 28.8289 12.5264C28.6297 13.1182 28.3455 13.6338 27.9764 14.0732C27.7772 14.3076 27.5428 14.4248 27.2733 14.4248C27.0096 14.4248 26.7957 14.3252 26.6317 14.126ZM16.6561 19.1357C15.4842 19.1357 14.3856 18.916 13.3602 18.4766C12.3348 18.0371 11.4295 17.4277 10.6444 16.6484C9.86508 15.8691 9.2557 14.9668 8.81625 13.9414C8.3768 12.9102 8.15707 11.8057 8.15707 10.6279C8.15707 9.45605 8.3768 8.35742 8.81625 7.33203C9.2557 6.30078 9.86508 5.39551 10.6444 4.61621C11.4295 3.83691 12.3348 3.22754 13.3602 2.78809C14.3856 2.34277 15.4842 2.12012 16.6561 2.12012C17.8338 2.12012 18.9354 2.34277 19.9608 2.78809C20.992 3.22754 21.8973 3.83691 22.6766 4.61621C23.4559 5.39551 24.0653 6.30078 24.5047 7.33203C24.9442 8.35742 25.1639 9.45605 25.1639 10.6279C25.1639 11.8057 24.9442 12.9102 24.5047 13.9414C24.0653 14.9668 23.4559 15.8691 22.6766 16.6484C21.8973 17.4277 20.992 18.0371 19.9608 18.4766C18.9354 18.916 17.8338 19.1357 16.6561 19.1357ZM12.9559 11.7969H16.6561C16.8612 11.7969 17.034 11.7266 17.1746 11.5859C17.3153 11.4453 17.3856 11.2695 17.3856 11.0586V6.08398C17.3856 5.87891 17.3153 5.70898 17.1746 5.57422C17.034 5.43359 16.8612 5.36328 16.6561 5.36328C16.451 5.36328 16.2782 5.43359 16.1375 5.57422C15.9969 5.70898 15.9266 5.87891 15.9266 6.08398V10.3291H12.9559C12.7508 10.3291 12.578 10.4023 12.4373 10.5488C12.2967 10.6895 12.2264 10.8594 12.2264 11.0586C12.2264 11.2695 12.2967 11.4453 12.4373 11.5859C12.578 11.7266 12.7508 11.7969 12.9559 11.7969ZM9.23812 4.39648C9.12094 4.39648 9.01547 4.36426 8.92172 4.2998C8.83383 4.22949 8.76645 4.13867 8.71957 4.02734C8.66684 3.91016 8.62582 3.76953 8.59652 3.60547C8.56723 3.44141 8.55258 3.26855 8.55258 3.08691C8.55258 2.6123 8.66977 2.18164 8.90414 1.79492C9.14437 1.40234 9.46078 1.09473 9.85336 0.87207C10.2518 0.643555 10.6942 0.529297 11.1805 0.529297C11.4735 0.529297 11.7635 0.573242 12.0506 0.661133C12.3377 0.743164 12.5809 0.866211 12.7801 1.03027C12.9559 1.18262 13.0438 1.35254 13.0438 1.54004C13.0438 1.7041 12.9676 1.8418 12.8153 1.95312L9.59848 4.26465C9.53402 4.31152 9.4725 4.34668 9.41391 4.37012C9.36117 4.3877 9.30258 4.39648 9.23812 4.39648ZM24.0916 4.39648C24.0155 4.39648 23.951 4.3877 23.8983 4.37012C23.8455 4.34668 23.787 4.31152 23.7225 4.26465L20.5145 1.95312C20.3563 1.8418 20.2772 1.7041 20.2772 1.54004C20.2772 1.35254 20.3651 1.18262 20.5409 1.03027C20.7401 0.866211 20.9803 0.743164 21.2616 0.661133C21.5487 0.573242 21.8416 0.529297 22.1405 0.529297C22.6209 0.529297 23.0604 0.643555 23.4588 0.87207C23.8573 1.09473 24.1737 1.40234 24.408 1.79492C24.6483 2.18164 24.7684 2.6123 24.7684 3.08691C24.7684 3.26855 24.7537 3.44141 24.7245 3.60547C24.701 3.76953 24.6629 3.91016 24.6102 4.02734C24.5575 4.13281 24.4842 4.2207 24.3905 4.29102C24.3026 4.36133 24.203 4.39648 24.0916 4.39648ZM9.1766 19.0654C9.02426 18.9131 8.94809 18.7256 8.94809 18.5029C8.94809 18.2803 9.02719 18.0898 9.18539 17.9316L11.0047 16.1123L12.1561 17.2637L10.3543 19.0479C10.1903 19.2119 9.99398 19.2969 9.76547 19.3027C9.54281 19.3086 9.34652 19.2295 9.1766 19.0654ZM24.1444 19.0654C23.9803 19.2295 23.784 19.3086 23.5555 19.3027C23.327 19.2969 23.1278 19.2119 22.9579 19.0479L21.1737 17.2637L22.3162 16.1123L24.1356 17.9316C24.2996 18.0898 24.3817 18.2803 24.3817 18.5029C24.3817 18.7256 24.3026 18.9131 24.1444 19.0654Z" fill="white"/>
</svg>
