<svg width="21" height="20" viewBox="0 0 21 20" fill="none" xmlns="http://www.w3.org/2000/svg">
<path d="M2.12883 5.64258C0.83 5.64258 0.156172 4.91992 0.156172 3.63086V2.64453C0.156172 1.35547 0.859297 0.623047 2.12883 0.623047H18.2812C19.58 0.623047 20.2441 1.35547 20.2441 2.64453V3.63086C20.2441 4.91992 19.58 5.64258 18.2812 5.64258H2.12883ZM4.85344 19.2949C2.68547 19.2949 1.46477 18.0938 1.46477 15.9355V7.23438H18.9355V15.9355C18.9355 18.0938 17.7148 19.2949 15.5566 19.2949H4.85344ZM7.17766 11.2773H13.2323C13.7792 11.2773 14.1894 10.877 14.1894 10.3105V9.98828C14.1894 9.43164 13.789 9.03125 13.2323 9.03125H7.17766C6.62102 9.03125 6.22062 9.43164 6.22062 9.98828V10.3105C6.22062 10.877 6.63078 11.2773 7.17766 11.2773Z" fill="#8E66FE"/>
</svg>
