<svg width="38" height="38" viewBox="0 0 38 38" fill="none" xmlns="http://www.w3.org/2000/svg">
<rect width="38" height="38" rx="8" fill="#6DA000"/>
<path d="M18.9336 29.1348C17.5404 29.1348 16.2285 28.8678 14.998 28.334C13.7676 27.8066 12.6836 27.0742 11.7461 26.1367C10.8086 25.1992 10.0729 24.1185 9.53906 22.8945C9.01172 21.6641 8.74805 20.349 8.74805 18.9492C8.74805 17.556 9.01172 16.2474 9.53906 15.0234C10.0729 13.793 10.8053 12.709 11.7363 11.7715C12.6738 10.834 13.7578 10.1016 14.9883 9.57422C16.2188 9.04036 17.5306 8.77344 18.9238 8.77344C20.3171 8.77344 21.6289 9.04036 22.8594 9.57422C24.0964 10.1016 25.1803 10.834 26.1113 11.7715C27.0488 12.709 27.7845 13.793 28.3184 15.0234C28.8522 16.2474 29.1191 17.556 29.1191 18.9492C29.1191 20.349 28.8522 21.6641 28.3184 22.8945C27.7845 24.1185 27.0488 25.1992 26.1113 26.1367C25.1803 27.0742 24.0996 27.8066 22.8691 28.334C21.6387 28.8678 20.3268 29.1348 18.9336 29.1348ZM18.9336 26.8984C20.0339 26.8984 21.0625 26.6934 22.0195 26.2832C22.9831 25.873 23.8294 25.3066 24.5586 24.584C25.2878 23.8548 25.8574 23.0117 26.2676 22.0547C26.6777 21.0911 26.8828 20.056 26.8828 18.9492C26.8828 17.849 26.6745 16.8203 26.2578 15.8633C25.8477 14.8997 25.278 14.0534 24.5488 13.3242C23.8262 12.5951 22.9831 12.0254 22.0195 11.6152C21.0625 11.2051 20.0306 11 18.9238 11C17.8236 11 16.7917 11.2051 15.8281 11.6152C14.8711 12.0254 14.028 12.5951 13.2988 13.3242C12.5762 14.0534 12.0098 14.8997 11.5996 15.8633C11.196 16.8203 10.9941 17.849 10.9941 18.9492C10.9941 20.056 11.196 21.0911 11.5996 22.0547C12.0098 23.0117 12.5794 23.8548 13.3086 24.584C14.0378 25.3066 14.8809 25.873 15.8379 26.2832C16.8014 26.6934 17.8333 26.8984 18.9336 26.8984ZM17.8789 23.5879C17.6901 23.5879 17.5176 23.5456 17.3613 23.4609C17.2116 23.3763 17.0684 23.2526 16.9316 23.0898L14.6758 20.3555C14.4935 20.1276 14.4023 19.8965 14.4023 19.6621C14.4023 19.4017 14.4935 19.1803 14.6758 18.998C14.8581 18.8158 15.0762 18.7246 15.3301 18.7246C15.4863 18.7246 15.6263 18.7572 15.75 18.8223C15.8737 18.8874 15.9974 18.9948 16.1211 19.1445L17.8594 21.332L21.5605 15.3652C21.7819 15.0137 22.0586 14.8379 22.3906 14.8379C22.638 14.8379 22.8594 14.9193 23.0547 15.082C23.25 15.2448 23.3477 15.4564 23.3477 15.7168C23.3477 15.8275 23.3216 15.9414 23.2695 16.0586C23.224 16.1758 23.1654 16.2897 23.0938 16.4004L18.8066 23.0801C18.5788 23.4186 18.2695 23.5879 17.8789 23.5879Z" fill="white"/>
</svg>
