<svg width="24" height="24" viewBox="0 0 24 24" fill="none" xmlns="http://www.w3.org/2000/svg">
<path d="M12.2666 23.5986C6.04688 23.5986 0.922852 18.4746 0.922852 12.2441C0.922852 6.02441 6.03613 0.900391 12.2666 0.900391C18.4863 0.900391 23.6104 6.02441 23.6104 12.2441C23.6104 18.4746 18.4971 23.5986 12.2666 23.5986ZM11.085 17.6367C11.5469 17.6367 11.9658 17.4004 12.2451 16.9922L17.2295 9.36523C17.4229 9.08594 17.5303 8.7959 17.5303 8.52734C17.5303 7.86133 16.9395 7.38867 16.2949 7.38867C15.876 7.38867 15.5215 7.61426 15.2422 8.06543L11.0527 14.7256L9.18359 12.416C8.89355 12.0723 8.59277 11.9219 8.20605 11.9219C7.55078 11.9219 7.01367 12.4482 7.01367 13.1143C7.01367 13.4258 7.11035 13.6943 7.35742 13.9951L9.88184 17.0029C10.2256 17.4219 10.6016 17.6367 11.085 17.6367Z" fill="#6DA000"/>
</svg>
