<svg width="22" height="41" viewBox="0 0 22 41" fill="none" xmlns="http://www.w3.org/2000/svg">
<path d="M1.40412 3.39224L16.9662 19.2041C17.3076 19.5491 17.499 20.0148 17.499 20.5001C17.499 20.9854 17.3076 21.4511 16.9662 21.7961L1.40749 37.608C1.06636 37.9551 0.875216 38.4224 0.875216 38.9091C0.875216 39.3958 1.06636 39.863 1.40749 40.2101C1.57414 40.3811 1.77332 40.5169 1.99329 40.6097C2.21326 40.7024 2.44958 40.7502 2.68831 40.7502C2.92704 40.7502 3.16335 40.7024 3.38332 40.6097C3.60329 40.5169 3.80247 40.3811 3.96912 40.2101L19.5279 24.4016C20.5502 23.3604 21.123 21.9594 21.123 20.5001C21.123 19.0408 20.5502 17.6399 19.5279 16.5986L3.96912 0.790117C3.80242 0.618661 3.60303 0.48237 3.38275 0.389306C3.16246 0.296241 2.92575 0.248291 2.68662 0.248291C2.44748 0.248291 2.21078 0.296241 1.99049 0.389306C1.77021 0.48237 1.57082 0.618661 1.40412 0.790117C1.06299 1.13725 0.87184 1.60448 0.87184 2.09118C0.87184 2.57788 1.06299 3.0451 1.40412 3.39224Z" fill="url(#paint0_linear_19293_13368)"/>
<defs>
<linearGradient id="paint0_linear_19293_13368" x1="0.87184" y1="40.4841" x2="30.0416" y2="8.69916" gradientUnits="userSpaceOnUse">
<stop stop-color="#7A0FD9"/>
<stop offset="1" stop-color="#695CF8"/>
</linearGradient>
</defs>
</svg>
