<svg width="20" height="18" viewBox="0 0 20 18" fill="none" xmlns="http://www.w3.org/2000/svg">
<path d="M3.45605 17.3027C1.84766 17.3027 0.792969 16.0898 0.792969 14.6396C0.792969 14.1914 0.907227 13.7344 1.15332 13.3037L7.9209 1.47363C8.43066 0.594727 9.31836 0.137695 10.2236 0.137695C11.1201 0.137695 11.999 0.585938 12.5176 1.47363L19.2852 13.2949C19.5312 13.7256 19.6455 14.1914 19.6455 14.6396C19.6455 16.0898 18.5908 17.3027 16.9824 17.3027H3.45605ZM10.2324 11.0186C10.8389 11.0186 11.1904 10.6758 11.2256 10.043L11.3662 6.25488C11.4014 5.5957 10.918 5.13867 10.2236 5.13867C9.52051 5.13867 9.0459 5.58691 9.08105 6.25488L9.22168 10.0518C9.24805 10.6758 9.6084 11.0186 10.2324 11.0186ZM10.2324 14.1914C10.9268 14.1914 11.4717 13.752 11.4717 13.0752C11.4717 12.416 10.9355 11.9678 10.2324 11.9678C9.5293 11.9678 8.98438 12.416 8.98438 13.0752C8.98438 13.752 9.5293 14.1914 10.2324 14.1914Z" fill="#E16060"/>
</svg>
