<svg width="23" height="22" viewBox="0 0 23 22" fill="none" xmlns="http://www.w3.org/2000/svg">
<path d="M6.72453 21.6699C7.17375 21.6699 7.52531 21.4844 8.06242 20.9961L11.7636 17.7051H17.828C20.8163 17.7051 22.6132 15.8887 22.6132 12.9297V5.18555C22.6132 2.2168 20.8163 0.400391 17.828 0.400391H5.58195C2.59367 0.400391 0.796797 2.2168 0.796797 5.18555V12.9297C0.796797 15.8887 2.71086 17.7051 5.41594 17.7051H5.68937V20.5176C5.68937 21.2207 6.08 21.6699 6.72453 21.6699ZM11.705 6.17188C10.9237 6.17188 10.289 5.52734 10.289 4.76562C10.289 3.96484 10.9237 3.33984 11.705 3.33984C12.4765 3.33984 13.1112 3.96484 13.1112 4.76562C13.1112 5.52734 12.4765 6.17188 11.705 6.17188ZM10.0058 14.209C9.50773 14.209 9.11711 13.8672 9.11711 13.3496C9.11711 12.8711 9.50773 12.5 10.0058 12.5H11.0507V9.18945H10.1816C9.68352 9.18945 9.30266 8.83789 9.30266 8.32031C9.30266 7.85156 9.68352 7.4707 10.1816 7.4707H12.0273C12.662 7.4707 12.9941 7.91016 12.9941 8.58398V12.5H13.8437C14.3417 12.5 14.7323 12.8711 14.7323 13.3496C14.7323 13.8672 14.3417 14.209 13.8437 14.209H10.0058Z" fill="#8863F2"/>
</svg>
