<svg width="19" height="16" viewBox="0 0 19 16" fill="none" xmlns="http://www.w3.org/2000/svg">
<path d="M8.4502 15.5508C4.26074 15.5508 0.811035 12.1011 0.811035 7.91162C0.811035 3.72949 4.25342 0.272461 8.44287 0.272461C12.3247 0.272461 15.5767 3.24609 16.0234 7.01074C15.6719 6.92285 15.313 6.87891 14.9321 6.87891C12.2661 6.87891 10.0615 9.07617 10.0615 11.7422C10.0615 12.98 10.5449 14.1152 11.3213 14.9795C10.4277 15.3457 9.46094 15.5508 8.4502 15.5508ZM4.83936 8.91504H8.44287C8.80176 8.91504 9.08008 8.62939 9.08008 8.27783V3.58301C9.08008 3.22412 8.80176 2.9458 8.44287 2.9458C8.09131 2.9458 7.80566 3.22412 7.80566 3.58301V7.64062H4.83936C4.48047 7.64062 4.20947 7.91895 4.20947 8.27783C4.20947 8.62939 4.48047 8.91504 4.83936 8.91504ZM14.9321 15.5581C12.8521 15.5581 11.1309 13.8369 11.1309 11.7422C11.1309 9.66211 12.8521 7.94092 14.9321 7.94092C17.0195 7.94092 18.7407 9.66211 18.7407 11.7422C18.7407 13.8223 17.0049 15.5581 14.9321 15.5581ZM14.522 13.8149C14.7124 13.8149 14.8955 13.7344 14.9907 13.6099L17.1074 10.7168C17.1807 10.6143 17.2173 10.4897 17.2173 10.3872C17.2173 10.0723 16.9609 9.82324 16.646 9.82324C16.4482 9.82324 16.2798 9.91846 16.1699 10.0723L14.4854 12.4087L13.6797 11.5078C13.5771 11.3979 13.4307 11.332 13.2549 11.332C12.9546 11.332 12.6836 11.5444 12.6836 11.896C12.6836 12.0425 12.7495 12.1963 12.8521 12.3062L14.0679 13.6392C14.1851 13.7637 14.3682 13.8149 14.522 13.8149Z" fill="#12081B"/>
</svg>
