<svg width="18" height="15" viewBox="0 0 18 15" fill="none" xmlns="http://www.w3.org/2000/svg">
<path d="M8.18848 14.936C7.15853 14.936 6.19238 14.7424 5.29004 14.355C4.39225 13.9676 3.59928 13.4299 2.91113 12.7417C2.22754 12.0581 1.69206 11.2674 1.30469 10.3696C0.917318 9.46729 0.723633 8.50114 0.723633 7.47119C0.723633 6.44124 0.917318 5.47738 1.30469 4.57959C1.69206 3.67725 2.22754 2.88428 2.91113 2.20068C3.59928 1.51253 4.39225 0.974772 5.29004 0.587402C6.19238 0.200033 7.15853 0.00634766 8.18848 0.00634766C9.12728 0.00634766 10.0137 0.17041 10.8477 0.498535C11.6862 0.822103 12.4359 1.27555 13.0967 1.85889C13.762 2.44222 14.3089 3.12354 14.7373 3.90283C15.1702 4.68213 15.4505 5.52523 15.5781 6.43213C15.1315 6.2863 14.6667 6.21338 14.1836 6.21338C13.5228 6.21338 12.9007 6.34098 12.3174 6.59619C11.734 6.84684 11.2191 7.19548 10.7725 7.64209C10.3258 8.0887 9.97493 8.60368 9.71973 9.18701C9.46908 9.77035 9.34375 10.3924 9.34375 11.0532C9.34375 11.714 9.47135 12.3384 9.72656 12.9263C9.98633 13.5142 10.3372 14.0291 10.7793 14.4712C10.3737 14.6216 9.95443 14.7355 9.52148 14.813C9.08854 14.895 8.64421 14.936 8.18848 14.936ZM7.01953 10.5679C7.20182 10.5679 7.37044 10.5246 7.52539 10.438C7.6849 10.3468 7.81934 10.2261 7.92871 10.0757L11.0596 5.43408C11.137 5.32926 11.1917 5.22445 11.2236 5.11963C11.2555 5.01025 11.2715 4.90771 11.2715 4.81201C11.2715 4.54769 11.1712 4.32894 10.9707 4.15576C10.7747 3.97803 10.5446 3.88916 10.2803 3.88916C9.94759 3.88916 9.66276 4.07373 9.42578 4.44287L7.01953 8.22314L6.02148 7.08154C5.92122 6.97217 5.81185 6.88786 5.69336 6.82861C5.57943 6.76481 5.44727 6.73291 5.29688 6.73291C5.03711 6.73291 4.80924 6.82633 4.61328 7.01318C4.42188 7.19548 4.32617 7.41878 4.32617 7.68311C4.32617 7.81071 4.34668 7.92692 4.3877 8.03174C4.42871 8.132 4.50163 8.24365 4.60645 8.3667L6.09668 10.0962C6.22428 10.242 6.36328 10.3582 6.51367 10.4448C6.66406 10.5269 6.83268 10.5679 7.01953 10.5679ZM14.1904 14.7856C13.68 14.7856 13.1992 14.6877 12.748 14.4917C12.3014 14.2957 11.9049 14.0246 11.5586 13.6782C11.2168 13.3364 10.9479 12.9399 10.752 12.4888C10.5605 12.0376 10.4648 11.5591 10.4648 11.0532C10.4648 10.5428 10.5605 10.0643 10.752 9.61768C10.9479 9.1665 11.2168 8.77002 11.5586 8.42822C11.9049 8.08643 12.3014 7.81982 12.748 7.62842C13.1992 7.43245 13.68 7.33447 14.1904 7.33447C14.7008 7.33447 15.1794 7.43245 15.626 7.62842C16.0771 7.81982 16.4736 8.08643 16.8154 8.42822C17.1618 8.77002 17.4307 9.1665 17.6221 9.61768C17.818 10.0643 17.916 10.5428 17.916 11.0532C17.916 11.5591 17.818 12.0376 17.6221 12.4888C17.4307 12.9399 17.1618 13.3364 16.8154 13.6782C16.4736 14.0246 16.0771 14.2957 15.626 14.4917C15.1794 14.6877 14.7008 14.7856 14.1904 14.7856ZM13.3975 12.8306L14.1973 12.0239L14.9766 12.8032C15.1087 12.9354 15.2682 12.9992 15.4551 12.9946C15.6465 12.9946 15.806 12.9285 15.9336 12.7964C16.0658 12.6642 16.1318 12.507 16.1318 12.3247C16.1318 12.1379 16.0658 11.9784 15.9336 11.8462L15.1543 11.0669L15.9609 10.2534C16.0885 10.1258 16.1478 9.97087 16.1387 9.78857C16.1341 9.60173 16.068 9.44222 15.9404 9.31006C15.8128 9.1779 15.6556 9.10954 15.4688 9.10498C15.2819 9.10042 15.1247 9.16423 14.9971 9.29639L14.1904 10.103L13.3975 9.31006C13.2699 9.18245 13.1104 9.11865 12.9189 9.11865C12.7275 9.1141 12.568 9.1779 12.4404 9.31006C12.3128 9.44222 12.249 9.604 12.249 9.79541C12.249 9.98226 12.3128 10.1395 12.4404 10.2671L13.2334 11.0601L12.4268 11.8599C12.2992 11.9829 12.2354 12.1424 12.2354 12.3384C12.2354 12.5343 12.3014 12.6938 12.4336 12.8169C12.5612 12.9399 12.7207 13.0037 12.9121 13.0083C13.1081 13.0174 13.2699 12.9582 13.3975 12.8306Z" fill="#92AD26"/>
</svg>
