<svg width="17" height="18" viewBox="0 0 17 18" fill="none" xmlns="http://www.w3.org/2000/svg">
<path d="M8.60205 1.21191C8.375 1.21191 8.19922 1.03613 8.19922 0.809082C8.19922 0.589355 8.375 0.40625 8.60205 0.40625C8.8291 0.40625 9.00488 0.589355 9.00488 0.809082C9.00488 1.03613 8.8291 1.21191 8.60205 1.21191ZM9.97168 1.33643C9.75195 1.33643 9.56885 1.16064 9.56885 0.933594C9.56885 0.706543 9.75195 0.530762 9.97168 0.530762C10.1987 0.530762 10.3745 0.706543 10.3745 0.933594C10.3745 1.16064 10.1987 1.33643 9.97168 1.33643ZM7.2251 1.33643C7.00537 1.33643 6.82227 1.16064 6.82227 0.933594C6.82227 0.706543 7.00537 0.530762 7.2251 0.530762C7.45215 0.530762 7.62793 0.706543 7.62793 0.933594C7.62793 1.16064 7.45215 1.33643 7.2251 1.33643ZM11.3047 1.68799C11.0776 1.68799 10.8945 1.51221 10.8945 1.28516C10.8945 1.06543 11.0776 0.882324 11.3047 0.882324C11.5244 0.882324 11.7075 1.06543 11.7075 1.28516C11.7075 1.51221 11.5244 1.68799 11.3047 1.68799ZM5.89941 1.68799C5.67969 1.68799 5.49658 1.51221 5.49658 1.28516C5.49658 1.06543 5.67969 0.882324 5.89941 0.882324C6.12646 0.882324 6.30225 1.06543 6.30225 1.28516C6.30225 1.51221 6.12646 1.68799 5.89941 1.68799ZM12.5498 2.28125C12.3228 2.28125 12.147 2.10547 12.147 1.87842C12.147 1.65137 12.3228 1.47559 12.5498 1.47559C12.7769 1.47559 12.9526 1.65137 12.9526 1.87842C12.9526 2.10547 12.7769 2.28125 12.5498 2.28125ZM4.6543 2.28125C4.42725 2.28125 4.25146 2.10547 4.25146 1.87842C4.25146 1.65137 4.42725 1.47559 4.6543 1.47559C4.88135 1.47559 5.05713 1.65137 5.05713 1.87842C5.05713 2.10547 4.88135 2.28125 4.6543 2.28125ZM13.6777 3.06494C13.4507 3.06494 13.2749 2.88916 13.2749 2.66211C13.2749 2.43506 13.4507 2.25928 13.6777 2.25928C13.9048 2.25928 14.0806 2.43506 14.0806 2.66211C14.0806 2.88916 13.9048 3.06494 13.6777 3.06494ZM3.52637 3.06494C3.29932 3.06494 3.12354 2.88916 3.12354 2.66211C3.12354 2.43506 3.29932 2.25928 3.52637 2.25928C3.75342 2.25928 3.9292 2.43506 3.9292 2.66211C3.9292 2.88916 3.75342 3.06494 3.52637 3.06494ZM8.6167 14.7764C5.24756 14.7764 2.55957 12.0884 2.55957 8.71924C2.55957 5.36475 5.25488 2.65479 8.6167 2.65479C11.9565 2.65479 14.6738 5.37939 14.6738 8.71924C14.6738 12.0737 11.9639 14.7764 8.6167 14.7764ZM14.6519 4.04639C14.4248 4.04639 14.249 3.86328 14.249 3.64355C14.249 3.4165 14.4248 3.2334 14.6519 3.2334C14.8789 3.2334 15.0547 3.4165 15.0547 3.64355C15.0547 3.86328 14.8789 4.04639 14.6519 4.04639ZM2.55225 4.04639C2.3252 4.04639 2.14941 3.86328 2.14941 3.64355C2.14941 3.4165 2.3252 3.2334 2.55225 3.2334C2.7793 3.2334 2.95508 3.4165 2.95508 3.64355C2.95508 3.86328 2.7793 4.04639 2.55225 4.04639ZM8.6167 13.9121C11.4951 13.9121 13.8169 11.5977 13.8169 8.71924C13.8169 5.84814 11.4805 3.51904 8.6167 3.51904C5.73828 3.51904 3.4165 5.8335 3.4165 8.71924C3.4165 11.6123 5.71631 13.9121 8.6167 13.9121ZM15.4355 5.17432C15.2158 5.17432 15.0327 4.99854 15.0327 4.77148C15.0327 4.54443 15.2158 4.36865 15.4355 4.36865C15.6626 4.36865 15.8457 4.54443 15.8457 4.77148C15.8457 4.99854 15.6626 5.17432 15.4355 5.17432ZM1.76123 5.17432C1.5415 5.17432 1.3584 4.99854 1.3584 4.77148C1.3584 4.54443 1.5415 4.36865 1.76123 4.36865C1.98828 4.36865 2.16406 4.54443 2.16406 4.77148C2.16406 4.99854 1.98828 5.17432 1.76123 5.17432ZM16.0215 6.41943C15.7944 6.41943 15.6187 6.23633 15.6187 6.0166C15.6187 5.78955 15.7944 5.61377 16.0215 5.61377C16.2485 5.61377 16.4243 5.78955 16.4243 6.0166C16.4243 6.23633 16.2485 6.41943 16.0215 6.41943ZM1.18262 6.41943C0.955566 6.41943 0.779785 6.23633 0.779785 6.0166C0.779785 5.78955 0.955566 5.61377 1.18262 5.61377C1.40967 5.61377 1.58545 5.78955 1.58545 6.0166C1.58545 6.23633 1.40967 6.41943 1.18262 6.41943ZM6.85156 10.6895V6.75635C6.85156 6.34619 7.1665 6.19238 7.55469 6.41211L10.9385 8.3457C11.2827 8.53613 11.2827 8.90967 10.9385 9.10742L7.55469 11.0337C7.15918 11.2534 6.85156 11.0996 6.85156 10.6895ZM0.831055 7.74512C0.604004 7.74512 0.428223 7.56201 0.428223 7.34229C0.428223 7.11523 0.604004 6.93213 0.831055 6.93213C1.05811 6.93213 1.23389 7.11523 1.23389 7.34229C1.23389 7.56201 1.05811 7.74512 0.831055 7.74512ZM16.373 7.74512C16.146 7.74512 15.9702 7.56201 15.9702 7.34229C15.9702 7.11523 16.146 6.93213 16.373 6.93213C16.6001 6.93213 16.7759 7.11523 16.7759 7.34229C16.7759 7.56201 16.6001 7.74512 16.373 7.74512ZM0.713867 9.11475C0.486816 9.11475 0.311035 8.93896 0.311035 8.71191C0.311035 8.48486 0.486816 8.30908 0.713867 8.30908C0.940918 8.30908 1.1167 8.48486 1.1167 8.71191C1.1167 8.93896 0.940918 9.11475 0.713867 9.11475ZM16.4902 9.11475C16.2632 9.11475 16.0874 8.93896 16.0874 8.71191C16.0874 8.48486 16.2632 8.30908 16.4902 8.30908C16.7173 8.30908 16.8931 8.48486 16.8931 8.71191C16.8931 8.93896 16.7173 9.11475 16.4902 9.11475ZM0.831055 10.4844C0.604004 10.4844 0.428223 10.3086 0.428223 10.0815C0.428223 9.85449 0.604004 9.67871 0.831055 9.67871C1.05811 9.67871 1.23389 9.85449 1.23389 10.0815C1.23389 10.3086 1.05811 10.4844 0.831055 10.4844ZM16.373 10.4844C16.146 10.4844 15.9702 10.3086 15.9702 10.0815C15.9702 9.85449 16.146 9.67871 16.373 9.67871C16.6001 9.67871 16.7759 9.85449 16.7759 10.0815C16.7759 10.3086 16.6001 10.4844 16.373 10.4844ZM1.18262 11.8101C0.955566 11.8101 0.779785 11.6343 0.779785 11.4072C0.779785 11.1802 0.955566 11.0044 1.18262 11.0044C1.40967 11.0044 1.58545 11.1802 1.58545 11.4072C1.58545 11.6343 1.40967 11.8101 1.18262 11.8101ZM16.0215 11.8101C15.7944 11.8101 15.6187 11.6343 15.6187 11.4072C15.6187 11.1802 15.7944 11.0044 16.0215 11.0044C16.2485 11.0044 16.4243 11.1802 16.4243 11.4072C16.4243 11.6343 16.2485 11.8101 16.0215 11.8101ZM1.76123 13.0552C1.5415 13.0552 1.3584 12.8794 1.3584 12.6523C1.3584 12.4253 1.5415 12.2495 1.76123 12.2495C1.98828 12.2495 2.16406 12.4253 2.16406 12.6523C2.16406 12.8794 1.98828 13.0552 1.76123 13.0552ZM15.4355 13.0552C15.2158 13.0552 15.0327 12.8794 15.0327 12.6523C15.0327 12.4253 15.2158 12.2495 15.4355 12.2495C15.6626 12.2495 15.8457 12.4253 15.8457 12.6523C15.8457 12.8794 15.6626 13.0552 15.4355 13.0552ZM2.55225 14.1831C2.3252 14.1831 2.14941 14.0073 2.14941 13.7803C2.14941 13.5532 2.3252 13.3774 2.55225 13.3774C2.7793 13.3774 2.95508 13.5532 2.95508 13.7803C2.95508 14.0073 2.7793 14.1831 2.55225 14.1831ZM14.6519 14.1831C14.4248 14.1831 14.249 14.0073 14.249 13.7803C14.249 13.5532 14.4248 13.3774 14.6519 13.3774C14.8789 13.3774 15.0547 13.5532 15.0547 13.7803C15.0547 14.0073 14.8789 14.1831 14.6519 14.1831ZM3.52637 15.1646C3.29932 15.1646 3.12354 14.9888 3.12354 14.7617C3.12354 14.5347 3.29932 14.3589 3.52637 14.3589C3.75342 14.3589 3.9292 14.5347 3.9292 14.7617C3.9292 14.9888 3.75342 15.1646 3.52637 15.1646ZM13.6777 15.1646C13.4507 15.1646 13.2749 14.9888 13.2749 14.7617C13.2749 14.5347 13.4507 14.3589 13.6777 14.3589C13.9048 14.3589 14.0806 14.5347 14.0806 14.7617C14.0806 14.9888 13.9048 15.1646 13.6777 15.1646ZM12.5498 15.9482C12.3228 15.9482 12.147 15.7725 12.147 15.5454C12.147 15.3184 12.3228 15.1426 12.5498 15.1426C12.7769 15.1426 12.9526 15.3184 12.9526 15.5454C12.9526 15.7725 12.7769 15.9482 12.5498 15.9482ZM4.6543 15.9482C4.42725 15.9482 4.25146 15.7725 4.25146 15.5454C4.25146 15.3184 4.42725 15.1426 4.6543 15.1426C4.88135 15.1426 5.05713 15.3184 5.05713 15.5454C5.05713 15.7725 4.88135 15.9482 4.6543 15.9482ZM11.3047 16.5342C11.0776 16.5342 10.8945 16.3584 10.8945 16.1313C10.8945 15.9116 11.0776 15.7285 11.3047 15.7285C11.5244 15.7285 11.7075 15.9116 11.7075 16.1313C11.7075 16.3584 11.5244 16.5342 11.3047 16.5342ZM5.89941 16.5342C5.67969 16.5342 5.49658 16.3584 5.49658 16.1313C5.49658 15.9116 5.67969 15.7285 5.89941 15.7285C6.12646 15.7285 6.30225 15.9116 6.30225 16.1313C6.30225 16.3584 6.12646 16.5342 5.89941 16.5342ZM7.2251 16.8931C7.00537 16.8931 6.82227 16.71 6.82227 16.4902C6.82227 16.2632 7.00537 16.0874 7.2251 16.0874C7.45215 16.0874 7.62793 16.2632 7.62793 16.4902C7.62793 16.71 7.45215 16.8931 7.2251 16.8931ZM9.97168 16.8931C9.75195 16.8931 9.56885 16.71 9.56885 16.4902C9.56885 16.2632 9.75195 16.0874 9.97168 16.0874C10.1987 16.0874 10.3745 16.2632 10.3745 16.4902C10.3745 16.71 10.1987 16.8931 9.97168 16.8931ZM8.60205 17.0103C8.375 17.0103 8.19922 16.8345 8.19922 16.6074C8.19922 16.3804 8.375 16.2046 8.60205 16.2046C8.8291 16.2046 9.00488 16.3804 9.00488 16.6074C9.00488 16.8345 8.8291 17.0103 8.60205 17.0103Z" fill="#7A0FD9"/>
</svg>
