<svg width="16" height="16" viewBox="0 0 16 16" fill="none" xmlns="http://www.w3.org/2000/svg">
<path d="M7.9502 15.7656C3.76074 15.7656 0.311035 12.3086 0.311035 8.12646C0.311035 3.93701 3.76074 0.47998 7.94287 0.47998C12.1323 0.47998 15.5894 3.93701 15.5894 8.12646C15.5894 12.3086 12.1396 15.7656 7.9502 15.7656ZM4.68359 11.8472C5.72363 12.8652 7.1958 12.8579 8.22119 11.8325L11.2021 8.85889C11.3779 8.69043 11.3779 8.37549 11.2021 8.21436C11.019 8.0459 10.7261 8.0459 10.5503 8.22168L7.61328 11.1587C6.93213 11.8398 5.99463 11.8325 5.3501 11.1953C4.69824 10.5508 4.69824 9.61328 5.38672 8.9248L9.41504 4.89648C9.8252 4.48633 10.4185 4.43506 10.792 4.80859C11.1875 5.19678 11.1216 5.76807 10.7114 6.18555L6.73438 10.1553C6.60986 10.2798 6.47803 10.2798 6.36816 10.1699C6.2583 10.0747 6.2583 9.92822 6.38281 9.80371L9.14404 7.03516C9.33447 6.84473 9.34912 6.58838 9.15869 6.40527C8.97559 6.22949 8.71191 6.23682 8.52881 6.4126L5.76025 9.1958C5.2915 9.65723 5.2915 10.3823 5.72363 10.8291C6.17041 11.2905 6.86621 11.2686 7.34229 10.7925L11.334 6.79346C12.1396 5.99512 12.1543 4.91846 11.4146 4.17871C10.6602 3.43896 9.57617 3.43896 8.77051 4.2373L4.71289 8.30957C3.68018 9.34229 3.69482 10.8657 4.68359 11.8472Z" fill="#433A4B"/>
</svg>
