<svg width="18" height="16" viewBox="0 0 18 16" fill="none" xmlns="http://www.w3.org/2000/svg">
<path d="M1.41162 6.1665H2.43701C3.16211 2.70947 6.26025 0.0727539 9.91504 0.0727539C14.1045 0.0727539 17.5542 3.52979 17.5542 7.71191C17.5542 11.9014 14.1045 15.3511 9.91504 15.3511C7.60791 15.3511 5.35938 14.2012 4.03369 12.5093C3.66016 12.0625 3.71143 11.5425 4.07764 11.2642C4.47314 10.9565 4.96387 11.0737 5.30811 11.4473C6.39941 12.8169 8.04004 13.6665 9.91504 13.6738C13.2183 13.6885 15.877 11.0151 15.877 7.71191C15.877 4.40869 13.2183 1.75732 9.91504 1.75732C7.14648 1.75732 4.83203 3.61768 4.1582 6.1665H5.21289C5.80615 6.1665 5.95996 6.6499 5.6377 7.08936L3.7627 9.66016C3.51367 9.98975 3.11084 9.99707 2.86182 9.66016L0.979492 7.09668C0.649902 6.6499 0.803711 6.1665 1.41162 6.1665ZM9.5415 3.33936C9.92236 3.33936 10.2373 3.64697 10.2373 4.02783V7.90967L11.9658 10.2534C12.2222 10.6123 12.2002 11.0298 11.8706 11.2568C11.5117 11.4985 11.1162 11.4326 10.8232 11.0518L9.05078 8.70801C8.9043 8.5249 8.85303 8.35645 8.85303 8.18066V4.02783C8.85303 3.64697 9.16064 3.33936 9.5415 3.33936Z" fill="#2974D9"/>
</svg>
