<svg width="16" height="15" viewBox="0 0 16 15" fill="none" xmlns="http://www.w3.org/2000/svg">
<path d="M8.18848 14.936C4.08008 14.936 0.723633 11.5864 0.723633 7.47119C0.723633 3.35596 4.08008 0.00634766 8.18848 0.00634766C12.3037 0.00634766 15.6602 3.35596 15.6602 7.47119C15.6602 11.5864 12.3037 14.936 8.18848 14.936ZM7.44336 10.9917C7.80566 10.9917 8.13379 10.7935 8.35254 10.4927L11.4834 5.85791C11.6406 5.63916 11.6953 5.42725 11.6953 5.23584C11.6953 4.70947 11.2305 4.31299 10.7041 4.31299C10.3486 4.31299 10.082 4.49756 9.84961 4.85986L7.44336 8.64014L6.44531 7.50537C6.24707 7.27979 6.02148 7.15674 5.7207 7.15674C5.19434 7.15674 4.75 7.57373 4.75 8.10693C4.75 8.35303 4.81836 8.54443 5.03027 8.79053L6.52051 10.52C6.77344 10.8071 7.07422 10.9917 7.44336 10.9917Z" fill="#92AD26"/>
</svg>
