<svg width="16" height="15" viewBox="0 0 16 15" fill="none" xmlns="http://www.w3.org/2000/svg">
<path d="M7.68848 14.936C3.58008 14.936 0.223633 11.5864 0.223633 7.47119C0.223633 3.35596 3.58008 0.00634766 7.68848 0.00634766C11.8037 0.00634766 15.1602 3.35596 15.1602 7.47119C15.1602 11.5864 11.8037 14.936 7.68848 14.936ZM5.68555 10.4653C5.99316 10.4653 6.23242 10.3696 6.4375 10.1646L7.68848 8.92041L8.95312 10.1646C9.1582 10.3696 9.39746 10.4653 9.70508 10.4653C10.2725 10.4653 10.7031 10.0278 10.7031 9.45361C10.7031 9.20752 10.5938 8.95459 10.4023 8.77002L9.13086 7.47803L10.4023 6.19287C10.6006 6.00146 10.7031 5.74854 10.7031 5.50244C10.7031 4.92822 10.2725 4.49756 9.70508 4.49756C9.39746 4.49756 9.1582 4.59326 8.95996 4.7915L7.68848 6.04932L6.43066 4.7915C6.23242 4.59326 5.99316 4.49756 5.68555 4.49756C5.11816 4.49756 4.6875 4.92822 4.6875 5.50244C4.6875 5.75537 4.79688 6.0083 4.98828 6.19287L6.2666 7.47803L4.98828 8.77002C4.79688 8.95459 4.6875 9.20752 4.6875 9.45361C4.6875 10.0278 5.11816 10.4653 5.68555 10.4653Z" fill="#95909A"/>
</svg>
