<svg width="26" height="23" viewBox="0 0 26 23" fill="none" xmlns="http://www.w3.org/2000/svg">
<path d="M20.3398 12.498C18.8545 12.6475 17.5186 13.377 16.6045 14.4492V3.49805C16.6045 2.96191 16.9473 2.63672 17.4922 2.63672H19.4521C19.9971 2.63672 20.3398 2.96191 20.3398 3.49805V12.498ZM11.8057 15.0469V5.98535C11.8057 5.44922 12.1396 5.11523 12.6934 5.11523H14.6533C15.1982 5.11523 15.541 5.44922 15.541 5.98535V15.0469C15.541 15.5918 15.1982 15.917 14.6533 15.917H12.6934C12.1396 15.917 11.8057 15.5918 11.8057 15.0469ZM7.00684 15.0469V8.48145C7.00684 7.9541 7.34961 7.62012 7.89453 7.62012H9.85449C10.3994 7.62012 10.751 7.9541 10.751 8.48145V15.0469C10.751 15.5918 10.3994 15.917 9.85449 15.917H7.89453C7.34961 15.917 7.00684 15.5918 7.00684 15.0469ZM2.20801 15.0469V10.9688C2.20801 10.4326 2.55078 10.0986 3.0957 10.0986H5.06445C5.60059 10.0986 5.94336 10.4326 5.94336 10.9688V15.0469C5.94336 15.5918 5.60059 15.917 5.06445 15.917H3.0957C2.55078 15.917 2.20801 15.5918 2.20801 15.0469ZM20.8936 22.7637C18.415 22.7637 16.3672 20.7246 16.3672 18.2373C16.3672 15.7588 18.415 13.7109 20.8936 13.7109C23.3721 13.7109 25.4199 15.7588 25.4199 18.2373C25.4199 20.707 23.3545 22.7637 20.8936 22.7637ZM18.8018 18.9844H20.9463C21.2891 18.9844 21.5615 18.7119 21.5615 18.3691V15.6973C21.5615 15.3633 21.2891 15.0996 20.9463 15.0996C20.6035 15.0996 20.3311 15.3633 20.3311 15.6973V17.7627H18.8018C18.4678 17.7627 18.1865 18.0352 18.1865 18.3691C18.1865 18.7119 18.459 18.9844 18.8018 18.9844ZM2.10254 19.0898C1.62793 19.0898 1.24121 18.7207 1.24121 18.2373C1.24121 17.7539 1.62793 17.3848 2.10254 17.3848H15.1895C15.1455 17.666 15.1191 17.9473 15.1191 18.2373C15.1191 18.5273 15.1455 18.8086 15.1895 19.0898H2.10254Z" fill="#7A0FD9"/>
</svg>
