<svg width="14" height="12" viewBox="0 0 14 12" fill="none" xmlns="http://www.w3.org/2000/svg">
<path d="M9.83228 10.6934C10.491 10.6934 11.0249 10.1594 11.0249 9.50075C11.0249 8.84207 10.491 8.30811 9.83228 8.30811C9.17361 8.30811 8.63965 8.84207 8.63965 9.50075C8.63965 10.1594 9.17361 10.6934 9.83228 10.6934Z" stroke="#602FED" stroke-linecap="round" stroke-linejoin="round"/>
<path d="M3.87135 10.6934C4.53002 10.6934 5.06398 10.1594 5.06398 9.50075C5.06398 8.84207 4.53002 8.30811 3.87135 8.30811C3.21267 8.30811 2.67871 8.84207 2.67871 9.50075C2.67871 10.1594 3.21267 10.6934 3.87135 10.6934Z" stroke="#602FED" stroke-linecap="round" stroke-linejoin="round"/>
<path d="M6.25684 8.90608H8.6421M7.74763 2.94287H8.30996C9.09113 2.94287 9.48232 2.94287 9.81327 3.13071C10.1448 3.31796 10.3655 3.66442 10.8073 4.35675C11.1174 4.84215 11.4418 5.19517 11.8992 5.50824C12.3595 5.82429 12.579 5.97874 12.7 6.22621C12.8163 6.46355 12.8163 6.74442 12.8163 7.30615C12.8163 8.04738 12.8163 8.41769 12.6082 8.65324L12.5808 8.68246C12.3619 8.90608 12.0167 8.90608 11.3273 8.90608H11.0274" stroke="#602FED" stroke-linecap="round" stroke-linejoin="round"/>
<path d="M7.44914 2.94277L8.04188 4.42522C8.33228 5.15095 8.47719 5.51411 8.78071 5.71924C9.08364 5.92437 9.47423 5.92437 10.2566 5.92437H12.2197M7.44914 2.94277C7.44914 2.09898 7.44914 1.67738 7.19868 1.41619C6.94823 1.15381 6.54452 1.15381 5.73771 1.15381H2.60108C1.79426 1.15381 1.39055 1.1544 1.1401 1.41619C0.889648 1.67797 0.889648 2.09957 0.889648 2.94277V7.11702C0.889648 7.96081 0.889648 8.38241 1.1401 8.6436C1.39055 8.90598 1.79426 8.90598 2.60108 8.90598M7.44914 2.94277V8.90598H4.88259" stroke="#602FED" stroke-linecap="round" stroke-linejoin="round"/>
</svg>
