<svg width="18" height="15" viewBox="0 0 18 15" fill="none" xmlns="http://www.w3.org/2000/svg">
<path d="M13.2246 14C14.1221 14 14.8496 13.2725 14.8496 12.375C14.8496 11.4775 14.1221 10.75 13.2246 10.75C12.3271 10.75 11.5996 11.4775 11.5996 12.375C11.5996 13.2725 12.3271 14 13.2246 14Z" stroke="url(#paint0_linear_18523_35834)" stroke-width="1.3" stroke-linecap="round" stroke-linejoin="round"/>
<path d="M5.09961 14C5.99707 14 6.72461 13.2725 6.72461 12.375C6.72461 11.4775 5.99707 10.75 5.09961 10.75C4.20215 10.75 3.47461 11.4775 3.47461 12.375C3.47461 13.2725 4.20215 14 5.09961 14Z" stroke="url(#paint1_linear_18523_35834)" stroke-width="1.3" stroke-linecap="round" stroke-linejoin="round"/>
<path d="M8.34961 11.5625H11.5996M10.3809 3.4375H11.147C12.2114 3.4375 12.7444 3.4375 13.1954 3.69344C13.6471 3.94856 13.9477 4.42063 14.5498 5.36394C14.9723 6.02531 15.4143 6.50631 16.0375 6.93288C16.6647 7.3635 16.9637 7.57394 17.1287 7.91112C17.2871 8.2345 17.2871 8.61719 17.2871 9.38256C17.2871 10.3925 17.2871 10.8971 17.0035 11.218L16.9662 11.2578C16.668 11.5625 16.1975 11.5625 15.2583 11.5625H14.8496" stroke="url(#paint2_linear_18523_35834)" stroke-width="1.3" stroke-linecap="round" stroke-linejoin="round"/>
<path d="M9.97461 3.4375L10.7822 5.45737C11.1779 6.44619 11.3754 6.941 11.7889 7.2205C12.2017 7.5 12.7339 7.5 13.7999 7.5H16.4746M9.97461 3.4375C9.97461 2.28781 9.97461 1.71337 9.63336 1.3575C9.29211 1 8.74205 1 7.64273 1H3.36898C2.26967 1 1.71961 1.00081 1.37836 1.3575C1.03711 1.71419 1.03711 2.28862 1.03711 3.4375V9.125C1.03711 10.2747 1.03711 10.8491 1.37836 11.205C1.71961 11.5625 2.26967 11.5625 3.36898 11.5625M9.97461 3.4375V11.5625H6.47761" stroke="url(#paint3_linear_18523_35834)" stroke-width="1.3" stroke-linecap="round" stroke-linejoin="round"/>
<defs>
<linearGradient id="paint0_linear_18523_35834" x1="14.8283" y1="14" x2="10.9469" y2="12.219" gradientUnits="userSpaceOnUse">
<stop stop-color="#7A0FD9"/>
<stop offset="1" stop-color="#695CF8"/>
</linearGradient>
<linearGradient id="paint1_linear_18523_35834" x1="6.70326" y1="14" x2="2.8219" y2="12.219" gradientUnits="userSpaceOnUse">
<stop stop-color="#7A0FD9"/>
<stop offset="1" stop-color="#695CF8"/>
</linearGradient>
<linearGradient id="paint2_linear_18523_35834" x1="17.2284" y1="11.5625" x2="6.93079" y2="6.36474" gradientUnits="userSpaceOnUse">
<stop stop-color="#7A0FD9"/>
<stop offset="1" stop-color="#695CF8"/>
</linearGradient>
<linearGradient id="paint3_linear_18523_35834" x1="16.3732" y1="11.5625" x2="0.978773" y2="1.2382" gradientUnits="userSpaceOnUse">
<stop stop-color="#7A0FD9"/>
<stop offset="1" stop-color="#695CF8"/>
</linearGradient>
</defs>
</svg>
