<svg width="20" height="20" viewBox="0 0 20 20" fill="none" xmlns="http://www.w3.org/2000/svg">
<g clip-path="url(#clip0_17220_20183)">
<path fill-rule="evenodd" clip-rule="evenodd" d="M2.08627 19.886V13.0683C2.08627 12.476 2.46445 11.9715 2.99309 11.7828L2.99355 3.52282C2.99355 2.77054 3.60491 2.15918 4.35764 2.15918L17.0854 2.15963C17.8376 2.15963 18.449 2.771 18.449 3.52373L18.4485 11.7833C18.9763 11.971 19.3554 12.476 19.3554 13.0683V16.6442C19.3576 16.6637 19.3595 16.6837 19.3595 16.7037L19.3599 17.6124C19.3599 17.6487 19.3581 17.6851 19.3558 17.7201V19.886C19.3558 20.6387 18.7445 21.2501 17.9917 21.2501L16.1731 21.2496C15.4208 21.2496 14.8095 20.6383 14.8095 19.8855L14.8099 18.9769H6.63491L6.63309 19.8855C6.63309 20.6383 6.02173 21.2496 5.26946 21.2496L3.45082 21.2501C2.69809 21.2501 2.08627 20.6387 2.08627 19.886ZM2.08627 17.6133C2.08627 17.5824 2.08946 17.5515 2.08627 17.6133V17.6133Z" fill="#433A4B"/>
<path fill-rule="evenodd" clip-rule="evenodd" d="M3.4481 2.61365V15.7955H17.9949L17.9954 2.6141C17.9954 2.11228 17.5877 1.70456 17.0858 1.70456L4.3581 1.7041C3.85629 1.7041 3.4481 2.11183 3.4481 2.61365Z" fill="white"/>
<path fill-rule="evenodd" clip-rule="evenodd" d="M2.99355 15.7955V2.61364C2.99355 1.86136 3.60491 1.25 4.35764 1.25L17.0854 1.25045C17.8376 1.25045 18.449 1.86182 18.449 2.61455L18.4485 15.7959C18.4485 16.0464 18.2449 16.25 17.9945 16.25H3.44809C3.19718 16.25 2.99355 16.0464 2.99355 15.7955ZM17.5404 15.3418L17.5408 2.61455C17.5408 2.36364 17.3367 2.15955 17.0849 2.15955L4.35718 2.15864C4.10627 2.15864 3.90218 2.36273 3.90218 2.61364V15.3414L17.5404 15.3418Z" fill="#433A4B"/>
<path fill-rule="evenodd" clip-rule="evenodd" d="M18.9008 15.7948H2.54083V12.1589C2.54083 11.6571 2.94856 11.2494 3.45038 11.2494C4.14856 11.2494 5.16129 10.6353 5.26811 9.88574L5.72265 6.70392C5.9731 4.94983 8.40992 4.88574 10.719 4.88574C13.0281 4.88574 15.4686 4.94892 15.719 6.70392L16.1736 9.88574C16.2804 10.6353 17.2931 11.2494 17.9913 11.2494C18.4931 11.2494 18.9008 11.6571 18.9008 12.1589V15.7948Z" fill="white"/>
<path fill-rule="evenodd" clip-rule="evenodd" d="M2.54083 18.9768V16.7041H6.17856L6.17901 18.9764C6.17901 19.4782 5.77129 19.8859 5.26947 19.8859L3.45083 19.8864C2.94901 19.8864 2.54083 19.4786 2.54083 18.9768Z" fill="#433A4B"/>
<path fill-rule="evenodd" clip-rule="evenodd" d="M2.08627 18.9768V16.7041C2.08627 16.4536 2.28991 16.25 2.54082 16.25H6.17855C6.429 16.25 6.63264 16.4536 6.63264 16.7041L6.63309 18.9764C6.63309 19.7291 6.02173 20.3405 5.26945 20.3405L3.45082 20.3409C2.69809 20.3409 2.08627 19.7295 2.08627 18.9768ZM3.44991 19.4327L5.26855 19.4323C5.51991 19.4323 5.72445 19.2282 5.72445 18.9773L5.724 17.1591H2.99491V18.9773C2.99491 19.2282 3.199 19.4327 3.44991 19.4327Z" fill="#433A4B"/>
<path fill-rule="evenodd" clip-rule="evenodd" d="M18.9022 18.9768V16.7041H15.2645L15.264 18.9764C15.264 19.4782 15.6717 19.8859 16.1736 19.8859L17.9922 19.8864C18.4945 19.8864 18.9022 19.4786 18.9022 18.9768Z" fill="#433A4B"/>
<path fill-rule="evenodd" clip-rule="evenodd" d="M17.9917 20.3409L16.1731 20.3405C15.4208 20.3405 14.8095 19.7291 14.8095 18.9764L14.8099 16.7041C14.8099 16.4536 15.0136 16.25 15.2645 16.25H18.9022C19.1526 16.25 19.3563 16.4536 19.3563 16.7041V18.9768C19.3563 19.7295 18.7445 20.3409 17.9917 20.3409ZM18.4476 18.9768V17.1586H15.7186L15.7181 18.9768C15.7181 19.2277 15.9222 19.4318 16.174 19.4318L17.9926 19.4323C18.2436 19.4327 18.4476 19.2282 18.4476 18.9768Z" fill="#433A4B"/>
<path fill-rule="evenodd" clip-rule="evenodd" d="M2.54083 16.703V15.7939H18.9058L18.9063 16.7026C18.9063 17.2044 18.4986 17.6121 17.9967 17.6121L3.45083 17.6126C2.94901 17.6126 2.54083 17.2049 2.54083 16.703Z" fill="white"/>
<path fill-rule="evenodd" clip-rule="evenodd" d="M2.08627 16.703V15.7939C2.08627 15.5435 2.28991 15.3398 2.54082 15.3398H18.9058C19.1563 15.3398 19.3599 15.543 19.3599 15.7939L19.3604 16.7026C19.3604 17.4553 18.749 18.0667 17.9967 18.0667L3.45082 18.0671C2.69809 18.0671 2.08627 17.4558 2.08627 16.703ZM3.44991 17.1585L17.9958 17.158C18.2472 17.158 18.4517 16.9539 18.4517 16.703L18.4513 16.2485H2.99491V16.703C2.99491 16.9544 3.199 17.1585 3.44991 17.1585Z" fill="#433A4B"/>
<path fill-rule="evenodd" clip-rule="evenodd" d="M7.99356 13.0672V11.249H13.4495L13.4499 13.0668C13.4499 13.5686 13.0422 13.9763 12.5404 13.9763L8.90356 13.9768C8.40174 13.9768 7.99356 13.569 7.99356 13.0672Z" fill="white"/>
<path fill-rule="evenodd" clip-rule="evenodd" d="M7.53902 13.0682V11.25C7.53902 10.9995 7.74265 10.7959 7.99356 10.7959H13.4495C13.6999 10.7959 13.9036 10.9995 13.9036 11.25L13.904 13.0677C13.904 13.8204 13.2927 14.4318 12.5404 14.4318L8.90356 14.4323C8.15083 14.4323 7.53902 13.8209 7.53902 13.0682ZM8.90265 13.5236L12.5395 13.5232C12.7908 13.5232 12.9954 13.3191 12.9954 13.0682L12.9949 11.7045H8.44765V13.0682C8.44765 13.3195 8.65174 13.5236 8.90265 13.5236Z" fill="#433A4B"/>
<path d="M5.04083 14.4319H6.17719V13.2955C6.17719 12.6678 5.66856 12.1592 5.04083 12.1592C4.4131 12.1592 3.90446 12.6678 3.90446 13.2955C3.90446 13.9233 4.4131 14.4319 5.04083 14.4319Z" fill="#433A4B"/>
<path fill-rule="evenodd" clip-rule="evenodd" d="M2.08627 15.7943V12.1584C2.08627 11.4057 2.69718 10.7943 3.45036 10.7943C3.99718 10.7943 4.75218 10.2834 4.81764 9.82157L5.27218 6.6393C5.43536 5.49703 6.33627 4.94975 7.33718 4.69612C8.33036 4.44475 9.57582 4.43066 10.719 4.43066C11.8613 4.43066 13.1076 4.44385 14.1022 4.69566C15.1113 4.95066 16.0045 5.49021 16.169 6.63975L16.6235 9.82157C16.6885 10.2757 17.4504 10.7943 17.9913 10.7943C18.744 10.7943 19.3554 11.4057 19.3554 12.1584V15.7943C19.3554 16.0452 19.1513 16.2488 18.9008 16.2488C18.6499 16.2488 18.4463 16.0452 18.4463 15.7943V12.1584C18.4463 11.9079 18.2413 11.7034 17.9913 11.7034C17.144 11.7034 15.8713 10.987 15.7235 9.9493L15.269 6.76748C15.1131 5.67657 13.8249 5.33975 10.7195 5.33975C7.63627 5.33975 6.329 5.67066 6.17264 6.76839L5.71809 9.94975C5.56945 10.9948 4.30491 11.7038 3.45082 11.7038C3.19991 11.7038 2.99582 11.9088 2.99582 12.1588V15.7948C2.99582 16.0457 2.79173 16.2493 2.54127 16.2493C2.28991 16.2488 2.08627 16.0452 2.08627 15.7943Z" fill="#433A4B"/>
<path d="M16.3999 14.4319H15.2635V13.2955C15.2635 12.6678 15.7722 12.1592 16.3999 12.1592C17.0276 12.1592 17.5363 12.6678 17.5363 13.2955C17.5363 13.9233 17.0276 14.4319 16.3999 14.4319Z" fill="#433A4B"/>
<path fill-rule="evenodd" clip-rule="evenodd" d="M5.26811 9.43111C5.26811 9.18065 5.47175 8.97656 5.72266 8.97656H15.7227C15.9731 8.97656 16.1772 9.18065 16.1772 9.43111C16.1772 9.68202 15.9731 9.88565 15.7227 9.88565H5.72266C5.47175 9.88565 5.26811 9.68202 5.26811 9.43111Z" fill="#433A4B"/>
<path fill-rule="evenodd" clip-rule="evenodd" d="M2.08583 7.15909V8.97682C2.08583 9.47864 2.4931 9.88591 2.99492 9.88591H3.44992C3.95174 9.88591 4.35901 9.47864 4.35901 8.97682V7.15909C4.35901 6.65727 3.95174 6.25 3.44992 6.25H2.99492C2.4931 6.25 2.08583 6.65727 2.08583 7.15909Z" fill="#433A4B"/>
<path fill-rule="evenodd" clip-rule="evenodd" d="M19.3536 7.15909V8.97682C19.3536 9.47864 18.9463 9.88591 18.4445 9.88591H17.9895C17.4877 9.88591 17.0804 9.47864 17.0804 8.97682V7.15909C17.0804 6.65727 17.4877 6.25 17.9895 6.25H18.4445C18.9463 6.25 19.3536 6.65727 19.3536 7.15909Z" fill="#433A4B"/>
</g>
<defs>
<clipPath id="clip0_17220_20183">
<rect width="20" height="20" fill="white"/>
</clipPath>
</defs>
</svg>
