<svg width="10" height="15" viewBox="0 0 10 15" fill="none" xmlns="http://www.w3.org/2000/svg">
<path d="M0.9375 7.35938C0.9375 7.67969 1.05469 7.94531 1.3125 8.19531L7.32812 14.0781C7.52344 14.2812 7.77344 14.3828 8.0625 14.3828C8.64844 14.3828 9.11719 13.9141 9.11719 13.3281C9.11719 13.0312 9 12.7734 8.78906 12.5625L3.44531 7.35156L8.78906 2.15625C9 1.94531 9.11719 1.67969 9.11719 1.39062C9.11719 0.804688 8.64844 0.34375 8.0625 0.34375C7.76562 0.34375 7.52344 0.4375 7.32812 0.640625L1.3125 6.52344C1.05469 6.77344 0.945312 7.03906 0.9375 7.35938Z" fill="#8E66FE"/>
</svg>
