<svg width="20" height="20" viewBox="0 0 20 20" fill="none" xmlns="http://www.w3.org/2000/svg">
<path d="M16.7925 4.39623H3.20755C1.98491 4.39623 1 5.38113 1 6.60377V12.0377V12.8868V16.7925C1 18.0151 1.98491 19 3.20755 19H16.7925C18.0151 19 19 18.0151 19 16.7925V12.8868V12.0377V6.60377C19 5.38113 18.0151 4.39623 16.7925 4.39623ZM17.7094 10.5094C15.2811 11.7321 12.6491 12.3604 10 12.3604C7.35094 12.3604 4.71887 11.7321 2.29057 10.5094C2.12075 10.4245 2.01887 10.2547 2.01887 10.0509C2.01887 9.67736 2.42642 9.42264 2.76604 9.60943C7.31698 11.9189 12.683 11.9189 17.234 9.60943C17.5736 9.43962 17.9811 9.67736 17.9811 10.0509C17.9811 10.2377 17.8792 10.4245 17.7094 10.5094ZM13.0566 3.71698C12.7679 3.71698 12.5472 3.49623 12.5472 3.20755C12.5472 2.54528 12.0208 2.01887 11.3585 2.01887H8.64151C7.97925 2.01887 7.45283 2.54528 7.45283 3.20755C7.45283 3.49623 7.23208 3.71698 6.9434 3.71698C6.65472 3.71698 6.43396 3.49623 6.43396 3.20755C6.43396 1.98491 7.41887 1 8.64151 1H11.3585C12.5811 1 13.566 1.98491 13.566 3.20755C13.566 3.49623 13.3453 3.71698 13.0566 3.71698Z" fill="#12081B"/>
</svg>
