<svg width="21" height="22" viewBox="0 0 21 22" fill="none" xmlns="http://www.w3.org/2000/svg">
<path d="M0.904297 16.1641C0.904297 15.0801 1.82227 14.1816 2.73047 13.332C3.45312 12.668 3.60938 11.3496 3.77539 9.83594C3.95117 6.25195 5.07422 3.79102 7.59375 2.88281C7.99414 1.56445 9.10742 0.597656 10.5723 0.597656C12.0371 0.597656 13.1504 1.56445 13.5508 2.88281C16.0703 3.79102 17.1934 6.25195 17.3691 9.83594C17.5352 11.3496 17.6914 12.668 18.4141 13.332C19.3223 14.1816 20.2402 15.0801 20.2402 16.1641C20.2402 17.0723 19.5762 17.6875 18.4922 17.6875H14.5566C14.4688 19.5527 12.9062 21.291 10.5723 21.291C8.23828 21.291 6.67578 19.543 6.58789 17.6875H2.65234C1.56836 17.6875 0.904297 17.0723 0.904297 16.1641ZM3.56055 15.6562H17.5449V15.5488C17.2324 15.2754 16.7148 14.7871 16.2559 14.25C15.6211 13.4883 15.3086 11.9746 15.1914 10.1582C15.0547 6.42773 13.8828 5.12891 12.3789 4.72852C12.1445 4.66992 12.0078 4.55273 11.9883 4.2793C11.9297 3.30273 11.4023 2.66797 10.5723 2.66797C9.74219 2.66797 9.21484 3.30273 9.15625 4.2793C9.13672 4.55273 9 4.66992 8.76562 4.72852C7.26172 5.12891 6.08984 6.42773 5.94336 10.1582C5.83594 11.9746 5.5332 13.4883 4.88867 14.25C4.42969 14.7871 3.87305 15.2754 3.56055 15.5488V15.6562ZM8.67773 17.6875C8.74609 18.8398 9.51758 19.582 10.5723 19.582C11.627 19.582 12.3984 18.8398 12.4668 17.6875H8.67773Z" fill="#FAF6FD"/>
</svg>
