<svg width="25" height="26" viewBox="0 0 25 26" fill="none" xmlns="http://www.w3.org/2000/svg">
<g clip-path="url(#clip0_9697_68699)">
<path d="M9.4482 22.9266C9.70391 24.4178 10.9872 25.5 12.4995 25.5C14.0122 25.5 15.2958 24.4178 15.5515 22.9266L15.5671 22.8358H9.43257L9.4482 22.9266Z" fill="#B6B5B5"/>
<path d="M22.9386 18.6631C22.6883 18.4127 22.4332 18.201 22.1865 17.996C21.1488 17.1343 20.2525 16.3902 20.2525 13.3003V10.8495C20.2525 7.24556 17.7204 4.08325 14.2169 3.29038C14.3573 3.01499 14.4285 2.72554 14.4285 2.42832C14.4285 1.36514 13.5633 0.5 12.4998 0.5C11.4365 0.5 10.5714 1.36514 10.5714 2.42832C10.5714 2.72573 10.6425 3.01514 10.7831 3.29038C7.27939 4.08325 4.74741 7.24556 4.74741 10.8495V13.3003C4.74741 16.3902 3.85112 17.1344 2.81342 17.996C2.56674 18.2009 2.31167 18.4127 2.06137 18.6631L2.03862 18.6858V21.1174H22.9613V18.6858L22.9386 18.6631Z" fill="#B6B5B5"/>
</g>
<defs>
<clipPath id="clip0_9697_68699">
<rect width="25" height="25" fill="white" transform="translate(0 0.5)"/>
</clipPath>
</defs>
</svg>
