<svg width="28" height="29" viewBox="0 0 28 29" fill="none" xmlns="http://www.w3.org/2000/svg">
<path opacity="0.26" d="M24.5002 8.66671V20.3334C24.5002 23.8334 22.7502 26.1667 18.6669 26.1667H9.33358C5.25024 26.1667 3.50024 23.8334 3.50024 20.3334V8.66671C3.50024 5.16671 5.25024 2.83337 9.33358 2.83337H18.6669C22.7502 2.83337 24.5002 5.16671 24.5002 8.66671Z" fill="#0970FF"/>
<path d="M18.0834 2.83337V12.0034C18.0834 12.5167 17.4767 12.7734 17.1034 12.4351L14.3968 9.93837C14.1751 9.72837 13.8251 9.72837 13.6034 9.93837L10.8968 12.4351C10.5234 12.7851 9.91675 12.5167 9.91675 12.0034V2.83337H18.0834Z" fill="#0970FF"/>
<path d="M20.4168 17.7084H15.4585C14.9802 17.7084 14.5835 17.3117 14.5835 16.8334C14.5835 16.355 14.9802 15.9584 15.4585 15.9584H20.4168C20.8952 15.9584 21.2918 16.355 21.2918 16.8334C21.2918 17.3117 20.8952 17.7084 20.4168 17.7084Z" fill="#0970FF"/>
<path d="M20.4169 22.375H10.5002C10.0219 22.375 9.62524 21.9783 9.62524 21.5C9.62524 21.0217 10.0219 20.625 10.5002 20.625H20.4169C20.8952 20.625 21.2919 21.0217 21.2919 21.5C21.2919 21.9783 20.8952 22.375 20.4169 22.375Z" fill="#0970FF"/>
</svg>
