<svg width="20" height="21" viewBox="0 0 20 21" fill="none" xmlns="http://www.w3.org/2000/svg">
<path opacity="0.4" d="M10.0001 5.12023V18.4786C9.85841 18.4786 9.70842 18.4536 9.59175 18.3869L9.55841 18.3702C7.95842 17.4952 5.16675 16.5786 3.35841 16.3369L3.11675 16.3036C2.31675 16.2036 1.66675 15.4536 1.66675 14.6536V4.5869C1.66675 3.59523 2.47508 2.84523 3.46675 2.92857C5.21675 3.07023 7.86675 3.95357 9.35008 4.87857L9.55841 5.00357C9.68341 5.07857 9.84175 5.12023 10.0001 5.12023Z" fill="#223B76"/>
<path d="M18.3333 4.59526V14.6536C18.3333 15.4536 17.6833 16.2036 16.8833 16.3036L16.6083 16.3369C14.7917 16.5786 11.9917 17.5036 10.3917 18.3869C10.2833 18.4536 10.15 18.4786 10 18.4786V5.12026C10.1583 5.12026 10.3167 5.0786 10.4417 5.0036L10.5833 4.91193C12.0667 3.9786 14.725 3.08693 16.475 2.93693H16.525C17.5167 2.8536 18.3333 3.59526 18.3333 4.59526Z" fill="#223B76"/>
<path d="M6.45825 8.40344H4.58325C4.24159 8.40344 3.95825 8.12011 3.95825 7.77844C3.95825 7.43678 4.24159 7.15344 4.58325 7.15344H6.45825C6.79992 7.15344 7.08325 7.43678 7.08325 7.77844C7.08325 8.12011 6.79992 8.40344 6.45825 8.40344Z" fill="#223B76"/>
<path d="M7.08325 10.9034H4.58325C4.24159 10.9034 3.95825 10.6201 3.95825 10.2784C3.95825 9.93678 4.24159 9.65344 4.58325 9.65344H7.08325C7.42492 9.65344 7.70825 9.93678 7.70825 10.2784C7.70825 10.6201 7.42492 10.9034 7.08325 10.9034Z" fill="#223B76"/>
</svg>
