<svg width="26" height="26" viewBox="0 0 26 26" fill="none" xmlns="http://www.w3.org/2000/svg">
<rect width="26" height="26" rx="13" fill="#F1F7FF"/>
<path d="M7.08009 14.2735C7.08009 14.2735 6.89566 12.9938 5.54316 12.9938C4.62784 12.9938 4.86009 16.58 6.31049 16.9215C7.76089 17.2631 7.84741 15.6123 7.84741 15.6123L7.08009 14.2735Z" fill="#F9D7BB"/>
<path d="M18.9197 14.2735C18.9197 14.2735 19.1041 12.9938 20.4566 12.9938C21.3719 12.9938 21.1397 16.58 19.6893 16.9215C18.2389 17.2631 18.1523 15.6123 18.1523 15.6123L18.9197 14.2735Z" fill="#F9D7BB"/>
<path d="M13.0004 21.1339C9.24347 21.1339 6.19922 16.8055 6.19922 12.3108C6.19922 7.81617 9.24574 4.8539 13.0004 4.8539C16.755 4.8539 19.8016 7.81617 19.8016 12.3108C19.8016 16.8055 16.755 21.1339 13.0004 21.1339Z" fill="#F9D7BB"/>
<path d="M9.24434 6.52066C9.24434 6.52066 8.45652 7.00564 7.62772 7.71832C8.23794 8.40367 8.38366 9.60134 7.70514 9.8017C6.51203 10.1524 5.60126 10.9698 5.57849 10.9903C5.41683 12.1264 5.64452 13.1146 5.64452 13.1146C5.64452 13.1146 5.71966 13.1215 5.74015 13.1237C6.00655 13.1533 6.2092 13.3696 6.24791 13.6338C6.35037 14.31 6.53024 15.0181 6.53024 15.0181C6.53024 15.0181 7.12908 13.5245 6.91049 11.4092C6.75338 9.88823 9.88871 8.431 9.88871 8.431L9.24434 6.52294V6.52066Z" fill="#8F7F6A"/>
<path d="M16.7572 6.52066C16.7572 6.52066 17.545 7.00564 18.3738 7.71832C17.7636 8.40367 17.6178 9.60134 18.2964 9.8017C19.4895 10.1524 20.4002 10.9698 20.423 10.9903C20.5847 12.1264 20.357 13.1146 20.357 13.1146C20.357 13.1146 20.2818 13.1215 20.2613 13.1237C19.9949 13.1533 19.7923 13.3696 19.7536 13.6338C19.6511 14.31 19.4713 15.0181 19.4713 15.0181C19.4713 15.0181 18.8724 13.5245 19.091 11.4092C19.2481 9.88823 16.1128 8.431 16.1128 8.431L16.7572 6.52294V6.52066Z" fill="#8F7F6A"/>
<path d="M13.0004 4C11.805 4 10.6119 4.30056 9.52582 4.90166C5.76662 6.98049 5.57764 10.9924 5.57764 10.9924L6.28348 11.1222L7.56311 11.3066C7.56311 11.3066 10.2066 10.537 12.9981 10.446C15.7896 10.537 18.4331 11.3066 18.4331 11.3066L19.7128 11.1222L20.4186 10.9924C20.4186 10.9924 20.2296 6.98277 16.4704 4.90166C15.3843 4.30056 14.1912 4 12.9959 4H13.0004Z" fill="#4D8CE4"/>
<path d="M13.0003 11.0015C10.6437 11.1313 9.22288 11.6755 8.3622 12.1286C7.28066 12.6978 6.28564 11.1313 6.28564 11.1313C6.28564 11.1313 7.26017 9.16634 13.0026 9.12535C18.745 9.16634 19.7195 11.1313 19.7195 11.1313C19.7195 11.1313 18.7245 12.6978 17.6429 12.1286C16.7823 11.6755 15.3592 11.1313 13.0048 11.0015H13.0003Z" fill="#ACCDFF"/>
<path d="M12.6569 4.85393V5.22507C12.5044 5.2615 12.3609 5.32297 12.2289 5.40267L11.9647 5.13854L11.4775 5.6258L11.7416 5.88993C11.6619 6.02199 11.6004 6.16316 11.564 6.31799H11.1929V7.00562H11.564C11.6004 7.15817 11.6619 7.30162 11.7416 7.43368L11.4775 7.69781L11.9647 8.18507L12.2289 7.92094C12.3587 8.00064 12.5021 8.06211 12.6569 8.09854V8.46968H13.3446V8.09854C13.4971 8.06211 13.6406 8.00064 13.7726 7.92094L14.0367 8.18507L14.524 7.69781L14.2599 7.43368C14.3396 7.30162 14.4011 7.16045 14.4375 7.00562H14.8086V6.31799H14.4375C14.4011 6.16544 14.3396 6.02199 14.2599 5.88993L14.524 5.6258L14.0367 5.13854L13.7726 5.40267C13.6428 5.32297 13.4994 5.2615 13.3446 5.22507V4.85393H12.6569ZM13.0007 7.49516C12.5408 7.49516 12.1674 7.12174 12.1674 6.66181C12.1674 6.20187 12.5408 5.82845 13.0007 5.82845C13.4607 5.82845 13.8341 6.20187 13.8341 6.66181C13.8341 7.12174 13.4607 7.49516 13.0007 7.49516Z" fill="white"/>
</svg>
