<svg width="26" height="26" viewBox="0 0 26 26" fill="none" xmlns="http://www.w3.org/2000/svg">
<g clip-path="url(#clip0_436_13018)">
<rect width="26" height="26" rx="13" fill="#F1F7FF"/>
<path d="M8.81458 25.2856L3.55523 22.4349C2.61757 22.7415 1.92877 23.5481 1.77324 24.5213L1 29.3229H4.66621L8.81458 25.2856Z" fill="#4D8CE4"/>
<path d="M17.1855 25.2856L22.4449 22.4349C23.3825 22.7415 24.0713 23.5481 24.2269 24.5213L25.0001 29.3229H21.3339L17.1855 25.2856Z" fill="#4D8CE4"/>
<path d="M12.9999 20.6173L9.33369 20.6196L3.55664 22.4349L6.50072 29.3229L12.9999 29.3096L19.4991 29.3229L22.4432 22.4349L16.6661 20.6196L12.9999 20.6173Z" fill="#9CC1F3"/>
<path d="M13.0002 22.0016C11.6915 22.0016 10.3827 21.5416 9.33398 20.6195L9.88947 16.36H16.1109L16.6664 20.6195C15.6176 21.5416 14.3089 22.0016 13.0002 22.0016Z" fill="#E0BEA4"/>
<path d="M7.22419 12.5761C7.22419 12.5761 7.04422 11.3273 5.72438 11.3273C4.83116 11.3273 5.0578 14.8269 6.47318 15.1602C7.88855 15.4935 7.97299 13.8826 7.97299 13.8826L7.22419 12.5761Z" fill="#F9D7BB"/>
<path d="M18.7771 12.5761C18.7771 12.5761 18.9571 11.3273 20.2769 11.3273C21.1701 11.3273 20.9435 14.8269 19.5281 15.1602C18.1128 15.4935 18.0283 13.8826 18.0283 13.8826L18.7771 12.5761Z" fill="#F9D7BB"/>
<path d="M13.0007 19.2686C9.33451 19.2686 6.36377 15.0447 6.36377 10.6585C6.36377 6.27242 9.33673 3.38168 13.0007 3.38168C16.6647 3.38168 19.6377 6.27242 19.6377 10.6585C19.6377 15.0447 16.6647 19.2686 13.0007 19.2686Z" fill="#F9D7BB"/>
<path d="M13.0017 23.7725L12.0019 24.459L11.4819 29.3118H14.5193L14.0016 24.459L13.0017 23.7725Z" fill="#CE5959"/>
<path d="M12.0009 24.4591L11.3477 22.9881L13.0008 21.9905L14.6517 22.9881L14.0007 24.4591H12.0009Z" fill="#BF4F4F"/>
<path d="M8.96262 22.8238L12.3689 29.3119L4.66761 29.323L3.55664 22.435L7.97608 21.0463L8.96262 22.8238Z" fill="#1C5BB3"/>
<path d="M17.0356 22.8238L13.6294 29.3118L21.3329 29.3229L22.4438 22.4349L18.0222 21.0462L17.0356 22.8238Z" fill="#1C5BB3"/>
<path d="M9.33526 22.1572L12.3704 29.3119H11.3906L8.81533 27.601L9.53746 26.2678L7.59326 24.7858L7.97765 21.0463L9.33526 22.1572Z" fill="#4D8CE4"/>
<path d="M16.6668 22.1572L13.6294 29.3118H14.6115L17.1845 27.6009L16.4624 26.2678L18.4066 24.7857L18.0222 21.0462L16.6668 22.1572Z" fill="#4D8CE4"/>
<path d="M9.51117 19.2687L13.0018 22.0017L9.33564 25.3235L7.97803 21.0462L9.51117 19.2687Z" fill="#D4E4EA"/>
<path d="M16.4894 19.2687L13.001 22.0017L16.6672 25.3235L18.0226 21.0462L16.4894 19.2687Z" fill="#D4E4EA"/>
<path d="M9.47208 7.05682C9.47208 7.05682 11.2207 8.50108 14.1382 8.52774C17.0556 8.55441 18.0354 9.41652 18.0354 9.41652L19.6041 11.4585L19.7641 11.3985C19.7641 11.3985 20.6462 4.97263 14.9047 3.38172C9.16545 1.78859 7.59009 5.69699 7.59009 5.69699C7.59009 5.69699 5.3637 7.30123 6.11472 11.3696L6.39025 11.4607C6.39025 11.4607 6.83019 10.1786 7.79229 9.36319C8.75439 8.54774 9.38543 7.58564 9.46764 7.05682H9.47208Z" fill="#8F7F6A"/>
</g>
<defs>
<clipPath id="clip0_436_13018">
<rect width="26" height="26" rx="13" fill="white"/>
</clipPath>
</defs>
</svg>
