<svg width="56" height="33" viewBox="0 0 56 33" fill="none" xmlns="http://www.w3.org/2000/svg">
<path d="M0.821514 12.9556V0.270996H4.08327V10.4187H8.61349V0.270996H11.8752V10.4187H13.2343V15.3113H10.1538L9.97255 12.9556H0.821514Z" fill="#7A0FD9"/>
<path d="M18.2112 5.43544C17.728 5.43544 17.4863 5.67705 17.4863 6.16028V7.15693H20.5669V6.16028C20.5669 5.67705 20.3253 5.43544 19.8421 5.43544H18.2112ZM23.3756 12.7744C21.0441 13.016 18.93 13.1368 17.0333 13.1368C16.2118 13.1368 15.5534 12.8892 15.0581 12.3939C14.5628 11.8986 14.3152 11.2402 14.3152 10.4187V6.06967C14.3152 5.16363 14.5689 4.45692 15.0763 3.94953C15.5957 3.43007 16.3085 3.17034 17.2145 3.17034H20.8387C21.7447 3.17034 22.4515 3.43007 22.9588 3.94953C23.4783 4.45692 23.738 5.16363 23.738 6.06967V9.42203H17.4863V10.1469C17.4863 10.3281 17.5467 10.4791 17.6675 10.5999C17.7884 10.7207 17.9394 10.7811 18.1206 10.7811C19.3165 10.7811 21.0682 10.6905 23.3756 10.5093V12.7744Z" fill="#7A0FD9"/>
<path d="M31.7947 6.88511V3.35154H34.9659V12.9556H31.7947V9.33143H28.533V12.9556H25.3618V3.35154H28.533V6.88511H31.7947Z" fill="#7A0FD9"/>
<path d="M40.5812 10.5999C41.2215 10.5999 41.9464 10.4791 42.7557 10.2375V9.15022H40.1282C39.947 9.15022 39.796 9.21062 39.6752 9.33143C39.5544 9.45224 39.494 9.60324 39.494 9.78445V9.96566C39.494 10.1469 39.5544 10.2979 39.6752 10.4187C39.796 10.5395 39.947 10.5999 40.1282 10.5999H40.5812ZM37.2289 3.53275C39.4396 3.29114 41.4329 3.17034 43.2088 3.17034C44.0303 3.17034 44.6886 3.41799 45.1839 3.91329C45.6792 4.40859 45.9269 5.06699 45.9269 5.88847V12.9556H43.1182L42.937 12.0496C42.3692 12.4241 41.7833 12.7019 41.1792 12.8831C40.5873 13.0522 40.0859 13.1368 39.6752 13.1368H39.041C38.2195 13.1368 37.5611 12.8892 37.0658 12.3939C36.5705 11.8986 36.3228 11.2402 36.3228 10.4187V9.60324C36.3228 8.78176 36.5705 8.12337 37.0658 7.62807C37.5611 7.13277 38.2195 6.88511 39.041 6.88511H42.7557V6.16028C42.7557 5.97907 42.6953 5.82806 42.5745 5.70726C42.4537 5.58645 42.3027 5.52605 42.1215 5.52605C41.3363 5.52605 40.4665 5.56229 39.5121 5.63477C38.5698 5.70726 37.8088 5.76162 37.2289 5.79786V3.53275Z" fill="#7A0FD9"/>
<path d="M0.0966797 26.5614C3.17723 26.7426 5.35173 26.8332 6.62019 26.8332C6.89805 26.8332 7.1155 26.7546 7.27254 26.5976C7.44167 26.4285 7.52624 26.205 7.52624 25.9271V25.2023C7.52624 24.4775 7.16382 24.115 6.43898 24.115H2.08998V21.5781H6.07657C6.8014 21.5781 7.16382 21.2157 7.16382 20.4909V20.1284C7.16382 19.4036 6.8014 19.0412 6.07657 19.0412H0.277888V16.5043H6.98261C8.16651 16.5043 9.03631 16.7761 9.59201 17.3197C10.1477 17.8513 10.4256 18.6667 10.4256 19.766C10.4256 20.4909 10.2564 21.0828 9.91819 21.5419C9.59201 21.9889 9.15711 22.303 8.61349 22.4842C9.59201 22.7499 10.2564 23.4023 10.6068 24.4412C10.7276 24.8157 10.788 25.2506 10.788 25.7459V25.9271C10.788 27.111 10.5101 27.9808 9.95443 28.5365C9.39872 29.0922 8.52892 29.3701 7.34503 29.3701C5.32757 29.3701 2.91145 29.2493 0.0966797 29.0077V26.5614Z" fill="#7A0FD9"/>
<path d="M15.9461 21.6687C15.4628 21.6687 15.2212 21.9103 15.2212 22.3936V23.3902H18.3018V22.3936C18.3018 21.9103 18.0602 21.6687 17.5769 21.6687H15.9461ZM21.1105 29.0077C18.779 29.2493 16.6649 29.3701 14.7682 29.3701C13.9467 29.3701 13.2883 29.1224 12.793 28.6271C12.2977 28.1318 12.0501 27.4734 12.0501 26.652V22.3029C12.0501 21.3969 12.3038 20.6902 12.8112 20.1828C13.3306 19.6633 14.0434 19.4036 14.9494 19.4036H18.5736C19.4796 19.4036 20.1863 19.6633 20.6937 20.1828C21.2132 20.6902 21.4729 21.3969 21.4729 22.3029V25.6553H15.2212V26.3801C15.2212 26.5614 15.2816 26.7124 15.4024 26.8332C15.5232 26.954 15.6743 27.0144 15.8555 27.0144C17.0514 27.0144 18.8031 26.9238 21.1105 26.7426V29.0077Z" fill="#7A0FD9"/>
<path d="M28.4424 22.0311C27.8021 22.0311 27.0773 22.1519 26.2679 22.3936V26.7426H28.986C29.4692 26.7426 29.7108 26.501 29.7108 26.0177V22.6654C29.7108 22.4842 29.6504 22.3332 29.5296 22.2123C29.4088 22.0915 29.2578 22.0311 29.0766 22.0311H28.4424ZM26.2679 29.1889V32.2694H23.0967V19.5848H25.9055L26.0867 20.4909C26.6545 20.1164 27.2343 19.8446 27.8263 19.6754C28.4303 19.4942 28.9377 19.4036 29.3484 19.4036H30.1639C30.9853 19.4036 31.6437 19.6513 32.139 20.1466C32.6343 20.6419 32.882 21.3003 32.882 22.1217V26.2895C32.882 27.1956 32.6223 27.9083 32.1028 28.4278C31.5954 28.9352 30.8887 29.1889 29.9827 29.1889H26.2679Z" fill="#7A0FD9"/>
<path d="M40.9437 23.1184V19.5848H44.1148V29.1889H40.9437V25.5647H37.6819V29.1889H34.5108V19.5848H37.6819V23.1184H40.9437Z" fill="#7A0FD9"/>
<path d="M49.7302 26.8332C50.3704 26.8332 51.0953 26.7124 51.9047 26.4708V25.3835H49.2771C49.0959 25.3835 48.9449 25.4439 48.8241 25.5647C48.7033 25.6855 48.6429 25.8365 48.6429 26.0177V26.1989C48.6429 26.3801 48.7033 26.5312 48.8241 26.652C48.9449 26.7728 49.0959 26.8332 49.2771 26.8332H49.7302ZM46.3778 19.766C48.5885 19.5244 50.5818 19.4036 52.3577 19.4036C53.1792 19.4036 53.8376 19.6513 54.3329 20.1466C54.8282 20.6419 55.0758 21.3003 55.0758 22.1217V29.1889H52.2671L52.0859 28.2828C51.5181 28.6573 50.9322 28.9352 50.3281 29.1164C49.7362 29.2855 49.2349 29.3701 48.8241 29.3701H48.1899C47.3684 29.3701 46.71 29.1224 46.2147 28.6271C45.7194 28.1318 45.4718 27.4734 45.4718 26.652V25.8365C45.4718 25.015 45.7194 24.3566 46.2147 23.8613C46.71 23.366 47.3684 23.1184 48.1899 23.1184H51.9047V22.3936C51.9047 22.2123 51.8443 22.0613 51.7235 21.9405C51.6026 21.8197 51.4516 21.7593 51.2704 21.7593C50.4852 21.7593 49.6154 21.7956 48.661 21.868C47.7187 21.9405 46.9577 21.9949 46.3778 22.0311V19.766Z" fill="#7A0FD9"/>
</svg>
