<svg width="58" height="69" viewBox="0 0 58 69" fill="none" xmlns="http://www.w3.org/2000/svg">
<path d="M21.1525 38.9919C19.1797 40.1742 16.6179 42.0695 14.3196 44.2988C9.90752 48.5784 7.47955 53.1398 6.15918 56.2399C6.33955 56.7994 6.7778 57.8999 7.81775 58.8934C9.08035 60.101 10.4909 60.4448 11.0687 60.5519C13.0992 59.8657 16.0627 58.5509 18.8965 55.9736C20.1154 54.8646 21.3047 53.4752 22.0474 52.4578C22.8773 53.0327 23.9694 53.9613 25.232 55.1112C28.948 58.4946 37.2831 59.0765 38.7331 58.4946C41.1089 57.5406 41.2738 53.9078 41.3865 52.9876C41.6486 50.8556 41.1258 49.1477 40.7891 48.2768C42.2884 50.2299 43.7948 52.9693 43.9075 56.3047C43.916 56.5753 43.916 56.8402 43.9075 57.1009C44.5289 56.6937 59.3772 53.5005 57.3212 33.7964C54.8848 10.4608 34.4789 8.78255 32.2975 8.60359C31.7973 8.56272 30.5121 8.45703 29.9752 9.20107C29.6258 9.6844 29.7216 10.3467 29.8428 10.7934C30.3994 11.0471 31.2153 11.4416 32.1651 11.987C37.4902 15.0434 40.5734 19.1257 41.9178 21.1422C43.2227 23.0981 44.6177 25.1907 45.3674 28.374C45.8845 30.5722 46.6638 33.8809 45.2349 36.998C42.4223 43.132 33.3699 43.4815 32.6301 43.4998C26.6045 43.6534 22.5687 40.1615 21.1525 38.9919Z" fill="#7A0FD9"/>
<path d="M12.6416 8.94617C12.6416 8.94617 24.2531 17.4144 32.772 31.4173C39.0688 41.7676 41.6668 47.0668 44.2751 57.7005C45.3147 61.939 45.412 67.4647 45.412 67.4647" stroke="#7A0FD9" stroke-width="2" stroke-linecap="round"/>
<ellipse cx="6.33333" cy="5.59241" rx="5.45955" ry="3.02058" transform="rotate(22.1785 6.33333 5.59241)" fill="#7A0FD9"/>
<ellipse cx="10.4649" cy="14.1335" rx="5.45955" ry="3.02058" transform="rotate(7.22713 10.4649 14.1335)" fill="#7A0FD9"/>
<ellipse cx="18.5037" cy="7.79887" rx="4.71006" ry="2.72055" transform="rotate(64.1504 18.5037 7.79887)" fill="#7A0FD9"/>
<ellipse cx="25.0554" cy="13.9742" rx="4.85812" ry="2.80607" transform="rotate(69.6716 25.0554 13.9742)" fill="#7A0FD9"/>
<ellipse cx="32.1567" cy="21.7243" rx="5.33665" ry="3.08247" transform="rotate(77.983 32.1567 21.7243)" fill="#7A0FD9"/>
<ellipse cx="38.9692" cy="32.1806" rx="5.50943" ry="3.18227" transform="rotate(76.243 38.9692 32.1806)" fill="#7A0FD9"/>
<ellipse cx="17.2047" cy="21.2067" rx="5.79127" ry="3.20411" transform="rotate(10.929 17.2047 21.2067)" fill="#7A0FD9"/>
<ellipse cx="23.4949" cy="29.213" rx="6.13242" ry="3.39286" transform="rotate(19.8388 23.4949 29.213)" fill="#7A0FD9"/>
<ellipse cx="29.7647" cy="38.1831" rx="6.49633" ry="3.5942" transform="rotate(29.971 29.7647 38.1831)" fill="#7A0FD9"/>
</svg>
