<svg width="18" height="18" viewBox="0 0 18 18" fill="none" xmlns="http://www.w3.org/2000/svg">
<path opacity="0.2" d="M12.1425 1.5H5.8575C3.1275 1.5 1.5 3.1275 1.5 5.8575V12.135C1.5 14.8725 3.1275 16.5 5.8575 16.5H12.135C14.865 16.5 16.4925 14.8725 16.4925 12.1425V5.8575C16.5 3.1275 14.8725 1.5 12.1425 1.5Z" fill="#0A6EFA"/>
<path d="M7.93508 11.685C7.78508 11.685 7.64258 11.625 7.53758 11.52L5.41508 9.39751C5.19758 9.18001 5.19758 8.82001 5.41508 8.60251C5.63258 8.38501 5.99258 8.38501 6.21008 8.60251L7.93508 10.3275L11.7901 6.47251C12.0076 6.25501 12.3676 6.25501 12.5851 6.47251C12.8026 6.69001 12.8026 7.05001 12.5851 7.26751L8.33258 11.52C8.22758 11.625 8.08508 11.685 7.93508 11.685Z" fill="#0A6EFA"/>
</svg>
