<svg width="24" height="21" viewBox="0 0 24 21" fill="none" xmlns="http://www.w3.org/2000/svg">
<path d="M4.86523 9.68945C2.47266 9.68945 0.490234 7.70703 0.490234 5.32422C0.490234 2.92188 2.46289 0.929688 4.86523 0.929688C7.25781 0.929688 9.24023 2.92188 9.24023 5.32422C9.24023 7.70703 7.25781 9.68945 4.86523 9.68945ZM4.34766 7.66797C4.57227 7.66797 4.77734 7.56055 4.9043 7.35547L7.01367 4.11328C7.11133 3.94727 7.15039 3.83008 7.15039 3.69336C7.15039 3.39062 6.88672 3.15625 6.57422 3.15625C6.36914 3.15625 6.19336 3.26367 6.06641 3.46875L4.32812 6.25195L3.58594 5.33398C3.43945 5.16797 3.3125 5.08008 3.10742 5.08008C2.80469 5.08008 2.55078 5.33398 2.55078 5.65625C2.55078 5.82227 2.58984 5.93945 2.70703 6.06641L3.80078 7.375C3.94727 7.55078 4.12305 7.66797 4.34766 7.66797ZM12.4727 6.27148C11.9453 6.27148 11.5254 5.85156 11.5254 5.32422C11.5254 4.78711 11.9453 4.36719 12.4727 4.36719H22.3066C22.8438 4.36719 23.2734 4.78711 23.2734 5.32422C23.2734 5.85156 22.8438 6.27148 22.3066 6.27148H12.4727ZM4.86523 20.9688C2.47266 20.9688 0.490234 18.9863 0.490234 16.6035C0.490234 14.2012 2.46289 12.2188 4.86523 12.2188C7.25781 12.2188 9.24023 14.2012 9.24023 16.6035C9.24023 18.9863 7.25781 20.9688 4.86523 20.9688ZM4.34766 18.9473C4.57227 18.9473 4.77734 18.8398 4.9043 18.6445L7.01367 15.3926C7.11133 15.2266 7.15039 15.1094 7.15039 14.9727C7.15039 14.6699 6.88672 14.4355 6.57422 14.4355C6.36914 14.4355 6.19336 14.543 6.06641 14.7578L4.32812 17.5312L3.58594 16.6133C3.43945 16.4473 3.3125 16.3594 3.10742 16.3594C2.80469 16.3594 2.55078 16.6133 2.55078 16.9355C2.55078 17.1016 2.58984 17.2188 2.70703 17.3457L3.80078 18.6543C3.94727 18.8301 4.12305 18.9473 4.34766 18.9473ZM12.4727 17.5703C11.9453 17.5703 11.5254 17.1504 11.5254 16.623C11.5254 16.0859 11.9453 15.666 12.4727 15.666H22.3066C22.8438 15.666 23.2734 16.0859 23.2734 16.623C23.2734 17.1504 22.8438 17.5703 22.3066 17.5703H12.4727Z" fill="#7C14DA"/>
</svg>
