<svg width="8" height="9" viewBox="0 0 8 9" fill="none" xmlns="http://www.w3.org/2000/svg">
<path d="M0.37207 8.22461C0.313477 8.16927 0.274414 8.10417 0.254883 8.0293C0.238607 7.95443 0.240234 7.87956 0.259766 7.80469C0.279297 7.72982 0.316732 7.66471 0.37207 7.60938L3.49707 4.47949L0.37207 1.35449C0.316732 1.29915 0.279297 1.23405 0.259766 1.15918C0.24349 1.08431 0.24349 1.00944 0.259766 0.93457C0.279297 0.859701 0.316732 0.794596 0.37207 0.739258C0.427409 0.680664 0.492513 0.643229 0.567383 0.626953C0.642253 0.607422 0.717122 0.607422 0.791992 0.626953C0.870117 0.643229 0.936849 0.680664 0.992188 0.739258L4.11719 3.86426L7.24219 0.739258C7.29753 0.680664 7.36263 0.643229 7.4375 0.626953C7.51237 0.607422 7.58724 0.607422 7.66211 0.626953C7.73698 0.643229 7.80371 0.680664 7.8623 0.739258C7.91764 0.794596 7.95508 0.859701 7.97461 0.93457C7.99414 1.00944 7.99414 1.08431 7.97461 1.15918C7.95508 1.23405 7.91764 1.29915 7.8623 1.35449L4.7373 4.47949L7.8623 7.60938C7.91764 7.66471 7.95345 7.72982 7.96973 7.80469C7.98926 7.87956 7.98926 7.95443 7.96973 8.0293C7.95345 8.10417 7.91764 8.16927 7.8623 8.22461C7.80697 8.2832 7.74023 8.32064 7.66211 8.33691C7.58724 8.35645 7.51237 8.35645 7.4375 8.33691C7.36263 8.31738 7.29753 8.27995 7.24219 8.22461L4.11719 5.09961L0.992188 8.22461C0.936849 8.27995 0.871745 8.31738 0.796875 8.33691C0.722005 8.35645 0.647135 8.35645 0.572266 8.33691C0.497396 8.31738 0.430664 8.27995 0.37207 8.22461Z" fill="white"/>
</svg>
