<svg width="12" height="12" viewBox="0 0 12 12" fill="none" xmlns="http://www.w3.org/2000/svg">
<path fill-rule="evenodd" clip-rule="evenodd" d="M6.79803 6.00465L8.42615 4.37653C8.76925 4.03343 8.65792 3.68251 8.49509 3.51967C8.33225 3.35684 7.98133 3.24551 7.63823 3.58861L6.01011 5.21673L4.38503 3.59164C4.02456 3.23117 3.69054 3.35427 3.52514 3.51967C3.35974 3.68507 3.20082 3.98327 3.59711 4.37956L5.2222 6.00465L3.60014 7.6267C3.25704 7.9698 3.3623 8.32679 3.52514 8.48962C3.68797 8.65246 4.04496 8.75772 4.38806 8.41462L6.01011 6.79257L7.6352 8.41765C7.97687 8.75933 8.33482 8.64989 8.49765 8.48706C8.66049 8.32422 8.76479 7.97141 8.42312 7.62973L6.79803 6.00465ZM6 12C2.68629 12 0 9.31371 0 6C0 2.68629 2.68629 0 6 0C9.31371 0 12 2.68629 12 6C12 9.31371 9.31371 12 6 12Z" fill="#8E66FE"/>
</svg>
