<svg width="13" height="13" viewBox="0 0 13 13" fill="none" xmlns="http://www.w3.org/2000/svg">
<path d="M0.507812 12.3594C0.78125 12.625 1.23438 12.625 1.5 12.3594L6.5 7.35938L11.5 12.3594C11.7656 12.625 12.2266 12.6328 12.4922 12.3594C12.7578 12.0859 12.7578 11.6406 12.4922 11.375L7.49219 6.36719L12.4922 1.36719C12.7578 1.10156 12.7656 0.648438 12.4922 0.382812C12.2188 0.109375 11.7656 0.109375 11.5 0.382812L6.5 5.38281L1.5 0.382812C1.23438 0.109375 0.773438 0.101562 0.507812 0.382812C0.242188 0.65625 0.242188 1.10156 0.507812 1.36719L5.50781 6.36719L0.507812 11.375C0.242188 11.6406 0.234375 12.0938 0.507812 12.3594Z" fill="#292929"/>
</svg>
