<svg width="20" height="21" viewBox="0 0 20 21" fill="none" xmlns="http://www.w3.org/2000/svg">
<path d="M0.882812 19.668C0.296875 19.0938 0.320312 18.0977 0.871094 17.5469L7.85547 10.5508L0.871094 3.56641C0.320312 3.01562 0.308594 2.03125 0.882812 1.44531C1.45703 0.859375 2.45312 0.882812 3.01562 1.43359L10 8.41797L16.9727 1.43359C17.5469 0.859375 18.5195 0.871094 19.1055 1.44531C19.6914 2.03125 19.6914 3.00391 19.1172 3.57812L12.1445 10.5508L19.1172 17.5352C19.6914 18.1094 19.6797 19.082 19.1055 19.668C18.5312 20.2539 17.5469 20.2539 16.9727 19.6797L10 12.6953L3.01562 19.6797C2.45312 20.2305 1.46875 20.2539 0.882812 19.668Z" fill="white"/>
</svg>
