<svg width="26" height="18" viewBox="0 0 26 18" fill="none" xmlns="http://www.w3.org/2000/svg">
<path d="M19.8965 17.7812H6.37109C5.50521 17.7812 4.70117 17.6348 3.95898 17.3418C3.2168 17.0488 2.56576 16.6484 2.00586 16.1406C1.45247 15.6263 1.01953 15.0339 0.707031 14.3633C0.401042 13.6862 0.248047 12.9701 0.248047 12.2148C0.248047 11.388 0.394531 10.6263 0.6875 9.92969C0.980469 9.23307 1.39714 8.65365 1.9375 8.19141C2.48438 7.72266 3.13542 7.41667 3.89062 7.27344C3.92318 6.58333 4.09245 5.96159 4.39844 5.4082C4.70443 4.84831 5.10482 4.38281 5.59961 4.01172C6.10091 3.64062 6.65755 3.38997 7.26953 3.25977C7.88151 3.12305 8.5 3.13281 9.125 3.28906C9.54818 2.68359 10.0462 2.14974 10.6191 1.6875C11.1986 1.21875 11.8496 0.850911 12.5723 0.583984C13.3014 0.317057 14.0924 0.183594 14.9453 0.183594C15.987 0.183594 16.9538 0.372396 17.8457 0.75C18.7441 1.1276 19.5254 1.66146 20.1895 2.35156C20.86 3.03516 21.3809 3.8457 21.752 4.7832C22.123 5.71419 22.3118 6.73633 22.3184 7.84961C22.9694 8.12305 23.5293 8.50391 23.998 8.99219C24.4668 9.47396 24.8249 10.0273 25.0723 10.6523C25.3262 11.2773 25.4531 11.9414 25.4531 12.6445C25.4531 13.3607 25.3099 14.028 25.0234 14.6465C24.7435 15.265 24.3496 15.8086 23.8418 16.2773C23.334 16.7461 22.7415 17.1139 22.0645 17.3809C21.3939 17.6478 20.6712 17.7812 19.8965 17.7812ZM19.8965 15.6133C20.528 15.6133 21.0944 15.4798 21.5957 15.2129C22.1035 14.946 22.5039 14.5879 22.7969 14.1387C23.0964 13.6895 23.2461 13.1914 23.2461 12.6445C23.2461 11.7917 22.9824 11.0788 22.4551 10.5059C21.9342 9.93294 21.2311 9.56836 20.3457 9.41211C20.2155 9.39258 20.1569 9.3112 20.1699 9.16797C20.196 8.92708 20.2155 8.66667 20.2285 8.38672C20.2415 8.10026 20.2415 7.8138 20.2285 7.52734C20.1829 6.59635 19.929 5.74023 19.4668 4.95898C19.0046 4.17122 18.3828 3.54297 17.6016 3.07422C16.8203 2.59896 15.9284 2.36133 14.9258 2.36133C14.138 2.36133 13.4479 2.49154 12.8555 2.75195C12.2695 3.00586 11.7585 3.35742 11.3223 3.80664C10.8926 4.25586 10.515 4.76367 10.1895 5.33008C10.1309 5.43424 10.0397 5.47005 9.91602 5.4375C9.37565 5.26823 8.85482 5.20964 8.35352 5.26172C7.85872 5.30729 7.41602 5.46354 7.02539 5.73047C6.63477 5.9974 6.32878 6.375 6.10742 6.86328C5.89258 7.34505 5.79818 7.94401 5.82422 8.66016C5.83073 8.8099 5.76237 8.88477 5.61914 8.88477C4.97461 8.88477 4.41471 9.02799 3.93945 9.31445C3.46419 9.5944 3.09635 9.98503 2.83594 10.4863C2.58203 10.9876 2.45508 11.5638 2.45508 12.2148C2.45508 12.8268 2.62435 13.39 2.96289 13.9043C3.30794 14.4186 3.77669 14.832 4.36914 15.1445C4.96159 15.457 5.62891 15.6133 6.37109 15.6133H19.8965ZM11.1367 13.0254C10.974 13.1816 10.7917 13.25 10.5898 13.2305C10.388 13.2109 10.2155 13.1328 10.0723 12.9961C9.93555 12.8529 9.85742 12.6803 9.83789 12.4785C9.81836 12.2767 9.88672 12.0977 10.043 11.9414L11.7617 10.2227L10.043 8.51367C9.88672 8.35742 9.81836 8.17839 9.83789 7.97656C9.85742 7.76823 9.93555 7.5957 10.0723 7.45898C10.2155 7.31576 10.388 7.23438 10.5898 7.21484C10.7917 7.19531 10.974 7.26693 11.1367 7.42969L12.8457 9.13867L14.5547 7.42969C14.7174 7.26693 14.8997 7.19531 15.1016 7.21484C15.3099 7.23438 15.4824 7.31576 15.6191 7.45898C15.7559 7.60221 15.834 7.77474 15.8535 7.97656C15.873 8.17839 15.8047 8.35742 15.6484 8.51367L13.9395 10.2227L15.6484 11.9414C15.8047 12.0977 15.873 12.2799 15.8535 12.4883C15.834 12.6901 15.7559 12.8594 15.6191 12.9961C15.4759 13.1328 15.3034 13.2109 15.1016 13.2305C14.8997 13.25 14.7174 13.1816 14.5547 13.0254L12.8457 11.3164L11.1367 13.0254Z" fill="white"/>
</svg>
