<svg width="10" height="10" viewBox="0 0 10 10" fill="none" xmlns="http://www.w3.org/2000/svg">
<path fill-rule="evenodd" clip-rule="evenodd" d="M7.86184 0.315426C8.32195 -0.121214 9.04892 -0.102184 9.48556 0.357932C9.9222 0.818048 9.90317 1.54501 9.44305 1.98165L6.52861 4.7474L9.44292 7.51302C9.90304 7.94966 9.92207 8.67662 9.48543 9.13674C9.04879 9.59685 8.32183 9.61588 7.86171 9.17924L4.8601 6.33078L1.93928 9.10258C1.47916 9.53922 0.752195 9.52019 0.315555 9.06008C-0.121086 8.59996 -0.102056 7.873 0.35806 7.43636L3.19159 4.7474L0.357932 2.05831C-0.102184 1.62167 -0.121214 0.894708 0.315427 0.434592C0.752067 -0.0255233 1.47903 -0.0445538 1.93915 0.392087L4.8601 3.16401L7.86184 0.315426Z" fill="url(#paint0_linear_18883_5630)"/>
<defs>
<linearGradient id="paint0_linear_18883_5630" x1="9.7366" y1="9.49467" x2="-1.8364" y2="4.01288" gradientUnits="userSpaceOnUse">
<stop stop-color="#7A0FD9"/>
<stop offset="1" stop-color="#695CF8"/>
</linearGradient>
</defs>
</svg>

