<svg width="24" height="24" viewBox="0 0 24 24" fill="none" xmlns="http://www.w3.org/2000/svg">
<path d="M12.2666 23.5986C6.04688 23.5986 0.922852 18.4746 0.922852 12.2441C0.922852 6.02441 6.03613 0.900391 12.2666 0.900391C18.4863 0.900391 23.6104 6.02441 23.6104 12.2441C23.6104 18.4746 18.4971 23.5986 12.2666 23.5986ZM8.88281 16.8633C9.25879 16.8633 9.55957 16.7344 9.7959 16.498L12.2666 14.0166L14.748 16.498C14.9844 16.7344 15.2959 16.8633 15.6611 16.8633C16.3594 16.8633 16.8965 16.3154 16.8965 15.6172C16.8965 15.2949 16.7676 14.9941 16.5205 14.7578L14.0283 12.2656L16.5312 9.75195C16.7783 9.51562 16.8965 9.21484 16.8965 8.89258C16.8965 8.20508 16.3594 7.66797 15.6719 7.66797C15.3066 7.66797 15.0273 7.77539 14.7695 8.0332L12.2666 10.5146L9.78516 8.0332C9.53809 7.79688 9.25879 7.67871 8.88281 7.67871C8.19531 7.67871 7.6582 8.20508 7.6582 8.91406C7.6582 9.22559 7.78711 9.52637 8.02344 9.7627L10.5264 12.2656L8.02344 14.7686C7.78711 14.9941 7.6582 15.3057 7.6582 15.6172C7.6582 16.3154 8.19531 16.8633 8.88281 16.8633Z" fill="#AEAEAE"/>
</svg>
