<svg width="17" height="17" viewBox="0 0 17 17" fill="none" xmlns="http://www.w3.org/2000/svg">
<path d="M0.851562 16.5566C0.688802 16.3939 0.58138 16.2051 0.529297 15.9902C0.477214 15.7754 0.477214 15.5605 0.529297 15.3457C0.58138 15.1309 0.685547 14.9453 0.841797 14.7891L6.66211 8.95898L0.841797 3.13867C0.685547 2.98893 0.58138 2.80664 0.529297 2.5918C0.483724 2.37044 0.483724 2.15234 0.529297 1.9375C0.58138 1.72266 0.688802 1.53385 0.851562 1.37109C1.00781 1.20833 1.19336 1.10091 1.4082 1.04883C1.62956 0.996745 1.84766 0.996745 2.0625 1.04883C2.28385 1.10091 2.47266 1.20508 2.62891 1.36133L8.44922 7.18164L14.2695 1.36133C14.4258 1.20508 14.6113 1.10091 14.8262 1.04883C15.041 0.996745 15.2559 0.996745 15.4707 1.04883C15.6855 1.10091 15.8743 1.21159 16.0371 1.38086C16.1999 1.53711 16.3073 1.72266 16.3594 1.9375C16.418 2.15234 16.418 2.36719 16.3594 2.58203C16.3073 2.79688 16.2031 2.98242 16.0469 3.13867L10.2363 8.95898L16.0469 14.7891C16.2031 14.9453 16.3073 15.1309 16.3594 15.3457C16.4115 15.5605 16.4115 15.7754 16.3594 15.9902C16.3073 16.2051 16.1999 16.3939 16.0371 16.5566C15.8743 16.7194 15.6855 16.8268 15.4707 16.8789C15.2559 16.931 15.041 16.931 14.8262 16.8789C14.6113 16.8268 14.4258 16.7227 14.2695 16.5664L8.44922 10.7461L2.62891 16.5664C2.47266 16.7227 2.28711 16.8268 2.07227 16.8789C1.85742 16.931 1.63932 16.931 1.41797 16.8789C1.20312 16.8268 1.01432 16.7194 0.851562 16.5566Z" fill="#433A4B"/>
</svg>
