<svg width="24" height="24" viewBox="0 0 24 24" fill="none" xmlns="http://www.w3.org/2000/svg">
<path opacity="0.11" d="M12 22C17.5228 22 22 17.5228 22 12C22 6.47715 17.5228 2 12 2C6.47715 2 2 6.47715 2 12C2 17.5228 6.47715 22 12 22Z" fill="#0970FF"/>
<path d="M13.1852 12.0001L15.7568 9.42843C16.0811 9.10418 16.0811 8.5675 15.7568 8.24325C15.4326 7.919 14.8959 7.919 14.5716 8.24325L12 10.8149L9.42837 8.24325C9.10412 7.919 8.56744 7.919 8.24319 8.24325C7.91894 8.5675 7.91894 9.10418 8.24319 9.42843L10.8148 12.0001L8.24319 14.5717C7.91894 14.8959 7.91894 15.4326 8.24319 15.7569C8.4109 15.9246 8.62334 16.0029 8.83578 16.0029C9.04822 16.0029 9.26066 15.9246 9.42837 15.7569L12 13.1852L14.5716 15.7569C14.7393 15.9246 14.9518 16.0029 15.1642 16.0029C15.3767 16.0029 15.5891 15.9246 15.7568 15.7569C16.0811 15.4326 16.0811 14.8959 15.7568 14.5717L13.1852 12.0001Z" fill="#0A6EFA"/>
</svg>
