<svg width="30" height="30" viewBox="0 0 30 30" fill="none" xmlns="http://www.w3.org/2000/svg">
<path opacity="0.54" d="M15 2.5C21.9036 2.5 27.5 8.09644 27.5 15C27.5 21.9036 21.9036 27.5 15 27.5C8.09644 27.5 2.5 21.9036 2.5 15C2.5 8.09644 8.09644 2.5 15 2.5ZM19.1992 10.7998C18.8368 10.4377 18.2374 10.4376 17.875 10.7998L15 13.6748L12.125 10.7998C11.7625 10.4373 11.1623 10.4374 10.7998 10.7998C10.4373 11.1623 10.4373 11.7625 10.7998 12.125L13.6748 15L10.7998 17.875C10.4373 18.2375 10.4373 18.8377 10.7998 19.2002C10.9872 19.3875 11.2246 19.4745 11.4619 19.4746C11.6994 19.4746 11.9375 19.3877 12.125 19.2002L15 16.3252L17.875 19.2002C18.0624 19.3875 18.2998 19.4746 18.5371 19.4746C18.7745 19.4746 19.0118 19.3874 19.1992 19.2002C19.5617 18.8377 19.5617 18.2375 19.1992 17.875L16.3252 15L19.1992 12.125C19.5617 11.7625 19.5617 11.1623 19.1992 10.7998Z" fill="white"/>
</svg>
