<svg width="79" height="93" viewBox="0 0 79 93" fill="none" xmlns="http://www.w3.org/2000/svg">
<path fill-rule="evenodd" clip-rule="evenodd" d="M41.7914 8.07601C39.8791 8.21121 39.2213 8.28728 39.1082 8.38618C38.9498 8.52469 38.8212 10.3252 38.9598 10.4639C39.0063 10.5105 39.0444 10.6162 39.0444 10.6987C39.0444 10.8674 39.8222 11.6483 39.9903 11.6483C40.0496 11.6483 40.0981 11.6822 40.0981 11.7236C40.0981 11.7651 40.1421 11.799 40.196 11.799C40.3344 11.799 40.6989 11.9761 40.6995 12.0437C40.6998 12.0748 40.7679 12.1002 40.8507 12.1002C40.9334 12.1002 41.0012 12.1258 41.0012 12.1572C41.0012 12.1885 41.1108 12.2626 41.2446 12.322C41.3786 12.3813 41.7352 12.576 42.0371 12.7546C42.339 12.9333 42.6189 13.0794 42.6591 13.0794C42.6993 13.0794 42.7322 13.1133 42.7322 13.1547C42.7322 13.1961 42.7677 13.23 42.811 13.23C42.8544 13.23 43.0752 13.3487 43.3016 13.4937C43.5282 13.6387 43.7439 13.7573 43.781 13.7573C43.8181 13.7573 43.8598 13.7827 43.8736 13.8138C43.8874 13.8449 44.1865 14.0559 44.5384 14.2827C45.5168 14.9137 47.805 16.6057 48.0003 16.8429C48.021 16.868 48.2961 17.0978 48.6116 17.3535C49.7337 18.2631 51.582 20.0555 52.746 21.3629C53.0955 21.7554 53.4153 22.1141 53.4567 22.16C53.6914 22.4206 54.2248 23.0659 54.3178 23.202C54.3775 23.2893 54.4477 23.3776 54.4739 23.3983C54.6358 23.5266 56.2053 25.7119 56.7458 26.5618C57.5146 27.7705 57.8593 28.3519 57.8593 28.4397C57.8593 28.477 57.8847 28.5188 57.9158 28.5327C57.9469 28.5465 58.1895 28.9815 58.455 29.4993C58.7205 30.0171 59 30.552 59.0759 30.6878C59.1519 30.8238 59.214 30.9848 59.214 31.0456C59.214 31.1066 59.2479 31.1563 59.2893 31.1563C59.3307 31.1563 59.3645 31.2063 59.3645 31.2673C59.3645 31.3283 59.4527 31.574 59.5604 31.8134C59.6682 32.0527 59.7864 32.3163 59.8232 32.3991C60.0156 32.8335 60.3321 33.7442 60.8701 35.4119C61.2003 36.4354 61.5453 38.0966 61.7852 39.8182C61.9384 40.9177 61.9158 43.7977 61.746 44.8194C61.5805 45.8149 61.1331 47.6752 60.9805 48.0019C60.9196 48.1324 60.8697 48.2914 60.8697 48.3552C60.8697 48.419 60.8359 48.4921 60.7945 48.5177C60.7531 48.5433 60.7191 48.6216 60.7191 48.6916C60.7188 48.9329 59.4425 51.3054 59.2121 51.4929C59.1867 51.5136 59.0171 51.7339 58.8352 51.9825C58.3552 52.6387 57.019 53.9505 56.2789 54.4922C55.9271 54.7497 55.5982 54.9937 55.5483 55.0344C55.4983 55.075 55.4332 55.1083 55.4037 55.1083C55.3742 55.1083 55.2965 55.156 55.2312 55.2143C55.0641 55.3634 53.3472 56.2381 53.2215 56.2381C53.1646 56.2381 53.118 56.269 53.118 56.3068C53.118 56.3446 52.9825 56.3984 52.817 56.4264C52.6514 56.4544 52.5159 56.5082 52.5159 56.546C52.5159 56.5838 52.4449 56.6147 52.3579 56.6147C52.2711 56.6147 52.0933 56.6639 51.9628 56.724C51.7581 56.8184 50.4432 57.1419 49.355 57.3659C48.3803 57.5664 47.5297 57.6301 45.8178 57.6308C42.811 57.632 40.7424 57.2889 37.0877 56.1827C36.7358 56.0762 36.4141 55.9643 36.3727 55.934C36.3313 55.9037 36.1851 55.8549 36.0478 55.8254C35.9105 55.796 35.7073 55.7245 35.5963 55.6665C35.4852 55.6086 35.353 55.5609 35.3025 55.5606C35.2521 55.5604 35.0997 55.498 34.9639 55.422C34.8281 55.346 34.6154 55.2586 34.4912 55.2278C34.367 55.1971 34.2146 55.1282 34.1525 55.0748C34.0905 55.0215 33.9489 54.9564 33.838 54.93C33.727 54.9036 33.5916 54.8375 33.5369 54.783C33.4823 54.7284 33.3265 54.6452 33.1907 54.5979C33.055 54.5507 32.8917 54.4598 32.8279 54.3959C32.7641 54.332 32.6518 54.2797 32.5784 54.2797C32.505 54.2797 32.3836 54.212 32.3087 54.1291C32.2334 54.0459 32.0769 53.9785 31.959 53.9785C31.827 53.9785 31.7096 53.9209 31.6515 53.8278C31.5998 53.745 31.481 53.6772 31.3874 53.6772C31.294 53.6772 31.2174 53.6428 31.2174 53.6007C31.2174 53.5586 31.0905 53.4653 30.9352 53.3935C30.78 53.3217 30.6259 53.2206 30.5928 53.1688C30.5597 53.117 30.4861 53.0746 30.4292 53.0746C30.3724 53.0746 30.2252 52.9899 30.1022 52.8863C29.9793 52.7828 29.8356 52.698 29.783 52.698C29.7303 52.698 29.6336 52.6473 29.568 52.5854C29.2798 52.3132 28.9669 52.0955 28.8639 52.0955C28.8025 52.0955 28.7101 52.0446 28.6586 51.9825C28.607 51.9203 28.4812 51.8695 28.3789 51.8695C28.2765 51.8695 27.9554 51.7973 27.6652 51.7091C26.9318 51.4862 26.4568 51.5394 25.6022 51.9402C22.458 53.4148 16.6341 58.9331 11.4873 65.3142C8.38695 69.1581 5.82172 73.1149 4.97904 75.3528C4.81204 75.7963 4.80805 75.8426 4.91545 76.0997C5.42857 77.3288 7.34287 79.3437 9.1558 80.5629C10.2379 81.2906 12.0133 81.9977 12.7584 81.9977C13.5797 81.9977 16.9894 80.1156 19.9515 78.0271C23.1166 75.7956 26.3239 72.9457 27.7693 71.0805L27.9703 70.821L28.2956 71.1198C28.4746 71.2842 28.7558 71.5196 28.9205 71.6429C29.3166 71.9394 29.537 72.1248 29.7915 72.3755C29.9071 72.4895 30.0343 72.5826 30.0742 72.5826C30.2032 72.5826 30.4885 72.7632 31.2174 73.3059C35.6833 76.6317 41.3587 78.9314 46.3506 79.4382C47.2675 79.5313 49.1644 79.5066 51.2745 79.3743C52.2026 79.3161 52.8589 79.2191 54.1344 78.9518C55.7137 78.6208 56.7556 78.3515 56.9186 78.2322C56.96 78.2019 57.0919 78.1537 57.2118 78.1249C57.3316 78.0962 57.6703 77.9602 57.9644 77.8228C58.5855 77.5326 58.9605 77.3954 59.7408 77.1731C60.0513 77.0845 60.4069 76.9691 60.5311 76.9164C60.6552 76.8637 60.9939 76.7256 61.2837 76.6097C62.8817 75.9697 65.2816 74.5574 67.6086 72.8875C69.1688 71.768 70.0985 70.8902 71.2823 69.4192C72.7981 67.5355 73.8549 65.8911 74.9852 63.6572C77.0807 59.5159 78.3206 54.9996 78.7051 50.1074C78.8049 48.8395 78.803 45.5447 78.7019 44.2583C77.9226 34.3422 73.6575 25.0959 66.7063 18.2535C60.8931 12.5311 53.6638 9.01172 46.1103 8.2268C45.0264 8.1142 42.4991 8.02592 41.7914 8.07601Z" fill="#7A0FD9"/>
<path d="M57.6692 71.6005C56.6721 69.365 55.5687 66.1393 55.5687 66.1393C55.5687 66.1393 56.5536 71.514 54.9386 74.7512C53.8899 76.8534 51.8929 79.6872 49.0573 80.2123C47.2022 80.5559 54.9386 80.2123 54.9386 80.2123L59.2445 77.4817C59.2445 77.4817 58.7478 74.0187 57.6692 71.6005Z" fill="#F4F6F6"/>
<path fill-rule="evenodd" clip-rule="evenodd" d="M3.08143 0.622361C1.71772 0.904074 0.661731 1.70842 0.353709 2.70006C-0.0720089 4.07089 0.528838 5.55988 2.14411 7.13665C4.28015 9.22192 7.29109 10.4848 10.1347 10.4882C13.9072 10.4927 15.4702 7.96125 13.4982 5.04089C12.8925 4.14388 11.6473 3.02592 10.4188 2.27614C8.1423 0.886663 5.11013 0.203252 3.08143 0.622361ZM21.3789 2.03668C19.7725 2.35307 18.9524 4.07642 19.3182 6.3672C19.6578 8.49451 20.7632 10.6671 22.2973 12.2221C23.3955 13.3354 24.455 13.9647 25.5141 14.1329C25.9937 14.2091 26.0979 14.2021 26.5671 14.0628C27.5473 13.7716 28.1885 12.9678 28.4099 11.7522C28.5459 11.0057 28.545 10.7018 28.4041 9.77326C27.9554 6.81844 25.7766 3.57149 23.4889 2.44843C22.7676 2.09431 21.9231 1.92952 21.3789 2.03668ZM15.2603 8.80289C13.9323 9.19796 13.7252 10.4319 14.8032 11.5265C14.9934 11.7196 15.3231 11.9588 15.5359 12.058C16.0411 12.2935 17.9861 13.5693 19.1481 14.4272C21.8985 16.4579 25.1879 19.4239 28.1455 22.54C43.2176 38.4192 56.6625 63.1968 59.9871 81.2211C60.5439 84.2398 60.7676 87.5028 60.6236 90.5105C60.5914 91.1856 60.6029 91.267 60.7791 91.6026C61.2723 92.5424 62.4853 92.8104 62.973 92.0872C63.3194 91.5735 63.393 91.0446 63.4349 88.7682C63.4586 87.4784 63.4397 86.2084 63.3862 85.49C62.214 69.7446 51.3022 46.435 36.4242 27.8945C30.7035 20.7655 24.5814 14.6781 19.0279 10.5969C17.7529 9.6599 16.7302 9.08293 15.9351 8.85199C15.4903 8.72283 15.5218 8.72508 15.2603 8.80289ZM30.072 11.1581C29.1517 11.5893 28.6754 12.8032 28.7692 14.4785C28.899 16.799 30.0117 19.4871 31.658 21.4581C32.4 22.3463 33.3705 23.0788 34.139 23.3304C35.1527 23.6623 36.1441 23.3033 36.5967 22.4402C37.7876 20.1695 36.3702 15.2958 33.724 12.5617C32.4011 11.1949 31.0783 10.6865 30.072 11.1581ZM10.5306 13.52C9.20842 13.6322 7.60045 14.0089 6.71691 14.4132C3.34119 15.958 3.92289 18.8137 7.93388 20.3874C10.4354 21.3689 13.9269 21.6805 16.5271 21.154C18.5086 20.7528 20.0494 19.8781 20.6043 18.8391C20.8941 18.2966 20.8956 17.5374 20.6081 16.9648C20.132 16.0168 19.0909 15.2089 17.4955 14.5493C15.6036 13.7672 12.6898 13.3365 10.5306 13.52ZM40.6996 21.9163C40.0633 22.0685 39.4218 22.6081 39.0699 23.2873C38.6901 24.0203 38.5482 24.7617 38.5436 26.0368C38.5384 27.4551 38.6684 28.2183 39.1702 29.7158C39.7824 31.5429 40.5501 32.836 41.6581 33.9063C43.216 35.4112 44.7195 35.6278 45.7823 34.5002C47.9036 32.2495 46.7297 25.9438 43.6544 23.0704C42.6215 22.1054 41.5914 21.703 40.6996 21.9163ZM18.881 22.5404C16.7964 22.874 15.5585 23.5349 15.0614 24.5798C14.4134 25.9416 15.303 27.525 17.4955 28.9123C19.8445 30.3987 23.8395 31.3535 26.6509 31.1006C28.96 30.8928 30.5263 30.1546 31.1055 29.0011C32.3209 26.5807 28.2201 23.4517 22.7311 22.6115C21.655 22.4468 19.6926 22.4105 18.881 22.5404ZM27.7753 32.8077C25.9065 33.1907 24.7677 34.1599 24.502 35.5937C24.3066 36.6477 24.8319 38.0151 25.888 39.201C27.399 40.8978 29.8323 42.2227 32.4401 42.7686C33.5835 43.0079 35.5703 43.0096 36.4418 42.772C37.7804 42.4072 38.8214 41.6352 39.1646 40.7526C39.7646 39.21 39.1561 37.5494 37.375 35.8688C35.8894 34.4672 33.8593 33.4331 31.5744 32.914C30.6793 32.7107 28.5407 32.6509 27.7753 32.8077ZM49.8435 35.144C49.1383 35.4943 48.6145 36.2802 48.2786 37.4923C48.0928 38.1624 48.0814 38.2983 48.0794 39.8784C48.0774 41.3075 48.1019 41.6896 48.2461 42.4756C48.7899 45.4397 49.9706 48.0637 51.3635 49.4033C51.9175 49.9362 52.2606 50.162 52.7828 50.3377C53.2889 50.508 53.4103 50.5107 53.9193 50.3629C54.3951 50.2247 54.9975 49.678 55.2839 49.1243C56.7917 46.2096 55.7821 39.9469 53.2786 36.6847C52.4329 35.5827 51.6164 35.0383 50.7233 34.9812C50.3034 34.9543 50.1794 34.9773 49.8435 35.144ZM35.1689 44.4676C34.0286 44.6698 33.1158 45.2902 32.6774 46.1611C32.0531 47.4013 32.5 49.2455 33.8517 51.0068C34.4541 51.7917 35.8985 53.1513 36.773 53.7564C39.8116 55.8591 43.3013 56.8504 45.616 56.2684C46.6547 56.0073 47.5003 55.3718 47.8624 54.5802C48.1431 53.9666 48.1867 53.0454 47.9714 52.2777C47.2349 49.6526 44.1537 46.7361 40.6028 45.3031C38.5326 44.4676 36.731 44.1906 35.1689 44.4676Z" fill="#FFB857"/>
</svg>
