<svg width="20" height="19" viewBox="0 0 20 19" fill="none" xmlns="http://www.w3.org/2000/svg">
<path d="M9.99121 18.7422C8.74902 18.7422 7.58008 18.5049 6.48438 18.0303C5.38867 17.5615 4.42188 16.9082 3.58398 16.0703C2.75195 15.2324 2.09863 14.2656 1.62402 13.1699C1.14941 12.0742 0.912109 10.9053 0.912109 9.66309C0.912109 8.4209 1.14941 7.25195 1.62402 6.15625C2.09863 5.06055 2.75195 4.09668 3.58398 3.26465C4.42188 2.42676 5.38574 1.77051 6.47559 1.2959C7.57129 0.821289 8.74023 0.583984 9.98242 0.583984C11.2305 0.583984 12.4023 0.821289 13.498 1.2959C14.5938 1.77051 15.5605 2.42676 16.3984 3.26465C17.2363 4.09668 17.8926 5.06055 18.3672 6.15625C18.8418 7.25195 19.0791 8.4209 19.0791 9.66309C19.0791 10.9053 18.8418 12.0742 18.3672 13.1699C17.8926 14.2656 17.2363 15.2324 16.3984 16.0703C15.5605 16.9082 14.5938 17.5615 13.498 18.0303C12.4023 18.5049 11.2334 18.7422 9.99121 18.7422ZM11.3096 14.2686C11.5381 14.04 11.6289 13.8291 11.582 13.6357C11.541 13.4424 11.4033 13.252 11.1689 13.0645L9.94727 12.0713C9.71289 11.8779 9.51367 11.8076 9.34961 11.8604C9.19141 11.9072 9.02734 12.0039 8.85742 12.1504L8.76953 12.2471C8.61133 12.376 8.41211 12.376 8.17188 12.2471C7.93164 12.1182 7.55371 11.8018 7.03809 11.2979C6.55762 10.8174 6.24414 10.4453 6.09766 10.1816C5.95703 9.91211 5.95117 9.70703 6.08008 9.56641L6.17676 9.46094C6.3291 9.29102 6.42578 9.12695 6.4668 8.96875C6.51367 8.80469 6.44629 8.61133 6.26465 8.38867L5.27148 7.16699C5.07812 6.93262 4.88477 6.79199 4.69141 6.74512C4.49805 6.69824 4.28711 6.78906 4.05859 7.01758C3.64844 7.43359 3.46094 7.94043 3.49609 8.53809C3.53125 9.13574 3.75098 9.78027 4.15527 10.4717C4.55957 11.1631 5.10449 11.8545 5.79004 12.5459C6.46973 13.2197 7.15527 13.7617 7.84668 14.1719C8.53809 14.5762 9.18262 14.7959 9.78027 14.8311C10.3838 14.8662 10.8936 14.6787 11.3096 14.2686ZM7.94336 8.57324H8.74316C9.07129 8.57324 9.23535 8.40918 9.23535 8.08105V7.28125C9.23535 6.96484 9.07129 6.80664 8.74316 6.80664H7.94336C7.62109 6.80664 7.45996 6.96484 7.45996 7.28125V8.08105C7.45996 8.40918 7.62109 8.57324 7.94336 8.57324ZM10.2461 8.57324H11.0459C11.3623 8.57324 11.5205 8.40918 11.5205 8.08105V7.28125C11.5205 6.96484 11.3623 6.80664 11.0459 6.80664H10.2461C9.90625 6.80664 9.73633 6.96484 9.73633 7.28125V8.08105C9.73633 8.40918 9.90625 8.57324 10.2461 8.57324ZM12.5137 8.57324H13.3223C13.6562 8.57324 13.8232 8.40918 13.8232 8.08105V7.28125C13.8232 6.96484 13.6562 6.80664 13.3223 6.80664H12.5137C12.1973 6.80664 12.0391 6.96484 12.0391 7.28125V8.08105C12.0391 8.40918 12.1973 8.57324 12.5137 8.57324ZM14.8164 8.57324H15.6162C15.9502 8.57324 16.1172 8.40918 16.1172 8.08105V7.28125C16.1172 6.96484 15.9502 6.80664 15.6162 6.80664H14.8164C14.4941 6.80664 14.333 6.96484 14.333 7.28125V8.08105C14.333 8.40918 14.4941 8.57324 14.8164 8.57324ZM7.93457 10.8584H8.73438C9.06836 10.8584 9.23535 10.6943 9.23535 10.3662V9.5752C9.23535 9.25879 9.06836 9.10059 8.73438 9.10059H7.93457C7.61816 9.10059 7.45996 9.25879 7.45996 9.5752V10.3662C7.45996 10.6943 7.61816 10.8584 7.93457 10.8584ZM10.2373 10.8584H13.3486C13.665 10.8584 13.8232 10.6943 13.8232 10.3662V9.5752C13.8232 9.25879 13.665 9.10059 13.3486 9.10059H10.2373C9.90332 9.10059 9.73633 9.25879 9.73633 9.5752V10.3662C9.73633 10.6943 9.90332 10.8584 10.2373 10.8584ZM14.8252 10.8584H15.6338C15.9561 10.8584 16.1172 10.6943 16.1172 10.3662V9.5752C16.1172 9.25879 15.9561 9.10059 15.6338 9.10059H14.8252C14.5029 9.10059 14.3418 9.25879 14.3418 9.5752V10.3662C14.3418 10.6943 14.5029 10.8584 14.8252 10.8584Z" fill="#7A0FD9"/>
</svg>
