<svg width="18" height="17" viewBox="0 0 18 17" fill="none" xmlns="http://www.w3.org/2000/svg">
<path d="M3.55469 13.0312H4.88281V14.2109C4.88281 15.875 5.75 16.7422 7.44531 16.7422H15.3516C17.0391 16.7422 17.9141 15.875 17.9141 14.2109V6.24219C17.9141 4.57812 17.0391 3.71094 15.3516 3.71094H14.0234V2.53125C14.0234 0.867188 13.1484 0 11.4609 0H3.55469C1.86719 0 0.992188 0.859375 0.992188 2.53125V10.4922C0.992188 12.1641 1.86719 13.0312 3.55469 13.0312ZM3.64844 11.5C2.92188 11.5 2.52344 11.125 2.52344 10.3672V2.66406C2.52344 1.90625 2.92188 1.52344 3.64844 1.52344H11.375C12.0938 1.52344 12.5 1.90625 12.5 2.66406V3.71094H7.44531C5.75 3.71094 4.88281 4.57812 4.88281 6.24219V11.5H3.64844ZM7.53125 15.2109C6.80469 15.2109 6.41406 14.8359 6.41406 14.0781V6.375C6.41406 5.61719 6.80469 5.24219 7.53125 5.24219H15.2578C15.9766 5.24219 16.3828 5.61719 16.3828 6.375V14.0781C16.3828 14.8359 15.9766 15.2109 15.2578 15.2109H7.53125ZM7.78906 10.2266C7.78906 10.6484 8.09375 10.9453 8.53125 10.9453H10.6719V13.1016C10.6719 13.5234 10.9688 13.8281 11.3906 13.8281C11.8281 13.8281 12.1328 13.5234 12.1328 13.1016V10.9453H14.2812C14.7109 10.9453 15.0156 10.6484 15.0156 10.2266C15.0156 9.79688 14.7109 9.48438 14.2812 9.48438H12.1328V7.34375C12.1328 6.90625 11.8281 6.60938 11.3906 6.60938C10.9688 6.60938 10.6719 6.91406 10.6719 7.34375V9.48438H8.53125C8.09375 9.48438 7.78906 9.79688 7.78906 10.2266Z" fill="#8E66FE"/>
</svg>
