<svg width="34" height="34" viewBox="0 0 34 34" fill="none" xmlns="http://www.w3.org/2000/svg">
<path opacity="0.4" d="M30.8265 22.5534L21.7598 6.23337C20.5415 4.03754 18.8557 2.83337 16.9998 2.83337C15.144 2.83337 13.4582 4.03754 12.2398 6.23337L3.17318 22.5534C2.02568 24.6359 1.89818 26.6334 2.81901 28.2059C3.73985 29.7784 5.55318 30.6425 7.93318 30.6425H26.0665C28.4465 30.6425 30.2598 29.7784 31.1807 28.2059C32.1015 26.6334 31.974 24.6217 30.8265 22.5534Z" fill="#FF775F"/>
<path d="M17 20.8958C16.4192 20.8958 15.9375 20.4142 15.9375 19.8333V12.75C15.9375 12.1692 16.4192 11.6875 17 11.6875C17.5808 11.6875 18.0625 12.1692 18.0625 12.75V19.8333C18.0625 20.4142 17.5808 20.8958 17 20.8958Z" fill="#FF775F"/>
<path d="M17.0002 25.5001C16.9152 25.5001 16.816 25.4859 16.7168 25.4717C16.6318 25.4576 16.5468 25.4292 16.4618 25.3867C16.3768 25.3584 16.2918 25.3159 16.2068 25.2592C16.136 25.2026 16.0652 25.1459 15.9943 25.0892C15.7393 24.8201 15.5835 24.4517 15.5835 24.0834C15.5835 23.7151 15.7393 23.3468 15.9943 23.0776C16.0652 23.0209 16.136 22.9642 16.2068 22.9076C16.2918 22.8509 16.3768 22.8084 16.4618 22.7801C16.5468 22.7376 16.6318 22.7092 16.7168 22.6951C16.901 22.6526 17.0993 22.6526 17.2693 22.6951C17.3685 22.7092 17.4535 22.7376 17.5385 22.7801C17.6235 22.8084 17.7085 22.8509 17.7935 22.9076C17.8643 22.9642 17.9352 23.0209 18.006 23.0776C18.261 23.3468 18.4168 23.7151 18.4168 24.0834C18.4168 24.4517 18.261 24.8201 18.006 25.0892C17.9352 25.1459 17.8643 25.2026 17.7935 25.2592C17.7085 25.3159 17.6235 25.3584 17.5385 25.3867C17.4535 25.4292 17.3685 25.4576 17.2693 25.4717C17.1843 25.4859 17.0852 25.5001 17.0002 25.5001Z" fill="#FF775F"/>
</svg>
