<svg width="21" height="15" viewBox="0 0 21 15" fill="none" xmlns="http://www.w3.org/2000/svg">
<path d="M6.39844 14.6641H14.6953C16.2969 14.6641 17.0078 13.8672 17.2578 12.2734L18.3984 4.67969H18.4297C19.4922 4.67969 20.1016 4 20.1016 2.95312V1.8125C20.1016 0.757812 19.4922 0.078125 18.4297 0.078125H2.66406C1.64844 0.078125 0.992188 0.757812 0.992188 1.8125V2.95312C0.992188 4 1.60938 4.67969 2.66406 4.67969H2.69531L3.83594 12.2734C4.08594 13.875 4.79688 14.6641 6.39844 14.6641ZM2.96875 3.28906C2.60156 3.28906 2.45312 3.125 2.45312 2.76562V1.99219C2.45312 1.63281 2.60156 1.46875 2.96875 1.46875H18.1328C18.4922 1.46875 18.6406 1.63281 18.6406 1.99219V2.76562C18.6406 3.125 18.4922 3.28906 18.1328 3.28906H2.96875ZM6.47656 13.1953C5.8125 13.1953 5.45312 12.9062 5.34375 12.1797L4.20312 4.67969H16.8906L15.75 12.1797C15.6406 12.9062 15.2734 13.1953 14.6172 13.1953H6.47656ZM8.38281 11.7344C8.5625 11.7344 8.71094 11.6562 8.84375 11.5312L10.5469 9.82031L12.2578 11.5312C12.3828 11.6484 12.5312 11.7344 12.7266 11.7344C13.0859 11.7344 13.3828 11.4219 13.3828 11.0625C13.3828 10.8672 13.3125 10.7266 13.1797 10.5938L11.4844 8.89062L13.1875 7.17969C13.3203 7.03906 13.3906 6.89844 13.3906 6.71875C13.3906 6.35156 13.0938 6.05469 12.7266 6.05469C12.5547 6.05469 12.4062 6.125 12.2734 6.25781L10.5469 7.96875L8.83594 6.25781C8.70312 6.13281 8.5625 6.0625 8.38281 6.0625C8.01562 6.0625 7.71094 6.35938 7.71094 6.71875C7.71094 6.90625 7.78906 7.05469 7.91406 7.17969L9.61719 8.89062L7.91406 10.6016C7.78906 10.7266 7.71094 10.875 7.71094 11.0625C7.71094 11.4297 8.00781 11.7344 8.38281 11.7344Z" fill="#8E66FE"/>
</svg>
