<svg width="45" height="45" viewBox="0 0 45 45" fill="none" xmlns="http://www.w3.org/2000/svg">
<mask id="path-1-inside-1_18260_17908" fill="white">
<path fill-rule="evenodd" clip-rule="evenodd" d="M25 15.6666C26.841 15.6666 28.3334 17.159 28.3334 19V29C28.3334 30.8409 26.841 32.3333 25 32.3333H16.5381L12.4102 36.0337C11.4913 36.8574 10.0307 36.2053 10.0307 34.9712L10.0306 32.3198C8.33155 32.1668 7.00001 30.7389 7.00001 29V19C7.00001 17.159 8.4924 15.6666 10.3333 15.6666H25Z"/>
</mask>
<path d="M16.5381 32.3333L15.2031 30.8441L15.7729 30.3333H16.5381V32.3333ZM12.4102 36.0337L11.0752 34.5445V34.5445L12.4102 36.0337ZM10.0307 34.9712L12.0307 34.9711L10.0307 34.9712ZM10.0306 32.3198L10.21 30.3278L12.0306 30.4917L12.0307 32.3197L10.0306 32.3198ZM26.3334 19C26.3334 18.2636 25.7364 17.6666 25 17.6666V13.6666C27.9456 13.6666 30.3334 16.0544 30.3334 19H26.3334ZM26.3334 29V19H30.3334V29H26.3334ZM25 30.3333C25.7364 30.3333 26.3334 29.7364 26.3334 29H30.3334C30.3334 31.9455 27.9456 34.3333 25 34.3333V30.3333ZM16.5381 30.3333H25V34.3333H16.5381V30.3333ZM11.0752 34.5445L15.2031 30.8441L17.8731 33.8225L13.7452 37.5229L11.0752 34.5445ZM12.0307 34.9711C12.0307 34.4756 11.4442 34.2137 11.0752 34.5445L13.7452 37.5229C11.5383 39.5012 8.03076 37.9349 8.0307 34.9712L12.0307 34.9711ZM12.0307 32.3197L12.0307 34.9711L8.0307 34.9712L8.03064 32.3198L12.0307 32.3197ZM9.00002 29C9.00002 29.6945 9.53243 30.2668 10.21 30.3278L9.85134 34.3117C7.13066 34.0668 5.00001 31.7833 5.00001 29H9.00002ZM9.00002 19V29H5.00001V19H9.00002ZM10.3333 17.6666C9.59697 17.6666 9.00002 18.2636 9.00002 19H5.00001C5.00001 16.0544 7.38782 13.6666 10.3333 13.6666V17.6666ZM25 17.6666H10.3333V13.6666H25V17.6666Z" fill="url(#paint0_linear_18260_17908)" mask="url(#path-1-inside-1_18260_17908)"/>
<mask id="path-3-inside-2_18260_17908" fill="white">
<path fill-rule="evenodd" clip-rule="evenodd" d="M20.9997 9C19.1588 9 17.6664 10.4924 17.6664 12.3333V22.3334C17.6664 24.1743 19.1588 25.6667 20.9997 25.6667H29.4618L33.5897 29.3671C34.5087 30.1908 35.9692 29.5386 35.9692 28.3045L35.9693 25.6531C37.6683 25.5001 38.9997 24.0722 38.9997 22.3334V12.3333C38.9997 10.4924 37.5074 9 35.6664 9H20.9997Z"/>
</mask>
<path fill-rule="evenodd" clip-rule="evenodd" d="M20.9997 9C19.1588 9 17.6664 10.4924 17.6664 12.3333V22.3334C17.6664 24.1743 19.1588 25.6667 20.9997 25.6667H29.4618L33.5897 29.3671C34.5087 30.1908 35.9692 29.5386 35.9692 28.3045L35.9693 25.6531C37.6683 25.5001 38.9997 24.0722 38.9997 22.3334V12.3333C38.9997 10.4924 37.5074 9 35.6664 9H20.9997Z" fill="url(#paint1_linear_18260_17908)"/>
<path d="M29.4618 25.6667L30.7968 24.1775L30.227 23.6667H29.4618V25.6667ZM33.5897 29.3671L34.9247 27.8778V27.8778L33.5897 29.3671ZM35.9692 28.3045L33.9692 28.3045L35.9692 28.3045ZM35.9693 25.6531L35.7899 23.6612L33.9693 23.8251L33.9693 25.6531L35.9693 25.6531ZM19.6664 12.3333C19.6664 11.597 20.2633 11 20.9997 11V7C18.0542 7 15.6664 9.38781 15.6664 12.3333H19.6664ZM19.6664 22.3334V12.3333H15.6664V22.3334H19.6664ZM20.9997 23.6667C20.2633 23.6667 19.6664 23.0697 19.6664 22.3334H15.6664C15.6664 25.2789 18.0542 27.6667 20.9997 27.6667V23.6667ZM29.4618 23.6667H20.9997V27.6667H29.4618V23.6667ZM34.9247 27.8778L30.7968 24.1775L28.1269 27.1559L32.2547 30.8563L34.9247 27.8778ZM33.9692 28.3045C33.9692 27.8089 34.5557 27.547 34.9247 27.8778L32.2547 30.8563C34.4616 32.8346 37.9692 31.2683 37.9692 28.3046L33.9692 28.3045ZM33.9693 25.6531L33.9692 28.3045L37.9692 28.3046L37.9693 25.6532L33.9693 25.6531ZM36.9997 22.3334C36.9997 23.0278 36.4674 23.6002 35.7899 23.6612L36.1487 27.6451C38.8692 27.4 40.9997 25.1166 40.9997 22.3334H36.9997ZM36.9997 12.3333V22.3334H40.9997V12.3333H36.9997ZM35.6664 11C36.4028 11 36.9997 11.597 36.9997 12.3333H40.9997C40.9997 9.38782 38.6119 7 35.6664 7V11ZM20.9997 11H35.6664V7H20.9997V11Z" fill="url(#paint2_linear_18260_17908)" mask="url(#path-3-inside-2_18260_17908)"/>
<defs>
<linearGradient id="paint0_linear_18260_17908" x1="7.14016" y1="36.4009" x2="32.3607" y2="24.4937" gradientUnits="userSpaceOnUse">
<stop stop-color="#7A0FD9"/>
<stop offset="1" stop-color="#695CF8"/>
</linearGradient>
<linearGradient id="paint1_linear_18260_17908" x1="38.8596" y1="29.7343" x2="13.6391" y2="17.827" gradientUnits="userSpaceOnUse">
<stop stop-color="#7A0FD9"/>
<stop offset="1" stop-color="#695CF8"/>
</linearGradient>
<linearGradient id="paint2_linear_18260_17908" x1="38.8596" y1="29.7343" x2="13.6391" y2="17.827" gradientUnits="userSpaceOnUse">
<stop stop-color="#7A0FD9"/>
<stop offset="1" stop-color="#695CF8"/>
</linearGradient>
</defs>
</svg>
