<svg width="26" height="26" viewBox="0 0 26 26" fill="none" xmlns="http://www.w3.org/2000/svg">
<rect width="26" height="26" rx="13" fill="#F1F7FF"/>
<path d="M7.82688 14.5077C7.82688 14.5077 7.65235 13.2967 6.37242 13.2967C5.50621 13.2967 5.72599 16.6904 7.09857 17.0137C8.47116 17.3369 8.55304 15.7747 8.55304 15.7747L7.82688 14.5077Z" fill="#F9D7BB"/>
<path d="M19.0313 14.5077C19.0313 14.5077 19.2059 13.2967 20.4858 13.2967C21.352 13.2967 21.1322 16.6904 19.7596 17.0137C18.3871 17.3369 18.3052 15.7747 18.3052 15.7747L19.0313 14.5077Z" fill="#F9D7BB"/>
<path d="M13.4294 20.9979C9.87408 20.9979 6.99316 16.9017 6.99316 12.6482C6.99316 8.3947 9.87623 5.59136 13.4294 5.59136C16.9826 5.59136 19.8657 8.3947 19.8657 12.6482C19.8657 16.9017 16.9826 20.9979 13.4294 20.9979Z" fill="#F9D7BB"/>
<path d="M18.6806 7.63829C18.6806 7.63829 17.2175 4.35228 13.6988 4.48803C11.1411 4.58499 7.5577 6.66865 5.43095 6.21184C5.43095 6.21184 5.05387 7.89902 5.72615 9.16602L5 9.04104C5 9.04104 5.53007 10.7821 6.43722 12.0146L6.5622 13.2967C6.5622 13.2967 7.1957 13.7406 7.43704 14.4689C7.43704 14.4689 8.41961 11.4113 8.33988 9.76935C8.33988 9.76935 10.1714 10.1744 11.6798 9.85123C11.6798 9.85123 10.6304 10.6054 10.1456 10.7541C10.1456 10.7541 14.8494 11.198 18.1182 9.3858C18.1182 9.3858 18.297 13.1394 19.3572 14.2879C19.3572 14.2879 19.7062 13.5165 20.232 13.3182C20.232 13.3182 21.6929 8.776 18.6849 7.64475L18.6806 7.63829Z" fill="#8E8474"/>
<path d="M7.39404 14.1804C7.60952 15.3655 8.70845 17.7573 11.3804 17.8435" stroke="#333333" stroke-width="0.5"/>
<rect x="10" y="17" width="3.72754" height="1.55314" rx="0.776571" fill="#333333"/>
<rect x="10.3105" y="17.3105" width="3.10628" height="0.931885" rx="0.465942" fill="#747474"/>
</svg>
