<svg width="20" height="17" viewBox="0 0 20 17" fill="none" xmlns="http://www.w3.org/2000/svg">
<path d="M0.671875 8.21094C0.671875 8.53125 0.921875 8.83594 1.34375 8.83594C1.5625 8.83594 1.74219 8.71875 1.90625 8.58594L9.72656 2.02344C9.89844 1.86719 10.1094 1.86719 10.2812 2.02344L18.1016 8.58594C18.2578 8.71875 18.4375 8.83594 18.6562 8.83594C19.0234 8.83594 19.3203 8.60938 19.3203 8.23438C19.3203 8 19.2422 7.84375 19.0781 7.70312L16.8906 5.85938V2.73438C16.8906 2.39062 16.6719 2.17188 16.3281 2.17188H15.4922C15.1562 2.17188 14.9297 2.39062 14.9297 2.73438V4.21094L10.9453 0.867188C10.3672 0.375 9.64844 0.375 9.0625 0.867188L0.921875 7.70312C0.75 7.84375 0.671875 8.03125 0.671875 8.21094ZM3.10938 15.1797C3.10938 16.2656 3.76562 16.9062 4.86719 16.9062H15.1406C16.2422 16.9062 16.8906 16.2656 16.8906 15.1797V8.99219L10.4688 3.60938C10.1719 3.35938 9.82031 3.36719 9.53125 3.60938L3.10938 8.99219V15.1797ZM12.0078 15.6484H7.97656V10.4844C7.97656 10.125 8.21875 9.89062 8.57812 9.89062H11.4141C11.7734 9.89062 12.0078 10.125 12.0078 10.4844V15.6484Z" fill="#292929"/>
</svg>
