<svg width="13" height="8" viewBox="0 0 13 8" fill="none" xmlns="http://www.w3.org/2000/svg">
<path d="M6.68359 7.20801C6.85449 7.20801 7.02539 7.13965 7.1416 7.00977L12.4326 1.58887C12.5488 1.47266 12.6172 1.32227 12.6172 1.15137C12.6172 0.795898 12.3506 0.522461 11.9951 0.522461C11.8242 0.522461 11.667 0.59082 11.5508 0.700195L6.68359 5.67676L1.80957 0.700195C1.7002 0.59082 1.54297 0.522461 1.36523 0.522461C1.00977 0.522461 0.743164 0.795898 0.743164 1.15137C0.743164 1.32227 0.811523 1.47266 0.927734 1.5957L6.21875 7.00977C6.34863 7.13965 6.50586 7.20801 6.68359 7.20801Z" fill="#AEAEAE"/>
</svg>
