<svg width="16" height="16" viewBox="0 0 16 16" fill="none" xmlns="http://www.w3.org/2000/svg">
<path d="M14.7734 1.95312L13.7031 0.875L14.2734 0.3125C14.5312 0.0625 14.9141 0.03125 15.1562 0.273438L15.3359 0.460938C15.6016 0.71875 15.6016 1.09375 15.3359 1.375L14.7734 1.95312ZM5.375 10.4766C5.22656 10.5391 5.07031 10.3594 5.13281 10.2266L5.83594 8.75781L13.125 1.46875L14.1953 2.52344L6.89844 9.8125L5.375 10.4766ZM2.53125 15.5391C0.90625 15.5391 0.078125 14.7344 0.078125 13.1172V4.11719C0.078125 2.50781 0.90625 1.69531 2.53125 1.69531H10.9297L9.67188 2.95312H2.55469C1.77344 2.95312 1.33594 3.375 1.33594 4.1875V13.0547C1.33594 13.8672 1.77344 14.2812 2.55469 14.2812H11.6875C12.2266 14.2812 12.6641 13.8672 12.6641 13.0547V6.02344L13.9219 4.76562V13.1172C13.9219 14.7266 13.1094 15.5391 11.7031 15.5391H2.53125Z" fill="#8863F2"/>
</svg>
