<svg width="22" height="22" viewBox="0 0 22 22" fill="none" xmlns="http://www.w3.org/2000/svg">
<path d="M0.392578 19.7148C0.295898 19.3809 0.243164 19.0029 0.243164 18.5723V9.75684C0.243164 8.40332 0.568359 7.66504 1.54395 6.99707L9.08496 1.79395C10.4912 0.827148 11.5107 0.827148 12.917 1.79395L20.458 6.99707C21.4248 7.66504 21.7588 8.40332 21.7588 9.75684V18.5723C21.7588 19.0029 21.6973 19.3896 21.6006 19.7236L14.8682 13.6592L19.5352 8.99219C19.7725 8.76367 19.7637 8.4209 19.4736 8.21875L11.8711 3.01562C11.2383 2.57617 10.7637 2.57617 10.1221 3.01562L2.52832 8.21875C2.22949 8.4209 2.21191 8.74609 2.44922 8.9834L7.125 13.6592L0.392578 19.7148ZM3.12598 21.4287C2.16797 21.4287 1.53516 21.1738 1.07812 20.7783L9.80566 12.9297C10.21 12.5693 10.5879 12.4111 11.001 12.4111C11.4141 12.4111 11.792 12.5693 12.1963 12.9297L20.915 20.7871C20.458 21.1826 19.8252 21.4287 18.876 21.4287H3.12598Z" fill="#7A0FD9"/>
</svg>
