<svg width="18" height="19" viewBox="0 0 18 19" fill="none" xmlns="http://www.w3.org/2000/svg">
<path fill-rule="evenodd" clip-rule="evenodd" d="M0 3.76256C0 3.25107 0.203188 2.76053 0.564865 2.39885C0.926543 2.03717 1.41708 1.83398 1.92857 1.83398H16.0714C16.5829 1.83398 17.0735 2.03717 17.4351 2.39885C17.7968 2.76053 18 3.25107 18 3.76256V4.20227L9.49243 9.87484C9.34392 9.96421 9.1733 10.0101 9 10.0073C8.8267 10.0101 8.65608 9.96421 8.50757 9.87484L0 4.20227V3.76256ZM0 6.13341V14.6911C0 15.2026 0.203188 15.6932 0.564865 16.0548C0.926543 16.4165 1.41708 16.6197 1.92857 16.6197H16.0714C16.5829 16.6197 17.0735 16.4165 17.4351 16.0548C17.7968 15.6932 18 15.2026 18 14.6911V6.13341L10.3796 11.2146L10.3731 11.2197C9.96291 11.4806 9.48615 11.6176 9 11.6144C8.51786 11.6144 8.03186 11.4833 7.62686 11.2197L7.62043 11.2146L0 6.13341Z" fill="url(#paint0_linear_32759_34768)"/>
<defs>
<linearGradient id="paint0_linear_32759_34768" x1="17.8817" y1="16.6197" x2="-1.95207" y2="5.54012" gradientUnits="userSpaceOnUse">
<stop stop-color="#7A0FD9"/>
<stop offset="1" stop-color="#695CF8"/>
</linearGradient>
</defs>
</svg>
