<svg width="20" height="18" viewBox="0 0 20 18" fill="none" xmlns="http://www.w3.org/2000/svg">
<path d="M3.53125 17.8203H11.8516C13.5234 17.8203 14.3906 16.9453 14.3906 15.2578V11.7422H12.8594V15.1641C12.8594 15.8906 12.4766 16.2891 11.7188 16.2891H3.65625C2.89844 16.2891 2.52344 15.8906 2.52344 15.1641V3.5625C2.52344 2.83594 2.89844 2.4375 3.65625 2.4375H11.7188C12.4766 2.4375 12.8594 2.83594 12.8594 3.5625V6.99219H14.3906V3.46875C14.3906 1.78906 13.5234 0.90625 11.8516 0.90625H3.53125C1.85938 0.90625 0.992188 1.78906 0.992188 3.46875V15.2578C0.992188 16.9453 1.85938 17.8203 3.53125 17.8203ZM8.5625 10.0781H16.4375L17.5938 10.0234L17.0234 10.5078L15.8594 11.6016C15.7188 11.7266 15.6406 11.9062 15.6406 12.0859C15.6406 12.4375 15.9062 12.7344 16.2656 12.7344C16.4531 12.7344 16.5938 12.6562 16.7266 12.5234L19.2578 9.90625C19.4375 9.71875 19.5 9.54688 19.5 9.35938C19.5 9.17188 19.4375 9 19.2578 8.8125L16.7266 6.1875C16.5938 6.05469 16.4531 5.98438 16.2656 5.98438C15.9062 5.98438 15.6406 6.26562 15.6406 6.625C15.6406 6.79688 15.7188 6.98438 15.8594 7.10938L17.0234 8.21094L17.6016 8.69531L16.4375 8.63281H8.5625C8.17969 8.63281 7.85156 8.96094 7.85156 9.35938C7.85156 9.75781 8.17969 10.0781 8.5625 10.0781Z" fill="#E16060"/>
</svg>
