<svg width="17" height="17" viewBox="0 0 17 17" fill="none" xmlns="http://www.w3.org/2000/svg">
<path fill-rule="evenodd" clip-rule="evenodd" d="M12.2778 11.3318C13.5112 11.3318 14.5614 12.1203 14.9506 13.2204H16.0556C16.306 13.2204 16.5463 13.3199 16.7234 13.497C16.9005 13.6741 17 13.9143 17 14.1647C17 14.4152 16.9005 14.6554 16.7234 14.8325C16.5463 15.0096 16.306 15.1091 16.0556 15.1091H14.9506C14.7554 15.662 14.3936 16.1408 13.9149 16.4795C13.4362 16.8181 12.8642 17 12.2778 17C11.6914 17 11.1194 16.8181 10.6407 16.4795C10.162 16.1408 9.80012 15.662 9.605 15.1091H0.944444C0.693962 15.1091 0.453739 15.0096 0.276621 14.8325C0.0995036 14.6554 0 14.4152 0 14.1647C0 13.9143 0.0995036 13.6741 0.276621 13.497C0.453739 13.3199 0.693962 13.2204 0.944444 13.2204H9.605C9.80039 12.6678 10.1624 12.1895 10.6411 11.8512C11.1198 11.513 11.6916 11.3315 12.2778 11.3318ZM12.2778 13.2204C12.0273 13.2204 11.7871 13.3199 11.61 13.497C11.4328 13.6741 11.3333 13.9143 11.3333 14.1647C11.3333 14.4152 11.4328 14.6554 11.61 14.8325C11.7871 15.0096 12.0273 15.1091 12.2778 15.1091C12.5283 15.1091 12.7685 15.0096 12.9456 14.8325C13.1227 14.6554 13.2222 14.4152 13.2222 14.1647C13.2222 13.9143 13.1227 13.6741 12.9456 13.497C12.7685 13.3199 12.5283 13.2204 12.2778 13.2204ZM4.72222 5.6659C5.27849 5.66582 5.82247 5.82947 6.28635 6.13644C6.75022 6.44341 7.11346 6.88011 7.33078 7.39211L7.39406 7.55453H16.0556C16.2963 7.55479 16.5278 7.64696 16.7028 7.81218C16.8779 7.97741 16.9832 8.20323 16.9973 8.4435C17.0114 8.68377 16.9333 8.92037 16.7787 9.10493C16.6242 9.28951 16.4051 9.40812 16.1661 9.43655L16.0556 9.44316H7.395C7.2046 9.98169 6.85589 10.4501 6.39458 10.787C5.93327 11.124 5.38091 11.3136 4.80992 11.3312C4.23892 11.3487 3.67594 11.1934 3.1948 10.8854C2.71366 10.5775 2.33681 10.1314 2.11367 9.60558L2.04944 9.44316H0.944444C0.703725 9.44289 0.472192 9.35073 0.297152 9.1855C0.122113 9.02028 0.0167781 8.79446 0.00267078 8.55418C-0.0114365 8.31391 0.0667482 8.07732 0.22125 7.89275C0.375752 7.70818 0.594909 7.58956 0.833944 7.56114L0.944444 7.55453H2.04944C2.24483 7.00195 2.60682 6.52358 3.08552 6.18532C3.56421 5.84707 4.13605 5.66559 4.72222 5.6659ZM4.72222 7.55453C4.47174 7.55453 4.23152 7.65402 4.0544 7.83111C3.87728 8.0082 3.77778 8.24839 3.77778 8.49884C3.77778 8.74929 3.87728 8.98948 4.0544 9.16657C4.23152 9.34367 4.47174 9.44316 4.72222 9.44316C4.9727 9.44316 5.21293 9.34367 5.39005 9.16657C5.56716 8.98948 5.66667 8.74929 5.66667 8.49884C5.66667 8.24839 5.56716 8.0082 5.39005 7.83111C5.21293 7.65402 4.9727 7.55453 4.72222 7.55453ZM12.2778 3.89505e-07C13.5112 3.89505e-07 14.5614 0.788504 14.9506 1.88863H16.0556C16.306 1.88863 16.5463 1.98812 16.7234 2.16522C16.9005 2.34231 17 2.5825 17 2.83295C17 3.0834 16.9005 3.32359 16.7234 3.50068C16.5463 3.67777 16.306 3.77726 16.0556 3.77726H14.9506C14.7554 4.33019 14.3936 4.80899 13.9149 5.14767C13.4362 5.48634 12.8642 5.66821 12.2778 5.66821C11.6914 5.66821 11.1194 5.48634 10.6407 5.14767C10.162 4.80899 9.80012 4.33019 9.605 3.77726H0.944444C0.693962 3.77726 0.453739 3.67777 0.276621 3.50068C0.0995036 3.32359 0 3.0834 0 2.83295C0 2.5825 0.0995036 2.34231 0.276621 2.16522C0.453739 1.98812 0.693962 1.88863 0.944444 1.88863H9.605C9.80039 1.33606 10.1624 0.857682 10.6411 0.519427C11.1198 0.181172 11.6916 -0.000306865 12.2778 3.89505e-07ZM12.2778 1.88863C12.0273 1.88863 11.7871 1.98812 11.61 2.16522C11.4328 2.34231 11.3333 2.5825 11.3333 2.83295C11.3333 3.0834 11.4328 3.32359 11.61 3.50068C11.7871 3.67777 12.0273 3.77726 12.2778 3.77726C12.5283 3.77726 12.7685 3.67777 12.9456 3.50068C13.1227 3.32359 13.2222 3.0834 13.2222 2.83295C13.2222 2.5825 13.1227 2.34231 12.9456 2.16522C12.7685 1.98812 12.5283 1.88863 12.2778 1.88863Z" fill="url(#paint0_linear_28826_17287)"/>
<defs>
<linearGradient id="paint0_linear_28826_17287" x1="16.8883" y1="17" x2="-3.41419" y2="7.68385" gradientUnits="userSpaceOnUse">
<stop stop-color="#7A0FD9"/>
<stop offset="1" stop-color="#695CF8"/>
</linearGradient>
</defs>
</svg>
