<svg width="15" height="15" viewBox="0 0 15 15" fill="none" xmlns="http://www.w3.org/2000/svg">
<path fill-rule="evenodd" clip-rule="evenodd" d="M7.83929 14.151C9.10321 13.4954 13.466 10.9228 13.466 6.64755C13.466 3.35267 10.795 0.681641 7.50009 0.681641C4.20521 0.681641 1.53418 3.35267 1.53418 6.64755C1.53418 10.9228 5.89696 13.4954 7.16088 14.151C7.37634 14.2627 7.62384 14.2627 7.83929 14.151ZM7.50009 9.20437C8.91222 9.20437 10.0569 8.05968 10.0569 6.64755C10.0569 5.23546 8.91222 4.09073 7.50009 4.09073C6.08796 4.09073 4.94327 5.23546 4.94327 6.64755C4.94327 8.05968 6.08796 9.20437 7.50009 9.20437Z" fill="#433A4B"/>
</svg>
