<svg width="20" height="20" viewBox="0 0 20 20" fill="none" xmlns="http://www.w3.org/2000/svg">
<g clip-path="url(#clip0_14783_60876)">
<path d="M6.875 10V6.875H7.5C8.16281 6.87426 8.79826 6.61062 9.26694 6.14194C9.73562 5.67326 9.99926 5.03781 10 4.375V2.5H8.125C7.48506 2.50102 6.87015 2.74877 6.40825 3.19169C6.08455 2.60408 5.60922 2.114 5.03177 1.7725C4.45432 1.431 3.79587 1.25057 3.125 1.25H1.25V3.125C1.25109 4.11923 1.64653 5.07242 2.34956 5.77544C3.05258 6.47847 4.00577 6.87391 5 6.875H5.625V10H1.25V11.25H10V10H6.875ZM8.125 3.75H8.75V4.375C8.74967 4.70642 8.61787 5.02417 8.38352 5.25852C8.14917 5.49287 7.83142 5.62467 7.5 5.625H6.875V5C6.87533 4.66858 7.00713 4.35083 7.24148 4.11648C7.47583 3.88213 7.79358 3.75033 8.125 3.75ZM5 5.625C4.33719 5.62426 3.70173 5.36062 3.23306 4.89194C2.76438 4.42327 2.50074 3.78781 2.5 3.125V2.5H3.125C3.78781 2.50074 4.42327 2.76438 4.89194 3.23306C5.36062 3.70173 5.62426 4.33719 5.625 5V5.625H5Z" fill="#433A4B"/>
<path d="M10 13.125H1.25V14.375H10V13.125Z" fill="#433A4B"/>
<path d="M10 16.25H1.25V17.5H10V16.25Z" fill="#433A4B"/>
<path d="M15.625 18.75C14.9697 18.7519 14.3305 18.5472 13.7983 18.165C13.266 17.7828 12.8677 17.2426 12.6601 16.6211C12.4525 15.9995 12.446 15.3284 12.6417 14.703C12.8373 14.0776 13.2252 13.5298 13.75 13.1375V9.375C13.75 8.87772 13.9475 8.40081 14.2992 8.04917C14.6508 7.69754 15.1277 7.5 15.625 7.5C16.1223 7.5 16.5992 7.69754 16.9508 8.04917C17.3025 8.40081 17.5 8.87772 17.5 9.375V13.1375C18.0248 13.5298 18.4126 14.0776 18.6083 14.703C18.804 15.3284 18.7975 15.9995 18.5899 16.6211C18.3823 17.2426 17.984 17.7828 17.4517 18.165C16.9195 18.5472 16.2803 18.7519 15.625 18.75ZM15.625 8.75C15.4593 8.75018 15.3004 8.81609 15.1833 8.93326C15.0661 9.05043 15.0002 9.2093 15 9.375V13.8312L14.6893 14.0121C14.4041 14.1739 14.167 14.4084 14.002 14.6918C13.837 14.9751 13.75 15.2971 13.75 15.625C13.75 16.1223 13.9475 16.5992 14.2992 16.9508C14.6508 17.3025 15.1277 17.5 15.625 17.5C16.1223 17.5 16.5992 17.3025 16.9508 16.9508C17.3025 16.5992 17.5 16.1223 17.5 15.625C17.5 15.2971 17.4131 14.975 17.2481 14.6916C17.0831 14.4082 16.8459 14.1737 16.5607 14.0118L16.25 13.8312V9.375C16.2498 9.2093 16.1839 9.05043 16.0667 8.93326C15.9496 8.81609 15.7907 8.75018 15.625 8.75Z" fill="#433A4B"/>
</g>
<defs>
<clipPath id="clip0_14783_60876">
<rect width="20" height="20" fill="white"/>
</clipPath>
</defs>
</svg>
