<svg width="19" height="17" viewBox="0 0 19 17" fill="none" xmlns="http://www.w3.org/2000/svg">
<g clip-path="url(#clip0_5573_18603)">
<path fill-rule="evenodd" clip-rule="evenodd" d="M15.3089 1.03621C14.7187 0.765709 14.0825 0.625 13.4375 0.625C12.7925 0.625 12.1563 0.765709 11.5661 1.03621C10.9762 1.30656 10.4463 1.70003 10.0041 2.18939C9.73433 2.48789 9.26568 2.48789 8.99591 2.18939C8.10184 1.2001 6.86905 0.625009 5.5625 0.625009C4.25595 0.625009 3.02316 1.2001 2.12909 2.18939C1.23764 3.17576 0.750002 4.49622 0.750002 5.8568C0.750002 7.21742 1.23764 8.53789 2.12909 9.52419L7.55251 15.5251C8.59473 16.6784 10.4053 16.6784 11.4475 15.5251L16.8709 9.52419C17.313 9.03506 17.6596 8.45896 17.8947 7.83089C18.1299 7.20281 18.25 6.53224 18.25 5.8568C18.25 5.18137 18.1299 4.51082 17.8947 3.88276C17.6596 3.25465 17.313 2.67857 16.8709 2.18939C16.4286 1.70003 15.8987 1.30656 15.3089 1.03621Z" fill="#8E66FE"/>
</g>
<defs>
<clipPath id="clip0_5573_18603">
<rect width="19" height="17" fill="white" transform="matrix(-1 0 0 1 19 0)"/>
</clipPath>
</defs>
</svg>
