<svg width="17" height="14" viewBox="0 0 17 14" fill="none" xmlns="http://www.w3.org/2000/svg">
<path d="M3.97314 4.41016C3.021 4.41016 2.13477 4.16846 1.2998 3.68506C0.831055 3.42139 0.765137 2.93066 0.999512 2.58643C1.19727 2.28613 1.57812 2.16162 1.94434 2.3667C2.66211 2.78418 3.27002 2.93799 3.97314 2.93799C6.96143 2.93799 8.69727 0.176758 12.0811 0.176758C13.0405 0.176758 13.9194 0.411133 14.7617 0.894531C15.2378 1.17285 15.3037 1.66357 15.062 2.00781C14.8569 2.30078 14.4761 2.41797 14.1099 2.21289C13.3921 1.80273 12.7842 1.6416 12.0811 1.6416C9.0708 1.6416 7.32031 4.41016 3.97314 4.41016ZM13.6045 13.2285C11.7808 13.2285 10.3306 11.8003 10.3306 10.0205C10.3306 9.03906 10.8066 8.07227 11.2241 7.30322L12.8721 4.22705C13.0332 3.92676 13.2822 3.78027 13.6045 3.78027C13.9194 3.78027 14.1685 3.92676 14.3296 4.22705L15.9775 7.30322C16.395 8.07227 16.8784 9.03906 16.8784 10.0205C16.8784 11.8003 15.4282 13.2285 13.6045 13.2285ZM3.98779 8.33594C3.02832 8.33594 2.14209 8.09424 1.30713 7.61084C0.838379 7.34717 0.772461 6.85645 1.00684 6.51221C1.20459 6.21191 1.58545 6.0874 1.95166 6.29248C2.67676 6.70996 3.28467 6.86377 3.98779 6.86377C6.88086 6.86377 8.50684 4.32959 11.7148 4.11719C11.4219 4.67383 11.1216 5.22314 10.8213 5.77979C8.50684 6.32178 6.771 8.33594 3.98779 8.33594ZM3.97314 12.2617C3.021 12.2617 2.13477 12.0273 1.2998 11.5439C0.831055 11.2729 0.765137 10.7822 0.999512 10.438C1.19727 10.1377 1.57812 10.0132 1.94434 10.2183C2.66211 10.6357 3.27002 10.7969 3.97314 10.7969C6.10449 10.7969 7.57666 9.39795 9.48828 8.59961C9.31982 9.14893 9.23193 9.79346 9.30518 10.2622C7.65723 11.0605 6.14111 12.2617 3.97314 12.2617Z" fill="#433A4B"/>
</svg>
