<svg width="20" height="19" viewBox="0 0 20 19" fill="none" xmlns="http://www.w3.org/2000/svg">
<path d="M10 18.7422C14.9658 18.7422 19.0791 14.6377 19.0791 9.66309C19.0791 4.69727 14.9658 0.583984 9.99121 0.583984C5.02539 0.583984 0.920898 4.69727 0.920898 9.66309C0.920898 14.6377 5.03418 18.7422 10 18.7422ZM10 9.36426C8.7168 9.35547 7.67969 8.27441 7.67969 6.82422C7.67969 5.47949 8.7168 4.35449 10 4.35449C11.2832 4.35449 12.3203 5.47949 12.3203 6.82422C12.3203 8.27441 11.2832 9.37305 10 9.36426ZM5.96582 14.2422C5.56152 14.2422 5.36816 13.9697 5.36816 13.6094C5.36816 12.625 6.82715 10.085 10 10.085C13.1729 10.085 14.6318 12.625 14.6318 13.6094C14.6318 13.9697 14.4385 14.2422 14.0342 14.2422H5.96582Z" fill="#8E66FE"/>
</svg>
