<svg width="12" height="12" viewBox="0 0 12 12" fill="none" xmlns="http://www.w3.org/2000/svg">
<path d="M6 11.6704C9.03467 11.6704 11.5483 9.16211 11.5483 6.12207C11.5483 3.0874 9.03467 0.57373 5.99463 0.57373C2.95996 0.57373 0.45166 3.0874 0.45166 6.12207C0.45166 9.16211 2.96533 11.6704 6 11.6704ZM5.40381 8.77539C5.19971 8.77539 5.0332 8.68408 4.88281 8.49072L3.56689 6.89014C3.47021 6.77197 3.42188 6.64307 3.42188 6.50879C3.42188 6.23486 3.63672 6.00928 3.91602 6.00928C4.08252 6.00928 4.21143 6.07373 4.3457 6.24561L5.38232 7.56152L7.60596 4.00586C7.71875 3.81787 7.86914 3.72656 8.04102 3.72656C8.30957 3.72656 8.55127 3.91455 8.55127 4.19385C8.55127 4.31738 8.48682 4.45166 8.41162 4.56982L5.89795 8.49072C5.77441 8.67334 5.60254 8.77539 5.40381 8.77539Z" fill="#6DA000"/>
</svg>
