<svg width="19" height="19" viewBox="0 0 19 19" fill="none" xmlns="http://www.w3.org/2000/svg">
<path d="M9.49121 18.334C8.24902 18.334 7.08008 18.0967 5.98438 17.6221C4.88867 17.1533 3.92188 16.5 3.08398 15.6621C2.25195 14.8242 1.59863 13.8574 1.12402 12.7617C0.649414 11.666 0.412109 10.4971 0.412109 9.25488C0.412109 8.0127 0.649414 6.84375 1.12402 5.74805C1.59863 4.65234 2.25195 3.68848 3.08398 2.85645C3.92188 2.01855 4.88574 1.3623 5.97559 0.887695C7.07129 0.413086 8.24023 0.175781 9.48242 0.175781C10.7305 0.175781 11.9023 0.413086 12.998 0.887695C14.0938 1.3623 15.0605 2.01855 15.8984 2.85645C16.7363 3.68848 17.3926 4.65234 17.8672 5.74805C18.3418 6.84375 18.5791 8.0127 18.5791 9.25488C18.5791 10.4971 18.3418 11.666 17.8672 12.7617C17.3926 13.8574 16.7363 14.8242 15.8984 15.6621C15.0605 16.5 14.0938 17.1533 12.998 17.6221C11.9023 18.0967 10.7334 18.334 9.49121 18.334ZM7.88281 14.3086H11.583C11.7939 14.3086 11.9697 14.2441 12.1104 14.1152C12.251 13.9805 12.3213 13.8076 12.3213 13.5967C12.3213 13.3975 12.251 13.2305 12.1104 13.0957C11.9697 12.9551 11.7939 12.8848 11.583 12.8848H10.5723V8.57812C10.5723 8.30273 10.5049 8.08008 10.3701 7.91016C10.2354 7.74023 10.0391 7.65527 9.78125 7.65527H8.04102C7.83594 7.65527 7.66309 7.72559 7.52246 7.86621C7.38184 8.00684 7.31152 8.17383 7.31152 8.36719C7.31152 8.57812 7.38184 8.75098 7.52246 8.88574C7.66309 9.01465 7.83594 9.0791 8.04102 9.0791H8.96387V12.8848H7.88281C7.67773 12.8848 7.50195 12.9551 7.35547 13.0957C7.21484 13.2305 7.14453 13.3975 7.14453 13.5967C7.14453 13.8076 7.21484 13.9805 7.35547 14.1152C7.50195 14.2441 7.67773 14.3086 7.88281 14.3086ZM9.43848 6.24023C9.79004 6.24023 10.0859 6.11719 10.3262 5.87109C10.5664 5.625 10.6865 5.33203 10.6865 4.99219C10.6865 4.63477 10.5664 4.33594 10.3262 4.0957C10.0859 3.84961 9.79004 3.72656 9.43848 3.72656C9.09277 3.72656 8.79688 3.84961 8.55078 4.0957C8.30469 4.33594 8.18164 4.63477 8.18164 4.99219C8.18164 5.33203 8.30469 5.625 8.55078 5.87109C8.79688 6.11719 9.09277 6.24023 9.43848 6.24023Z" fill="#7A0FD9"/>
</svg>
