<svg width="28" height="26" viewBox="0 0 28 26" fill="none" xmlns="http://www.w3.org/2000/svg">
<path d="M8.02344 25.8164C7.29688 25.8164 6.85156 25.3008 6.85156 24.5039V21.1055H6.44141C3.11328 21.1055 0.96875 19.0312 0.96875 15.5156V6.33984C0.96875 2.82422 3.03125 0.726562 6.57031 0.726562H21.418C24.9688 0.726562 27.0195 2.82422 27.0195 6.33984V15.5156C27.0195 19.0195 24.9688 21.1055 21.418 21.1055H13.9062L9.53516 25.0312C8.92578 25.582 8.53906 25.8164 8.02344 25.8164ZM13.9648 7.32422C14.8438 7.32422 15.5586 6.59766 15.5586 5.70703C15.5586 4.79297 14.8438 4.07812 13.9648 4.07812C13.0742 4.07812 12.3477 4.79297 12.3477 5.70703C12.3477 6.59766 13.0742 7.32422 13.9648 7.32422ZM11.9844 17.1445H16.5781C17.1289 17.1445 17.5508 16.7578 17.5508 16.1953C17.5508 15.6797 17.1289 15.2578 16.5781 15.2578H15.4297V10.207C15.4297 9.46875 15.0664 8.98828 14.3633 8.98828H12.1953C11.6445 8.98828 11.2227 9.39844 11.2227 9.92578C11.2227 10.4766 11.6445 10.875 12.1953 10.875H13.2969V15.2578H11.9844C11.4336 15.2578 11.0117 15.6797 11.0117 16.1953C11.0117 16.7578 11.4336 17.1445 11.9844 17.1445Z" fill="white"/>
</svg>
