<svg width="17" height="18" viewBox="0 0 17 18" fill="none" xmlns="http://www.w3.org/2000/svg">
<path d="M3.17383 17.3721C1.27539 17.3721 0.291016 16.3965 0.291016 14.5156V3.81934C0.291016 1.93848 1.27539 0.962891 3.17383 0.962891H13.8174C15.7158 0.962891 16.7002 1.93848 16.7002 3.81934V14.5156C16.7002 16.3877 15.7158 17.3721 13.8174 17.3721H3.17383ZM8.46484 6.14844C9.15918 6.14844 9.71289 5.58594 9.71289 4.8916C9.71289 4.17969 9.15918 3.62598 8.46484 3.62598C7.77051 3.62598 7.20801 4.17969 7.20801 4.8916C7.20801 5.58594 7.77051 6.14844 8.46484 6.14844ZM6.90039 14.2168H10.6094C11.0225 14.2168 11.3477 13.918 11.3477 13.4961C11.3477 13.1094 11.0225 12.793 10.6094 12.793H9.59863V8.47754C9.59863 7.92383 9.31738 7.56348 8.79883 7.56348H7.06738C6.6543 7.56348 6.33789 7.87988 6.33789 8.2666C6.33789 8.68848 6.6543 8.9873 7.06738 8.9873H7.99023V12.793H6.90039C6.4873 12.793 6.1709 13.1094 6.1709 13.4961C6.1709 13.918 6.4873 14.2168 6.90039 14.2168Z" fill="#8E66FE"/>
</svg>
