<svg width="37" height="18" viewBox="0 0 37 18" fill="none" xmlns="http://www.w3.org/2000/svg">
<path d="M0 0H37V18H18C8.05888 18 0 9.94112 0 0Z" fill="#F1F7FF"/>
<path d="M21.8254 5.225L24.66 8.575C24.9054 8.865 24.9054 9.345 24.66 9.635L21.8254 12.985C21.58 13.275 21.1738 13.275 20.9285 12.985C20.6831 12.695 20.6831 12.215 20.9285 11.925L22.68 9.855H13.6346C13.2877 9.855 13 9.515 13 9.105C13 8.695 13.2877 8.355 13.6346 8.355H22.68L20.9285 6.285C20.8015 6.135 20.7423 5.945 20.7423 5.755C20.7423 5.565 20.8015 5.375 20.9285 5.225C21.1738 4.925 21.5715 4.925 21.8254 5.225Z" fill="#B6CFF1"/>
</svg>
