<svg width="44" height="18" viewBox="0 0 44 18" fill="none" xmlns="http://www.w3.org/2000/svg">
<path d="M0 0H44V18H18C8.05888 18 0 9.94112 0 0Z" fill="#9FC6FC"/>
<path d="M26.5944 5.225L29.429 8.575C29.6744 8.865 29.6744 9.345 29.429 9.635L26.5944 12.985C26.349 13.275 25.9429 13.275 25.6975 12.985C25.4521 12.695 25.4521 12.215 25.6975 11.925L27.449 9.855H18.4037C18.0567 9.855 17.769 9.515 17.769 9.105C17.769 8.695 18.0567 8.355 18.4037 8.355H27.449L25.6975 6.285C25.5706 6.135 25.5114 5.945 25.5114 5.755C25.5114 5.565 25.5706 5.375 25.6975 5.225C25.9429 4.925 26.3406 4.925 26.5944 5.225Z" fill="#F9FDFF"/>
</svg>
