<svg width="9" height="13" viewBox="0 0 9 13" fill="none" xmlns="http://www.w3.org/2000/svg">
<path d="M0.811668 6.43555C0.811668 6.10059 0.927879 5.82031 1.21499 5.54687L6.38296 0.481445C6.58804 0.276367 6.84097 0.173828 7.14175 0.173828C7.74331 0.173828 8.2355 0.65918 8.2355 1.26074C8.2355 1.56836 8.11245 1.8418 7.88686 2.06738L3.38198 6.44238L7.88686 10.8105C8.11245 11.0293 8.2355 11.3096 8.2355 11.6104C8.2355 12.2051 7.74331 12.6973 7.14175 12.6973C6.84097 12.6973 6.58804 12.5947 6.38296 12.3896L1.21499 7.32422C0.934715 7.05762 0.811668 6.77734 0.811668 6.43555Z" fill="#8E66FE"/>
</svg>
