<svg width="60" height="60" viewBox="0 0 60 60" fill="none" xmlns="http://www.w3.org/2000/svg">
<path d="M40 40L30 30L20 40" stroke="black" stroke-opacity="0.4" stroke-width="2" stroke-linecap="round" stroke-linejoin="round"/>
<path d="M30 30V52.5" stroke="black" stroke-opacity="0.4" stroke-width="2" stroke-linecap="round" stroke-linejoin="round"/>
<path d="M50.9751 45.9767C53.4135 44.6474 55.3397 42.5439 56.4498 39.9982C57.5599 37.4526 57.7907 34.6097 57.1057 31.9184C56.4206 29.227 54.8589 26.8404 52.6668 25.1353C50.4748 23.4301 47.7773 22.5035 45.0001 22.5017H41.8501C41.0934 19.5748 39.683 16.8575 37.725 14.5542C35.767 12.2508 33.3123 10.4213 30.5454 9.20319C27.7785 7.98508 24.7715 7.41007 21.7504 7.52137C18.7294 7.63268 15.7728 8.42742 13.1031 9.84583C10.4334 11.2642 8.11992 13.2694 6.3367 15.7106C4.55348 18.1518 3.34687 20.9655 2.80759 23.9402C2.26832 26.9148 2.41041 29.973 3.22318 32.8848C4.03595 35.7966 5.49825 38.4863 7.50015 40.7517" stroke="black" stroke-opacity="0.4" stroke-width="2" stroke-linecap="round" stroke-linejoin="round"/>
<path d="M40 40L30 30L20 40" stroke="black" stroke-opacity="0.4" stroke-width="2" stroke-linecap="round" stroke-linejoin="round"/>
</svg>
