<svg width="29" height="24" viewBox="0 0 29 24" fill="none" xmlns="http://www.w3.org/2000/svg">
<path d="M14.705 0.900391C17.9491 0.900391 21.3007 2.49023 23.1913 4.84277C23.8359 5.58398 23.7929 6.44336 23.1913 6.94824C22.5361 7.50684 21.6982 7.30273 21.0966 6.70117C19.5175 4.85352 17.2831 3.73633 14.705 3.73633C10.8056 3.73633 7.5507 6.31445 6.54094 9.85938H8.05559C9.0009 9.85938 9.22648 10.6865 8.73234 11.3633L5.77824 15.3164C5.41301 15.8105 4.76848 15.8213 4.3925 15.3164L1.4384 11.3633C0.922773 10.6865 1.1591 9.85938 2.11516 9.85938H3.61906C4.72551 4.75684 9.29094 0.900391 14.705 0.900391ZM14.3075 6.13184C14.9091 6.13184 15.3818 6.61523 15.3818 7.20605V12.4053L17.7128 15.5205C18.0888 16.0254 18.0458 16.7021 17.5409 17.0566C17.0253 17.4326 16.3808 17.3359 15.9511 16.7666L13.5341 13.5762C13.33 13.3184 13.2333 13.0498 13.2333 12.7705V7.20605C13.2333 6.61523 13.7167 6.13184 14.3075 6.13184ZM14.705 23.5986C11.4609 23.5986 8.1093 22.0088 6.21867 19.6562C5.5634 18.915 5.61711 18.0449 6.20793 17.5508C6.8632 16.9922 7.70109 17.1855 8.30266 17.7979C9.8925 19.6348 12.1161 20.7627 14.705 20.7734C18.5937 20.7734 21.8486 18.1846 22.8691 14.6396H21.3437C20.3984 14.6396 20.1728 13.8125 20.6777 13.1357L23.621 9.18262C23.997 8.68848 24.6308 8.67773 25.0068 9.18262L27.9716 13.1357C28.4872 13.8125 28.2509 14.6396 27.2948 14.6396H25.7909C24.6845 19.7314 20.1191 23.5986 14.705 23.5986Z" fill="#8E66FE"/>
</svg>
