<svg width="12" height="16" viewBox="0 0 12 16" fill="none" xmlns="http://www.w3.org/2000/svg">
<path d="M2.5835 15.5142C1.99756 15.5142 1.55322 15.3579 1.25049 15.0454C0.952637 14.7378 0.803711 14.2642 0.803711 13.6245V8.18262C0.803711 7.55273 0.952637 7.08398 1.25049 6.77637C1.55322 6.46387 1.99756 6.30762 2.5835 6.30762H9.72461C10.3105 6.30762 10.7524 6.46387 11.0503 6.77637C11.353 7.08398 11.5044 7.55273 11.5044 8.18262V13.6245C11.5044 14.2642 11.353 14.7378 11.0503 15.0454C10.7524 15.3579 10.3105 15.5142 9.72461 15.5142H2.5835ZM3.09619 13.8369H9.21191C9.3584 13.8369 9.46826 13.7954 9.5415 13.7124C9.61475 13.6294 9.65137 13.5073 9.65137 13.3462V8.46826C9.65137 8.30225 9.61475 8.18018 9.5415 8.10205C9.46826 8.02393 9.3584 7.98486 9.21191 7.98486H3.09619C2.95459 7.98486 2.84473 8.02393 2.7666 8.10205C2.69336 8.18018 2.65674 8.30225 2.65674 8.46826V13.3462C2.65674 13.5073 2.69336 13.6294 2.7666 13.7124C2.84473 13.7954 2.95459 13.8369 3.09619 13.8369ZM2.24658 7.01074V4.64502C2.24658 3.771 2.42236 3.02881 2.77393 2.41846C3.13037 1.80322 3.604 1.33447 4.19482 1.01221C4.78564 0.689941 5.4375 0.528809 6.15039 0.528809C6.86816 0.528809 7.52246 0.689941 8.11328 1.01221C8.7041 1.33447 9.17529 1.80322 9.52686 2.41846C9.8833 3.02881 10.0615 3.771 10.0615 4.64502V7.01074H8.32568V4.55713C8.32568 4.06396 8.22803 3.6416 8.03271 3.29004C7.8374 2.93848 7.57373 2.66992 7.2417 2.48438C6.91455 2.29883 6.55078 2.20605 6.15039 2.20605C5.75 2.20605 5.38623 2.29883 5.05908 2.48438C4.73193 2.66992 4.4707 2.93848 4.27539 3.29004C4.08496 3.6416 3.98975 4.06396 3.98975 4.55713V7.01074H2.24658Z" fill="#7A0FD9"/>
</svg>
