<svg width="26" height="30" viewBox="0 0 26 30" fill="none" xmlns="http://www.w3.org/2000/svg">
<path fill-rule="evenodd" clip-rule="evenodd" d="M13.7471 2.47044C13.1235 2.51453 12.909 2.53934 12.8721 2.57159C12.8204 2.61675 12.7785 3.20389 12.8237 3.2491C12.8389 3.26431 12.8513 3.29876 12.8513 3.32566C12.8513 3.38068 13.105 3.63532 13.1598 3.63532C13.1791 3.63532 13.1949 3.64638 13.1949 3.65989C13.1949 3.67339 13.2093 3.68445 13.2268 3.68445C13.272 3.68445 13.3908 3.74221 13.391 3.76427C13.3911 3.77439 13.4133 3.78269 13.4403 3.78269C13.4673 3.78269 13.4894 3.79104 13.4894 3.80126C13.4894 3.81148 13.5251 3.83564 13.5688 3.855C13.6125 3.87435 13.7287 3.93782 13.8272 3.99608C13.9256 4.05434 14.0169 4.10198 14.03 4.10198C14.0431 4.10198 14.0538 4.11304 14.0538 4.12655C14.0538 4.14005 14.0654 4.15111 14.0796 4.15111C14.0937 4.15111 14.1657 4.18979 14.2395 4.23707C14.3134 4.28435 14.3837 4.32303 14.3958 4.32303C14.408 4.32303 14.4215 4.33131 14.4261 4.34145C14.4305 4.3516 14.5281 4.42039 14.6428 4.49437C14.9619 4.70012 15.708 5.25186 15.7717 5.3292C15.7785 5.33738 15.8682 5.41232 15.971 5.49573C16.337 5.79232 16.9397 6.3768 17.3192 6.80311C17.4332 6.9311 17.5375 7.04808 17.551 7.06306C17.6275 7.14802 17.8014 7.35846 17.8318 7.40282C17.8512 7.43128 17.8741 7.46009 17.8827 7.46685C17.9355 7.50868 18.4473 8.22126 18.6235 8.49841C18.8742 8.89257 18.9866 9.08215 18.9866 9.11077C18.9866 9.12295 18.9949 9.13658 19.005 9.1411C19.0152 9.1456 19.0943 9.28744 19.1809 9.45629C19.2674 9.62515 19.3586 9.79956 19.3833 9.84387C19.4081 9.8882 19.4284 9.94069 19.4284 9.96053C19.4284 9.9804 19.4394 9.99664 19.4529 9.99664C19.4664 9.99664 19.4774 10.0129 19.4774 10.0328C19.4774 10.0527 19.5062 10.1328 19.5413 10.2109C19.5765 10.2889 19.615 10.3749 19.627 10.4019C19.6897 10.5435 19.7929 10.8405 19.9684 11.3843C20.0761 11.7181 20.1885 12.2598 20.2668 12.8212C20.3168 13.1797 20.3094 14.1188 20.254 14.452C20.2 14.7766 20.0541 15.3832 20.0044 15.4897C19.9845 15.5323 19.9683 15.5842 19.9683 15.605C19.9683 15.6258 19.9572 15.6496 19.9437 15.658C19.9302 15.6663 19.9192 15.6918 19.9191 15.7147C19.919 15.7933 19.5029 16.567 19.4277 16.6281C19.4195 16.6349 19.3641 16.7067 19.3048 16.7878C19.1483 17.0018 18.7126 17.4295 18.4713 17.6062C18.3565 17.6901 18.2493 17.7697 18.233 17.783C18.2167 17.7962 18.1955 17.807 18.1859 17.807C18.1762 17.807 18.1509 17.8226 18.1296 17.8416C18.0751 17.8902 17.5153 18.1755 17.4743 18.1755C17.4557 18.1755 17.4405 18.1855 17.4405 18.1979C17.4405 18.2102 17.3963 18.2277 17.3424 18.2369C17.2884 18.246 17.2442 18.2635 17.2442 18.2759C17.2442 18.2882 17.221 18.2983 17.1927 18.2983C17.1644 18.2983 17.1064 18.3143 17.0638 18.3339C16.9971 18.3647 16.5683 18.4702 16.2135 18.5432C15.8956 18.6086 15.6183 18.6294 15.06 18.6296C14.0796 18.63 13.405 18.5181 12.2132 18.1574C12.0985 18.1227 11.9936 18.0862 11.9801 18.0763C11.9666 18.0664 11.9189 18.0505 11.8742 18.0409C11.8294 18.0313 11.7631 18.008 11.7269 17.9891C11.6907 17.9702 11.6476 17.9547 11.6311 17.9546C11.6147 17.9545 11.565 17.9341 11.5207 17.9093C11.4764 17.8846 11.4071 17.8561 11.3666 17.846C11.3261 17.836 11.2764 17.8136 11.2561 17.7961C11.2359 17.7788 11.1897 17.7575 11.1536 17.7489C11.1174 17.7403 11.0732 17.7188 11.0554 17.701C11.0376 17.6832 10.9868 17.656 10.9425 17.6406C10.8982 17.6252 10.845 17.5956 10.8242 17.5748C10.8034 17.5539 10.7668 17.5369 10.7428 17.5369C10.7189 17.5369 10.6793 17.5148 10.6549 17.4878C10.6303 17.4606 10.5793 17.4386 10.5408 17.4386C10.4978 17.4386 10.4595 17.4199 10.4406 17.3895C10.4237 17.3625 10.385 17.3404 10.3545 17.3404C10.324 17.3404 10.299 17.3292 10.299 17.3154C10.299 17.3017 10.2576 17.2713 10.207 17.2479C10.1564 17.2245 10.1061 17.1915 10.0953 17.1746C10.0845 17.1577 10.0606 17.1439 10.042 17.1439C10.0235 17.1439 9.97549 17.1163 9.93538 17.0825C9.89528 17.0487 9.84844 17.0211 9.83128 17.0211C9.8141 17.0211 9.78257 17.0046 9.76119 16.9844C9.6672 16.8956 9.56516 16.8246 9.53158 16.8246C9.51156 16.8246 9.48145 16.808 9.46464 16.7878C9.44782 16.7675 9.40679 16.7509 9.37342 16.7509C9.34004 16.7509 9.23532 16.7274 9.14069 16.6986C8.90156 16.6259 8.74666 16.6433 8.46799 16.774C7.44271 17.2548 5.54359 19.0543 3.86529 21.1351C2.85432 22.3885 2.01783 23.6788 1.74304 24.4085C1.68859 24.5532 1.68729 24.5682 1.72231 24.6521C1.88963 25.0529 2.51386 25.7099 3.10503 26.1075C3.45788 26.3448 4.03684 26.5753 4.27979 26.5753C4.54761 26.5753 5.65947 25.9616 6.62537 25.2806C7.65747 24.5529 8.70332 23.6236 9.17466 23.0154L9.24021 22.9308L9.34627 23.0282C9.40463 23.0818 9.49632 23.1586 9.55004 23.1988C9.6792 23.2955 9.75108 23.3559 9.83405 23.4377C9.87175 23.4748 9.91322 23.5052 9.92623 23.5052C9.96832 23.5052 10.0614 23.5641 10.299 23.7411C11.7553 24.8255 13.606 25.5755 15.2338 25.7407C15.5327 25.7711 16.1513 25.763 16.8394 25.7199C17.142 25.7009 17.356 25.6693 17.772 25.5821C18.287 25.4742 18.6267 25.3864 18.6799 25.3475C18.6934 25.3376 18.7364 25.3218 18.7755 25.3125C18.8145 25.3031 18.925 25.2588 19.0209 25.214C19.2234 25.1193 19.3457 25.0746 19.6001 25.0021C19.7014 24.9732 19.8173 24.9356 19.8578 24.9184C19.8983 24.9012 20.0088 24.8562 20.1032 24.8184C20.6244 24.6097 21.4069 24.1492 22.1657 23.6046C22.6745 23.2396 22.9777 22.9533 23.3637 22.4736C23.8579 21.8594 24.2026 21.3232 24.5711 20.5947C25.2544 19.2443 25.6588 17.7716 25.7842 16.1763C25.8167 15.7629 25.8161 14.6885 25.7831 14.269C25.529 11.0355 24.1382 8.0204 21.8715 5.78918C19.9759 3.9232 17.6185 2.77557 15.1554 2.51961C14.802 2.4829 13.9779 2.45411 13.7471 2.47044Z" fill="black"/>
<path d="M18.9246 23.1849C18.5995 22.456 18.2397 21.4041 18.2397 21.4041C18.2397 21.4041 18.5608 23.1567 18.0342 24.2123C17.6922 24.8978 17.041 25.8219 16.1164 25.9932C15.5114 26.1052 18.0342 25.9932 18.0342 25.9932L19.4383 25.1027C19.4383 25.1027 19.2763 23.9735 18.9246 23.1849Z" fill="white"/>
<path fill-rule="evenodd" clip-rule="evenodd" d="M1.12446 0.0399004C0.679771 0.131763 0.335427 0.394049 0.234985 0.71741C0.0961637 1.16442 0.292092 1.64996 0.818811 2.16413C1.51535 2.84411 2.49717 3.25591 3.42445 3.25703C4.6546 3.2585 5.16429 2.43302 4.52124 1.48072C4.32373 1.18822 3.91769 0.823669 3.51709 0.579176C2.77474 0.126086 1.78599 -0.0967655 1.12446 0.0399004ZM7.09102 0.501092C6.5672 0.604262 6.29978 1.16622 6.41905 1.91322C6.52979 2.60691 6.89026 3.31535 7.3905 3.82243C7.74862 4.18544 8.09411 4.39067 8.43947 4.44552C8.59586 4.47037 8.62984 4.46809 8.78282 4.42264C9.10246 4.32769 9.31153 4.06557 9.38375 3.66921C9.4281 3.42579 9.42781 3.32668 9.38185 3.02389C9.23555 2.06036 8.52507 1.00157 7.77906 0.635358C7.54385 0.519882 7.26847 0.466147 7.09102 0.501092ZM5.09584 2.70746C4.66278 2.83629 4.59526 3.23866 4.94679 3.59559C5.0088 3.65857 5.11632 3.73656 5.18571 3.76891C5.35043 3.84571 5.98468 4.26172 6.36359 4.54149C7.26045 5.20368 8.33308 6.17084 9.29754 7.18696C14.2123 12.365 18.5965 20.4446 19.6807 26.3221C19.8622 27.3065 19.9352 28.3705 19.8882 29.3513C19.8777 29.5714 19.8815 29.5979 19.9389 29.7074C20.0997 30.0138 20.4953 30.1012 20.6543 29.8654C20.7673 29.6979 20.7913 29.5254 20.8049 28.7831C20.8127 28.3625 20.8065 27.9484 20.7891 27.7141C20.4068 22.5798 16.8486 14.9788 11.9971 8.933C10.1317 6.60832 8.13531 4.6233 6.32439 3.29247C5.90863 2.98692 5.57514 2.79878 5.31586 2.72347C5.17082 2.68136 5.1811 2.68209 5.09584 2.70746ZM9.92572 3.47546C9.62563 3.61607 9.47032 4.01191 9.5009 4.55819C9.54324 5.31488 9.90607 6.19146 10.4429 6.83417C10.6849 7.12379 11.0013 7.36266 11.2519 7.44471C11.5825 7.55294 11.9058 7.43585 12.0534 7.15442C12.4417 6.41395 11.9795 4.8247 11.1166 3.93316C10.6852 3.48748 10.2539 3.32169 9.92572 3.47546ZM3.55353 4.24564C3.12239 4.28225 2.59805 4.40506 2.30994 4.53691C1.20916 5.04067 1.39885 5.97186 2.70678 6.48503C3.52248 6.80509 4.66101 6.90667 5.50893 6.73501C6.15506 6.60419 6.65749 6.31893 6.83845 5.98015C6.93294 5.80325 6.93343 5.55566 6.83966 5.36895C6.68442 5.05984 6.34494 4.79636 5.8247 4.5813C5.20777 4.32626 4.25762 4.18582 3.55353 4.24564ZM13.3912 6.98357C13.1838 7.03319 12.9746 7.20917 12.8598 7.43065C12.736 7.66965 12.6897 7.91141 12.6882 8.32723C12.6865 8.7897 12.7289 9.03857 12.8925 9.52689C13.0922 10.1227 13.3425 10.5443 13.7038 10.8934C14.2118 11.3841 14.7021 11.4547 15.0486 11.087C15.7404 10.3531 15.3576 8.29689 14.3548 7.3599C14.0179 7.04524 13.6821 6.91403 13.3912 6.98357ZM6.27649 7.18708C5.59674 7.29586 5.19307 7.51139 5.03096 7.85212C4.81968 8.29618 5.10976 8.81248 5.8247 9.26489C6.59069 9.74957 7.89339 10.0609 8.81015 9.97846C9.56313 9.91071 10.0739 9.66999 10.2628 9.29384C10.6591 8.50457 9.32186 7.48426 7.53197 7.21026C7.18105 7.15655 6.54116 7.14472 6.27649 7.18708ZM9.17682 10.5351C8.56741 10.66 8.19608 10.976 8.10941 11.4436C8.0457 11.7873 8.21702 12.2332 8.56139 12.6199C9.0541 13.1732 9.84755 13.6052 10.6979 13.7832C11.0708 13.8613 11.7186 13.8618 12.0028 13.7844C12.4393 13.6654 12.7788 13.4137 12.8907 13.1259C13.0864 12.6228 12.8879 12.0813 12.3071 11.5333C11.8227 11.0763 11.1607 10.739 10.4156 10.5698C10.1238 10.5035 9.4264 10.484 9.17682 10.5351ZM16.373 11.297C16.143 11.4112 15.9722 11.6675 15.8626 12.0627C15.8021 12.2812 15.7984 12.3255 15.7977 12.8408C15.7971 13.3068 15.8051 13.4314 15.8521 13.6877C16.0294 14.6542 16.4144 15.5099 16.8686 15.9467C17.0493 16.1205 17.1611 16.1941 17.3314 16.2514C17.4965 16.307 17.5361 16.3078 17.702 16.2596C17.8572 16.2146 18.0536 16.0363 18.147 15.8558C18.6387 14.9053 18.3095 12.8631 17.4931 11.7993C17.2173 11.44 16.9511 11.2625 16.6598 11.2439C16.5229 11.2351 16.4825 11.2426 16.373 11.297ZM11.5878 14.3373C11.2159 14.4032 10.9183 14.6055 10.7753 14.8895C10.5717 15.2939 10.7175 15.8953 11.1582 16.4696C11.3547 16.7256 11.8257 17.1689 12.1108 17.3662C13.1017 18.0519 14.2396 18.3751 14.9944 18.1853C15.3331 18.1002 15.6089 17.893 15.727 17.6349C15.8185 17.4348 15.8327 17.1344 15.7625 16.884C15.5223 16.028 14.5176 15.077 13.3597 14.6097C12.6846 14.3373 12.0971 14.2469 11.5878 14.3373Z" fill="black"/>
</svg>
