<svg width="119" height="50" viewBox="0 0 119 50" fill="none" xmlns="http://www.w3.org/2000/svg">
<path d="M12.8951 19.7385V5.29504H16.6092V16.8498H21.7675V5.29504H25.4816V16.8498H27.0291V22.4209H23.5214L23.3151 19.7385H12.8951Z" fill="#160B20"/>
<path d="M40.1241 19.7385H28.6725V5.29504H40.1241V8.18374H32.3865V10.9693H38.4734V13.8579H32.3865V16.8498H40.1241V19.7385Z" fill="#160B20"/>
<path d="M54.3564 19.7385H50.6424V13.8579H45.484V19.7385H41.77V5.29504H45.484V10.9693H50.6424V5.29504H54.3564V19.7385Z" fill="#160B20"/>
<path d="M59.4213 19.7385H55.3977L60.8656 5.29504H64.9923L70.4602 19.7385H66.4367L65.5082 17.1593H60.3498L59.4213 19.7385ZM61.2783 14.477H64.5797L62.929 9.62808L61.2783 14.477Z" fill="#160B20"/>
<path d="M0 41.5069C3.5077 41.7132 5.98372 41.8164 7.42806 41.8164C7.74444 41.8164 7.99205 41.7269 8.17087 41.5481C8.36345 41.3555 8.45974 41.1011 8.45974 40.7847V39.9593C8.45974 39.134 8.04707 38.7213 7.22173 38.7213H2.26969V35.8326H6.80906C7.6344 35.8326 8.04707 35.42 8.04707 34.5946V34.182C8.04707 33.3566 7.6344 32.9439 6.80906 32.9439H0.206335V30.0553H7.84073C9.18879 30.0553 10.1792 30.3648 10.812 30.9838C11.4447 31.589 11.7611 32.5175 11.7611 33.7693C11.7611 34.5946 11.5685 35.2687 11.1834 35.7914C10.812 36.3003 10.3168 36.658 9.69775 36.8643C10.812 37.1669 11.5685 37.9097 11.9674 39.0927C12.105 39.5192 12.1738 40.0144 12.1738 40.5783V40.7847C12.1738 42.1327 11.8574 43.1231 11.2246 43.7559C10.5919 44.3887 9.60146 44.705 8.2534 44.705C5.95621 44.705 3.20507 44.5675 0 44.2924V41.5069Z" fill="#160B20"/>
<path d="M25.4751 44.4987H14.0235V30.0553H25.4751V32.9439H17.7376V35.7295H23.8244V38.6182H17.7376V41.61H25.4751V44.4987Z" fill="#160B20"/>
<path d="M27.121 30.0553H35.787C37.2314 30.0553 38.2768 30.3854 38.9233 31.0457C39.5836 31.6922 39.9137 32.7376 39.9137 34.182V36.2453C39.9137 37.6896 39.5836 38.742 38.9233 39.4022C38.2768 40.0487 37.2314 40.372 35.787 40.372H30.835V44.4987H27.121V30.0553ZM36.1997 34.182C36.1997 33.3566 35.787 32.9439 34.9617 32.9439H30.835V37.4833H34.9617C35.787 37.4833 36.1997 37.0706 36.1997 36.2453V34.182Z" fill="#160B20"/>
<path d="M54.3564 44.4987H50.6424V38.6182H45.484V44.4987H41.77V30.0553H45.484V35.7295H50.6424V30.0553H54.3564V44.4987Z" fill="#160B20"/>
<path d="M59.4213 44.4987H55.3977L60.8656 30.0553H64.9923L70.4602 44.4987H66.4367L65.5082 41.9195H60.3498L59.4213 44.4987ZM61.2783 39.2372H64.5797L62.929 34.3883L61.2783 39.2372Z" fill="#160B20"/>
<path fill-rule="evenodd" clip-rule="evenodd" d="M98.0525 4.11743C97.0132 4.1909 96.6557 4.23225 96.5942 4.286C96.5081 4.36128 96.4383 5.33983 96.5136 5.41519C96.5389 5.44053 96.5596 5.49796 96.5596 5.54279C96.5596 5.63448 96.9823 6.05889 97.0737 6.05889C97.1059 6.05889 97.1322 6.07732 97.1322 6.09983C97.1322 6.12234 97.1562 6.14076 97.1854 6.14076C97.2607 6.14076 97.4587 6.23704 97.4591 6.2738C97.4593 6.29067 97.4963 6.30451 97.5412 6.30451C97.5862 6.30451 97.623 6.31842 97.623 6.33545C97.623 6.35248 97.6826 6.39276 97.7554 6.42502C97.8282 6.45727 98.022 6.56305 98.186 6.66015C98.3501 6.75725 98.5022 6.83666 98.5241 6.83666C98.5459 6.83666 98.5638 6.85508 98.5638 6.8776C98.5638 6.90011 98.5831 6.91853 98.6067 6.91853C98.6302 6.91853 98.7502 6.983 98.8733 7.0618C98.9964 7.1406 99.1136 7.20508 99.1338 7.20508C99.154 7.20508 99.1766 7.21887 99.1842 7.23578C99.1916 7.25268 99.3542 7.36734 99.5454 7.49064C100.077 7.83355 101.321 8.75312 101.427 8.88202C101.438 8.89566 101.588 9.02055 101.759 9.15956C102.369 9.6539 103.374 10.628 104.006 11.3385C104.196 11.5519 104.37 11.7468 104.392 11.7718C104.52 11.9134 104.81 12.2641 104.86 12.338C104.893 12.3855 104.931 12.4335 104.945 12.4448C105.033 12.5145 105.886 13.7021 106.18 14.164C106.598 14.821 106.785 15.1369 106.785 15.1846C106.785 15.2049 106.799 15.2277 106.816 15.2352C106.833 15.2427 106.965 15.4791 107.109 15.7605C107.253 16.0419 107.405 16.3326 107.446 16.4065C107.488 16.4804 107.521 16.5678 107.521 16.6009C107.521 16.634 107.54 16.6611 107.562 16.6611C107.585 16.6611 107.603 16.6882 107.603 16.7214C107.603 16.7545 107.651 16.8881 107.71 17.0182C107.768 17.1482 107.832 17.2915 107.852 17.3365C107.957 17.5726 108.129 18.0675 108.421 18.9739C108.601 19.5301 108.788 20.433 108.919 21.3686C109.002 21.9661 108.99 23.5314 108.897 24.0867C108.807 24.6277 108.564 25.6387 108.481 25.8163C108.448 25.8872 108.421 25.9736 108.421 26.0083C108.421 26.043 108.403 26.0827 108.38 26.0966C108.358 26.1105 108.339 26.1531 108.339 26.1911C108.339 26.3223 107.646 27.6117 107.52 27.7136C107.506 27.7248 107.414 27.8445 107.315 27.9796C107.055 28.3363 106.328 29.0492 105.926 29.3436C105.735 29.4836 105.556 29.6162 105.529 29.6383C105.502 29.6603 105.467 29.6784 105.451 29.6784C105.434 29.6784 105.392 29.7044 105.357 29.7361C105.266 29.8171 104.333 30.2925 104.265 30.2925C104.234 30.2925 104.208 30.3092 104.208 30.3298C104.208 30.3503 104.135 30.3796 104.045 30.3948C103.955 30.41 103.881 30.4393 103.881 30.4598C103.881 30.4804 103.842 30.4971 103.795 30.4971C103.748 30.4971 103.651 30.5239 103.58 30.5565C103.469 30.6078 102.755 30.7837 102.163 30.9054C101.633 31.0144 101.171 31.049 100.241 31.0494C98.6067 31.05 97.4824 30.8636 95.4961 30.2624C95.3049 30.2045 95.1301 30.1437 95.1076 30.1272C95.0851 30.1107 95.0056 30.0842 94.931 30.0682C94.8564 30.0522 94.7459 30.0134 94.6856 29.9818C94.6252 29.9503 94.5534 29.9245 94.5259 29.9243C94.4985 29.9242 94.4157 29.8902 94.3419 29.8489C94.2681 29.8076 94.1525 29.7601 94.085 29.7434C94.0175 29.7267 93.9347 29.6893 93.901 29.6603C93.8672 29.6313 93.7903 29.5959 93.73 29.5815C93.6697 29.5672 93.5961 29.5313 93.5664 29.5016C93.5367 29.472 93.452 29.4268 93.3782 29.4011C93.3045 29.3754 93.2157 29.326 93.181 29.2913C93.1464 29.2566 93.0853 29.2282 93.0455 29.2282C93.0055 29.2282 92.9396 29.1913 92.8989 29.1463C92.858 29.101 92.7729 29.0644 92.7088 29.0644C92.6371 29.0644 92.5733 29.0331 92.5417 28.9825C92.5136 28.9375 92.449 28.9007 92.3982 28.9007C92.3474 28.9007 92.3058 28.882 92.3058 28.8591C92.3058 28.8362 92.2368 28.7855 92.1524 28.7465C92.0681 28.7075 91.9843 28.6525 91.9663 28.6244C91.9483 28.5962 91.9083 28.5732 91.8774 28.5732C91.8465 28.5732 91.7665 28.5271 91.6997 28.4709C91.6329 28.4146 91.5548 28.3685 91.5262 28.3685C91.4976 28.3685 91.445 28.341 91.4094 28.3073C91.2527 28.1594 91.0827 28.041 91.0267 28.041C90.9933 28.041 90.9431 28.0134 90.9151 27.9796C90.8871 27.9459 90.8187 27.9182 90.7631 27.9182C90.7075 27.9182 90.5329 27.879 90.3752 27.8311C89.9767 27.7099 89.7185 27.7389 89.2541 27.9567C87.5452 28.7581 84.38 31.7572 81.5829 35.2251C79.8979 37.3142 78.5038 39.4646 78.0458 40.6809C77.955 40.922 77.9529 40.9471 78.0112 41.0868C78.2901 41.7548 79.3305 42.8499 80.3158 43.5125C80.9039 43.908 81.8688 44.2923 82.2737 44.2923C82.7201 44.2923 84.5732 43.2694 86.183 42.1343C87.9032 40.9215 89.6463 39.3727 90.4318 38.359L90.5411 38.2179L90.7179 38.3804C90.8151 38.4697 90.9679 38.5976 91.0575 38.6646C91.2727 38.8258 91.3925 38.9265 91.5308 39.0628C91.5936 39.1247 91.6628 39.1754 91.6844 39.1754C91.7546 39.1754 91.9097 39.2735 92.3058 39.5685C94.7329 41.3759 97.8173 42.6258 100.53 42.9012C101.029 42.9518 102.06 42.9384 103.206 42.8665C103.711 42.8349 104.067 42.7822 104.761 42.6369C105.619 42.457 106.185 42.3106 106.274 42.2458C106.296 42.2293 106.368 42.2031 106.433 42.1875C106.498 42.1719 106.682 42.098 106.842 42.0233C107.18 41.8656 107.384 41.791 107.808 41.6702C107.976 41.6221 108.17 41.5593 108.237 41.5307C108.305 41.502 108.489 41.427 108.646 41.364C109.515 41.0161 110.819 40.2486 112.084 39.3411C112.932 38.7326 113.437 38.2556 114.08 37.4561C114.904 36.4324 115.478 35.5387 116.093 34.3246C117.231 32.0739 117.905 29.6194 118.114 26.9606C118.169 26.2715 118.168 24.4809 118.113 23.7817C117.689 18.3925 115.371 13.3674 111.593 9.64866C108.434 6.53869 104.505 4.62596 100.4 4.19938C99.8107 4.13818 98.4372 4.0902 98.0525 4.11743Z" fill="#14091E"/>
<path d="M106.682 38.6416C106.14 37.4267 105.54 35.6736 105.54 35.6736C105.54 35.6736 106.075 38.5946 105.198 40.3539C104.628 41.4964 103.542 43.0366 102.001 43.322C100.993 43.5087 105.198 43.322 105.198 43.322L107.538 41.838C107.538 41.838 107.268 39.9559 106.682 38.6416Z" fill="#EBEDF2"/>
<path fill-rule="evenodd" clip-rule="evenodd" d="M77.0147 0.0665007C76.2735 0.219606 75.6996 0.656748 75.5322 1.19568C75.3009 1.9407 75.6274 2.74993 76.5053 3.60688C77.6662 4.74018 79.3025 5.42652 80.848 5.42838C82.8982 5.43083 83.7477 4.05503 82.676 2.46788C82.3468 1.98037 81.6701 1.37278 81.0024 0.965294C79.7652 0.210143 78.1172 -0.161276 77.0147 0.0665007ZM86.959 0.835153C86.0859 1.0071 85.6402 1.94371 85.839 3.1887C86.0236 4.34484 86.6244 5.52558 87.4581 6.37072C88.055 6.97574 88.6308 7.31778 89.2064 7.4092C89.467 7.45061 89.5237 7.44681 89.7786 7.37107C90.3114 7.21282 90.6598 6.77595 90.7802 6.11535C90.8541 5.70964 90.8536 5.54446 90.777 5.03981C90.5332 3.43394 89.349 1.66929 88.1057 1.05893C87.7137 0.86647 87.2547 0.776912 86.959 0.835153ZM83.6336 4.51244C82.9119 4.72715 82.7993 5.39777 83.3852 5.99265C83.4886 6.09761 83.6678 6.22759 83.7834 6.28152C84.058 6.40952 85.1151 7.10287 85.7466 7.56915C87.2413 8.6728 89.0291 10.2847 90.6365 11.9783C98.8278 20.6083 106.135 34.0744 107.942 43.8702C108.244 45.5108 108.366 47.2841 108.288 48.9188C108.27 49.2857 108.276 49.3299 108.372 49.5123C108.64 50.0231 109.299 50.1687 109.564 49.7757C109.753 49.4965 109.793 49.209 109.815 47.9719C109.828 47.2708 109.818 46.5807 109.789 46.1902C109.152 37.6329 103.222 24.9647 95.1358 14.8883C92.0267 11.0139 88.6994 7.70551 85.6812 5.48745C84.9883 4.97821 84.4325 4.66463 84.0004 4.53912C83.7586 4.46893 83.7757 4.47015 83.6336 4.51244ZM91.6835 5.79243C91.1833 6.02678 90.9245 6.68651 90.9754 7.59698C91.046 8.85813 91.6507 10.3191 92.5455 11.3903C92.9487 11.873 93.4761 12.2711 93.8938 12.4078C94.4447 12.5882 94.9835 12.3931 95.2295 11.924C95.8767 10.6899 95.1064 8.04117 93.6682 6.55526C92.9493 5.81246 92.2304 5.53615 91.6835 5.79243ZM81.0631 7.07606C80.3446 7.13708 79.4707 7.34177 78.9905 7.56151C77.1559 8.40111 77.472 9.9531 79.6519 10.8084C81.0114 11.3418 82.9089 11.5111 84.3221 11.225C85.399 11.007 86.2364 10.5316 86.538 9.96692C86.6955 9.67208 86.6963 9.25944 86.54 8.94824C86.2813 8.43306 85.7155 7.99394 84.8484 7.63551C83.8202 7.21044 82.2366 6.97637 81.0631 7.07606ZM97.4593 11.6393C97.1136 11.722 96.7649 12.0153 96.5737 12.3844C96.3672 12.7828 96.2901 13.1857 96.2876 13.8787C96.2848 14.6495 96.3554 15.0643 96.6281 15.8781C96.9608 16.8711 97.3781 17.5739 97.9802 18.1556C98.8269 18.9735 99.6441 19.0912 100.222 18.4784C101.375 17.2552 100.737 13.8282 99.0652 12.2665C98.5038 11.7421 97.944 11.5234 97.4593 11.6393ZM85.6014 11.9785C84.4685 12.1598 83.7957 12.519 83.5255 13.0869C83.1734 13.827 83.6568 14.6875 84.8484 15.4415C86.1251 16.2493 88.2962 16.7682 89.8242 16.6308C91.0791 16.5178 91.9304 16.1167 92.2452 15.4897C92.9057 14.1743 90.677 12.4738 87.6939 12.0171C87.109 11.9276 86.0425 11.9079 85.6014 11.9785ZM90.4353 17.5585C89.4196 17.7667 88.8007 18.2934 88.6563 19.0727C88.5501 19.6455 88.8356 20.3886 89.4096 21.0331C90.2308 21.9553 91.5532 22.6754 92.9705 22.972C93.5919 23.1021 94.6717 23.1031 95.1453 22.9739C95.8728 22.7757 96.4386 22.3561 96.6251 21.8764C96.9512 21.038 96.6205 20.1355 95.6525 19.2222C94.8451 18.4604 93.7418 17.8984 92.5 17.6163C92.0135 17.5058 90.8513 17.4733 90.4353 17.5585ZM102.429 18.8283C102.046 19.0186 101.761 19.4458 101.578 20.1045C101.477 20.4687 101.471 20.5426 101.47 21.4013C101.469 22.178 101.482 22.3856 101.561 22.8128C101.856 24.4237 102.498 25.8498 103.255 26.5779C103.556 26.8675 103.742 26.9902 104.026 27.0857C104.301 27.1783 104.367 27.1797 104.644 27.0994C104.903 27.0243 105.23 26.7272 105.386 26.4263C106.205 24.8422 105.656 21.4385 104.296 19.6656C103.836 19.0667 103.392 18.7708 102.907 18.7398C102.679 18.7252 102.611 18.7376 102.429 18.8283ZM94.4535 23.8954C93.8338 24.0053 93.3377 24.3425 93.0994 24.8158C92.7601 25.4898 93.003 26.4921 93.7376 27.4493C94.065 27.8759 94.8501 28.6148 95.3253 28.9437C96.9767 30.0864 98.8733 30.6252 100.131 30.3089C100.696 30.167 101.155 29.8216 101.352 29.3914C101.505 29.0579 101.528 28.5573 101.411 28.14C101.011 26.7134 99.3366 25.1283 97.4067 24.3495C96.2816 23.8955 95.3025 23.7449 94.4535 23.8954Z" fill="#14091E"/>
</svg>
