<svg width="111" height="28" viewBox="0 0 111 28" fill="none" xmlns="http://www.w3.org/2000/svg">
<g clip-path="url(#clip0_570_9845)">
<path d="M17.6646 6.37988C17.7585 6.13506 18.111 6.16496 18.1636 6.42188L21.2407 21.4658C21.2996 21.7539 21.0797 22.0234 20.7856 22.0234H18.1646C17.9425 22.0234 17.7513 21.8664 17.7085 21.6484L17.0327 18.209C16.99 17.9912 16.7995 17.8342 16.5776 17.834H12.3462C11.9791 17.8337 11.757 17.4272 11.9536 17.1172C12.4006 16.4133 12.8319 15.7226 13.2358 15.0713C13.3207 14.9346 13.4705 14.8516 13.6313 14.8516H15.9614C16.2527 14.8513 16.472 14.586 16.4175 14.2998L15.8013 11.0645C15.7819 10.9627 15.797 10.8574 15.8433 10.7646C16.4465 9.55631 17.149 7.72466 17.6646 6.37988Z" fill="#F94700"/>
<path d="M17.0378 2.22793C17.0869 2.20205 17.1465 2.23675 17.1484 2.29223L17.1528 2.44392C17.1537 2.46968 17.1678 2.4932 17.19 2.50622L19.4348 3.81149C19.6207 3.91976 19.6838 4.15817 19.5758 4.3442C19.4676 4.53025 19.2292 4.5932 19.0431 4.48518L17.2592 3.44793C17.2257 3.42843 17.1835 3.45388 17.1846 3.49267C17.1853 3.50998 17.1948 3.52614 17.21 3.53453L17.3555 3.61461C17.678 3.83855 17.5963 4.2245 17.5149 4.38959L15.8286 7.91525C15.4954 8.66794 14.2458 11.0385 13.6004 12.0736C13.2933 12.6615 10.1682 17.6819 8.99496 19.5004C8.3181 20.5496 7.8832 21.2172 7.63521 21.5961C7.46955 21.8491 7.18785 22.0008 6.88538 22.0016L5.42839 22.0051C5.20834 22.0056 4.99551 21.9262 4.82988 21.7813L3.59533 20.7009C3.5405 20.6529 3.47301 20.6212 3.40112 20.6094C3.13298 20.5654 2.99041 20.268 3.12385 20.0313L4.00696 18.464C4.16016 18.1923 4.54204 18.1666 4.72987 18.4155C4.77585 18.4766 4.83756 18.5245 4.90798 18.5541L6.03975 19.0303C6.24072 19.1149 6.47234 19.023 6.56 18.8234L9.39324 12.3655C9.47995 12.1679 9.35841 11.9416 9.14572 11.9053C7.97651 11.7067 6.82762 11.4015 5.7138 10.9942L0.929223 9.24464C0.627111 9.13406 0.453067 8.81785 0.520905 8.50339L1.09434 5.85228C1.16293 5.5366 1.45493 5.32042 1.77697 5.34662L8.6231 5.90346L12.3115 6.46666C12.5262 6.49926 12.7379 6.39531 12.8465 6.20723C12.8532 6.19558 12.86 6.18394 12.8666 6.17262C13.5012 5.14814 14.4687 3.76856 15.0206 2.98106L15.0413 2.95129C15.2781 2.61357 15.5869 2.66176 15.7411 2.72109L15.8887 2.80348C15.908 2.8142 15.9321 2.81433 15.9516 2.80396C15.9971 2.77986 15.9985 2.71487 15.9541 2.68902L14.3079 1.73179C14.1217 1.62355 14.0578 1.38473 14.166 1.19859C14.2743 1.01259 14.5135 0.949903 14.6996 1.0581L16.8312 2.29759C16.8536 2.31056 16.8809 2.31103 16.9038 2.29911L17.0378 2.22793Z" fill="#0A6EFA"/>
<path d="M17.0378 2.22793C17.0869 2.20205 17.1465 2.23675 17.1484 2.29223L17.1528 2.44392C17.1537 2.46968 17.1678 2.4932 17.19 2.50622L19.4348 3.81149C19.6207 3.91976 19.6838 4.15817 19.5758 4.3442C19.4676 4.53025 19.2292 4.5932 19.0431 4.48518L17.2592 3.44793C17.2257 3.42843 17.1835 3.45388 17.1846 3.49267C17.1853 3.50998 17.1948 3.52614 17.21 3.53453L17.3555 3.61461C17.678 3.83855 17.5963 4.2245 17.5149 4.38959L15.8286 7.91525C15.4954 8.66794 14.2458 11.0385 13.6004 12.0736C13.2933 12.6615 10.1682 17.6819 8.99496 19.5004C8.3181 20.5496 7.8832 21.2172 7.63521 21.5961C7.46955 21.8491 7.18785 22.0008 6.88538 22.0016L5.42839 22.0051C5.20834 22.0056 4.99551 21.9262 4.82988 21.7813L3.59533 20.7009C3.5405 20.6529 3.47301 20.6212 3.40112 20.6094C3.13298 20.5654 2.99041 20.268 3.12385 20.0313L4.00696 18.464C4.16016 18.1923 4.54204 18.1666 4.72987 18.4155C4.77585 18.4766 4.83756 18.5245 4.90798 18.5541L6.03975 19.0303C6.24072 19.1149 6.47234 19.023 6.56 18.8234L9.39324 12.3655C9.47995 12.1679 9.35841 11.9416 9.14572 11.9053C7.97651 11.7067 6.82762 11.4015 5.7138 10.9942L0.929223 9.24464C0.627111 9.13406 0.453067 8.81785 0.520905 8.50339L1.09434 5.85228C1.16293 5.5366 1.45493 5.32042 1.77697 5.34662L8.6231 5.90346L12.3115 6.46666C12.5262 6.49926 12.7379 6.39531 12.8465 6.20723C12.8532 6.19558 12.86 6.18394 12.8666 6.17262C13.5012 5.14814 14.4687 3.76856 15.0206 2.98106L15.0413 2.95129C15.2781 2.61357 15.5869 2.66176 15.7411 2.72109L15.8887 2.80348C15.908 2.8142 15.9321 2.81433 15.9516 2.80396C15.9971 2.77986 15.9985 2.71487 15.9541 2.68902L14.3079 1.73179C14.1217 1.62355 14.0578 1.38473 14.166 1.19859C14.2743 1.01259 14.5135 0.949903 14.6996 1.0581L16.8312 2.29759C16.8536 2.31056 16.8809 2.31103 16.9038 2.29911L17.0378 2.22793Z" fill="white"/>
<path d="M17.0378 2.22793C17.0869 2.20205 17.1465 2.23675 17.1484 2.29223L17.1528 2.44392C17.1537 2.46968 17.1678 2.4932 17.19 2.50622L19.4348 3.81149C19.6207 3.91976 19.6838 4.15817 19.5758 4.3442C19.4676 4.53025 19.2292 4.5932 19.0431 4.48518L17.2592 3.44793C17.2257 3.42843 17.1835 3.45388 17.1846 3.49267C17.1853 3.50998 17.1948 3.52614 17.21 3.53453L17.3555 3.61461C17.678 3.83855 17.5963 4.2245 17.5149 4.38959L15.8286 7.91525C15.4954 8.66794 14.2458 11.0385 13.6004 12.0736C13.2933 12.6615 10.1682 17.6819 8.99496 19.5004C8.3181 20.5496 7.8832 21.2172 7.63521 21.5961C7.46955 21.8491 7.18785 22.0008 6.88538 22.0016L5.42839 22.0051C5.20834 22.0056 4.99551 21.9262 4.82988 21.7813L3.59533 20.7009C3.5405 20.6529 3.47301 20.6212 3.40112 20.6094C3.13298 20.5654 2.99041 20.268 3.12385 20.0313L4.00696 18.464C4.16016 18.1923 4.54204 18.1666 4.72987 18.4155C4.77585 18.4766 4.83756 18.5245 4.90798 18.5541L6.03975 19.0303C6.24072 19.1149 6.47234 19.023 6.56 18.8234L9.39324 12.3655C9.47995 12.1679 9.35841 11.9416 9.14572 11.9053C7.97651 11.7067 6.82762 11.4015 5.7138 10.9942L0.929223 9.24464C0.627111 9.13406 0.453067 8.81785 0.520905 8.50339L1.09434 5.85228C1.16293 5.5366 1.45493 5.32042 1.77697 5.34662L8.6231 5.90346L12.3115 6.46666C12.5262 6.49926 12.7379 6.39531 12.8465 6.20723C12.8532 6.19558 12.86 6.18394 12.8666 6.17262C13.5012 5.14814 14.4687 3.76856 15.0206 2.98106L15.0413 2.95129C15.2781 2.61357 15.5869 2.66176 15.7411 2.72109L15.8887 2.80348C15.908 2.8142 15.9321 2.81433 15.9516 2.80396C15.9971 2.77986 15.9985 2.71487 15.9541 2.68902L14.3079 1.73179C14.1217 1.62355 14.0578 1.38473 14.166 1.19859C14.2743 1.01259 14.5135 0.949903 14.6996 1.0581L16.8312 2.29759C16.8536 2.31056 16.8809 2.31103 16.9038 2.29911L17.0378 2.22793Z" fill="url(#paint0_linear_570_9845)"/>
</g>
<path d="M26.1635 22C25.73 22 25.3862 21.8879 25.1321 21.6637C24.878 21.4245 24.6987 21.0509 24.594 20.5427L22.4417 10.8121H25.5133L26.8137 18.5024H26.8585L30.8718 10.8121H34.2125L27.7329 22H26.1635ZM37.6089 9.75833C37.1156 9.75833 36.7195 9.62381 36.4206 9.35476C36.1216 9.08571 35.9722 8.73446 35.9722 8.30099C35.9722 7.64332 36.174 7.1127 36.5775 6.70913C36.996 6.29061 37.5491 6.08135 38.2367 6.08135C38.7299 6.08135 39.126 6.21587 39.4249 6.48492C39.7239 6.75397 39.8734 7.10522 39.8734 7.53869C39.8734 8.19636 39.6641 8.73446 39.2456 9.15298C38.842 9.55655 38.2964 9.75833 37.6089 9.75833ZM35.8825 10.8121H38.9317L36.9587 22H33.9095L35.8825 10.8121ZM43.7765 22.1794C42.6405 22.1794 41.7437 21.9402 41.086 21.4619C40.4283 20.9836 40.0995 20.3409 40.0995 19.5337C40.0995 19.4142 40.1144 19.2348 40.1443 18.9956L40.3013 18.1212C40.4806 17.1497 40.944 16.3948 41.6914 15.8567C42.4537 15.3037 43.4252 15.0272 44.606 15.0272H45.9513C46.3847 15.0272 46.8481 15.0795 47.3414 15.1841C47.8496 15.2888 48.2905 15.4308 48.6642 15.6101L48.866 14.4442C48.8809 14.3845 48.8884 14.2948 48.8884 14.1752C48.8884 13.8763 48.7838 13.6371 48.5745 13.4577C48.3802 13.2784 48.1037 13.1887 47.7449 13.1887H45.8392C45.4057 13.1887 45.047 13.2858 44.763 13.4802C44.479 13.6745 44.3071 13.936 44.2473 14.2649H41.2878C41.497 13.114 42.0127 12.2246 42.8348 11.5968C43.6569 10.9541 44.7032 10.6327 45.9737 10.6327H47.8795C49.135 10.6327 50.129 10.9167 50.8614 11.4847C51.6088 12.0527 51.9824 12.815 51.9824 13.7716C51.9824 13.9958 51.96 14.22 51.9152 14.4442L50.5699 22H47.7449L47.9916 20.6548C47.5282 21.1331 47.0349 21.5067 46.5118 21.7758C46.0036 22.0448 45.5253 22.1794 45.0769 22.1794H43.7765ZM45.4804 19.8476C46.0185 19.8476 46.5342 19.7056 47.0275 19.4216C47.5207 19.1376 47.9093 18.7565 48.1933 18.2782L48.2606 17.897C48.0663 17.7177 47.7599 17.5757 47.3414 17.471C46.9228 17.3664 46.4744 17.3141 45.9961 17.3141H44.606C44.2324 17.3141 43.9259 17.4038 43.6868 17.5831C43.4476 17.7476 43.2982 17.9867 43.2384 18.3006L43.1263 18.8835C43.0665 19.1675 43.1412 19.3992 43.3505 19.5786C43.5747 19.7579 43.8886 19.8476 44.2922 19.8476H45.4804ZM55.9057 6.30555H63.8202C65.1505 6.30555 66.2042 6.61944 66.9815 7.24722C67.7587 7.875 68.1474 8.71951 68.1474 9.78075C68.1474 10.0349 68.1249 10.2964 68.0801 10.5655L67.7214 12.6506C67.4822 14.0407 66.9067 15.1243 65.995 15.9016C65.0982 16.6639 63.9248 17.045 62.4749 17.045H57.1164L56.242 22H53.148L55.9057 6.30555ZM62.5422 14.3546C63.0952 14.3546 63.5511 14.1976 63.9099 13.8837C64.2835 13.5549 64.5227 13.099 64.6273 12.5161L64.986 10.7C65.0159 10.5206 65.0309 10.3861 65.0309 10.2964C65.0309 9.89286 64.9038 9.57897 64.6497 9.35476C64.4106 9.11561 64.0817 8.99603 63.6632 8.99603H58.5289L57.5872 14.3546H62.5422ZM72.1715 22.1794C70.8562 22.1794 69.7949 21.8505 68.9878 21.1929C68.1956 20.5202 67.7995 19.6384 67.7995 18.5472C67.7995 18.2782 67.8219 18.0091 67.8667 17.7401L68.3376 15.1169C68.5917 13.7118 69.1821 12.6132 70.1088 11.821C71.0355 11.0288 72.2014 10.6327 73.6064 10.6327H75.6019C76.9621 10.6327 78.0382 10.9616 78.8304 11.6192C79.6226 12.262 80.0187 13.1364 80.0187 14.2425C80.0187 14.4069 79.9888 14.6983 79.9291 15.1169L79.4582 17.7401C79.2041 19.1451 78.6212 20.2362 77.7094 21.0135C76.7976 21.7907 75.6168 22.1794 74.1669 22.1794H72.1715ZM74.2791 19.5562C74.847 19.5562 75.3253 19.3768 75.714 19.0181C76.1026 18.6444 76.3492 18.1362 76.4539 17.4935L76.835 15.3187C76.8649 15.0795 76.8798 14.9151 76.8798 14.8254C76.8798 14.3471 76.7453 13.9659 76.4763 13.6819C76.2222 13.3979 75.8634 13.256 75.4001 13.256H73.4943C72.9263 13.256 72.448 13.4428 72.0594 13.8165C71.6857 14.1752 71.4466 14.6759 71.3419 15.3187L70.9608 17.4935C70.9309 17.7326 70.916 17.9045 70.916 18.0091C70.916 18.4874 71.043 18.8686 71.2971 19.1526C71.5662 19.4216 71.9249 19.5562 72.3733 19.5562H74.2791ZM84.9681 9.75833C84.4748 9.75833 84.0787 9.62381 83.7798 9.35476C83.4809 9.08571 83.3314 8.73446 83.3314 8.30099C83.3314 7.64332 83.5332 7.1127 83.9367 6.70913C84.3553 6.29061 84.9083 6.08135 85.5959 6.08135C86.0891 6.08135 86.4852 6.21587 86.7842 6.48492C87.0831 6.75397 87.2326 7.10522 87.2326 7.53869C87.2326 8.19636 87.0233 8.73446 86.6048 9.15298C86.2012 9.55655 85.6557 9.75833 84.9681 9.75833ZM83.2417 10.8121H86.2909L84.3179 22H81.2687L83.2417 10.8121ZM89.2972 10.8121H92.1222L91.8756 12.1573C92.309 11.679 92.7799 11.3054 93.2881 11.0363C93.7963 10.7673 94.2895 10.6327 94.7678 10.6327H96.0234C97.1444 10.6327 98.0263 10.9317 98.669 11.5296C99.3267 12.1125 99.6555 12.8972 99.6555 13.8837C99.6555 14.1378 99.6331 14.4144 99.5883 14.7133L98.3103 22H95.2611L96.5166 14.8254C96.5316 14.7357 96.5391 14.6087 96.5391 14.4442C96.5391 14.0855 96.4419 13.8015 96.2476 13.5923C96.0682 13.383 95.8141 13.2784 95.4853 13.2784H94.1401C93.6169 13.2784 93.1087 13.4727 92.6155 13.8613C92.1371 14.235 91.7784 14.7282 91.5393 15.3411L90.3734 22H87.3242L89.2972 10.8121ZM105.656 22C104.549 22 103.727 21.7907 103.189 21.3722C102.651 20.9388 102.382 20.2736 102.382 19.3768C102.382 19.0928 102.419 18.7415 102.494 18.323L103.369 13.4129H101.396L101.844 10.8121H103.907L104.512 7.42659H107.472L106.866 10.8121H109.758L109.31 13.4129H106.418L105.566 18.1885C105.536 18.3978 105.521 18.5397 105.521 18.6145C105.521 19.1376 105.798 19.3992 106.351 19.3992H108.256L107.785 22H105.656Z" fill="#0970FF"/>
<defs>
<linearGradient id="paint0_linear_570_9845" x1="7.01963" y1="2.52765" x2="-1.90864" y2="17.8823" gradientUnits="userSpaceOnUse">
<stop stop-color="#0970FF"/>
<stop offset="1" stop-color="#064399"/>
</linearGradient>
<clipPath id="clip0_570_9845">
<rect width="20.7083" height="21" fill="white" transform="translate(0.5 1)"/>
</clipPath>
</defs>
</svg>
