<svg width="80" height="83" viewBox="0 0 80 83" fill="none" xmlns="http://www.w3.org/2000/svg">
<path fill-rule="evenodd" clip-rule="evenodd" d="M61.6389 19.743C56.1041 14.175 48.4576 10.7312 40.0136 10.7312C31.5697 10.7312 23.9231 14.175 18.3883 19.743C12.8534 25.3111 9.4302 33.0035 9.4302 41.4981C9.4302 49.9927 12.8534 57.6851 18.3883 63.2531C23.9231 68.8212 31.5697 72.265 40.0136 72.265C48.4576 72.265 56.1041 68.8212 61.6389 63.2531C67.1738 57.6851 70.597 49.9927 70.597 41.4981C70.597 33.0035 67.1738 25.3111 61.6389 19.743ZM40.0136 9.93689C48.6779 9.93689 56.5211 13.4704 62.1977 19.1809C67.8742 24.8915 71.3866 32.7818 71.3866 41.4981C71.3866 50.2144 67.8742 58.1047 62.1977 63.8152C56.5211 69.5258 48.6779 73.0593 40.0136 73.0593C31.3493 73.0593 23.5061 69.5258 17.8295 63.8152C12.153 58.1047 8.64063 50.2117 8.64062 41.4981C8.64062 32.7845 12.153 24.8915 17.8295 19.1809C23.5061 13.4704 31.3493 9.93689 40.0136 9.93689Z" fill="white"/>
<path fill-rule="evenodd" clip-rule="evenodd" d="M67.216 34.6584C67.7722 34.6584 68.226 35.1149 68.226 35.6743C68.226 36.2338 67.7722 36.6903 67.216 36.6903C66.6599 36.6903 66.2061 36.2338 66.2061 35.6743C66.2061 35.1149 66.6599 34.6584 67.216 34.6584ZM65.4166 29.0982C65.9727 29.0982 66.4265 29.5521 66.4265 30.1142C66.4265 30.6763 65.9753 31.1302 65.4166 31.1302C64.8578 31.1302 64.4066 30.6763 64.4066 30.1142C64.4066 29.5521 64.8578 29.0982 65.4166 29.0982ZM62.5048 24.0368C63.0636 24.0368 63.5148 24.4907 63.5148 25.0528C63.5148 25.6149 63.0636 26.0688 62.5048 26.0688C61.9461 26.0688 61.4949 25.6149 61.4949 25.0528C61.4949 24.4907 61.9461 24.0368 62.5048 24.0368ZM58.6147 19.6905C59.1734 19.6905 59.6246 20.1444 59.6246 20.7065C59.6246 21.2686 59.1734 21.7225 58.6147 21.7225C58.056 21.7225 57.6048 21.2686 57.6048 20.7065C57.6048 20.1444 58.056 19.6905 58.6147 19.6905ZM53.9088 16.2547C54.4675 16.2547 54.9187 16.7086 54.9187 17.2707C54.9187 17.8328 54.4675 18.2867 53.9088 18.2867C53.35 18.2867 52.8988 17.8328 52.8988 17.2707C52.8988 16.7086 53.35 16.2547 53.9088 16.2547ZM48.5995 13.8744C49.1556 13.8744 49.6094 14.3309 49.6094 14.8904C49.6094 15.4498 49.1582 15.9064 48.5995 15.9064C48.0408 15.9064 47.5896 15.4498 47.5896 14.8904C47.5896 14.3309 48.0408 13.8744 48.5995 13.8744ZM42.9125 12.6605C43.4686 12.6605 43.9224 13.1144 43.9224 13.6765C43.9224 14.2386 43.4712 14.6925 42.9125 14.6925C42.3537 14.6925 41.9026 14.2386 41.9026 13.6765C41.9026 13.1144 42.3537 12.6605 42.9125 12.6605ZM37.0969 12.6632C37.6557 12.6632 38.1068 13.1171 38.1068 13.6791C38.1068 14.2412 37.6557 14.6951 37.0969 14.6951C36.5382 14.6951 36.087 14.2412 36.087 13.6791C36.087 13.1171 36.5382 12.6632 37.0969 12.6632ZM31.4099 13.8823C31.966 13.8823 32.4198 14.3362 32.4198 14.8983C32.4198 15.4604 31.9687 15.9143 31.4099 15.9143C30.8512 15.9143 30.4 15.4604 30.4 14.8983C30.4 14.3362 30.8512 13.8823 31.4099 13.8823ZM26.1006 16.2679C26.6568 16.2679 27.1106 16.7218 27.1106 17.2839C27.1106 17.846 26.6568 18.2998 26.1006 18.2998C25.5445 18.2998 25.0907 17.846 25.0907 17.2839C25.0907 16.7218 25.5445 16.2679 26.1006 16.2679ZM21.3973 19.709C21.9534 19.709 22.4072 20.1629 22.4072 20.725C22.4072 21.2871 21.9561 21.741 21.3973 21.741C20.8386 21.741 20.3874 21.2871 20.3874 20.725C20.3874 20.1629 20.8386 19.709 21.3973 19.709ZM17.5098 24.0579C18.0659 24.0579 18.5197 24.5144 18.5197 25.0739C18.5197 25.6333 18.0685 26.0899 17.5098 26.0899C16.9511 26.0899 16.4999 25.6333 16.4999 25.0739C16.4999 24.5144 16.9511 24.0579 17.5098 24.0579ZM14.6033 29.1246C15.1595 29.1246 15.6133 29.5785 15.6133 30.1406C15.6133 30.7027 15.1621 31.1565 14.6033 31.1565C14.0446 31.1565 13.5934 30.7027 13.5934 30.1406C13.5934 29.5785 14.0446 29.1246 14.6033 29.1246ZM12.8065 34.6874C13.3626 34.6874 13.8164 35.1413 13.8164 35.7034C13.8164 36.2655 13.3652 36.7193 12.8065 36.7193C12.2477 36.7193 11.7966 36.2655 11.7966 35.7034C11.7966 35.1413 12.2477 34.6874 12.8065 34.6874ZM12.6124 42.451C12.8563 49.6948 15.873 56.2287 20.6314 61.0104C25.5918 65.9979 32.4434 69.0828 40.0113 69.0828C47.5791 69.0828 54.436 65.9979 59.3964 61.0051C64.1574 56.2182 67.1741 49.6763 67.4102 42.4273C67.056 42.2689 66.8094 41.9127 66.8094 41.4984C66.8094 40.9389 67.2606 40.4824 67.8194 40.4824C68.3781 40.4824 68.8293 40.9389 68.8293 41.4984C68.8293 41.9233 68.5696 42.2901 68.1997 42.4405C67.9584 49.9033 64.8552 56.6377 59.9551 61.5672C54.8505 66.7025 47.7994 69.8771 40.0113 69.8771C32.2231 69.8771 25.1799 66.7051 20.0753 61.5725C15.1778 56.6483 12.072 49.9217 11.8254 42.4642C11.4556 42.3138 11.1932 41.9496 11.1932 41.5221C11.1932 40.9601 11.6444 40.5062 12.2032 40.5062C12.7619 40.5062 13.2131 40.9601 13.2131 41.5221C13.2131 41.9364 12.9665 42.2927 12.6124 42.451Z" fill="white"/>
<path d="M49.8058 51.9802H30.3629V52.7745H49.8058V51.9802Z" fill="white"/>
<path fill-rule="evenodd" clip-rule="evenodd" d="M39.4973 23.0918V21.6298C37.8971 21.6641 36.5226 21.899 35.1743 22.4822C34.2378 22.8886 33.3092 23.4639 32.3255 24.2582C33.2095 23.9204 34.0437 23.6565 34.8962 23.4612C36.3022 23.1419 37.7424 23.0205 39.4973 23.0891V23.0918ZM39.4973 27.4301V23.8861C37.7974 23.8175 36.4124 23.9336 35.0667 24.2371C33.6188 24.5669 32.2023 25.1185 30.4762 25.8996C30.3293 25.9655 30.1536 25.9365 30.0329 25.8151C29.8808 25.6594 29.8834 25.4087 30.0381 25.2557C31.7904 23.5298 33.3092 22.4268 34.8621 21.7539C36.4124 21.0809 37.9889 20.8408 39.854 20.8329C39.8671 20.8329 39.8776 20.8329 39.8907 20.8329C40.1084 20.8329 40.2868 21.0123 40.2868 21.2314V27.4328H39.4973V27.4301Z" fill="white"/>
<path fill-rule="evenodd" clip-rule="evenodd" d="M36.6089 27.8001C34.6835 27.9215 32.787 28.2012 30.9429 28.7263C31.903 31.0169 32.4669 33.6373 32.6951 36.5348C32.9234 39.4376 32.8158 42.6201 32.4276 46.0375C35.0061 45.449 37.5768 45.164 40.137 45.1746C42.7314 45.1878 45.3125 45.5044 47.8806 46.1246C48.0695 43.9105 48.2085 41.7809 48.2583 39.7252C48.3108 37.5138 48.2583 35.3631 48.0511 33.2415C47.8911 31.5895 47.7049 30.2516 47.0255 29.3465C46.3592 28.4598 45.1709 27.9373 42.9779 27.8555H42.9517C40.8138 27.7262 38.6917 27.6708 36.6063 27.8027L36.6089 27.8001ZM30.3159 28.0877C32.3541 27.4623 34.4422 27.1403 36.5643 27.0084C38.6838 26.8765 40.8374 26.9319 43.0015 27.0612H43.012C45.4804 27.1535 46.8497 27.7869 47.6576 28.8662C48.4577 29.9323 48.6649 31.3837 48.8381 33.1649C49.0479 35.3183 49.1004 37.5007 49.0479 39.7411C48.9955 41.9947 48.8381 44.2826 48.6308 46.655C48.6125 46.874 48.421 47.035 48.2033 47.0165C48.177 47.0165 48.1534 47.0112 48.1298 47.0033C45.4752 46.3251 42.81 45.9794 40.1397 45.9662C37.4614 45.953 34.7701 46.2776 32.0682 46.9373C31.8584 46.9901 31.6433 46.8582 31.5934 46.6444C31.5829 46.5969 31.5803 46.5494 31.5855 46.5046C32.0184 42.9236 32.1522 39.6012 31.9161 36.5955C31.6826 33.6083 31.0819 30.9351 30.051 28.634C29.9618 28.436 30.051 28.2012 30.2477 28.1115C30.2713 28.1009 30.295 28.093 30.3212 28.0877H30.3159Z" fill="white"/>
<path fill-rule="evenodd" clip-rule="evenodd" d="M34.3136 27.3798C37.0285 30.0028 36.6875 36.2201 36.3465 42.4373C36.2836 43.5958 36.2206 44.7516 36.176 45.8573L35.3891 45.8256C35.4337 44.6777 35.4966 43.5351 35.5596 42.3924C35.8901 36.3573 36.2206 30.3195 33.7679 27.9498L34.3136 27.3798Z" fill="white"/>
<path fill-rule="evenodd" clip-rule="evenodd" d="M38.0487 27.0634C39.2842 28.2588 39.8954 31.0428 40.1761 34.4839C40.4515 37.8432 40.4201 41.8676 40.3624 45.628L40.2601 52.3809L39.4731 52.3704L39.5754 45.6174C39.6305 41.8887 39.6593 37.8934 39.3865 34.5473C39.119 31.2829 38.576 28.6731 37.5005 27.6334L38.0461 27.0634H38.0487Z" fill="white"/>
<path fill-rule="evenodd" clip-rule="evenodd" d="M42.309 27.1212C45.1158 29.8314 44.7853 36.6001 44.4705 43.076C44.4233 44.0233 44.3787 44.9654 44.3446 45.8547L43.5577 45.8257C43.5944 44.8889 43.639 43.9679 43.6836 43.039C43.9905 36.7374 44.3105 30.1533 41.7634 27.6912L42.309 27.1212Z" fill="white"/>
<path fill-rule="evenodd" clip-rule="evenodd" d="M31.6273 31.2197L22.3518 42.9073L21.7354 42.4139L31.0108 30.7262L31.6273 31.2197Z" fill="white"/>
<path d="M48.5054 31.1777L47.8752 31.6562L55.4394 41.7362L56.0696 41.2576L48.5054 31.1777Z" fill="white"/>
<path fill-rule="evenodd" clip-rule="evenodd" d="M24.152 45.0106C24.0418 44.8997 23.8871 44.8311 23.7166 44.8311C23.5461 44.8311 23.3913 44.8997 23.2811 45.0132C23.1709 45.124 23.1001 45.2797 23.1001 45.4513C23.1001 45.6228 23.1631 45.7627 23.2628 45.8735L23.2785 45.8893C23.3887 46.0002 23.5434 46.0688 23.7139 46.0688C23.8844 46.0688 24.0392 46.0002 24.1494 45.8893C24.2596 45.7785 24.3278 45.6228 24.3278 45.4513C24.3278 45.2797 24.2596 45.1267 24.1468 45.0132L24.152 45.0106ZM23.7166 44.0342C24.1022 44.0342 24.4537 44.1925 24.7081 44.4485C24.9626 44.7045 25.12 45.0581 25.12 45.4486C25.12 45.8392 24.9626 46.1902 24.7081 46.4461C24.4537 46.7021 24.1022 46.8604 23.7166 46.8604C23.331 46.8604 22.9768 46.7021 22.7224 46.4461C22.7145 46.4382 22.7066 46.4303 22.6988 46.4224C22.4574 46.169 22.3105 45.826 22.3105 45.4486C22.3105 45.0713 22.4679 44.7045 22.7224 44.4485C22.9768 44.1925 23.3283 44.0342 23.7166 44.0342Z" fill="white"/>
<path fill-rule="evenodd" clip-rule="evenodd" d="M56.3662 45.0106C56.2534 44.8997 56.1013 44.8311 55.9308 44.8311C55.7603 44.8311 55.6081 44.8997 55.4953 45.0132C55.3826 45.1267 55.317 45.2797 55.317 45.4513C55.317 45.6228 55.3799 45.7627 55.4796 45.8735L55.4953 45.8893C55.6081 46.0002 55.7603 46.0688 55.9308 46.0688C56.1013 46.0688 56.2534 46.0002 56.3662 45.8893C56.4764 45.7785 56.5446 45.6228 56.5446 45.4513C56.5446 45.2797 56.4764 45.1267 56.3636 45.0132L56.3662 45.0106ZM55.9308 44.0342C56.3164 44.0342 56.6679 44.1925 56.9223 44.4485C57.1768 44.7045 57.3342 45.0581 57.3342 45.4486C57.3342 45.8392 57.1768 46.1902 56.9223 46.4461C56.6679 46.7021 56.3164 46.8604 55.9308 46.8604C55.5452 46.8604 55.1911 46.7021 54.9366 46.4461C54.9287 46.4382 54.9209 46.4303 54.913 46.4224C54.6717 46.169 54.5248 45.826 54.5248 45.4486C54.5248 45.0713 54.6822 44.7045 54.9366 44.4485C55.1911 44.1925 55.5426 44.0342 55.9308 44.0342Z" fill="white"/>
<path fill-rule="evenodd" clip-rule="evenodd" d="M34.807 52.698L27.9946 47.8028L27.8608 47.7052C27.2208 47.246 26.9034 47.019 26.7171 46.676C26.5257 46.325 26.5283 45.9767 26.5361 45.2853V45.1111L26.5571 43.0739L18.2496 43.0422C18.2496 43.6149 18.3388 44.1189 18.5145 44.549C18.7191 45.0557 19.0496 45.4674 19.5113 45.7814C20.2406 46.2775 20.634 46.3197 20.8727 46.3435C21.4131 46.3989 21.5653 46.4174 21.7305 47.3753L20.9514 47.5099C20.8885 47.1431 20.8675 47.1404 20.7914 47.1325C20.4793 47.1009 19.9625 47.0454 19.0706 46.4411C18.4752 46.0347 18.0476 45.5017 17.7827 44.8472C17.5256 44.2139 17.4259 43.4697 17.4731 42.6226C17.4836 42.4142 17.6568 42.2479 17.8666 42.2479L26.9558 42.2822H26.9585C27.1762 42.2822 27.3493 42.4617 27.3493 42.6807L27.3257 45.1164V45.2906C27.3178 45.8447 27.3152 46.1245 27.407 46.2934C27.5067 46.4781 27.7769 46.6707 28.3146 47.056L28.4484 47.1536L35.2608 52.0488L34.8043 52.6953L34.807 52.698Z" fill="white"/>
<path fill-rule="evenodd" clip-rule="evenodd" d="M58.8062 46.9762C57.9406 51.5626 55.5142 55.5157 52.146 58.3182C48.7779 61.1233 44.4654 62.7832 39.8251 62.7832C35.1847 62.7832 30.9326 61.1471 27.5723 58.3736C24.212 55.6001 21.7777 51.6919 20.8754 47.1478L21.6492 46.9921C22.5148 51.3515 24.8495 55.1014 28.0707 57.7587C31.2919 60.4161 35.4024 61.9863 39.8224 61.9863C44.2425 61.9863 48.408 60.395 51.6398 57.7033C54.8715 55.0117 57.1982 51.2222 58.0298 46.8258L58.8036 46.9709L58.8062 46.9762Z" fill="white"/>
<path fill-rule="evenodd" clip-rule="evenodd" d="M63.8716 41.6461C63.848 41.5247 63.8244 41.5854 63.7693 41.6751C63.8453 41.6988 63.8899 41.7358 63.8716 41.6461ZM45.3783 51.8454L51.8785 46.7048C52.2982 46.375 52.3008 45.5886 52.3061 44.7626C52.3166 43.0368 52.327 41.1684 55.3227 41.1579L62.4997 41.1288C62.88 41.1288 63.1974 41.1183 63.4519 41.113C64.2073 41.0919 64.5615 41.084 64.6428 41.4877C64.7031 41.7886 64.4775 41.9786 64.0552 42.3295C63.8112 42.5327 63.4755 42.8124 63.0531 43.2083C62.5495 43.6833 61.8911 44.2348 61.2353 44.7863C60.6897 45.2455 60.1441 45.702 59.727 46.0794C59.6116 46.1823 59.5224 46.2615 59.4437 46.3301C59.0659 46.6626 58.8456 46.8552 58.78 47.1191L58.0141 46.9265C58.14 46.4251 58.4259 46.1718 58.9243 45.7337C59.0161 45.6519 59.1158 45.5648 59.1997 45.4883C59.6693 45.0661 60.1965 44.6201 60.7264 44.1768C61.3769 43.6305 62.0327 43.079 62.5154 42.6251C62.8276 42.3322 63.103 42.0947 63.3286 41.9047C63.1004 41.9099 62.8276 41.9152 62.5023 41.9179L55.3253 41.9469C53.1114 41.9548 53.1035 43.4168 53.0956 44.7652C53.0904 45.7891 53.0851 46.7629 52.369 47.3276L45.8715 52.4682L45.3835 51.8454H45.3783Z" fill="white"/>
<path fill-rule="evenodd" clip-rule="evenodd" d="M56.2934 46.5622C55.1707 50.6156 52.9436 54.0224 50.0581 56.4159C47.1622 58.8199 43.6052 60.2053 39.8278 60.2053C36.0505 60.2053 32.4935 58.8199 29.5975 56.4185C26.712 54.025 24.485 50.6182 23.3596 46.5675L24.1203 46.3564C25.2011 50.2461 27.3337 53.5131 30.0985 55.8063C32.8528 58.0916 36.2367 59.411 39.8278 59.411C43.4189 59.411 46.8028 58.0916 49.5597 55.8063C52.3245 53.5131 54.4572 50.2435 55.5379 46.3538L56.296 46.5649L56.2934 46.5622Z" fill="white"/>
<path fill-rule="evenodd" clip-rule="evenodd" d="M53.0459 45.8971C52.7442 49.2142 51.1388 51.832 48.9092 53.6845C46.3516 55.8088 42.9782 56.9224 39.8252 56.9224C36.8925 56.9224 33.9781 55.8589 31.5884 53.9563C29.3089 52.1407 27.5016 49.5599 26.6071 46.4143L27.3651 46.1979C28.2124 49.1799 29.9201 51.6209 32.0763 53.3362C34.327 55.128 37.0656 56.1281 39.8252 56.1281C42.8051 56.1281 45.9948 55.0778 48.4055 53.0749C50.4831 51.3491 51.9809 48.9107 52.2616 45.8285L53.0459 45.8997V45.8971Z" fill="white"/>
<path fill-rule="evenodd" clip-rule="evenodd" d="M21.403 57.4687C21.2534 57.627 21.0042 57.6323 20.8468 57.4819C20.6895 57.3315 20.6842 57.0808 20.8337 56.9224C21.0698 56.677 21.5971 56.1624 22.4103 55.8009C23.2287 55.4341 24.3304 55.2151 25.7102 55.5476C25.92 55.5977 26.0512 55.8115 26.0014 56.0226C25.9515 56.2337 25.739 56.3656 25.5266 56.3155C24.3488 56.0305 23.4149 56.2126 22.7303 56.5213C22.0404 56.8301 21.5971 57.2602 21.4003 57.4687H21.403Z" fill="white"/>
<path fill-rule="evenodd" clip-rule="evenodd" d="M24.6555 60.1607C24.527 60.3375 24.2804 60.3771 24.1046 60.2504C23.9289 60.1211 23.8895 59.8731 24.0181 59.6962C24.0233 59.691 25.4398 57.6669 28.2886 58.0126C28.5037 58.039 28.6584 58.2343 28.6348 58.4533C28.6112 58.6724 28.4145 58.828 28.1967 58.8017C25.8123 58.5114 24.6607 60.158 24.6555 60.1633V60.1607Z" fill="white"/>
<path fill-rule="evenodd" clip-rule="evenodd" d="M28.606 62.5429C28.4801 62.7197 28.2309 62.7593 28.0552 62.6326C27.8794 62.5033 27.8401 62.2552 27.966 62.0784C27.9686 62.0732 29.3877 60.0491 32.2391 60.3948C32.4542 60.4212 32.609 60.6165 32.5853 60.8355C32.5591 61.0546 32.365 61.2102 32.1473 61.1839C29.7628 60.8936 28.6113 62.5402 28.606 62.5455V62.5429Z" fill="white"/>
<path fill-rule="evenodd" clip-rule="evenodd" d="M33.7601 63.9628C33.6315 64.1396 33.385 64.1792 33.2092 64.0499C33.0335 63.9232 32.9941 63.6725 33.12 63.4957C33.1253 63.4904 34.5418 61.4638 37.3931 61.8121C37.6082 61.8385 37.763 62.0364 37.7394 62.2528C37.7132 62.4692 37.5191 62.6249 37.3013 62.6011C34.9143 62.3109 33.7653 63.9575 33.7601 63.9628Z" fill="white"/>
<path fill-rule="evenodd" clip-rule="evenodd" d="M39.1268 63.5039C39.2448 63.6886 39.1923 63.9314 39.0113 64.0528C38.8303 64.1715 38.5864 64.1188 38.4684 63.9367C38.4657 63.9314 37.6132 62.5565 35.2419 62.8468C35.0268 62.8732 34.83 62.7175 34.8038 62.4985C34.7776 62.2821 34.9323 62.0842 35.1501 62.0578C38.0145 61.7095 39.1268 63.4986 39.132 63.5039H39.1268Z" fill="white"/>
<path fill-rule="evenodd" clip-rule="evenodd" d="M46.3857 63.6068C46.5142 63.7836 46.4749 64.0316 46.2965 64.1609C46.1208 64.2876 45.8742 64.2506 45.7457 64.0712C45.743 64.0659 44.5915 62.4193 42.2044 62.7095C41.9893 62.7359 41.7926 62.5802 41.7663 62.3612C41.7401 62.1422 41.8949 61.9469 42.1126 61.9205C44.964 61.5722 46.3805 63.5988 46.3857 63.6041V63.6068Z" fill="white"/>
<path fill-rule="evenodd" clip-rule="evenodd" d="M41.0421 64.0451C40.924 64.2298 40.6801 64.2799 40.4991 64.1612C40.3154 64.0424 40.2656 63.797 40.3836 63.6123C40.3863 63.607 41.5011 61.8179 44.3656 62.1662C44.5807 62.1926 44.7355 62.3905 44.7118 62.6069C44.6882 62.8233 44.4915 62.979 44.2738 62.9552C41.8998 62.6676 41.0473 64.0424 41.0447 64.0451H41.0421Z" fill="white"/>
<path fill-rule="evenodd" clip-rule="evenodd" d="M59.2388 55.8642C59.3883 56.0226 59.3831 56.2733 59.2283 56.4237C59.0709 56.5741 58.8217 56.5688 58.6722 56.4131C58.4807 56.2126 58.0898 55.8722 57.4603 55.6452C56.8124 55.413 55.9152 55.3048 54.7243 55.5951C54.5145 55.6452 54.302 55.5159 54.2522 55.3022C54.2023 55.0884 54.3335 54.8747 54.5433 54.8245C55.91 54.4947 56.9593 54.624 57.7226 54.8958C58.5069 55.1755 58.9974 55.6083 59.2414 55.8616L59.2388 55.8642Z" fill="white"/>
<path fill-rule="evenodd" clip-rule="evenodd" d="M56.0044 58.5799C56.1644 58.7277 56.1723 58.9811 56.0228 59.1394C55.8759 59.3004 55.6267 59.3083 55.4667 59.1605C55.4641 59.1579 54.2758 58.0231 51.8415 58.3187C51.6264 58.3451 51.4296 58.1894 51.4034 57.9704C51.3772 57.754 51.5319 57.556 51.7497 57.5297C54.5486 57.1892 56.0018 58.5747 56.0044 58.5773V58.5799Z" fill="white"/>
<path fill-rule="evenodd" clip-rule="evenodd" d="M51.5874 61.5115C51.6949 61.7015 51.6293 61.9443 51.4405 62.0525C51.2516 62.1607 51.0103 62.0947 50.9027 61.9047C50.9027 61.8994 50.1289 60.5193 48.235 60.8307C48.0199 60.865 47.8179 60.7198 47.7838 60.5034C47.7497 60.287 47.894 60.0839 48.1091 60.0495C50.546 59.6511 51.5847 61.5089 51.59 61.5141L51.5874 61.5115Z" fill="white"/>
<path d="M5.61886 28.8043L3.85294 27.9664L4.42795 26.4835L7.35893 27.6422L6.6244 29.5365L6.56754 29.5141C6.41434 29.2328 6.0992 29.031 5.61886 28.8043ZM7.24635 30.3562L8.43224 27.2978L9.33238 27.6537L9.66997 26.783L7.95497 26.105L7.73239 26.6791L3.9897 25.1994L2.7123 28.4938L5.19612 29.6597C5.80033 29.9427 6.11821 30.175 6.21756 30.5857L6.09266 30.9079L7.80766 31.5859L8.14649 30.712L7.24635 30.3562Z" fill="white"/>
<path d="M6.59047 20.1664C5.81711 21.3948 6.1559 22.708 7.49551 23.5679C8.83512 24.4278 10.1521 24.1937 10.9327 22.9537C11.7079 21.7225 11.3626 20.4132 10.023 19.5533C8.68628 18.6953 7.36383 18.9381 6.59047 20.1664ZM7.34901 20.6533C7.77481 19.977 8.5963 19.8915 9.46075 20.4464C10.3223 20.9995 10.6018 21.7876 10.1742 22.4668C9.74112 23.1547 8.91937 23.2279 8.05779 22.6748C7.19334 22.1199 6.92139 21.3326 7.34901 20.6533Z" fill="white"/>
<path d="M15.0669 17.6096C15.8795 16.7452 15.9437 15.6073 15.2346 14.8096L14.5481 15.5399C14.8715 15.9868 14.8188 16.5502 14.4149 16.98C13.8825 17.5463 13.0883 17.4509 12.3404 16.7342C11.5926 16.0174 11.4593 15.2239 11.9894 14.66C12.391 14.2327 12.9651 14.1643 13.4412 14.4837L14.1277 13.7534C13.3038 13.0677 12.1336 13.1833 11.335 14.0328C10.3566 15.0736 10.4651 16.3959 11.6189 17.5017C12.7751 18.6099 14.0908 18.6479 15.0669 17.6096Z" fill="white"/>
<path d="M20.014 13.1155L17.6454 9.83667L18.832 8.96277L18.3163 8.24888L15.1156 10.6062L15.6313 11.3201L16.8178 10.4462L19.1864 13.7251L20.014 13.1155Z" fill="white"/>
<path d="M26.0131 9.65088L27.0104 9.16086L23.3408 5.46775L22.2581 5.99973L22.8716 11.1944L23.7958 10.7403L23.6238 9.51458L25.1701 8.75483L26.0131 9.65088ZM23.1883 6.68534L23.2432 6.65837L24.6291 8.13319L23.4762 8.69963L23.1883 6.68534Z" fill="white"/>
<path d="M31.0342 7.88118C32.0394 7.59418 32.5152 6.8889 32.2817 6.0551C32.1101 5.44211 31.5235 5.09706 30.8872 5.22889L30.8706 5.16957C31.3333 4.95916 31.5794 4.41554 31.4382 3.91131C31.2324 3.17638 30.5609 2.88049 29.647 3.1414L27.5875 3.72937L28.9192 8.48499L31.0342 7.88118ZM28.7864 4.20926L29.6089 3.97444C30.0789 3.84026 30.4135 3.99032 30.5196 4.36932C30.6266 4.75161 30.398 5.05535 29.866 5.20724L29.1251 5.41876L28.7864 4.20926ZM29.6917 7.44229L29.3133 6.09107L30.1685 5.84694C30.7494 5.68108 31.1306 5.82138 31.2524 6.25641C31.377 6.70132 31.1376 7.0295 30.5697 7.19163L29.6917 7.44229Z" fill="white"/>
<path d="M35.479 4.11312L35.2751 2.02381L34.2557 2.12524L34.7357 7.04347L35.7551 6.94204L35.5585 4.92771L35.7374 4.90991L37.6521 6.75328L38.8842 6.63068L36.5429 4.32732L38.2692 1.72589L37.135 1.83874L35.6512 4.09599L35.479 4.11312Z" fill="white"/>
<path d="M44.1216 6.9134L45.2269 7.00628L43.9394 1.93895L42.7395 1.83811L40.6401 6.62083L41.6643 6.70689L42.1362 5.56433L43.85 5.70835L44.1216 6.9134ZM43.1925 2.90719L43.2534 2.9123L43.6992 4.89493L42.4215 4.78756L43.1925 2.90719Z" fill="white"/>
<path d="M49.6897 6.47972L49.9104 5.57168L47.7462 5.0354L47.5255 5.94344L49.6897 6.47972Z" fill="white"/>
<path d="M56.4025 10.7553L58.3892 6.23869L57.2887 5.74517L54.7078 8.23774L54.652 8.21272L54.7561 4.6094L53.6526 4.1145L51.6659 8.63111L52.5339 9.02036L53.8624 5.9999L53.912 6.02214L53.8316 9.31005L54.4547 9.58947L56.8135 7.32334L56.8631 7.34558L55.5345 10.366L56.4025 10.7553Z" fill="white"/>
<path d="M63.1959 9.19929C62.0284 8.34551 60.7098 8.6075 59.7787 9.90562C58.8476 11.2038 58.9993 12.5453 60.1778 13.4071C61.348 14.2629 62.6632 13.9941 63.5943 12.696C64.5234 11.4006 64.3634 10.0531 63.1959 9.19929ZM62.6687 9.93434C63.3115 10.4044 63.3463 11.2376 62.7455 12.0752C62.1466 12.9102 61.3506 13.1442 60.705 12.6721C60.0512 12.1939 60.0286 11.3613 60.6275 10.5264C61.2283 9.6887 62.0232 9.46225 62.6687 9.93434Z" fill="white"/>
<path d="M67.4296 12.8915L63.8778 16.2918L64.5826 17.0424L65.6853 15.9867L66.3504 16.695C67.0598 17.4505 68.0421 17.506 68.7731 16.8062C69.5115 16.0992 69.5276 15.1258 68.8345 14.3876L67.4296 12.8915ZM67.5239 14.2264L68.0373 14.7732C68.4434 15.2057 68.4578 15.6591 68.0542 16.0455C67.6554 16.4273 67.2031 16.3836 66.7994 15.9536L66.2883 15.4094L67.5239 14.2264Z" fill="white"/>
<path d="M70.367 23.0669L69.134 21.2049L70.1237 20.5368L71.2869 22.2934L71.9608 21.8385L70.7976 20.0818L71.7479 19.4403L72.9808 21.3023L73.7083 20.8112L71.906 18.0894L67.8372 20.8362L69.6395 23.558L70.367 23.0669Z" fill="white"/>
<path d="M72.8849 30.5305L77.4 28.6231L76.9353 27.5015L73.364 27.5252L73.3404 27.4683L75.8657 24.9202L75.3997 23.7954L70.8845 25.7029L71.2511 26.5875L74.2706 25.3119L74.2915 25.3625L71.9978 27.6977L72.261 28.3327L75.5169 28.3197L75.5378 28.3703L72.5183 29.6459L72.8849 30.5305Z" fill="white"/>
<path d="M74.916 36.2674L75.7472 36.0979L75.0638 32.6804L74.2326 32.8498L74.916 36.2674ZM76.5551 35.9332L77.3863 35.7637L76.7029 32.3462L75.8717 32.5157L76.5551 35.9332Z" fill="white"/>
<path d="M79.4041 38.767L74.5108 38.8753L74.553 40.8201C74.5851 42.2993 75.4952 43.1184 77.0856 43.0832C78.6183 43.0493 79.4782 42.1807 79.4463 40.7118L79.4041 38.767ZM78.5516 39.8204L78.5678 40.5668C78.5873 41.4639 78.0359 42.0071 77.0457 42.029C76.0115 42.0519 75.4442 41.5506 75.4243 40.6364L75.4081 39.8899L78.5516 39.8204Z" fill="white"/>
<path d="M73.9294 48.3353L73.7534 49.4411L78.8555 48.5311L79.0465 47.3307L74.4838 44.8524L74.3207 45.877L75.4129 46.4393L75.1401 48.1537L73.9294 48.3353ZM77.9563 47.7053L77.9466 47.7662L75.9548 48.0639L76.1583 46.7857L77.9563 47.7053Z" fill="white"/>
<path d="M72.4228 53.6736L74.1203 54.2811L76.4672 56.9451L76.8377 55.8895L75.2659 54.1751L75.2863 54.117L77.5776 53.7815L77.9481 52.726L74.4625 53.3063L72.7649 52.6987L72.4228 53.6736Z" fill="white"/>
<path d="M70.1123 60.553L71.1754 58.6341L74.6684 60.6071L75.1685 59.7045L70.897 57.2917L69.3338 60.1132L70.1123 60.553Z" fill="white"/>
<path d="M66.7511 65.1111L68.1246 63.3523L69.0595 64.0966L67.7637 65.7559L68.4003 66.2627L69.696 64.6034L70.5936 65.318L69.2202 67.0769L69.9074 67.6239L71.915 65.0529L68.0716 61.993L66.0639 64.5641L66.7511 65.1111Z" fill="white"/>
<path d="M65.6425 67.0598C65.0013 66.4034 64.056 66.4887 63.1925 67.281C62.2838 68.1148 62.1301 69.0796 62.7939 69.8172C63.3049 70.3849 63.9038 70.4138 64.7709 69.9005L65.2921 69.5935C65.7984 69.2955 66.088 69.2658 66.291 69.4914C66.5419 69.7702 66.4506 70.178 66.0715 70.5258C65.705 70.862 65.2656 70.9136 64.9704 70.6569L64.2575 71.311C64.8664 71.9417 65.8372 71.8746 66.6354 71.1421C67.4713 70.3751 67.6127 69.417 66.9923 68.7276C66.4904 68.17 65.8541 68.1199 65.0684 68.5862L64.5053 68.9179C63.9743 69.2292 63.6727 69.2608 63.4628 69.0276C63.2142 68.7513 63.3194 68.303 63.7135 67.9414C64.1402 67.5498 64.6075 67.4681 64.9096 67.7324L65.6425 67.0598Z" fill="white"/>
<path d="M59.117 70.6553L60.1491 72.2736L58.4751 73.3621L58.9287 74.0733L60.6027 72.9848L61.2932 74.0675L59.4595 75.2598L59.9333 76.0027L62.6282 74.2504L59.9782 70.0953L59.117 70.6553Z" fill="white"/>
<path d="M55.2995 78.438C56.628 77.8728 57.09 76.5985 56.4737 75.1214C55.8574 73.6444 54.6427 73.0796 53.3017 73.6501C51.9702 74.2166 51.5157 75.4914 52.132 76.9685C52.7471 78.4424 53.9711 79.0031 55.2995 78.438ZM54.9506 77.6016C54.2191 77.9128 53.4956 77.5107 53.0979 76.5576C52.7015 75.6076 52.9162 74.799 53.6507 74.4865C54.3947 74.17 55.1114 74.5823 55.5078 75.5323C55.9055 76.4855 55.6851 77.2891 54.9506 77.6016Z" fill="white"/>
<path d="M49.0796 79.4964L48.2119 79.6901C47.7151 79.8009 47.3409 79.5828 47.2406 79.1246C47.1389 78.6598 47.3736 78.3198 47.877 78.2075L48.7547 78.0116L49.0796 79.4964ZM48.5849 77.2358L47.7668 77.4183L46.4931 75.8681L45.3605 76.1209L46.7845 77.8024C46.283 78.1458 46.0822 78.7518 46.2168 79.3671C46.4269 80.3269 47.2015 80.7713 48.2514 80.5371L50.2584 80.0892L49.2023 75.2636L48.2021 75.4868L48.5849 77.2358Z" fill="white"/>
<path d="M43.5101 81.3059L43.3136 76.3678L41.3886 76.446C39.9245 76.5054 39.13 77.4391 39.1939 79.044C39.2554 80.5908 40.1312 81.443 41.5851 81.384L43.5101 81.3059ZM42.4515 80.4645L41.7127 80.4945C40.8247 80.5306 40.2768 79.9838 40.237 78.9846C40.1955 77.9408 40.6815 77.359 41.5864 77.3223L42.3252 77.2923L42.4515 80.4645Z" fill="white"/>
<path d="M34.6653 77.618L34.5568 78.5465L36.7699 78.8102L36.8784 77.8816L34.6653 77.618Z" fill="white"/>
<path d="M27.5149 74.2179L26.0929 78.9468L27.2451 79.3001L29.5031 76.5061L29.5615 76.524L29.8967 80.113L31.0521 80.4672L32.474 75.7383L31.5653 75.4597L30.6144 78.6221L30.5625 78.6062L30.2421 75.3332L29.5898 75.1332L27.5246 77.6749L27.4727 77.659L28.4236 74.4965L27.5149 74.2179Z" fill="white"/>
<path d="M21.9806 72.433L23.9442 73.475L23.3903 74.5391L21.5378 73.556L21.1607 74.2806L23.0132 75.2637L22.4814 76.2853L20.5178 75.2433L20.1107 76.0254L22.981 77.5487L25.2581 73.1741L22.3878 71.6508L21.9806 72.433Z" fill="white"/>
<path d="M17.2525 73.105L16.5448 72.5624C16.1395 72.2517 16.062 71.8224 16.343 71.4488C16.6281 71.0696 17.0367 71.0303 17.4473 71.3451L18.1632 71.8939L17.2525 73.105ZM18.6391 71.2611L17.9718 70.7495L18.3179 68.7658L17.394 68.0575L17.0461 70.2419C16.4623 70.0781 15.8748 70.3157 15.4974 70.8176C14.9087 71.6005 15.0745 72.4844 15.9308 73.1409L17.5679 74.396L20.5276 70.4599L19.7118 69.8345L18.6391 71.2611Z" fill="white"/>
<path d="M14.567 65.0116C13.7676 64.1348 12.6476 63.9935 11.8116 64.6542L12.4869 65.395C12.9503 65.0993 13.5035 65.1902 13.9009 65.6261C14.4247 66.2006 14.277 66.9943 13.5184 67.6995C12.7598 68.4046 11.9667 68.4854 11.4452 67.9135C11.0501 67.4801 11.0212 66.8971 11.3688 66.439L10.6934 65.6982C9.96037 66.482 9.99578 67.6687 10.7814 68.5305C11.744 69.5862 13.0579 69.566 14.2282 68.4781C15.4011 67.3879 15.5273 66.0649 14.567 65.0116Z" fill="white"/>
<path d="M9.54395 58.2069L5.39418 60.8273L5.93731 61.7042L7.61102 60.6474L8.78 62.5348L7.10629 63.5917L7.64941 64.4686L11.7992 61.8482L11.2561 60.9713L9.52195 62.0663L8.35297 60.1788L10.0871 59.0838L9.54395 58.2069Z" fill="white"/>
<path d="M7.3864 53.17L6.98154 52.1274L3.04515 55.5288L3.48468 56.6607L8.66166 56.4542L8.28652 55.4881L7.06281 55.5642L6.43508 53.9476L7.3864 53.17ZM4.23516 55.7787L4.21287 55.7213L5.77856 54.443L6.24656 55.6482L4.23516 55.7787Z" fill="white"/>
<path d="M6.26266 49.1921L3.25406 49.7715L3.24262 49.7109L5.828 46.891L5.66914 46.0499L0.861388 46.9758L1.04503 47.948L4.0403 47.3712L4.05174 47.4318L1.47841 50.2424L1.63855 51.0902L6.4463 50.1643L6.26266 49.1921Z" fill="white"/>
<path d="M5.44385 41.3962L1.42478 41.4414L1.40841 39.9586L0.533376 39.9684L0.577515 43.9684L1.45255 43.9585L1.43619 42.4757L5.45527 42.4305L5.44385 41.3962Z" fill="white"/>
<path d="M5.45908 34.2225L4.62172 34.0875L4.07741 37.5304L4.91477 37.6654L5.45908 34.2225ZM3.80781 33.9564L2.97045 33.8214L2.42615 37.2643L3.2635 37.3993L3.80781 33.9564Z" fill="white"/>
</svg>
