<svg width="197" height="26" viewBox="0 0 197 26" fill="none" xmlns="http://www.w3.org/2000/svg">
<path d="M0.583496 21.5843V0.5H5.99451V17.3675H13.5098V0.5H18.9208V17.3675H21.1754V25.5H16.065L15.7644 21.5843H0.583496Z" fill="#7A0FD9"/>
<path d="M40.2537 21.5843H23.5697V0.5H40.2537V4.71687H28.9807V8.78313H37.8488V13H28.9807V17.3675H40.2537V21.5843Z" fill="#7A0FD9"/>
<path d="M60.9889 21.5843H55.5778V13H48.0625V21.5843H42.6515V0.5H48.0625V8.78313H55.5778V0.5H60.9889V21.5843Z" fill="#7A0FD9"/>
<path d="M68.3679 21.5843H62.506L70.4722 0.5H76.4845L84.4507 21.5843H78.5887L77.236 17.8193H69.7207L68.3679 21.5843ZM71.0734 13.9036H75.8832L73.4783 6.8253L71.0734 13.9036Z" fill="#7A0FD9"/>
<path d="M93.7626 17.2169C98.873 17.5181 102.48 17.6687 104.585 17.6687C105.046 17.6687 105.406 17.5382 105.667 17.2771C105.947 16.996 106.088 16.6245 106.088 16.1627V14.9578C106.088 13.753 105.486 13.1506 104.284 13.1506H97.0693V8.93374H103.683C104.885 8.93374 105.486 8.33133 105.486 7.12651V6.5241C105.486 5.31928 104.885 4.71687 103.683 4.71687H94.0632V0.5H105.186C107.15 0.5 108.593 0.951807 109.515 1.85542C110.437 2.73896 110.897 4.09438 110.897 5.92169C110.897 7.12651 110.617 8.11044 110.056 8.87349C109.515 9.61647 108.793 10.1386 107.891 10.4398C109.515 10.8815 110.617 11.9659 111.198 13.6928C111.398 14.3153 111.499 15.0382 111.499 15.8614V16.1627C111.499 18.1305 111.038 19.5763 110.116 20.5C109.194 21.4237 107.751 21.8855 105.787 21.8855C102.44 21.8855 98.4321 21.6847 93.7626 21.2831V17.2169Z" fill="#7A0FD9"/>
<path d="M130.878 21.5843H114.194V0.5H130.878V4.71687H119.605V8.78313H128.473V13H119.605V17.3675H130.878V21.5843Z" fill="#7A0FD9"/>
<path d="M133.275 0.5H145.901C148.005 0.5 149.529 0.981928 150.47 1.94578C151.432 2.88956 151.913 4.41566 151.913 6.5241V9.53614C151.913 11.6446 151.432 13.1807 150.47 14.1446C149.529 15.0884 148.005 15.5602 145.901 15.5602H138.686V21.5843H133.275V0.5ZM146.502 6.5241C146.502 5.31928 145.901 4.71687 144.699 4.71687H138.686V11.3434H144.699C145.901 11.3434 146.502 10.741 146.502 9.53614V6.5241Z" fill="#7A0FD9"/>
<path d="M172.955 21.5843H167.544V13H160.029V21.5843H154.618V0.5H160.029V8.78313H167.544V0.5H172.955V21.5843Z" fill="#7A0FD9"/>
<path d="M180.334 21.5843H174.472L182.438 0.5H188.451L196.417 21.5843H190.555L189.202 17.8193H181.687L180.334 21.5843ZM183.04 13.9036H187.849L185.444 6.8253L183.04 13.9036Z" fill="#7A0FD9"/>
</svg>
