<svg width="28" height="29" viewBox="0 0 28 29" fill="none" xmlns="http://www.w3.org/2000/svg">
<path opacity="0.26" d="M18.8883 2.83337H9.12325C4.86492 2.83337 2.33325 5.36504 2.33325 9.6117V19.3767C2.33325 23.6234 4.86492 26.155 9.11159 26.155H18.8766C23.1233 26.155 25.6549 23.6234 25.6549 19.3767V9.6117C25.6666 5.36504 23.1349 2.83337 18.8883 2.83337Z" fill="#0970FF"/>
<path d="M20.2416 11.0583L17.5116 19.855C16.8583 21.9433 13.93 21.9783 13.2416 19.9017L12.425 17.4867C12.2033 16.8217 11.6783 16.285 11.0133 16.075L8.58664 15.2583C6.52164 14.57 6.55663 11.6183 8.64497 10.9883L17.4416 8.24667C19.1683 7.72167 20.79 9.34334 20.2416 11.0583Z" fill="#0970FF"/>
</svg>
