<svg width="24" height="24" viewBox="0 0 24 24" fill="none" xmlns="http://www.w3.org/2000/svg">
<path fill-rule="evenodd" clip-rule="evenodd" d="M11.1162 2.36599C11.3506 2.13165 11.6685 2 12 2C12.3315 2 12.6494 2.13165 12.8838 2.36599L21.634 11.1162C21.8088 11.291 21.9278 11.5138 21.976 11.7562C22.0242 11.9987 21.9995 12.2499 21.9049 12.4783C21.8103 12.7067 21.6501 12.9019 21.4446 13.0393C21.2391 13.1766 20.9974 13.25 20.7502 13.25H19.5002V20.7502C19.5002 21.0818 19.3685 21.3997 19.1341 21.6341C18.8996 21.8686 18.5817 22.0003 18.2502 22.0003H15.7501C15.4186 22.0003 15.1006 21.8686 14.8662 21.6341C14.6318 21.3997 14.5001 21.0818 14.5001 20.7502V17.0001C14.5001 16.6686 14.3684 16.3507 14.1339 16.1162C13.8995 15.8818 13.5816 15.7501 13.25 15.7501H10.75C10.4184 15.7501 10.1005 15.8818 9.86606 16.1162C9.63163 16.3507 9.49993 16.6686 9.49993 17.0001V20.7502C9.49993 21.0818 9.36823 21.3997 9.13381 21.6341C8.89938 21.8686 8.58143 22.0003 8.2499 22.0003H5.74983C5.4183 22.0003 5.10035 21.8686 4.86593 21.6341C4.6315 21.3997 4.4998 21.0818 4.4998 20.7502V13.25H3.24977C3.00257 13.25 2.76094 13.1766 2.55543 13.0393C2.34991 12.9019 2.18973 12.7067 2.09514 12.4783C2.00055 12.2499 1.97579 11.9987 2.024 11.7562C2.07222 11.5138 2.19123 11.291 2.36599 11.1162L11.1162 2.36599Z" fill="#A19F9F"/>
</svg>
