<svg width="20" height="24" viewBox="0 0 20 24" fill="none" xmlns="http://www.w3.org/2000/svg">
<path d="M16.0732 18.8164V13.8242C16.0732 12.5234 15.8447 11.4336 14.8867 10.4756L9.90332 5.49219C8.92773 4.5166 7.91699 4.2002 6.55469 4.2002H5.20117V3.77832C5.20117 1.96777 6.21191 0.974609 8.04883 0.974609H12.7686V6.2041C12.7686 7.0918 13.3223 7.64551 14.2188 7.64551H19.1406V15.9336C19.1406 17.8936 18.0508 18.8164 16.3545 18.8164H16.0732ZM14.4473 6.45898C14.0957 6.45898 13.9639 6.31836 13.9639 5.9668L13.9551 1.31738C14.2539 1.36133 14.5264 1.57227 14.8516 1.90625L18.4111 5.5625C18.7451 5.89648 18.9648 6.16895 19 6.45898H14.4473ZM3.71582 23.3252C1.83496 23.3252 0.859375 22.3408 0.859375 20.4424V8.35742C0.859375 6.46777 1.83496 5.47461 3.71582 5.47461H6.87109V11.9434C6.87109 13.0684 7.4248 13.6221 8.54102 13.6221H14.79V20.4424C14.79 22.332 13.8232 23.3252 11.9424 23.3252H3.71582ZM8.62891 12.3389C8.32129 12.3389 8.1543 12.1719 8.1543 11.8555V5.70312C8.52344 5.80859 8.875 6.08105 9.2793 6.49414L13.9023 11.1963C14.3066 11.6094 14.5352 11.9609 14.6318 12.3389H8.62891Z" fill="#8E66FE"/>
</svg>
