<svg width="22" height="25" viewBox="0 0 22 25" fill="none" xmlns="http://www.w3.org/2000/svg">
<path d="M17.2486 0.5C14.7384 0.5 12.7031 2.53523 12.7031 5.04546C12.7031 8.29205 17.2486 13 17.2486 13C17.2486 13 21.794 8.29205 21.794 5.04546C21.794 2.53523 19.7588 0.5 17.2486 0.5ZM17.2486 3.42081C18.1452 3.42081 18.8732 4.14886 18.8732 5.04546C18.8732 5.94205 18.1452 6.6701 17.2486 6.6701C16.352 6.6701 15.6239 5.94205 15.6239 5.04546C15.6239 4.14886 16.352 3.42081 17.2486 3.42081ZM6.9858 3.83585L0.917796 6.26394C0.485977 6.43667 0.203125 6.85341 0.203125 7.31818V23.2273C0.203125 24.0307 1.01459 24.5815 1.76118 24.2837L7.05682 22.1642L13.875 24.4369L19.943 22.011C20.3748 21.8372 20.6577 21.4193 20.6577 20.9546V12.5295C19.8713 13.5295 19.1764 14.2757 18.8821 14.5803L18.3849 15.0952V20.1866L14.9759 21.5494V13.8878C14.3747 13.2128 13.5168 12.1873 12.7031 10.9714V21.6515L8.15767 20.1378V6.62129L10.9165 7.54014C10.6187 6.70491 10.4304 5.86138 10.4304 5.04547C10.4304 5.02501 10.4348 5.006 10.4348 4.98555L6.9858 3.83585ZM5.88494 6.72337V20.1844L2.47585 21.5494V8.08833L5.88494 6.72337Z" fill="#FFFCF9"/>
</svg>
