<svg width="21" height="16" viewBox="0 0 21 16" fill="none" xmlns="http://www.w3.org/2000/svg">
<path d="M7.38477 2.89062C7.11784 2.89062 6.89323 2.80273 6.71094 2.62695C6.53516 2.44466 6.44727 2.22331 6.44727 1.96289C6.44727 1.70247 6.53841 1.48438 6.7207 1.30859C6.90299 1.1263 7.12435 1.03516 7.38477 1.03516H19.6992C19.9596 1.03516 20.181 1.1263 20.3633 1.30859C20.5456 1.48438 20.6367 1.70247 20.6367 1.96289C20.6367 2.22982 20.5456 2.45117 20.3633 2.62695C20.181 2.80273 19.9596 2.89062 19.6992 2.89062H7.38477ZM7.38477 8.88672C7.11784 8.88672 6.89323 8.79883 6.71094 8.62305C6.53516 8.44076 6.44727 8.2194 6.44727 7.95898C6.44727 7.69857 6.53841 7.48047 6.7207 7.30469C6.90299 7.1224 7.12435 7.03125 7.38477 7.03125H19.6992C19.9596 7.03125 20.181 7.1224 20.3633 7.30469C20.5456 7.48047 20.6367 7.69857 20.6367 7.95898C20.6367 8.2194 20.5456 8.44076 20.3633 8.62305C20.181 8.79883 19.9596 8.88672 19.6992 8.88672H7.38477ZM7.38477 14.8828C7.11784 14.8828 6.89323 14.7949 6.71094 14.6191C6.53516 14.4434 6.44727 14.2253 6.44727 13.9648C6.44727 13.6979 6.53841 13.4766 6.7207 13.3008C6.90299 13.1185 7.12435 13.0273 7.38477 13.0273H19.6992C19.9596 13.0273 20.181 13.1185 20.3633 13.3008C20.5456 13.4831 20.6367 13.7044 20.6367 13.9648C20.6367 14.2253 20.5456 14.4434 20.3633 14.6191C20.181 14.7949 19.9596 14.8828 19.6992 14.8828H7.38477ZM1.59375 3.06641C1.28776 3.06641 1.02734 2.95898 0.8125 2.74414C0.597656 2.52279 0.490234 2.26237 0.490234 1.96289C0.490234 1.6569 0.597656 1.39648 0.8125 1.18164C1.02734 0.966797 1.28776 0.859375 1.59375 0.859375H3.26367C3.56315 0.859375 3.82031 0.966797 4.03516 1.18164C4.25651 1.39648 4.36719 1.6569 4.36719 1.96289C4.36719 2.26237 4.25651 2.52279 4.03516 2.74414C3.82031 2.95898 3.56315 3.06641 3.26367 3.06641H1.59375ZM1.59375 9.0625C1.28776 9.0625 1.02734 8.95508 0.8125 8.74023C0.597656 8.52539 0.490234 8.26497 0.490234 7.95898C0.490234 7.65299 0.597656 7.39258 0.8125 7.17773C1.02734 6.96289 1.28776 6.85547 1.59375 6.85547H3.26367C3.56315 6.85547 3.82031 6.96289 4.03516 7.17773C4.25651 7.39258 4.36719 7.65299 4.36719 7.95898C4.36719 8.26497 4.25651 8.52539 4.03516 8.74023C3.82031 8.95508 3.56315 9.0625 3.26367 9.0625H1.59375ZM1.59375 15.0586C1.28776 15.0586 1.02734 14.9512 0.8125 14.7363C0.597656 14.5215 0.490234 14.2643 0.490234 13.9648C0.490234 13.6523 0.597656 13.3887 0.8125 13.1738C1.02734 12.959 1.28776 12.8516 1.59375 12.8516H3.26367C3.56315 12.8516 3.82031 12.959 4.03516 13.1738C4.25651 13.3887 4.36719 13.6523 4.36719 13.9648C4.36719 14.2643 4.25651 14.5215 4.03516 14.7363C3.82031 14.9512 3.56315 15.0586 3.26367 15.0586H1.59375Z" fill="black"/>
</svg>
