<svg width="17" height="4" viewBox="0 0 17 4" fill="none" xmlns="http://www.w3.org/2000/svg">
<path d="M1.73047 3.21875C1.51562 3.21875 1.3138 3.16341 1.125 3.05273C0.936198 2.93555 0.783203 2.78255 0.666016 2.59375C0.548828 2.39844 0.490234 2.18685 0.490234 1.95898C0.490234 1.73112 0.548828 1.52279 0.666016 1.33398C0.783203 1.14518 0.936198 0.995443 1.125 0.884766C1.3138 0.767578 1.51562 0.708984 1.73047 0.708984H15.7441C15.9655 0.708984 16.1706 0.767578 16.3594 0.884766C16.5482 0.995443 16.6979 1.14518 16.8086 1.33398C16.9258 1.52279 16.9844 1.73112 16.9844 1.95898C16.9844 2.18685 16.9258 2.39844 16.8086 2.59375C16.6979 2.78255 16.5482 2.93555 16.3594 3.05273C16.1706 3.16341 15.9655 3.21875 15.7441 3.21875H1.73047Z" fill="#656565"/>
</svg>
