<svg width="31" height="37" viewBox="0 0 31 37" fill="none" xmlns="http://www.w3.org/2000/svg">
<path fill-rule="evenodd" clip-rule="evenodd" d="M29.6364 15.3182C29.6364 26.4545 15.3182 36 15.3182 36C15.3182 36 1 26.4545 1 15.3182C1 7.41047 7.41047 1 15.3182 1C23.2259 1 29.6364 7.41047 29.6364 15.3182Z" fill="#7C14DA" stroke="#7C14DA" stroke-width="2" stroke-linecap="round" stroke-linejoin="round"/>
<path fill-rule="evenodd" clip-rule="evenodd" d="M16.1639 7.74092C15.7459 7.76915 15.6021 7.78504 15.5774 7.80569C15.5427 7.83462 15.5146 8.21065 15.5449 8.23961C15.5551 8.24935 15.5634 8.27142 15.5634 8.28864C15.5634 8.32388 15.7335 8.48697 15.7702 8.48697C15.7832 8.48697 15.7937 8.49405 15.7937 8.5027C15.7937 8.51135 15.8034 8.51843 15.8151 8.51843C15.8454 8.51843 15.9251 8.55543 15.9252 8.56956C15.9253 8.57604 15.9402 8.58135 15.9583 8.58135C15.9763 8.58135 15.9912 8.5867 15.9912 8.59325C15.9912 8.59979 16.0151 8.61527 16.0444 8.62766C16.0737 8.64006 16.1516 8.68071 16.2176 8.71802C16.2836 8.75533 16.3448 8.78585 16.3535 8.78585C16.3623 8.78585 16.3695 8.79293 16.3695 8.80158C16.3695 8.81023 16.3773 8.81731 16.3868 8.81731C16.3962 8.81731 16.4445 8.84208 16.494 8.87236C16.5435 8.90265 16.5907 8.92742 16.5988 8.92742C16.6069 8.92742 16.616 8.93272 16.619 8.93922C16.622 8.94571 16.6874 8.98978 16.7643 9.03716C16.9782 9.16893 17.4784 9.52229 17.5211 9.57183C17.5256 9.57707 17.5857 9.62506 17.6547 9.67848C17.9 9.86844 18.304 10.2428 18.5584 10.5158C18.6348 10.5978 18.7047 10.6727 18.7138 10.6823C18.7651 10.7367 18.8817 10.8715 18.902 10.8999C18.915 10.9181 18.9304 10.9366 18.9361 10.9409C18.9715 10.9677 19.3146 11.4241 19.4327 11.6016C19.6008 11.854 19.6761 11.9754 19.6761 11.9938C19.6761 12.0016 19.6817 12.0103 19.6885 12.0132C19.6953 12.0161 19.7483 12.1069 19.8063 12.2151C19.8644 12.3232 19.9255 12.4349 19.9421 12.4633C19.9587 12.4917 19.9722 12.5253 19.9722 12.538C19.9722 12.5507 19.9796 12.5611 19.9887 12.5611C19.9977 12.5611 20.0051 12.5716 20.0051 12.5843C20.0051 12.597 20.0244 12.6483 20.048 12.6983C20.0715 12.7483 20.0974 12.8034 20.1054 12.8207C20.1475 12.9114 20.2166 13.1016 20.3342 13.4499C20.4064 13.6636 20.4818 14.0106 20.5343 14.3701C20.5678 14.5997 20.5628 15.2012 20.5257 15.4146C20.4895 15.6225 20.3917 16.011 20.3584 16.0792C20.3451 16.1065 20.3342 16.1397 20.3342 16.153C20.3342 16.1663 20.3268 16.1816 20.3177 16.187C20.3087 16.1923 20.3012 16.2087 20.3012 16.2233C20.3012 16.2737 20.0222 16.7692 19.9718 16.8083C19.9663 16.8126 19.9292 16.8586 19.8894 16.9106C19.7845 17.0476 19.4924 17.3216 19.3307 17.4347C19.2538 17.4885 19.1819 17.5394 19.171 17.5479C19.16 17.5564 19.1458 17.5634 19.1394 17.5634C19.1329 17.5634 19.1159 17.5733 19.1017 17.5855C19.0651 17.6166 18.6898 17.7993 18.6624 17.7993C18.6499 17.7993 18.6397 17.8058 18.6397 17.8137C18.6397 17.8216 18.6101 17.8328 18.5739 17.8386C18.5377 17.8445 18.5081 17.8557 18.5081 17.8636C18.5081 17.8715 18.4926 17.878 18.4736 17.878C18.4546 17.878 18.4157 17.8882 18.3872 17.9008C18.3425 17.9205 18.0551 17.9881 17.8172 18.0348C17.6041 18.0767 17.4182 18.09 17.044 18.0902C16.3868 18.0904 15.9346 18.0188 15.1357 17.7878C15.0588 17.7655 14.9885 17.7421 14.9794 17.7358C14.9704 17.7295 14.9384 17.7193 14.9084 17.7131C14.8784 17.707 14.834 17.6921 14.8097 17.68C14.7854 17.6678 14.7565 17.6579 14.7455 17.6578C14.7345 17.6578 14.7012 17.6447 14.6715 17.6289C14.6418 17.613 14.5953 17.5948 14.5682 17.5883C14.541 17.5819 14.5077 17.5675 14.4941 17.5564C14.4806 17.5452 14.4496 17.5316 14.4254 17.5261C14.4011 17.5206 14.3715 17.5068 14.3596 17.4954C14.3476 17.484 14.3136 17.4667 14.2839 17.4568C14.2542 17.4469 14.2185 17.4279 14.2046 17.4146C14.1906 17.4012 14.1661 17.3903 14.15 17.3903C14.134 17.3903 14.1075 17.3762 14.0911 17.3589C14.0746 17.3415 14.0404 17.3274 14.0146 17.3274C13.9858 17.3274 13.9601 17.3154 13.9474 17.2959C13.9361 17.2786 13.9102 17.2645 13.8897 17.2645C13.8693 17.2645 13.8526 17.2573 13.8526 17.2485C13.8526 17.2397 13.8248 17.2202 13.7909 17.2052C13.7569 17.1902 13.7233 17.1691 13.716 17.1583C13.7088 17.1475 13.6927 17.1386 13.6803 17.1386C13.6678 17.1386 13.6357 17.1209 13.6088 17.0993C13.5819 17.0777 13.5505 17.06 13.539 17.06C13.5275 17.06 13.5063 17.0494 13.492 17.0365C13.429 16.9796 13.3606 16.9341 13.3381 16.9341C13.3247 16.9341 13.3045 16.9235 13.2932 16.9106C13.282 16.8976 13.2545 16.887 13.2321 16.887C13.2097 16.887 13.1395 16.8719 13.0761 16.8535C12.9158 16.8069 12.8119 16.818 12.6251 16.9017C11.9379 17.2097 10.6648 18.3622 9.5398 19.6948C8.86211 20.4976 8.30139 21.3239 8.11719 21.7913C8.08068 21.884 8.07981 21.8936 8.10329 21.9473C8.21545 22.204 8.63389 22.6248 9.03017 22.8794C9.2667 23.0314 9.65479 23.1791 9.81766 23.1791C9.99718 23.1791 10.7425 22.786 11.39 22.3498C12.0818 21.8838 12.7829 21.2886 13.0988 20.8991L13.1428 20.8449L13.2139 20.9073C13.253 20.9416 13.3145 20.9908 13.3505 21.0165C13.4371 21.0785 13.4852 21.1172 13.5409 21.1695C13.5661 21.1933 13.5939 21.2128 13.6027 21.2128C13.6309 21.2128 13.6932 21.2505 13.8526 21.3639C14.8287 22.0584 16.0693 22.5387 17.1605 22.6445C17.3609 22.664 17.7755 22.6588 18.2368 22.6312C18.4396 22.619 18.5831 22.5988 18.8619 22.543C19.2071 22.4738 19.4349 22.4176 19.4705 22.3927C19.4795 22.3864 19.5084 22.3763 19.5346 22.3703C19.5608 22.3643 19.6348 22.3359 19.6991 22.3072C19.8349 22.2466 19.9168 22.2179 20.0874 22.1715C20.1553 22.153 20.233 22.1289 20.2601 22.1179C20.2873 22.1069 20.3613 22.078 20.4246 22.0538C20.774 21.9202 21.2985 21.6252 21.8072 21.2765C22.1482 21.0427 22.3515 20.8593 22.6102 20.5521C22.9415 20.1587 23.1725 19.8153 23.4196 19.3488C23.8777 18.4839 24.1487 17.5407 24.2327 16.5189C24.2545 16.2542 24.2541 15.5661 24.232 15.2974C24.0617 13.2265 23.1294 11.2954 21.61 9.86643C20.3393 8.67135 18.759 7.93633 17.108 7.77241C16.871 7.74889 16.3186 7.73045 16.1639 7.74092Z" fill="white"/>
<path d="M19.8097 21.0076C19.6015 20.5407 19.3711 19.8671 19.3711 19.8671C19.3711 19.8671 19.5767 20.9896 19.2394 21.6656C19.0204 22.1046 18.6034 22.6965 18.0112 22.8062C17.6237 22.8779 19.2394 22.8062 19.2394 22.8062L20.1387 22.2359C20.1387 22.2359 20.035 21.5126 19.8097 21.0076Z" fill="#7C14DA"/>
<path fill-rule="evenodd" clip-rule="evenodd" d="M7.70285 6.18425C7.40476 6.24308 7.17393 6.41106 7.1066 6.61816C7.01355 6.90445 7.14488 7.21542 7.49796 7.54472C7.96487 7.98022 8.62302 8.24396 9.24461 8.24468C10.0692 8.24562 10.4109 7.71693 9.97982 7.10703C9.84743 6.9197 9.57524 6.68622 9.30671 6.52963C8.80909 6.23944 8.1463 6.09672 7.70285 6.18425ZM11.7024 6.47962C11.3513 6.5457 11.172 6.90561 11.252 7.38403C11.3262 7.8283 11.5679 8.28203 11.9032 8.6068C12.1432 8.83929 12.3748 8.97073 12.6063 9.00586C12.7112 9.02177 12.734 9.02031 12.8365 8.99121C13.0508 8.93039 13.1909 8.76252 13.2393 8.50866C13.2691 8.35276 13.2689 8.28929 13.2381 8.09536C13.14 7.47827 12.6637 6.80016 12.1636 6.56561C12.006 6.49165 11.8214 6.45724 11.7024 6.47962ZM10.365 7.89271C10.0747 7.97521 10.0294 8.23292 10.2651 8.46151C10.3067 8.50185 10.3787 8.5518 10.4252 8.57252C10.5357 8.62171 10.9608 8.88814 11.2148 9.06732C11.816 9.49143 12.535 10.1109 13.1815 10.7616C16.4761 14.0779 19.415 19.2526 20.1417 23.0169C20.2634 23.6473 20.3123 24.3288 20.2808 24.9569C20.2738 25.0979 20.2763 25.1149 20.3148 25.185C20.4226 25.3813 20.6878 25.4372 20.7944 25.2862C20.8701 25.1789 20.8862 25.0685 20.8953 24.5931C20.9005 24.3237 20.8964 24.0585 20.8847 23.9084C20.6285 20.6201 18.2433 15.752 14.9911 11.8799C13.7407 10.391 12.4025 9.11972 11.1885 8.26738C10.9098 8.07169 10.6863 7.95119 10.5125 7.90296C10.4153 7.87599 10.4221 7.87646 10.365 7.89271ZM13.6026 8.38457C13.4015 8.47463 13.2974 8.72815 13.3179 9.07802C13.3462 9.56264 13.5895 10.1241 13.9493 10.5357C14.1115 10.7212 14.3236 10.8742 14.4916 10.9267C14.7132 10.996 14.9299 10.921 15.0289 10.7408C15.2892 10.2666 14.9793 9.24871 14.4009 8.67771C14.1117 8.39227 13.8226 8.28609 13.6026 8.38457ZM9.33113 8.87784C9.04213 8.90129 8.69065 8.97995 8.49752 9.06439C7.75963 9.38702 7.88678 9.98342 8.76353 10.3121C9.31032 10.5171 10.0735 10.5821 10.6419 10.4722C11.075 10.3884 11.4118 10.2057 11.5331 9.98873C11.5965 9.87542 11.5968 9.71686 11.5339 9.59727C11.4299 9.3993 11.2023 9.23056 10.8536 9.09282C10.44 8.92948 9.80311 8.83953 9.33113 8.87784ZM15.9257 10.6314C15.7866 10.6632 15.6464 10.7759 15.5695 10.9177C15.4864 11.0708 15.4554 11.2256 15.4544 11.4919C15.4533 11.7881 15.4817 11.9475 15.5914 12.2603C15.7252 12.6418 15.893 12.9119 16.1352 13.1354C16.4757 13.4497 16.8044 13.495 17.0367 13.2595C17.5004 12.7894 17.2438 11.4725 16.5716 10.8724C16.3458 10.6709 16.1206 10.5868 15.9257 10.6314ZM11.1564 10.7617C10.7008 10.8314 10.4302 10.9694 10.3215 11.1876C10.1799 11.472 10.3743 11.8027 10.8536 12.0925C11.367 12.4029 12.2403 12.6023 12.8548 12.5495C13.3596 12.5061 13.7019 12.3519 13.8285 12.111C14.0942 11.6055 13.1978 10.952 11.998 10.7766C11.7628 10.7422 11.3338 10.7346 11.1564 10.7617ZM13.1006 12.906C12.6921 12.986 12.4432 13.1884 12.3851 13.4878C12.3424 13.7079 12.4572 13.9935 12.6881 14.2412C13.0183 14.5956 13.5502 14.8723 14.1203 14.9863C14.3702 15.0362 14.8045 15.0366 14.995 14.987C15.2876 14.9108 15.5151 14.7496 15.5902 14.5652C15.7213 14.2431 15.5883 13.8963 15.199 13.5453C14.8742 13.2526 14.4305 13.0366 13.931 12.9282C13.7354 12.8857 13.2679 12.8732 13.1006 12.906ZM17.9244 13.3939C17.7703 13.4671 17.6558 13.6312 17.5823 13.8843C17.5417 14.0243 17.5393 14.0527 17.5388 14.3827C17.5384 14.6811 17.5437 14.7609 17.5753 14.9251C17.6941 15.5441 17.9522 16.0921 18.2567 16.3719C18.3778 16.4832 18.4528 16.5303 18.5669 16.567C18.6775 16.6026 18.7041 16.6032 18.8153 16.5723C18.9193 16.5434 19.051 16.4293 19.1136 16.3136C19.4432 15.7049 19.2225 14.397 18.6753 13.7157C18.4904 13.4855 18.312 13.3718 18.1167 13.3599C18.0249 13.3543 17.9978 13.3591 17.9244 13.3939ZM14.7167 15.3411C14.4675 15.3833 14.268 15.5129 14.1721 15.6948C14.0357 15.9538 14.1334 16.3389 14.4288 16.7068C14.5605 16.8707 14.8762 17.1546 15.0674 17.281C15.7316 17.7201 16.4944 17.9272 17.0003 17.8056C17.2274 17.7511 17.4122 17.6184 17.4914 17.4531C17.5527 17.3249 17.5623 17.1325 17.5152 16.9722C17.3542 16.424 16.6807 15.8149 15.9045 15.5156C15.452 15.3411 15.0582 15.2832 14.7167 15.3411Z" fill="#FFB857"/>
</svg>
