<svg width="26" height="26" viewBox="0 0 26 26" fill="none" xmlns="http://www.w3.org/2000/svg">
<path fill-rule="evenodd" clip-rule="evenodd" d="M8.10718 12.9409C8.10718 15.7149 10.3559 17.9637 13.1299 17.9637C15.9039 17.9637 18.1526 15.7149 18.1526 12.9409C18.1494 10.1683 15.9025 7.92147 13.1299 7.91821C10.3559 7.91821 8.10718 10.167 8.10718 12.9409ZM13.1299 16.1909C11.335 16.1909 9.8799 14.7359 9.8799 12.9409C9.8799 11.146 11.335 9.69094 13.1299 9.69094C14.9248 9.69094 16.3799 11.146 16.3799 12.9409C16.3799 14.7359 14.9248 16.1909 13.1299 16.1909Z" fill="#656565"/>
<path fill-rule="evenodd" clip-rule="evenodd" d="M24.6526 12.0546H22.8326C22.3978 7.37735 18.6935 3.67301 14.0162 3.23822V1.41822C14.0162 0.928699 13.6194 0.53186 13.1299 0.53186C12.6404 0.53186 12.2435 0.928699 12.2435 1.41822V3.23822C7.56628 3.67301 3.86194 7.37735 3.42716 12.0546H1.01625C0.526721 12.0546 0.129883 12.4514 0.129883 12.941C0.129883 13.4305 0.526721 13.8273 1.01625 13.8273H3.42716C3.85972 18.5089 7.56788 22.217 12.2494 22.6496C12.2494 22.6496 12.2494 22.6496 12.2494 22.6969V25.0605C12.2494 25.55 12.6463 25.9469 13.1358 25.9469C13.6253 25.9469 14.0222 25.55 14.0222 25.0605V22.6969C14.0222 22.6969 14.0222 22.6969 14.0222 22.6496C18.6991 22.2117 22.401 18.5048 22.8326 13.8273H24.6526C25.1421 13.8273 25.539 13.4305 25.539 12.941C25.539 12.4514 25.1421 12.0546 24.6526 12.0546ZM13.1299 20.9182C8.72416 20.9182 5.15261 17.3467 5.15261 12.941C5.15261 8.53522 8.72416 4.96368 13.1299 4.96368C17.5356 4.96368 21.1072 8.53522 21.1072 12.941C21.1072 17.3467 17.5356 20.9182 13.1299 20.9182Z" fill="#656565"/>
</svg>
