<svg width="18" height="18" viewBox="0 0 18 18" fill="none" xmlns="http://www.w3.org/2000/svg">
<path d="M0.490234 8.94922C0.490234 8.60417 0.613932 8.30794 0.861328 8.06055C1.10872 7.81315 1.40495 7.68945 1.75 7.68945H7.50195V1.94727C7.50195 1.60221 7.6224 1.30599 7.86328 1.05859C8.10417 0.811198 8.40039 0.6875 8.75195 0.6875C9.09701 0.6875 9.39323 0.811198 9.64062 1.05859C9.88802 1.30599 10.0117 1.60221 10.0117 1.94727V7.68945H15.7637C16.1022 7.68945 16.3952 7.81315 16.6426 8.06055C16.89 8.30794 17.0137 8.60417 17.0137 8.94922C17.0137 9.30078 16.89 9.60026 16.6426 9.84766C16.3952 10.0885 16.1022 10.209 15.7637 10.209H10.0117V15.9609C10.0117 16.2995 9.88802 16.5924 9.64062 16.8398C9.39323 17.0872 9.09701 17.2109 8.75195 17.2109C8.40039 17.2109 8.10417 17.0872 7.86328 16.8398C7.6224 16.5924 7.50195 16.2995 7.50195 15.9609V10.209H1.75C1.40495 10.209 1.10872 10.0885 0.861328 9.84766C0.613932 9.60026 0.490234 9.30078 0.490234 8.94922Z" fill="#656565"/>
</svg>
