<svg width="28" height="29" viewBox="0 0 28 29" fill="none" xmlns="http://www.w3.org/2000/svg">
<path opacity="0.26" d="M22.4466 7.01003H21.9799L18.0366 3.06669C17.7216 2.75169 17.2083 2.75169 16.8816 3.06669C16.5666 3.38169 16.5666 3.89503 16.8816 4.22169L19.6699 7.01003H8.32992L11.1183 4.22169C11.4333 3.90669 11.4333 3.39336 11.1183 3.06669C10.8033 2.75169 10.2899 2.75169 9.96325 3.06669L6.03159 7.01003H5.56492C4.51492 7.01003 2.33325 7.01003 2.33325 9.99669C2.33325 11.1284 2.56659 11.875 3.05659 12.365C3.33659 12.6567 3.67492 12.8084 4.03659 12.89C4.37492 12.9717 4.73659 12.9834 5.08659 12.9834H22.9133C23.2749 12.9834 23.6133 12.96 23.9399 12.89C24.9199 12.6567 25.6666 11.9567 25.6666 9.99669C25.6666 7.01003 23.4849 7.01003 22.4466 7.01003Z" fill="#0970FF"/>
<path d="M22.9247 12.9834H5.08638C4.74804 12.9834 4.37471 12.9718 4.03638 12.8784L5.50638 21.8501C5.83304 23.8568 6.70804 26.1668 10.593 26.1668H17.138C21.0697 26.1668 21.7697 24.1951 22.1897 21.9901L23.9514 12.8784C23.6247 12.9601 23.2747 12.9834 22.9247 12.9834ZM13.9997 22.0834C11.2697 22.0834 9.04138 19.8551 9.04138 17.1251C9.04138 16.6468 9.43804 16.2501 9.91638 16.2501C10.3947 16.2501 10.7914 16.6468 10.7914 17.1251C10.7914 18.8984 12.2264 20.3334 13.9997 20.3334C15.773 20.3334 17.208 18.8984 17.208 17.1251C17.208 16.6468 17.6047 16.2501 18.083 16.2501C18.5614 16.2501 18.958 16.6468 18.958 17.1251C18.958 19.8551 16.7297 22.0834 13.9997 22.0834Z" fill="#0970FF"/>
</svg>
