<svg width="14" height="15" viewBox="0 0 14 15" fill="none" xmlns="http://www.w3.org/2000/svg">
<path d="M2.35092 14.4648C1.58432 14.4648 1.00814 14.2744 0.622402 13.8936C0.241543 13.5176 0.0511131 12.9512 0.0511131 12.1943V3.25146C0.0511131 2.49463 0.241543 1.92822 0.622402 1.55225C1.00814 1.17139 1.58432 0.980957 2.35092 0.980957H11.2352C12.0018 0.980957 12.5755 1.17139 12.9564 1.55225C13.3421 1.92822 13.535 2.49463 13.535 3.25146V12.1943C13.535 12.9512 13.3421 13.5176 12.9564 13.8936C12.5755 14.2744 12.0018 14.4648 11.2352 14.4648H2.35092ZM2.36557 13.2856H11.2205C11.5819 13.2856 11.8602 13.1904 12.0555 13C12.2557 12.8047 12.3558 12.5166 12.3558 12.1357V3.31006C12.3558 2.9292 12.2557 2.64355 12.0555 2.45312C11.8602 2.25781 11.5819 2.16016 11.2205 2.16016H2.36557C1.99936 2.16016 1.71859 2.25781 1.52328 2.45312C1.32797 2.64355 1.23031 2.9292 1.23031 3.31006V12.1357C1.23031 12.5166 1.32797 12.8047 1.52328 13C1.71859 13.1904 1.99936 13.2856 2.36557 13.2856ZM3.93295 8.33447C3.72787 8.33447 3.55941 8.2832 3.42758 8.18066C3.29574 8.07324 3.22982 7.92188 3.22982 7.72656C3.22982 7.53125 3.2933 7.37988 3.42025 7.27246C3.54721 7.16016 3.71811 7.104 3.93295 7.104H9.67514C9.88998 7.104 10.0584 7.16016 10.1805 7.27246C10.3075 7.37988 10.3709 7.53125 10.3709 7.72656C10.3709 7.92188 10.305 8.07324 10.1732 8.18066C10.0462 8.2832 9.88021 8.33447 9.67514 8.33447H3.93295Z" fill="#8E66FE"/>
</svg>
