<svg width="20" height="19" viewBox="0 0 20 19" fill="none" xmlns="http://www.w3.org/2000/svg">
<path d="M10 18.7422C14.9658 18.7422 19.0791 14.6377 19.0791 9.66309C19.0791 4.69727 14.9658 0.583984 9.99121 0.583984C5.02539 0.583984 0.920898 4.69727 0.920898 9.66309C0.920898 14.6377 5.03418 18.7422 10 18.7422ZM4.92871 8.16016V7.84375C4.92871 6.89453 5.41211 6.41992 6.37012 6.41992H7.2666V5.94531C7.2666 5.22461 7.74121 4.78516 8.49707 4.78516H11.5205C12.2764 4.78516 12.751 5.22461 12.751 5.94531V6.41992H13.6475C14.6055 6.41992 15.0889 6.89453 15.0889 7.84375V8.16016C13.4365 8.8457 11.7754 9.10059 10.0088 9.10059C8.24219 9.10059 6.58105 8.8457 4.92871 8.16016ZM8.20703 6.41992H11.8105V5.98926C11.8105 5.77832 11.6699 5.65527 11.4502 5.65527H8.55859C8.33887 5.65527 8.20703 5.77832 8.20703 5.98926V6.41992ZM4.92871 12.2295V9.03027C6.29102 9.53125 7.5127 9.75977 8.76953 9.84766V10.1992C8.76953 10.5332 8.97168 10.7266 9.29688 10.7266H10.7207C11.0459 10.7266 11.2393 10.5332 11.2393 10.1992V9.84766C12.5049 9.75977 13.7266 9.53125 15.0889 9.03027V12.2295C15.0889 13.1875 14.6055 13.6621 13.6475 13.6621H6.37012C5.41211 13.6621 4.92871 13.1875 4.92871 12.2295Z" fill="#8E66FE"/>
</svg>
