<svg width="17" height="17" viewBox="0 0 17 17" fill="none" xmlns="http://www.w3.org/2000/svg">
<path fill-rule="evenodd" clip-rule="evenodd" d="M12.2778 5.66821C13.5112 5.66821 14.5614 4.87971 14.9506 3.77958H16.0556C16.306 3.77958 16.5463 3.68009 16.7234 3.503C16.9005 3.3259 17 3.08571 17 2.83526C17 2.58481 16.9005 2.34462 16.7234 2.16753C16.5463 1.99044 16.306 1.89095 16.0556 1.89095H14.9506C14.7554 1.33802 14.3936 0.859219 13.9149 0.520546C13.4362 0.181873 12.8642 0 12.2778 0C11.6914 0 11.1194 0.181873 10.6407 0.520546C10.162 0.859219 9.80012 1.33802 9.605 1.89095H0.944444C0.693962 1.89095 0.453739 1.99044 0.276621 2.16753C0.0995036 2.34462 0 2.58481 0 2.83526C0 3.08571 0.0995036 3.3259 0.276621 3.503C0.453739 3.68009 0.693962 3.77958 0.944444 3.77958H9.605C9.80039 4.33215 10.1624 4.81053 10.6411 5.14878C11.1198 5.48704 11.6916 5.66852 12.2778 5.66821ZM12.2778 3.77958C12.0273 3.77958 11.7871 3.68009 11.61 3.503C11.4328 3.3259 11.3333 3.08571 11.3333 2.83526C11.3333 2.58481 11.4328 2.34462 11.61 2.16753C11.7871 1.99044 12.0273 1.89095 12.2778 1.89095C12.5283 1.89095 12.7685 1.99044 12.9456 2.16753C13.1227 2.34462 13.2222 2.58481 13.2222 2.83526C13.2222 3.08571 13.1227 3.3259 12.9456 3.503C12.7685 3.68009 12.5283 3.77958 12.2778 3.77958ZM4.72222 11.3341C5.27849 11.3342 5.82247 11.1705 6.28635 10.8636C6.75022 10.5566 7.11346 10.1199 7.33078 9.60789L7.39406 9.44547H16.0556C16.2963 9.44521 16.5278 9.35304 16.7028 9.18782C16.8779 9.02259 16.9832 8.79677 16.9973 8.5565C17.0114 8.31623 16.9333 8.07963 16.7787 7.89507C16.6242 7.71049 16.4051 7.59188 16.1661 7.56345L16.0556 7.55684H7.395C7.2046 7.01831 6.85589 6.54988 6.39458 6.21296C5.93327 5.87605 5.38091 5.68637 4.80992 5.66881C4.23892 5.65125 3.67594 5.80662 3.1948 6.11456C2.71366 6.42249 2.33681 6.86861 2.11367 7.39442L2.04944 7.55684H0.944444C0.703725 7.55711 0.472192 7.64927 0.297152 7.8145C0.122113 7.97972 0.0167781 8.20554 0.00267078 8.44582C-0.0114365 8.68609 0.0667482 8.92268 0.22125 9.10725C0.375752 9.29182 0.594909 9.41044 0.833944 9.43886L0.944444 9.44547H2.04944C2.24483 9.99805 2.60682 10.4764 3.08552 10.8147C3.56421 11.1529 4.13605 11.3344 4.72222 11.3341ZM4.72222 9.44547C4.47174 9.44547 4.23152 9.34598 4.0544 9.16889C3.87728 8.9918 3.77778 8.75161 3.77778 8.50116C3.77778 8.25071 3.87728 8.01052 4.0544 7.83343C4.23152 7.65633 4.47174 7.55684 4.72222 7.55684C4.9727 7.55684 5.21293 7.65633 5.39005 7.83343C5.56716 8.01052 5.66667 8.25071 5.66667 8.50116C5.66667 8.75161 5.56716 8.9918 5.39005 9.16889C5.21293 9.34598 4.9727 9.44547 4.72222 9.44547ZM12.2778 17C13.5112 17 14.5614 16.2115 14.9506 15.1114H16.0556C16.306 15.1114 16.5463 15.0119 16.7234 14.8348C16.9005 14.6577 17 14.4175 17 14.1671C17 13.9166 16.9005 13.6764 16.7234 13.4993C16.5463 13.3222 16.306 13.2227 16.0556 13.2227H14.9506C14.7554 12.6698 14.3936 12.191 13.9149 11.8523C13.4362 11.5137 12.8642 11.3318 12.2778 11.3318C11.6914 11.3318 11.1194 11.5137 10.6407 11.8523C10.162 12.191 9.80012 12.6698 9.605 13.2227H0.944444C0.693962 13.2227 0.453739 13.3222 0.276621 13.4993C0.0995036 13.6764 0 13.9166 0 14.1671C0 14.4175 0.0995036 14.6577 0.276621 14.8348C0.453739 15.0119 0.693962 15.1114 0.944444 15.1114H9.605C9.80039 15.6639 10.1624 16.1423 10.6411 16.4806C11.1198 16.8188 11.6916 17.0003 12.2778 17ZM12.2778 15.1114C12.0273 15.1114 11.7871 15.0119 11.61 14.8348C11.4328 14.6577 11.3333 14.4175 11.3333 14.1671C11.3333 13.9166 11.4328 13.6764 11.61 13.4993C11.7871 13.3222 12.0273 13.2227 12.2778 13.2227C12.5283 13.2227 12.7685 13.3222 12.9456 13.4993C13.1227 13.6764 13.2222 13.9166 13.2222 14.1671C13.2222 14.4175 13.1227 14.6577 12.9456 14.8348C12.7685 15.0119 12.5283 15.1114 12.2778 15.1114Z" fill="url(#paint0_linear_25678_9528)"/>
<defs>
<linearGradient id="paint0_linear_25678_9528" x1="16.8883" y1="3.08504e-07" x2="-3.41419" y2="9.31615" gradientUnits="userSpaceOnUse">
<stop stop-color="#7A0FD9"/>
<stop offset="1" stop-color="#695CF8"/>
</linearGradient>
</defs>
</svg>

