<svg width="38" height="38" viewBox="0 0 38 38" fill="none" xmlns="http://www.w3.org/2000/svg">
<rect width="38" height="38" rx="8" fill="#AEAEAE"/>
<path d="M10.4902 19.8672V11.6152C10.4902 10.541 10.7669 9.7207 11.3203 9.1543C11.8802 8.58789 12.6973 8.30469 13.7715 8.30469H18.5273C18.9635 8.30469 19.3477 8.33724 19.6797 8.40234C20.0117 8.46094 20.3145 8.56836 20.5879 8.72461C20.8678 8.88086 21.151 9.10872 21.4375 9.4082L26.3789 14.418C26.6784 14.724 26.9062 15.0169 27.0625 15.2969C27.2253 15.5768 27.3359 15.8861 27.3945 16.2246C27.4531 16.5566 27.4824 16.9603 27.4824 17.4355V26.293C27.4824 27.3737 27.2025 28.194 26.6426 28.7539C26.0827 29.3138 25.2689 29.5938 24.2012 29.5938H17.1211C17.3229 29.2682 17.4922 28.9232 17.6289 28.5586C17.7656 28.194 17.86 27.8164 17.9121 27.4258H23.9766C24.4258 27.4258 24.7578 27.3118 24.9727 27.084C25.194 26.8626 25.3047 26.5371 25.3047 26.1074V17.8457H20.2754C19.5137 17.8457 18.9473 17.6602 18.5762 17.2891C18.2051 16.918 18.0195 16.3516 18.0195 15.5898V10.4824H13.9961C13.5469 10.4824 13.2116 10.5964 12.9902 10.8242C12.7689 11.0521 12.6582 11.3776 12.6582 11.8008V19.8672C12.4759 19.8346 12.2936 19.8086 12.1113 19.7891C11.9355 19.7695 11.7533 19.7598 11.5645 19.7598C11.3822 19.7598 11.1999 19.7695 11.0176 19.7891C10.8418 19.8086 10.666 19.8346 10.4902 19.8672ZM19.8652 15.4043C19.8652 15.6126 19.9108 15.7656 20.002 15.8633C20.0996 15.9544 20.2526 16 20.4609 16H25.0703L19.8652 10.7168V15.4043ZM11.584 31.3418C10.8874 31.3418 10.2331 31.2083 9.62109 30.9414C9.00911 30.6745 8.46875 30.3066 8 29.8379C7.53776 29.3757 7.17318 28.8385 6.90625 28.2266C6.63932 27.6146 6.50586 26.9603 6.50586 26.2637C6.50586 25.5605 6.63932 24.9062 6.90625 24.3008C7.17318 23.6888 7.53776 23.1484 8 22.6797C8.46875 22.2109 9.00911 21.8464 9.62109 21.5859C10.2331 21.319 10.8874 21.1855 11.584 21.1855C12.2806 21.1855 12.9349 21.319 13.5469 21.5859C14.1589 21.8464 14.6992 22.2109 15.168 22.6797C15.6367 23.1419 16.0013 23.679 16.2617 24.291C16.5221 24.903 16.6523 25.5605 16.6523 26.2637C16.6523 26.9538 16.5189 27.6048 16.252 28.2168C15.9915 28.8288 15.627 29.3691 15.1582 29.8379C14.6895 30.3066 14.1491 30.6745 13.5371 30.9414C12.9251 31.2083 12.2741 31.3418 11.584 31.3418ZM11.5938 23.0508C11.3854 23.0508 11.1901 23.1419 11.0078 23.3242L8.54688 25.6387C8.38411 25.7819 8.29948 25.9609 8.29297 26.1758C8.28646 26.3776 8.35482 26.5469 8.49805 26.6836C8.64779 26.8268 8.82357 26.8984 9.02539 26.8984C9.23372 26.9049 9.41276 26.8268 9.5625 26.6641L10.3828 25.7754L10.8418 25.3066L10.793 26.3906V28.6855C10.793 28.9004 10.8678 29.0827 11.0176 29.2324C11.1738 29.3822 11.3659 29.457 11.5938 29.457C11.8151 29.457 12.0007 29.3822 12.1504 29.2324C12.3066 29.0827 12.3848 28.9004 12.3848 28.6855V26.3906L12.3359 25.3066L12.7852 25.7754L13.6152 26.6641C13.6803 26.7357 13.7585 26.791 13.8496 26.8301C13.9408 26.8691 14.0384 26.8919 14.1426 26.8984C14.3509 26.9049 14.5234 26.8366 14.6602 26.6934C14.8034 26.5501 14.875 26.3776 14.875 26.1758C14.875 25.9609 14.7936 25.7819 14.6309 25.6387L12.1602 23.3242C11.9648 23.1419 11.776 23.0508 11.5938 23.0508Z" fill="white"/>
</svg>
