<svg width="215" height="30" viewBox="0 0 215 30" fill="none" xmlns="http://www.w3.org/2000/svg">
<path d="M39.7714 21V8.4H43.0114V18.48H47.5114V8.4H50.7514V18.48H52.1014V23.34H49.0414L48.8614 21H39.7714ZM57.0451 13.53C56.5651 13.53 56.3251 13.77 56.3251 14.25V15.24H59.3851V14.25C59.3851 13.77 59.1451 13.53 58.6651 13.53H57.0451ZM62.1751 20.82C59.8591 21.06 57.7591 21.18 55.8751 21.18C55.0591 21.18 54.4051 20.934 53.9131 20.442C53.4211 19.95 53.1751 19.296 53.1751 18.48V14.16C53.1751 13.26 53.4271 12.558 53.9311 12.054C54.4471 11.538 55.1551 11.28 56.0551 11.28H59.6551C60.5551 11.28 61.2571 11.538 61.7611 12.054C62.2771 12.558 62.5351 13.26 62.5351 14.16V17.49H56.3251V18.21C56.3251 18.39 56.3851 18.54 56.5051 18.66C56.6251 18.78 56.7751 18.84 56.9551 18.84C58.1431 18.84 59.8831 18.75 62.1751 18.57V20.82ZM70.538 14.97V11.46H73.688V21H70.538V17.4H67.298V21H64.148V11.46H67.298V14.97H70.538ZM79.2659 18.66C79.9019 18.66 80.6219 18.54 81.4259 18.3V17.22H78.8159C78.6359 17.22 78.4859 17.28 78.3659 17.4C78.2459 17.52 78.1859 17.67 78.1859 17.85V18.03C78.1859 18.21 78.2459 18.36 78.3659 18.48C78.4859 18.6 78.6359 18.66 78.8159 18.66H79.2659ZM75.9359 11.64C78.1319 11.4 80.1119 11.28 81.8759 11.28C82.6919 11.28 83.3459 11.526 83.8379 12.018C84.3299 12.51 84.5759 13.164 84.5759 13.98V21H81.7859L81.6059 20.1C81.0419 20.472 80.4599 20.748 79.8599 20.928C79.2719 21.096 78.7739 21.18 78.3659 21.18H77.7359C76.9199 21.18 76.2659 20.934 75.7739 20.442C75.2819 19.95 75.0359 19.296 75.0359 18.48V17.67C75.0359 16.854 75.2819 16.2 75.7739 15.708C76.2659 15.216 76.9199 14.97 77.7359 14.97H81.4259V14.25C81.4259 14.07 81.3659 13.92 81.2459 13.8C81.1259 13.68 80.9759 13.62 80.7959 13.62C80.0159 13.62 79.1519 13.656 78.2039 13.728C77.2679 13.8 76.5119 13.854 75.9359 13.89V11.64ZM91.0475 18.39C94.1075 18.57 96.2675 18.66 97.5275 18.66C97.8035 18.66 98.0195 18.582 98.1755 18.426C98.3435 18.258 98.4275 18.036 98.4275 17.76V17.04C98.4275 16.32 98.0675 15.96 97.3475 15.96H93.0275V13.44H96.9875C97.7075 13.44 98.0675 13.08 98.0675 12.36V12C98.0675 11.28 97.7075 10.92 96.9875 10.92H91.2275V8.4H97.8875C99.0635 8.4 99.9275 8.67 100.48 9.21C101.032 9.738 101.308 10.548 101.308 11.64C101.308 12.36 101.14 12.948 100.804 13.404C100.48 13.848 100.048 14.16 99.5075 14.34C100.48 14.604 101.14 15.252 101.488 16.284C101.608 16.656 101.668 17.088 101.668 17.58V17.76C101.668 18.936 101.392 19.8 100.84 20.352C100.288 20.904 99.4235 21.18 98.2475 21.18C96.2435 21.18 93.8435 21.06 91.0475 20.82V18.39ZM106.791 13.53C106.311 13.53 106.071 13.77 106.071 14.25V15.24H109.131V14.25C109.131 13.77 108.891 13.53 108.411 13.53H106.791ZM111.921 20.82C109.605 21.06 107.505 21.18 105.621 21.18C104.805 21.18 104.151 20.934 103.659 20.442C103.167 19.95 102.921 19.296 102.921 18.48V14.16C102.921 13.26 103.173 12.558 103.677 12.054C104.193 11.538 104.901 11.28 105.801 11.28H109.401C110.301 11.28 111.003 11.538 111.507 12.054C112.023 12.558 112.281 13.26 112.281 14.16V17.49H106.071V18.21C106.071 18.39 106.131 18.54 106.251 18.66C106.371 18.78 106.521 18.84 106.701 18.84C107.889 18.84 109.629 18.75 111.921 18.57V20.82ZM119.204 13.89C118.568 13.89 117.848 14.01 117.044 14.25V18.57H119.744C120.224 18.57 120.464 18.33 120.464 17.85V14.52C120.464 14.34 120.404 14.19 120.284 14.07C120.164 13.95 120.014 13.89 119.834 13.89H119.204ZM117.044 21V24.06H113.894V11.46H116.684L116.864 12.36C117.428 11.988 118.004 11.718 118.592 11.55C119.192 11.37 119.696 11.28 120.104 11.28H120.914C121.73 11.28 122.384 11.526 122.876 12.018C123.368 12.51 123.614 13.164 123.614 13.98V18.12C123.614 19.02 123.356 19.728 122.84 20.244C122.336 20.748 121.634 21 120.734 21H117.044ZM131.622 14.97V11.46H134.772V21H131.622V17.4H128.382V21H125.232V11.46H128.382V14.97H131.622ZM140.35 18.66C140.986 18.66 141.706 18.54 142.51 18.3V17.22H139.9C139.72 17.22 139.57 17.28 139.45 17.4C139.33 17.52 139.27 17.67 139.27 17.85V18.03C139.27 18.21 139.33 18.36 139.45 18.48C139.57 18.6 139.72 18.66 139.9 18.66H140.35ZM137.02 11.64C139.216 11.4 141.196 11.28 142.96 11.28C143.776 11.28 144.43 11.526 144.922 12.018C145.414 12.51 145.66 13.164 145.66 13.98V21H142.87L142.69 20.1C142.126 20.472 141.544 20.748 140.944 20.928C140.356 21.096 139.858 21.18 139.45 21.18H138.82C138.004 21.18 137.35 20.934 136.858 20.442C136.366 19.95 136.12 19.296 136.12 18.48V17.67C136.12 16.854 136.366 16.2 136.858 15.708C137.35 15.216 138.004 14.97 138.82 14.97H142.51V14.25C142.51 14.07 142.45 13.92 142.33 13.8C142.21 13.68 142.06 13.62 141.88 13.62C141.1 13.62 140.236 13.656 139.288 13.728C138.352 13.8 137.596 13.854 137.02 13.89V11.64Z" fill="url(#paint0_linear_19204_10393)"/>
<path fill-rule="evenodd" clip-rule="evenodd" d="M164.248 2.47045C163.624 2.51454 163.41 2.53934 163.373 2.57159C163.321 2.61676 163.279 3.20389 163.324 3.24911C163.34 3.26431 163.352 3.29877 163.352 3.32567C163.352 3.38068 163.606 3.63533 163.66 3.63533C163.68 3.63533 163.696 3.64638 163.696 3.65989C163.696 3.6734 163.71 3.68445 163.727 3.68445C163.773 3.68445 163.891 3.74222 163.892 3.76428C163.892 3.7744 163.914 3.7827 163.941 3.7827C163.968 3.7827 163.99 3.79105 163.99 3.80127C163.99 3.81148 164.026 3.83565 164.069 3.85501C164.113 3.87436 164.229 3.93783 164.328 3.99608C164.426 4.05434 164.518 4.10199 164.531 4.10199C164.544 4.10199 164.554 4.11304 164.554 4.12655C164.554 4.14006 164.566 4.15111 164.58 4.15111C164.594 4.15111 164.666 4.1898 164.74 4.23708C164.814 4.28436 164.884 4.32304 164.896 4.32304C164.909 4.32304 164.922 4.33132 164.927 4.34146C164.931 4.35161 165.029 4.4204 165.143 4.49438C165.462 4.70013 166.209 5.25187 166.272 5.32921C166.279 5.33739 166.369 5.41232 166.472 5.49573C166.838 5.79233 167.44 6.37681 167.82 6.80312C167.934 6.93111 168.038 7.04809 168.052 7.06307C168.128 7.14803 168.302 7.35847 168.332 7.40282C168.352 7.43129 168.375 7.4601 168.383 7.46686C168.436 7.50868 168.948 8.22127 169.124 8.49842C169.375 8.89258 169.487 9.08216 169.487 9.11078C169.487 9.12296 169.496 9.13659 169.506 9.14111C169.516 9.1456 169.595 9.28744 169.681 9.4563C169.768 9.62516 169.859 9.79957 169.884 9.84387C169.909 9.88821 169.929 9.94069 169.929 9.96054C169.929 9.98041 169.94 9.99664 169.954 9.99664C169.967 9.99664 169.978 10.0129 169.978 10.0328C169.978 10.0527 170.007 10.1328 170.042 10.2109C170.077 10.2889 170.116 10.3749 170.128 10.4019C170.19 10.5435 170.294 10.8405 170.469 11.3843C170.577 11.7181 170.689 12.2598 170.767 12.8212C170.817 13.1797 170.81 14.1188 170.755 14.452C170.701 14.7766 170.555 15.3832 170.505 15.4897C170.485 15.5323 170.469 15.5842 170.469 15.605C170.469 15.6258 170.458 15.6496 170.444 15.658C170.431 15.6663 170.42 15.6918 170.42 15.7147C170.42 15.7933 170.003 16.567 169.928 16.6281C169.92 16.6349 169.865 16.7067 169.805 16.7878C169.649 17.0018 169.213 17.4295 168.972 17.6062C168.857 17.6901 168.75 17.7697 168.734 17.783C168.717 17.7962 168.696 17.8071 168.686 17.8071C168.677 17.8071 168.652 17.8226 168.63 17.8416C168.576 17.8902 168.016 18.1755 167.975 18.1755C167.956 18.1755 167.941 18.1855 167.941 18.1979C167.941 18.2102 167.897 18.2277 167.843 18.2369C167.789 18.246 167.745 18.2635 167.745 18.2759C167.745 18.2882 167.722 18.2983 167.693 18.2983C167.665 18.2983 167.607 18.3143 167.564 18.3339C167.498 18.3647 167.069 18.4702 166.714 18.5432C166.396 18.6086 166.119 18.6294 165.561 18.6296C164.58 18.63 163.906 18.5181 162.714 18.1574C162.599 18.1227 162.494 18.0862 162.481 18.0763C162.467 18.0664 162.42 18.0505 162.375 18.0409C162.33 18.0313 162.264 18.008 162.228 17.9891C162.191 17.9702 162.148 17.9547 162.132 17.9546C162.115 17.9545 162.066 17.9341 162.021 17.9094C161.977 17.8846 161.908 17.8561 161.867 17.846C161.827 17.836 161.777 17.8136 161.757 17.7962C161.737 17.7788 161.69 17.7575 161.654 17.7489C161.618 17.7403 161.574 17.7188 161.556 17.701C161.538 17.6832 161.487 17.6561 161.443 17.6406C161.399 17.6252 161.346 17.5956 161.325 17.5748C161.304 17.5539 161.267 17.5369 161.243 17.5369C161.219 17.5369 161.18 17.5148 161.155 17.4878C161.131 17.4606 161.08 17.4386 161.041 17.4386C160.998 17.4386 160.96 17.4199 160.941 17.3895C160.924 17.3625 160.886 17.3404 160.855 17.3404C160.825 17.3404 160.8 17.3292 160.8 17.3154C160.8 17.3017 160.758 17.2713 160.708 17.2479C160.657 17.2245 160.607 17.1915 160.596 17.1746C160.585 17.1577 160.561 17.1439 160.543 17.1439C160.524 17.1439 160.476 17.1163 160.436 17.0825C160.396 17.0487 160.349 17.0211 160.332 17.0211C160.315 17.0211 160.283 17.0046 160.262 16.9844C160.168 16.8956 160.066 16.8246 160.032 16.8246C160.012 16.8246 159.982 16.808 159.965 16.7878C159.948 16.7675 159.907 16.7509 159.874 16.7509C159.841 16.7509 159.736 16.7274 159.641 16.6986C159.402 16.6259 159.247 16.6433 158.969 16.774C157.943 17.2549 156.044 19.0543 154.366 21.1351C153.355 22.3885 152.518 23.6788 152.244 24.4085C152.189 24.5532 152.188 24.5682 152.223 24.6521C152.39 25.0529 153.014 25.7099 153.606 26.1075C153.958 26.3448 154.537 26.5754 154.78 26.5754C155.048 26.5754 156.16 25.9616 157.126 25.2806C158.158 24.5529 159.204 23.6236 159.675 23.0154L159.741 22.9308L159.847 23.0282C159.905 23.0818 159.997 23.1586 160.051 23.1988C160.18 23.2955 160.252 23.3559 160.335 23.4377C160.372 23.4748 160.414 23.5052 160.427 23.5052C160.469 23.5052 160.562 23.5641 160.8 23.7411C162.256 24.8255 164.107 25.5755 165.734 25.7407C166.033 25.7711 166.652 25.763 167.34 25.7199C167.643 25.7009 167.857 25.6693 168.273 25.5821C168.788 25.4742 169.127 25.3864 169.18 25.3475C169.194 25.3376 169.237 25.3219 169.276 25.3125C169.315 25.3031 169.426 25.2588 169.521 25.214C169.724 25.1193 169.846 25.0746 170.101 25.0021C170.202 24.9732 170.318 24.9356 170.358 24.9184C170.399 24.9012 170.509 24.8562 170.604 24.8184C171.125 24.6097 171.908 24.1492 172.666 23.6046C173.175 23.2396 173.478 22.9533 173.864 22.4737C174.359 21.8594 174.703 21.3232 175.072 20.5947C175.755 19.2443 176.159 17.7716 176.285 16.1763C176.317 15.7629 176.317 14.6885 176.284 14.269C176.03 11.0355 174.639 8.02041 172.372 5.78919C170.477 3.92321 168.119 2.77557 165.656 2.51962C165.303 2.4829 164.478 2.45412 164.248 2.47045Z" fill="url(#paint1_linear_19204_10393)"/>
<path d="M169.425 23.1849C169.1 22.456 168.74 21.4041 168.74 21.4041C168.74 21.4041 169.062 23.1567 168.535 24.2123C168.193 24.8978 167.542 25.8219 166.617 25.9931C166.012 26.1052 168.535 25.9931 168.535 25.9931L169.939 25.1027C169.939 25.1027 169.777 23.9735 169.425 23.1849Z" fill="white"/>
<path fill-rule="evenodd" clip-rule="evenodd" d="M151.624 0.0399004C151.179 0.131763 150.835 0.394049 150.735 0.71741C150.596 1.16442 150.792 1.64996 151.318 2.16413C152.015 2.84411 152.997 3.25591 153.924 3.25703C155.154 3.2585 155.664 2.43302 155.021 1.48072C154.823 1.18822 154.417 0.823669 154.017 0.579176C153.274 0.126086 152.286 -0.0967655 151.624 0.0399004ZM157.591 0.501092C157.067 0.604262 156.799 1.16622 156.919 1.91322C157.029 2.60691 157.39 3.31535 157.89 3.82243C158.248 4.18544 158.594 4.39067 158.939 4.44552C159.095 4.47037 159.129 4.46809 159.282 4.42264C159.602 4.32769 159.811 4.06557 159.883 3.66921C159.928 3.42579 159.927 3.32668 159.881 3.02389C159.735 2.06036 159.025 1.00157 158.279 0.635358C158.043 0.519882 157.768 0.466147 157.591 0.501092ZM155.595 2.70746C155.162 2.83629 155.095 3.23866 155.446 3.59559C155.508 3.65857 155.616 3.73656 155.685 3.76891C155.85 3.84571 156.484 4.26172 156.863 4.54149C157.76 5.20368 158.833 6.17084 159.797 7.18696C164.712 12.365 169.096 20.4446 170.18 26.3221C170.362 27.3065 170.435 28.3705 170.388 29.3513C170.377 29.5714 170.381 29.5979 170.439 29.7074C170.599 30.0138 170.995 30.1012 171.154 29.8654C171.267 29.6979 171.291 29.5254 171.305 28.7831C171.312 28.3625 171.306 27.9484 171.289 27.7141C170.906 22.5798 167.348 14.9788 162.497 8.933C160.631 6.60832 158.635 4.6233 156.824 3.29247C156.408 2.98692 156.075 2.79878 155.815 2.72347C155.67 2.68136 155.681 2.68209 155.595 2.70746ZM160.425 3.47546C160.125 3.61607 159.97 4.01191 160.001 4.55819C160.043 5.31488 160.406 6.19146 160.943 6.83417C161.184 7.12379 161.501 7.36266 161.752 7.44471C162.082 7.55294 162.405 7.43585 162.553 7.15442C162.941 6.41395 162.479 4.8247 161.616 3.93316C161.185 3.48748 160.753 3.32169 160.425 3.47546ZM154.053 4.24564C153.622 4.28225 153.098 4.40506 152.81 4.53691C151.709 5.04067 151.898 5.97186 153.206 6.48503C154.022 6.80509 155.161 6.90667 156.009 6.73501C156.655 6.60419 157.157 6.31893 157.338 5.98015C157.433 5.80325 157.433 5.55566 157.339 5.36895C157.184 5.05984 156.845 4.79636 156.324 4.5813C155.707 4.32626 154.757 4.18582 154.053 4.24564ZM163.891 6.98357C163.683 7.03319 163.474 7.20917 163.359 7.43065C163.236 7.66965 163.189 7.91141 163.188 8.32723C163.186 8.7897 163.229 9.03857 163.392 9.52689C163.592 10.1227 163.842 10.5443 164.203 10.8934C164.711 11.3841 165.202 11.4547 165.548 11.087C166.24 10.3531 165.857 8.29689 164.854 7.3599C164.518 7.04524 164.182 6.91403 163.891 6.98357ZM156.776 7.18708C156.096 7.29586 155.693 7.51139 155.531 7.85212C155.319 8.29618 155.609 8.81248 156.324 9.26489C157.09 9.74957 158.393 10.0609 159.31 9.97846C160.063 9.91071 160.574 9.66999 160.762 9.29384C161.159 8.50457 159.821 7.48426 158.032 7.21026C157.681 7.15655 157.041 7.14472 156.776 7.18708ZM159.676 10.5351C159.067 10.66 158.696 10.976 158.609 11.4436C158.545 11.7873 158.717 12.2332 159.061 12.6199C159.554 13.1732 160.347 13.6052 161.198 13.7832C161.57 13.8613 162.218 13.8618 162.502 13.7844C162.939 13.6654 163.278 13.4137 163.39 13.1259C163.586 12.6228 163.388 12.0813 162.807 11.5333C162.322 11.0763 161.66 10.739 160.915 10.5698C160.623 10.5035 159.926 10.484 159.676 10.5351ZM166.873 11.297C166.643 11.4112 166.472 11.6675 166.362 12.0627C166.302 12.2812 166.298 12.3255 166.297 12.8408C166.297 13.3068 166.305 13.4314 166.352 13.6877C166.529 14.6542 166.914 15.5099 167.368 15.9467C167.549 16.1205 167.661 16.1941 167.831 16.2514C167.996 16.307 168.036 16.3078 168.202 16.2596C168.357 16.2146 168.553 16.0363 168.647 15.8558C169.138 14.9053 168.809 12.8631 167.993 11.7993C167.717 11.44 167.451 11.2625 167.159 11.2439C167.023 11.2351 166.982 11.2426 166.873 11.297ZM162.087 14.3373C161.716 14.4032 161.418 14.6055 161.275 14.8895C161.071 15.2939 161.217 15.8953 161.658 16.4696C161.854 16.7256 162.325 17.1689 162.61 17.3662C163.601 18.0519 164.739 18.3751 165.494 18.1853C165.833 18.1002 166.109 17.893 166.227 17.6349C166.318 17.4348 166.332 17.1344 166.262 16.884C166.022 16.028 165.017 15.077 163.859 14.6097C163.184 14.3373 162.597 14.2469 162.087 14.3373Z" fill="url(#paint2_linear_19204_10393)"/>
<defs>
<linearGradient id="paint0_linear_19204_10393" x1="145.982" y1="23" x2="131.243" y2="-22.6518" gradientUnits="userSpaceOnUse">
<stop stop-color="#7A0FD9"/>
<stop offset="1" stop-color="#695CF8"/>
</linearGradient>
<linearGradient id="paint1_linear_19204_10393" x1="176.15" y1="26.5754" x2="147.357" y2="13.3631" gradientUnits="userSpaceOnUse">
<stop stop-color="#7A0FD9"/>
<stop offset="1" stop-color="#695CF8"/>
</linearGradient>
<linearGradient id="paint2_linear_19204_10393" x1="171.172" y1="30" x2="144.062" y2="21.4511" gradientUnits="userSpaceOnUse">
<stop stop-color="#7A0FD9"/>
<stop offset="1" stop-color="#695CF8"/>
</linearGradient>
</defs>
</svg>
