<svg width="16" height="20" viewBox="0 0 16 20" fill="none" xmlns="http://www.w3.org/2000/svg">
<path d="M1 18.1383V18.138V3C1 2.46957 1.21071 1.96086 1.58579 1.58579C1.96086 1.21071 2.46957 1 3 1H13C13.5304 1 14.0391 1.21071 14.4142 1.58579C14.7893 1.96086 15 2.46957 15 3V18.138V18.1383C15 18.2259 14.9771 18.312 14.9334 18.3879C14.8897 18.4638 14.8268 18.5269 14.7511 18.5709C14.6753 18.6149 14.5894 18.6382 14.5018 18.6385C14.4143 18.6388 14.3282 18.6162 14.2522 18.5728C14.2521 18.5727 14.2521 18.5727 14.252 18.5727L8.99218 15.5668L8.992 15.5667C8.68987 15.3941 8.34795 15.3033 8 15.3033C7.65205 15.3033 7.31013 15.3941 7.008 15.5667L7.00783 15.5668L1.748 18.5727C1.74794 18.5727 1.74788 18.5727 1.74783 18.5728C1.67181 18.6162 1.58575 18.6388 1.49822 18.6385C1.41064 18.6382 1.32467 18.6149 1.24893 18.5709C1.17318 18.5269 1.11032 18.4638 1.06663 18.3879C1.02295 18.312 0.99997 18.2259 1 18.1383Z" stroke="url(#paint0_linear_18846_10987)" stroke-width="2"/>
<defs>
<linearGradient id="paint0_linear_18846_10987" x1="15.8949" y1="19.6385" x2="-4.40023" y2="12.0512" gradientUnits="userSpaceOnUse">
<stop stop-color="#7A0FD9"/>
<stop offset="1" stop-color="#695CF8"/>
</linearGradient>
</defs>
</svg>
