<svg width="20" height="17" viewBox="0 0 20 17" fill="none" xmlns="http://www.w3.org/2000/svg">
<path d="M2.74359 2.48567L2.74367 2.4856C3.49378 1.73571 4.51101 1.31445 5.57167 1.31445C6.63232 1.31445 7.64956 1.73571 8.39966 2.4856L8.40085 2.48678C8.59325 2.67848 8.83659 2.91278 9.12888 3.18819L9.81546 3.83513L10.5013 3.1874C10.7926 2.91229 11.0351 2.6784 11.2271 2.48715C11.9741 1.74369 12.9843 1.32506 14.0382 1.32224C15.0921 1.31942 16.1045 1.73263 16.8554 2.47208C17.6064 3.21153 18.0351 4.21746 18.0486 5.27127C18.0619 6.32229 17.6611 7.33622 16.9329 8.09391L9.81367 15.2132L2.69351 8.09402C1.96555 7.3405 1.56222 6.33134 1.57044 5.28345C1.57866 4.23365 2.00033 3.22856 2.74359 2.48567Z" stroke="url(#paint0_linear_18846_10567)" stroke-width="2"/>
<defs>
<linearGradient id="paint0_linear_18846_10567" x1="18.9275" y1="16.2132" x2="-1.8715" y2="5.12053" gradientUnits="userSpaceOnUse">
<stop stop-color="#7A0FD9"/>
<stop offset="1" stop-color="#695CF8"/>
</linearGradient>
</defs>
</svg>
