<svg width="25" height="24" viewBox="0 0 25 24" fill="none" xmlns="http://www.w3.org/2000/svg">
<path d="M4.5 21C3.95 21 3.47933 20.8043 3.088 20.413C2.69667 20.0217 2.50067 19.5507 2.5 19V5C2.5 4.45 2.696 3.97933 3.088 3.588C3.48 3.19667 3.95067 3.00067 4.5 3H20.5C21.05 3 21.521 3.196 21.913 3.588C22.305 3.98 22.5007 4.45067 22.5 5V19C22.5 19.55 22.3043 20.021 21.913 20.413C21.5217 20.805 21.0507 21.0007 20.5 21H4.5ZM7.5 17H17.5C17.7833 17 18.021 16.904 18.213 16.712C18.405 16.52 18.5007 16.2827 18.5 16C18.4993 15.7173 18.4033 15.48 18.212 15.288C18.0207 15.096 17.7833 15 17.5 15H7.5C7.21667 15 6.97933 15.096 6.788 15.288C6.59667 15.48 6.50067 15.7173 6.5 16C6.49933 16.2827 6.59533 16.5203 6.788 16.713C6.98067 16.9057 7.218 17.0013 7.5 17ZM7.5 13H9.5C9.78333 13 10.021 12.904 10.213 12.712C10.405 12.52 10.5007 12.2827 10.5 12V8C10.5 7.71667 10.404 7.47933 10.212 7.288C10.02 7.09667 9.78267 7.00067 9.5 7H7.5C7.21667 7 6.97933 7.096 6.788 7.288C6.59667 7.48 6.50067 7.71733 6.5 8V12C6.5 12.2833 6.596 12.521 6.788 12.713C6.98 12.905 7.21733 13.0007 7.5 13ZM13.5 13H17.5C17.7833 13 18.021 12.904 18.213 12.712C18.405 12.52 18.5007 12.2827 18.5 12C18.4993 11.7173 18.4033 11.48 18.212 11.288C18.0207 11.096 17.7833 11 17.5 11H13.5C13.2167 11 12.9793 11.096 12.788 11.288C12.5967 11.48 12.5007 11.7173 12.5 12C12.4993 12.2827 12.5953 12.5203 12.788 12.713C12.9807 12.9057 13.218 13.0013 13.5 13ZM13.5 9H17.5C17.7833 9 18.021 8.904 18.213 8.712C18.405 8.52 18.5007 8.28267 18.5 8C18.4993 7.71733 18.4033 7.48 18.212 7.288C18.0207 7.096 17.7833 7 17.5 7H13.5C13.2167 7 12.9793 7.096 12.788 7.288C12.5967 7.48 12.5007 7.71733 12.5 8C12.4993 8.28267 12.5953 8.52033 12.788 8.713C12.9807 8.90567 13.218 9.00133 13.5 9Z" fill="url(#paint0_linear_25091_17707)"/>
<defs>
<linearGradient id="paint0_linear_25091_17707" x1="22.3686" y1="21" x2="-0.580379" y2="9.29941" gradientUnits="userSpaceOnUse">
<stop stop-color="#7A0FD9"/>
<stop offset="1" stop-color="#695CF8"/>
</linearGradient>
</defs>
</svg>
