<svg width="17" height="20" viewBox="0 0 17 20" fill="none" xmlns="http://www.w3.org/2000/svg">
<path fill-rule="evenodd" clip-rule="evenodd" d="M3.5 0C2.70435 0 1.94129 0.316071 1.37868 0.87868C0.816071 1.44129 0.5 2.20435 0.5 3V18.138C0.49991 18.4008 0.568845 18.6589 0.699905 18.8867C0.830964 19.1144 1.01955 19.3037 1.24678 19.4357C1.47402 19.5676 1.73192 19.6376 1.99468 19.6385C2.25744 19.6394 2.51584 19.5713 2.744 19.441L8.004 16.435C8.15506 16.3487 8.32603 16.3033 8.5 16.3033C8.67397 16.3033 8.84494 16.3487 8.996 16.435L14.256 19.441C14.4842 19.5713 14.7426 19.6394 15.0053 19.6385C15.2681 19.6376 15.526 19.5676 15.7532 19.4357C15.9804 19.3037 16.169 19.1144 16.3001 18.8867C16.4312 18.6589 16.5001 18.4008 16.5 18.138V3C16.5 2.20435 16.1839 1.44129 15.6213 0.87868C15.0587 0.316071 14.2956 0 13.5 0H3.5Z" fill="url(#paint0_linear_18846_11497)"/>
<defs>
<linearGradient id="paint0_linear_18846_11497" x1="16.3949" y1="19.6385" x2="-3.90023" y2="12.0512" gradientUnits="userSpaceOnUse">
<stop stop-color="#7A0FD9"/>
<stop offset="1" stop-color="#695CF8"/>
</linearGradient>
</defs>
</svg>
