<svg width="20" height="17" viewBox="0 0 20 17" fill="none" xmlns="http://www.w3.org/2000/svg">
<path fill-rule="evenodd" clip-rule="evenodd" d="M2.03667 1.77839C2.9743 0.84103 4.24584 0.314453 5.57167 0.314453C6.89749 0.314453 8.16903 0.84103 9.10667 1.77839C9.29 1.96105 9.526 2.18839 9.81467 2.46039C10.1027 2.18839 10.3383 1.96105 10.5217 1.77839C11.4554 0.849057 12.7181 0.325769 14.0355 0.322241C15.3528 0.318713 16.6184 0.83523 17.5571 1.75954C18.4957 2.68386 19.0317 3.94127 19.0485 5.25854C19.0652 6.5758 18.5615 7.84646 17.6467 8.79438L10.5207 15.9204C10.3331 16.1079 10.0788 16.2132 9.81367 16.2132C9.5485 16.2132 9.29419 16.1079 9.10667 15.9204L1.98067 8.79539C1.06671 7.85279 0.560176 6.58852 0.570466 5.27562C0.580757 3.96272 1.10804 2.70654 2.03667 1.77839Z" fill="url(#paint0_linear_18846_10532)"/>
<defs>
<linearGradient id="paint0_linear_18846_10532" x1="18.9275" y1="16.2132" x2="-1.8715" y2="5.12053" gradientUnits="userSpaceOnUse">
<stop stop-color="#7A0FD9"/>
<stop offset="1" stop-color="#695CF8"/>
</linearGradient>
</defs>
</svg>
