<svg width="32" height="32" viewBox="0 0 32 32" fill="none" xmlns="http://www.w3.org/2000/svg">
<path d="M25.3333 26.6668H6.66667C5.95942 26.6668 5.28115 26.3859 4.78105 25.8858C4.28095 25.3857 4 24.7074 4 24.0002V8.00016C4 7.29292 4.28095 6.61464 4.78105 6.11454C5.28115 5.61445 5.95942 5.3335 6.66667 5.3335H20C20.7072 5.3335 21.3855 5.61445 21.8856 6.11454C22.3857 6.61464 22.6667 7.29292 22.6667 8.00016V9.3335M25.3333 26.6668C24.6261 26.6668 23.9478 26.3859 23.4477 25.8858C22.9476 25.3857 22.6667 24.7074 22.6667 24.0002V9.3335M25.3333 26.6668C26.0406 26.6668 26.7189 26.3859 27.219 25.8858C27.719 25.3857 28 24.7074 28 24.0002V12.0002C28 11.2929 27.719 10.6146 27.219 10.1145C26.7189 9.61445 26.0406 9.3335 25.3333 9.3335H22.6667M17.3333 5.3335H12M9.33333 21.3335H17.3333M9.33333 10.6668H17.3333V16.0002H9.33333V10.6668Z" stroke="white" stroke-width="2.66667" stroke-linecap="round" stroke-linejoin="round"/>
</svg>
