<svg width="23" height="20" viewBox="0 0 23 20" fill="none" xmlns="http://www.w3.org/2000/svg">
<path d="M8.97354 14.0002L18.1545 17.2842C18.3088 17.3397 18.4735 17.3599 18.6366 17.3435C18.7996 17.3272 18.957 17.2745 19.0971 17.1895C19.2373 17.1045 19.3566 16.9892 19.4465 16.8521C19.5364 16.7151 19.5945 16.5596 19.6165 16.3972L21.4895 2.23923C21.6035 1.37723 20.7105 0.734232 19.9225 1.10923L2.12354 9.60523C1.24354 10.0252 1.30954 11.2952 2.22954 11.6222L4.66954 12.4902L5.99954 12.9572M12.4995 15.2602L10.5095 18.5862C9.85954 19.3942 8.55054 18.9372 8.55054 17.9032V15.2402C8.55057 14.7377 8.73979 14.2536 9.08054 13.8842L12.9515 9.68423" stroke="url(#paint0_linear_18846_10547)" stroke-width="2" stroke-linecap="round" stroke-linejoin="round"/>
<defs>
<linearGradient id="paint0_linear_18846_10547" x1="21.368" y1="18.9993" x2="-1.58018" y2="7.29894" gradientUnits="userSpaceOnUse">
<stop stop-color="#7A0FD9"/>
<stop offset="1" stop-color="#695CF8"/>
</linearGradient>
</defs>
</svg>
