<svg width="28" height="29" viewBox="0 0 28 29" fill="none" xmlns="http://www.w3.org/2000/svg">
<path opacity="0.26" d="M18.8878 2.83337H9.12281C4.87615 2.83337 2.34448 5.36504 2.34448 9.6117V19.3767C2.34448 23.6234 4.87615 26.155 9.12281 26.155H18.8878C23.1345 26.155 25.6661 23.6234 25.6661 19.3767V9.6117C25.6661 5.36504 23.1345 2.83337 18.8878 2.83337Z" fill="#0970FF"/>
<path d="M13.4166 9.93829V20.625C13.4166 21.045 12.9966 21.325 12.6116 21.1616C11.2 20.5549 9.35663 19.995 8.07329 19.8316L7.85162 19.8083C7.13996 19.7149 6.55664 19.05 6.55664 18.3266V9.34328C6.55664 8.45661 7.27998 7.79162 8.16665 7.86162C9.62498 7.97829 11.7833 8.67831 13.1367 9.44831C13.3117 9.52998 13.4166 9.72829 13.4166 9.93829Z" fill="#0970FF"/>
<path d="M21.4433 9.48346V18.3151C21.4433 19.0384 20.8599 19.7035 20.1483 19.7968L19.9032 19.8201C18.6316 19.9951 16.7999 20.5434 15.3883 21.1384C15.0033 21.3018 14.5833 21.0218 14.5833 20.6018V9.92676C14.5833 9.71676 14.6883 9.51846 14.8749 9.41346C16.2283 8.65513 18.3399 7.97843 19.7749 7.8501H19.8216C20.7199 7.86176 21.4433 8.58513 21.4433 9.48346Z" fill="#0970FF"/>
</svg>
