<svg width="13" height="22" viewBox="0 0 13 22" fill="none" xmlns="http://www.w3.org/2000/svg">
<path d="M12.7109 11.0391C12.7109 10.5586 12.5352 10.1602 12.1602 9.78516L3.13672 0.960938C2.83203 0.65625 2.46875 0.515625 2.03516 0.515625C1.15625 0.515625 0.441406 1.20703 0.441406 2.08594C0.441406 2.51953 0.628906 2.91797 0.945312 3.23438L8.96094 11.0273L0.945312 18.8438C0.628906 19.1602 0.441406 19.5469 0.441406 19.9922C0.441406 20.8711 1.15625 21.5742 2.03516 21.5742C2.46875 21.5742 2.83203 21.4219 3.13672 21.1172L12.1602 12.293C12.5469 11.918 12.7109 11.5195 12.7109 11.0391Z" fill="#8E66FE"/>
</svg>
