<svg width="143" height="186" viewBox="0 0 143 186" fill="none" xmlns="http://www.w3.org/2000/svg">
<circle cx="71.5" cy="72.4375" r="71.5" fill="#F1F1F1"/>
<rect x="43.4505" y="70.9802" width="70" height="98" rx="7" transform="rotate(2.5 43.4505 70.9802)" fill="#EEEEEE" stroke="#999999" stroke-width="2"/>
<rect x="1.83604" y="65.1196" width="74" height="102" rx="9" transform="rotate(-7.5 1.83604 65.1196)" fill="#FAFAFA" stroke="#999999" stroke-width="2"/>
<path d="M4.00222 73.912C3.42552 69.5315 6.50909 65.513 10.8896 64.9363L66.4105 57.6268C70.791 57.0501 74.8095 60.1337 75.3862 64.5141L77.3441 79.3858L5.96011 88.7837L4.00222 73.912Z" fill="#EEEEEE"/>
<rect x="89.8662" y="59.582" width="3" height="10" rx="1.5" transform="rotate(82.5 89.8662 59.582)" fill="#999999"/>
<rect x="62.4697" y="43.0156" width="3" height="10" rx="1.5" transform="rotate(-7.5 62.4697 43.0156)" fill="#999999"/>
<rect x="80.0469" y="45.7461" width="3" height="10" rx="1.5" transform="rotate(37.5 80.0469 45.7461)" fill="#999999"/>
<rect x="13.4219" y="91.8359" width="58" height="4" rx="2" transform="rotate(-7.5 13.4219 91.8359)" fill="#DCDCDC"/>
<rect x="16.0332" y="111.664" width="58" height="4" rx="2" transform="rotate(-7.5 16.0332 111.664)" fill="#DCDCDC"/>
<rect x="18.6436" y="131.496" width="58" height="4" rx="2" transform="rotate(-7.5 18.6436 131.496)" fill="#DCDCDC"/>
<rect x="14.4668" y="99.7695" width="21" height="4" rx="2" transform="rotate(-7.5 14.4668 99.7695)" fill="#EEEEEE"/>
<rect x="17.0771" y="119.598" width="21" height="4" rx="2" transform="rotate(-7.5 17.0771 119.598)" fill="#EEEEEE"/>
<rect x="19.6875" y="139.426" width="21" height="4" rx="2" transform="rotate(-7.5 19.6875 139.426)" fill="#EEEEEE"/>
</svg>
