<svg width="143" height="185" viewBox="0 0 143 185" fill="none" xmlns="http://www.w3.org/2000/svg">
<circle cx="71.5" cy="72.4375" r="71.5" fill="#F1F1F1"/>
<path d="M34.8493 157.605H32.8447V184.999H34.8493V157.605Z" fill="#D3D3D3"/>
<path d="M36.8537 157.605H34.8491V184.999H36.8537V157.605Z" fill="#D3D3D3"/>
<path d="M34.8492 158.198C34.8492 158.198 34.8541 140.894 16.2788 133.93C16.2788 133.93 15.4351 158.198 34.8492 158.198Z" fill="#D3D3D3"/>
<path d="M34.8492 135.198C34.8492 135.198 34.8541 117.894 16.2788 110.93C16.2788 110.93 15.4351 135.198 34.8492 135.198Z" fill="#D3D3D3"/>
<path d="M34.8492 112.198C34.8492 112.198 34.8541 94.8937 16.2788 87.9297C16.2788 87.9297 15.4351 112.198 34.8492 112.198Z" fill="#D3D3D3"/>
<path d="M34.8493 96.7917V63.6602C34.8493 63.6602 17.9673 81.3867 34.8493 96.7917Z" fill="#D3D3D3"/>
<path d="M34.8491 158.198C34.8491 158.198 34.8434 140.894 53.4187 133.93C53.4187 133.93 54.2632 158.198 34.8491 158.198Z" fill="#D3D3D3"/>
<path d="M34.8491 135.198C34.8491 135.198 34.8434 117.894 53.4187 110.93C53.4187 110.93 54.2632 135.198 34.8491 135.198Z" fill="#D3D3D3"/>
<path d="M34.8491 112.198C34.8491 112.198 34.8434 94.8937 53.4187 87.9297C53.4187 87.9297 54.2632 112.198 34.8491 112.198Z" fill="#D3D3D3"/>
<path d="M34.8491 96.7917V63.6602C34.8491 63.6602 51.7303 81.3867 34.8491 96.7917Z" fill="#D3D3D3"/>
<path d="M71.9997 144.945H69.9951V172.338H71.9997V144.945Z" fill="#D3D3D3"/>
<path d="M74.0051 144.945H72.0005V172.338H74.0051V144.945Z" fill="#D3D3D3"/>
<path d="M72.0006 145.537C72.0006 145.537 72.0055 128.234 53.4302 121.27C53.4302 121.27 52.5856 145.537 72.0006 145.537Z" fill="#D3D3D3"/>
<path d="M72.0006 122.537C72.0006 122.537 72.0055 105.234 53.4302 98.2695C53.4302 98.2695 52.5856 122.537 72.0006 122.537Z" fill="#D3D3D3"/>
<path d="M72.0006 99.5343C72.0006 99.5343 72.0055 82.2296 53.4302 75.2656C53.4302 75.2656 52.5856 99.5343 72.0006 99.5343Z" fill="#D3D3D3"/>
<path d="M72.0005 84.1307V51C72.0005 51 55.1177 68.7258 72.0005 84.1307Z" fill="#D3D3D3"/>
<path d="M72.0005 145.537C72.0005 145.537 71.9948 128.234 90.5708 121.27C90.5708 121.27 91.4146 145.537 72.0005 145.537Z" fill="#D3D3D3"/>
<path d="M72.0005 122.537C72.0005 122.537 71.9948 105.234 90.5708 98.2695C90.5708 98.2695 91.4146 122.537 72.0005 122.537Z" fill="#D3D3D3"/>
<path d="M72.0005 99.5343C72.0005 99.5343 71.9948 82.2296 90.5708 75.2656C90.5708 75.2656 91.4146 99.5343 72.0005 99.5343Z" fill="#D3D3D3"/>
<path d="M72.0005 84.1307V51C72.0005 51 88.8817 68.7258 72.0005 84.1307Z" fill="#D3D3D3"/>
<path d="M109.151 157.605H107.146V184.999H109.151V157.605Z" fill="#D3D3D3"/>
<path d="M111.155 157.605H109.151V184.999H111.155V157.605Z" fill="#D3D3D3"/>
<path d="M109.151 158.198C109.151 158.198 109.157 140.894 90.5806 133.93C90.5806 133.93 89.7368 158.198 109.151 158.198Z" fill="#D3D3D3"/>
<path d="M109.151 135.198C109.151 135.198 109.157 117.894 90.5806 110.93C90.5806 110.93 89.7368 135.198 109.151 135.198Z" fill="#D3D3D3"/>
<path d="M109.151 112.198C109.151 112.198 109.157 94.8937 90.5806 87.9297C90.5806 87.9297 89.7368 112.198 109.151 112.198Z" fill="#D3D3D3"/>
<path d="M109.151 96.7917V63.6602C109.151 63.6602 92.2691 81.3867 109.151 96.7917Z" fill="#D3D3D3"/>
<path d="M109.151 158.198C109.151 158.198 109.145 140.894 127.721 133.93C127.721 133.93 128.565 158.198 109.151 158.198Z" fill="#D3D3D3"/>
<path d="M109.151 135.198C109.151 135.198 109.145 117.894 127.721 110.93C127.721 110.93 128.565 135.198 109.151 135.198Z" fill="#D3D3D3"/>
<path d="M109.151 112.198C109.151 112.198 109.145 94.8937 127.721 87.9297C127.721 87.9297 128.565 112.198 109.151 112.198Z" fill="#D3D3D3"/>
<path d="M109.151 96.7917V63.6602C109.151 63.6602 126.033 81.3867 109.151 96.7917Z" fill="#D3D3D3"/>
</svg>
