<svg width="14" height="13" viewBox="0 0 14 13" fill="none" xmlns="http://www.w3.org/2000/svg">
<path d="M1.25049 12.4614C0.825684 12.0439 0.840332 11.3042 1.23584 10.9087L5.42529 6.71924L1.23584 2.54443C0.840332 2.1416 0.825684 1.40918 1.25049 0.984375C1.67529 0.552246 2.41504 0.566895 2.81055 0.969727L6.99268 5.15186L11.1748 0.969727C11.585 0.55957 12.3027 0.55957 12.7275 0.984375C13.1597 1.40918 13.1597 2.12695 12.7422 2.54443L8.56738 6.71924L12.7422 10.9014C13.1597 11.3188 13.1523 12.0293 12.7275 12.4614C12.3101 12.8862 11.585 12.8862 11.1748 12.4761L6.99268 8.29395L2.81055 12.4761C2.41504 12.8789 1.68262 12.8862 1.25049 12.4614Z" fill="#DB072D"/>
</svg>
