<svg width="14" height="14" viewBox="0 0 14 14" fill="none" xmlns="http://www.w3.org/2000/svg">
<path d="M5.52783 13.4502C4.98584 13.4502 4.56104 13.2671 4.20215 12.8496L0.430176 8.40381C0.10791 8.0376 -0.00195312 7.72266 -0.00195312 7.3418C-0.00195312 6.49951 0.62793 5.87695 1.49219 5.87695C1.98291 5.87695 2.3418 6.04541 2.64941 6.41162L5.49854 9.81738L11.1748 0.911133C11.5337 0.354492 11.9072 0.14209 12.4858 0.14209C13.3428 0.14209 13.9946 0.764648 13.9946 1.59229C13.9946 1.8999 13.8994 2.22949 13.6724 2.56641L6.90479 12.7617C6.58984 13.2305 6.12842 13.4502 5.52783 13.4502Z" fill="#92AD26"/>
</svg>
