<svg width="25" height="24" viewBox="0 0 25 24" fill="none" xmlns="http://www.w3.org/2000/svg">
<path d="M12.5 13C11.1739 13 9.90215 12.4732 8.96447 11.5355C8.02678 10.5979 7.5 9.32608 7.5 8H9.5C9.5 8.79565 9.81607 9.55871 10.3787 10.1213C10.9413 10.6839 11.7044 11 12.5 11C13.2956 11 14.0587 10.6839 14.6213 10.1213C15.1839 9.55871 15.5 8.79565 15.5 8H17.5C17.5 9.32608 16.9732 10.5979 16.0355 11.5355C15.0979 12.4732 13.8261 13 12.5 13ZM12.5 3C13.2956 3 14.0587 3.31607 14.6213 3.87868C15.1839 4.44129 15.5 5.20435 15.5 6H9.5C9.5 5.20435 9.81607 4.44129 10.3787 3.87868C10.9413 3.31607 11.7044 3 12.5 3ZM19.5 6H17.5C17.5 5.34339 17.3707 4.69321 17.1194 4.08658C16.8681 3.47995 16.4998 2.92876 16.0355 2.46447C15.5712 2.00017 15.02 1.63188 14.4134 1.3806C13.8068 1.12933 13.1566 1 12.5 1C11.1739 1 9.90215 1.52678 8.96447 2.46447C8.02678 3.40215 7.5 4.67392 7.5 6H5.5C4.39 6 3.5 6.89 3.5 8V20C3.5 20.5304 3.71071 21.0391 4.08579 21.4142C4.46086 21.7893 4.96957 22 5.5 22H19.5C20.0304 22 20.5391 21.7893 20.9142 21.4142C21.2893 21.0391 21.5 20.5304 21.5 20V8C21.5 7.46957 21.2893 6.96086 20.9142 6.58579C20.5391 6.21071 20.0304 6 19.5 6Z" fill="#A19F9F"/>
</svg>
