<svg width="18" height="17" viewBox="0 0 18 17" fill="none" xmlns="http://www.w3.org/2000/svg">
<path d="M5.49406 9.45508H9.19719C9.41073 9.45508 9.59042 9.38216 9.73625 9.23633C9.88208 9.09049 9.955 8.91081 9.955 8.69727V3.83789C9.955 3.62956 9.88208 3.45247 9.73625 3.30664C9.59042 3.16081 9.41073 3.08789 9.19719 3.08789C8.98365 3.08789 8.80396 3.16081 8.65812 3.30664C8.51229 3.45247 8.43937 3.62956 8.43937 3.83789V7.93945H5.49406C5.28052 7.93945 5.10083 8.01237 4.955 8.1582C4.80917 8.30404 4.73625 8.48372 4.73625 8.69727C4.73625 8.91081 4.80917 9.09049 4.955 9.23633C5.10083 9.38216 5.28052 9.45508 5.49406 9.45508ZM9.19719 16.5098C8.06698 16.5098 7.00448 16.2936 6.00969 15.8613C5.0149 15.4342 4.13729 14.8405 3.37687 14.0801C2.61646 13.3249 2.0201 12.4499 1.58781 11.4551C1.16073 10.4603 0.947187 9.39518 0.947187 8.25977C0.947187 7.12956 1.16073 6.06706 1.58781 5.07227C2.0201 4.07747 2.61385 3.19987 3.36906 2.43945C4.12948 1.67904 5.00708 1.08529 6.00187 0.658203C7.00187 0.225911 8.06698 0.00976562 9.19719 0.00976562C10.3274 0.00976562 11.3899 0.225911 12.3847 0.658203C13.3847 1.08529 14.2623 1.67904 15.0175 2.43945C15.7779 3.19987 16.3743 4.07747 16.8066 5.07227C17.2389 6.06706 17.455 7.12956 17.455 8.25977C17.455 9.39518 17.2389 10.4603 16.8066 11.4551C16.3743 12.4499 15.7779 13.3249 15.0175 14.0801C14.2623 14.8405 13.3873 15.4342 12.3925 15.8613C11.3977 16.2936 10.3326 16.5098 9.19719 16.5098Z" fill="#A19F9F"/>
</svg>
