<svg width="18" height="20" viewBox="0 0 18 20" fill="none" xmlns="http://www.w3.org/2000/svg">
<path d="M1.66113 4.41406C1.44141 4.41406 1.24805 4.27344 1.15137 4.05371C1.05469 3.83398 0.993164 3.5 0.993164 3.14844C0.993164 1.75098 2.13574 0.634766 3.55957 0.634766C4.11328 0.634766 4.71973 0.801758 5.08887 1.11816C5.25586 1.25879 5.34375 1.42578 5.34375 1.61035C5.34375 1.76855 5.26465 1.90918 5.11523 2.01465L2.02148 4.28223C1.88965 4.3877 1.80176 4.41406 1.66113 4.41406ZM16.3301 4.41406C16.1982 4.41406 16.1016 4.3877 15.9785 4.28223L12.876 2.01465C12.7354 1.90918 12.6562 1.76855 12.6562 1.61035C12.6562 1.42578 12.7441 1.25879 12.9023 1.11816C13.2715 0.801758 13.8779 0.634766 14.4404 0.634766C15.8643 0.634766 16.998 1.75098 16.998 3.14844C16.998 3.5 16.9453 3.84277 16.8486 4.05371C16.7432 4.26465 16.5586 4.41406 16.3301 4.41406ZM1.57324 18.9248C1.2832 18.6348 1.27441 18.1602 1.58203 17.8701L2.93555 16.5166C1.4502 14.9961 0.536133 12.9043 0.536133 10.6104C0.536133 5.93457 4.32422 2.14648 9 2.14648C13.6758 2.14648 17.4551 5.93457 17.4551 10.6104C17.4551 12.9043 16.541 14.9961 15.0557 16.5166L16.418 17.8701C16.7168 18.1602 16.708 18.6348 16.4268 18.9248C16.1191 19.2236 15.6445 19.2148 15.3369 18.9072L13.9131 17.501C12.5332 18.4854 10.8281 19.0742 9 19.0742C7.16309 19.0742 5.4668 18.4854 4.07812 17.501L2.66309 18.9072C2.35547 19.2236 1.87207 19.2236 1.57324 18.9248ZM5.16797 11.6914H8.99121C9.37793 11.6914 9.67676 11.3926 9.67676 11.0146V5.88184C9.67676 5.50391 9.37793 5.20508 8.99121 5.20508C8.61328 5.20508 8.31445 5.50391 8.31445 5.88184V10.3379H5.16797C4.78125 10.3379 4.49121 10.6367 4.49121 11.0146C4.49121 11.3926 4.78125 11.6914 5.16797 11.6914Z" fill="#8E66FE"/>
</svg>
