<svg width="26" height="26" viewBox="0 0 26 26" fill="none" xmlns="http://www.w3.org/2000/svg">
<rect width="26" height="26" rx="13" fill="#F1F7FF"/>
<path d="M7.39724 15.5816C7.39724 15.5816 7.2382 14.3902 6.0719 14.3902C5.28259 14.3902 5.48286 17.7292 6.73359 18.0472C7.98431 18.3652 8.05892 16.8282 8.05892 16.8282L7.39724 15.5816Z" fill="#F9D7BB"/>
<path d="M17.6046 15.5816C17.6046 15.5816 17.7636 14.3902 18.9299 14.3902C19.7192 14.3902 19.5189 17.7292 18.2682 18.0472C17.0175 18.3652 16.9429 16.8282 16.9429 16.8282L17.6046 15.5816Z" fill="#F9D7BB"/>
<path d="M12.5025 21.9671C9.26284 21.9671 6.6377 17.937 6.6377 13.7521C6.6377 9.56716 9.2648 6.80902 12.5025 6.80902C15.7403 6.80902 18.3674 9.56716 18.3674 13.7521C18.3674 17.937 15.7403 21.9671 12.5025 21.9671Z" fill="#F9D7BB"/>
<path d="M6.1018 12.4101C5.9624 13.468 6.15285 14.3902 6.15285 14.3902C6.15285 14.3902 6.22354 14.3944 6.24121 14.3966C6.47093 14.4241 6.64568 14.6255 6.67906 14.8714C6.76742 15.5011 6.92253 16.1604 6.92253 16.1604C6.92253 16.1604 7.43892 14.7697 7.25043 12.8002C7.19545 12.2341 7.596 11.6787 8.09471 11.2144C8.04759 11.2526 7.99654 11.2844 7.93567 11.3035C6.90682 11.6299 6.12144 12.391 6.1018 12.4101Z" fill="#8F7F6A"/>
<path d="M8.16998 11.1382C8.15938 11.1509 8.14878 11.1636 8.13818 11.1742C8.15302 11.1615 8.16786 11.1509 8.18058 11.1382H8.16998Z" fill="#8F7F6A"/>
<path d="M8.14186 11.1743C8.12702 11.187 8.11005 11.1997 8.09521 11.2145C8.11217 11.2018 8.12702 11.1891 8.14186 11.1743Z" fill="#8F7F6A"/>
<path d="M18.9128 12.4101C19.0522 13.468 18.8618 14.3902 18.8618 14.3902C18.8618 14.3902 18.7911 14.3944 18.7734 14.3966C18.5437 14.4241 18.369 14.6255 18.3356 14.8714C18.2472 15.5011 18.0921 16.1604 18.0921 16.1604C18.0921 16.1604 17.5757 14.7697 17.7642 12.8002C17.8192 12.2341 17.4186 11.6787 16.9199 11.2144C16.967 11.2526 17.0181 11.2844 17.079 11.3035C18.1078 11.6299 18.8932 12.391 18.9128 12.4101Z" fill="#8F7F6A"/>
<path d="M16.8431 11.1381C16.8537 11.1508 16.8643 11.1635 16.8749 11.1741C16.8601 11.1614 16.8452 11.1508 16.8325 11.1381H16.8431Z" fill="#8F7F6A"/>
<path d="M16.8745 11.1742C16.8894 11.1869 16.9063 11.1996 16.9212 11.2145C16.9042 11.2018 16.8894 11.189 16.8745 11.1742Z" fill="#8F7F6A"/>
<path d="M12.502 4C6.20123 4.2756 4.57352 8.628 4.15727 9.476C3.73119 10.341 4.20635 10.129 5.1547 10.572C6.10305 11.013 6.04808 11.6935 6.04808 11.6935L8.15487 10.9176L12.5 10.5127L16.8451 10.9176L18.9519 11.6935C18.9519 11.6935 18.8969 11.013 19.8453 10.572C20.7936 10.1311 21.2688 10.3431 20.8427 9.476C20.4265 8.628 18.7988 4.2756 12.498 4H12.502Z" fill="#4D8CE4"/>
<path d="M12.5022 11.9119C10.6566 11.9034 7.92541 11.8928 7.89988 11.8928C7.86258 11.8928 6.63542 11.9733 6.63542 11.9733L6.09939 12.4101L6.04834 11.6935C6.04834 11.6935 8.52426 10.0674 12.5003 10.0674C16.4763 10.0674 18.9522 11.6935 18.9522 11.6935L18.9012 12.4101L18.3651 11.9733C18.3651 11.9733 17.138 11.8928 17.1007 11.8928C17.0771 11.8928 14.344 11.9034 12.4983 11.9119H12.5022Z" fill="#9CC1F3"/>
<path d="M12.5025 13.4998C12.0863 13.4998 11.67 13.4659 11.2597 13.398C8.10833 12.8829 6.6377 11.9734 6.6377 11.9734C6.6377 11.9734 8.27129 10.8604 12.5025 10.6971C16.7338 10.8625 18.3674 11.9734 18.3674 11.9734C18.3674 11.9734 16.8968 12.8829 13.7454 13.398C13.3331 13.4659 12.9188 13.4998 12.5025 13.4998Z" fill="#4D8CE4"/>
<path d="M12.5025 5.96106L12.2531 6.85359C12.2531 6.85359 10.272 6.8451 10.2877 6.8345C10.3034 6.8239 12.0096 7.99204 12.0096 7.99204L11.7681 8.751L12.5005 9.07961L13.2329 8.751L12.9914 7.99204C12.9914 7.99204 14.6976 6.8239 14.7133 6.8345C14.729 6.8451 12.7479 6.85359 12.7479 6.85359L12.4985 5.96106H12.5025Z" fill="white"/>
</svg>
