<svg width="24" height="24" viewBox="0 0 24 24" fill="none" xmlns="http://www.w3.org/2000/svg">
<g clip-path="url(#clip0_25091_17688)">
<path d="M21.5 15.6875H21V12.0982C21 11.6766 20.8406 11.2715 20.5594 10.9727L17.4375 7.65566C17.1562 7.35684 16.775 7.1875 16.3781 7.1875H15V5.59375C15 4.71387 14.3281 4 13.5 4H3.5C2.67188 4 2 4.71387 2 5.59375V16.2188C2 17.0986 2.67188 17.8125 3.5 17.8125H4C4 19.5723 5.34375 21 7 21C8.65625 21 10 19.5723 10 17.8125H14C14 19.5723 15.3438 21 17 21C18.6562 21 20 19.5723 20 17.8125H21.5C21.775 17.8125 22 17.5734 22 17.2812V16.2188C22 15.9266 21.775 15.6875 21.5 15.6875ZM7 19.4062C6.17188 19.4062 5.5 18.6924 5.5 17.8125C5.5 16.9326 6.17188 16.2188 7 16.2188C7.82812 16.2188 8.5 16.9326 8.5 17.8125C8.5 18.6924 7.82812 19.4062 7 19.4062ZM17 19.4062C16.1719 19.4062 15.5 18.6924 15.5 17.8125C15.5 16.9326 16.1719 16.2188 17 16.2188C17.8281 16.2188 18.5 16.9326 18.5 17.8125C18.5 18.6924 17.8281 19.4062 17 19.4062ZM19.5 12.5H15V8.78125H16.3781L19.5 12.0982V12.5Z" fill="#AEAEAE"/>
</g>
<defs>
<clipPath id="clip0_25091_17688">
<rect width="24" height="24" fill="white"/>
</clipPath>
</defs>
</svg>
