<svg width="26" height="26" viewBox="0 0 26 26" fill="none" xmlns="http://www.w3.org/2000/svg">
<g clip-path="url(#clip0_436_13099)">
<rect width="26" height="26" rx="13" fill="#F1F7FF"/>
<path d="M17.7603 5.42782C17.7603 5.42782 16.5381 3.05671 13.4647 3.00115C10.3914 2.9456 7.05805 4.90782 6.0425 7.92338C5.00694 11.0056 6.30694 13.4945 8.47361 14.7589C10.6403 16.0234 18.7981 13.9456 19.6403 12.5567C20.4825 11.1678 20.8092 6.81227 17.7603 5.42782Z" fill="#8F7F6A"/>
<path d="M8.81556 25.4634L3.55556 22.6123C2.61778 22.9189 1.92889 23.7256 1.77333 24.6989L1 29.5012H4.66667L8.81556 25.4634Z" fill="#E7F0F4"/>
<path d="M17.1846 25.4634L22.4446 22.6123C23.3823 22.9189 24.0712 23.7256 24.2268 24.6989L25.0001 29.5012H21.3335L17.1846 25.4634Z" fill="#E7F0F4"/>
<path d="M13.0001 20.7945L9.33344 20.7967L3.55566 22.6123L4.66678 29.5012L13.0001 29.4878L21.3334 29.5012L22.4446 22.6123L16.6668 20.7967L13.0001 20.7945Z" fill="#D4E4EA"/>
<path d="M13.0002 22.1789C11.6913 22.1789 10.3824 21.7189 9.3335 20.7967L9.88905 16.5367H16.1113L16.6668 20.7967C15.6179 21.7189 14.3091 22.1789 13.0002 22.1789Z" fill="#E0BEA4"/>
<path d="M7.22187 12.7523C7.22187 12.7523 7.04187 11.5034 5.72187 11.5034C4.82854 11.5034 5.0552 15.0034 6.47298 15.3367C7.89076 15.6701 7.97298 14.0589 7.97298 14.0589L7.22187 12.7523Z" fill="#F9D7BB"/>
<path d="M18.7775 12.7523C18.7775 12.7523 18.9575 11.5034 20.2775 11.5034C21.1708 11.5034 20.9441 15.0034 19.5264 15.3367C18.1086 15.6701 18.0264 14.0589 18.0264 14.0589L18.7775 12.7523Z" fill="#F9D7BB"/>
<path d="M13.0004 19.4456C9.33369 19.4456 6.36035 15.2211 6.36035 10.8345C6.36035 6.44781 9.33369 3.5567 13.0004 3.5567C16.667 3.5567 19.6404 6.44781 19.6404 10.8345C19.6404 15.2211 16.667 19.4456 13.0004 19.4456Z" fill="#F9D7BB"/>
<path d="M13.0002 23.9612L12.0002 24.6501L11.4824 29.5012H14.518L14.0002 24.6501L13.0002 23.9612Z" fill="#4D8CE4"/>
<path d="M12 24.6501L11.3467 23.1767L13 22.1789L14.6533 23.1767L14 24.6501H12Z" fill="#1C5BB3"/>
<path d="M9.50941 19.4456L13.0005 22.1789L9.33385 25.5012L7.97607 21.2234L9.50941 19.4456Z" fill="#E7F0F4"/>
<path d="M16.4889 19.4456L13 22.1789L16.6667 25.5012L18.0222 21.2234L16.4889 19.4456Z" fill="#E7F0F4"/>
<path d="M17.4161 7.57451C17.4161 7.57451 17.1939 7.93451 14.125 8.22784C11.0561 8.51896 9.09834 9.54784 9.09834 9.54784C9.09834 9.54784 9.37612 8.93673 10.1806 8.17229C10.1806 8.17229 8.82723 8.57451 7.59834 9.54784C6.36723 10.5212 6.36278 11.6212 6.36278 11.6212C6.36278 11.6212 6.07167 9.99229 6.36278 8.53451C6.65389 7.07673 8.23834 4.65895 10.0294 3.95229C11.8206 3.2434 13.6228 3.1234 15.0428 3.55895C16.4628 3.99451 17.7783 5.60562 17.7783 5.60562C17.7783 5.60562 19.2428 7.10562 19.465 8.0234C19.6872 8.94118 19.7783 11.3367 19.7783 11.3367L19.6072 11.6256C19.6072 11.6256 19.0139 10.0101 18.3606 9.07895C17.7072 8.14784 17.4161 7.57896 17.4161 7.57896V7.57451Z" fill="#8F7F6A"/>
</g>
<defs>
<clipPath id="clip0_436_13099">
<rect width="26" height="26" rx="13" fill="white"/>
</clipPath>
</defs>
</svg>
