<svg width="38" height="38" viewBox="0 0 38 38" fill="none" xmlns="http://www.w3.org/2000/svg">
<rect width="38" height="38" rx="8" fill="#FFD7D7"/>
<path d="M18.9746 28.5879C17.653 28.5879 16.4095 28.334 15.2441 27.8262C14.0853 27.3249 13.0632 26.6348 12.1777 25.7559C11.2923 24.8704 10.599 23.8451 10.0977 22.6797C9.59635 21.5143 9.3457 20.2708 9.3457 18.9492C9.3457 17.6276 9.59635 16.3874 10.0977 15.2285C10.599 14.0632 11.2923 13.0378 12.1777 12.1523C13.0632 11.2669 14.0853 10.5736 15.2441 10.0723C16.403 9.57096 17.6432 9.32031 18.9648 9.32031C20.2865 9.32031 21.5299 9.57096 22.6953 10.0723C23.8607 10.5736 24.8861 11.2669 25.7715 12.1523C26.6569 13.0378 27.3503 14.0632 27.8516 15.2285C28.3594 16.3874 28.6133 17.6276 28.6133 18.9492C28.6133 20.2708 28.3594 21.5143 27.8516 22.6797C27.3503 23.8451 26.6569 24.8704 25.7715 25.7559C24.8861 26.6348 23.8607 27.3249 22.6953 27.8262C21.5365 28.334 20.2962 28.5879 18.9746 28.5879ZM18.9746 26.3516C20.0033 26.3516 20.9635 26.1628 21.8555 25.7852C22.7539 25.401 23.5417 24.8704 24.2188 24.1934C24.8958 23.5098 25.4232 22.722 25.8008 21.8301C26.1849 20.9382 26.377 19.9779 26.377 18.9492C26.377 17.9206 26.1849 16.9603 25.8008 16.0684C25.4167 15.1764 24.8861 14.3919 24.209 13.7148C23.5319 13.0378 22.7441 12.5072 21.8457 12.123C20.9538 11.7389 19.9935 11.5469 18.9648 11.5469C17.9427 11.5469 16.9824 11.7389 16.084 12.123C15.1921 12.5072 14.4076 13.0378 13.7305 13.7148C13.0599 14.3919 12.5326 15.1764 12.1484 16.0684C11.7708 16.9603 11.582 17.9206 11.582 18.9492C11.582 19.9779 11.7708 20.9414 12.1484 21.8398C12.5326 22.7318 13.0632 23.5163 13.7402 24.1934C14.4173 24.8704 15.2018 25.401 16.0938 25.7852C16.9922 26.1628 17.9525 26.3516 18.9746 26.3516ZM4.24805 18.9492C4.24805 17.3737 4.49219 15.8633 4.98047 14.418C5.47526 12.9727 6.16862 11.6543 7.06055 10.4629C7.25586 10.196 7.50651 10.0495 7.8125 10.0234C8.125 9.9974 8.4082 10.0885 8.66211 10.2969C8.90951 10.5052 9.04297 10.7559 9.0625 11.0488C9.08203 11.3353 8.99414 11.6087 8.79883 11.8691C8.06966 12.8717 7.50326 13.9753 7.09961 15.1797C6.69596 16.3776 6.49414 17.6341 6.49414 18.9492C6.49414 20.2643 6.69596 21.5241 7.09961 22.7285C7.50326 23.9264 8.06641 25.0234 8.78906 26.0195C8.98438 26.2865 9.07227 26.5632 9.05273 26.8496C9.0332 27.1426 8.90299 27.39 8.66211 27.5918C8.40169 27.8066 8.11849 27.901 7.8125 27.875C7.50651 27.849 7.2526 27.7025 7.05078 27.4355C6.16536 26.2376 5.47526 24.9193 4.98047 23.4805C4.49219 22.0352 4.24805 20.5247 4.24805 18.9492ZM33.7012 18.9492C33.7012 20.5247 33.4538 22.0352 32.959 23.4805C32.4707 24.9193 31.7839 26.2376 30.8984 27.4355C30.6966 27.7025 30.4427 27.849 30.1367 27.875C29.8307 27.901 29.5475 27.8066 29.2871 27.5918C29.0462 27.39 28.916 27.1426 28.8965 26.8496C28.8835 26.5632 28.9714 26.2865 29.1602 26.0195C29.8893 25.0234 30.4557 23.9264 30.8594 22.7285C31.263 21.5241 31.4648 20.2643 31.4648 18.9492C31.4648 17.6341 31.263 16.3776 30.8594 15.1797C30.4557 13.9753 29.8861 12.8717 29.1504 11.8691C28.9616 11.6087 28.8737 11.3353 28.8867 11.0488C28.9062 10.7559 29.0397 10.5052 29.2871 10.2969C29.541 10.0885 29.821 9.9974 30.127 10.0234C30.4395 10.0495 30.6934 10.196 30.8887 10.4629C31.7806 11.6543 32.4707 12.9727 32.959 14.418C33.4538 15.8633 33.7012 17.3737 33.7012 18.9492ZM18.9746 20.4727C18.3626 20.4727 18.0436 20.1667 18.0176 19.5547L17.8809 15.1016C17.8678 14.7956 17.9622 14.5449 18.1641 14.3496C18.3659 14.1478 18.6328 14.0469 18.9648 14.0469C19.2904 14.0469 19.554 14.1478 19.7559 14.3496C19.9642 14.5449 20.0618 14.7988 20.0488 15.1113L19.9023 19.5449C19.8763 20.1634 19.5671 20.4727 18.9746 20.4727ZM18.9746 23.7539C18.6361 23.7539 18.3464 23.6497 18.1055 23.4414C17.8711 23.2331 17.7539 22.9694 17.7539 22.6504C17.7539 22.3249 17.8711 22.0579 18.1055 21.8496C18.3464 21.6348 18.6361 21.5273 18.9746 21.5273C19.3132 21.5273 19.5964 21.6315 19.8242 21.8398C20.0586 22.0482 20.1758 22.3184 20.1758 22.6504C20.1758 22.9759 20.0586 23.2428 19.8242 23.4512C19.5898 23.653 19.3066 23.7539 18.9746 23.7539Z" fill="#656565"/>
</svg>
