<svg width="15" height="18" viewBox="0 0 15 18" fill="none" xmlns="http://www.w3.org/2000/svg">
<path d="M3.0175 17.9609C1.24406 17.9609 0.275312 16.9922 0.275312 15.2031V3.52344C0.275312 1.74219 1.24406 0.765625 3.0175 0.765625H6.54875V6.97656C6.54875 7.91406 7.0175 8.38281 7.96281 8.38281H14.1269V15.2031C14.1269 16.9844 13.1581 17.9609 11.3847 17.9609H3.0175ZM8.29875 7.11719C7.97844 7.11719 7.81437 6.96094 7.81437 6.64062V0.835938C8.22062 0.875 8.61906 1.1875 9.04875 1.625L13.2519 5.86719C13.705 6.32812 14.0253 6.71094 14.0566 7.11719H8.29875ZM7.205 15.9609C7.63469 15.9609 7.99406 15.6562 7.99406 15.2266V12.9453L7.91594 11.8828L8.3925 12.3828L8.96281 12.9688C9.08781 13.1016 9.28312 13.2188 9.47062 13.2188C9.86125 13.2188 10.1659 12.9297 10.1659 12.5547C10.1659 12.3359 10.0878 12.1797 9.92375 12.0312L7.83 10.1094C7.62687 9.9375 7.44719 9.83594 7.205 9.83594C6.955 9.83594 6.77531 9.9375 6.57219 10.1094L4.48625 12.0312C4.31437 12.1797 4.23625 12.3359 4.23625 12.5547C4.23625 12.9297 4.53312 13.2188 4.93156 13.2188C5.11906 13.2188 5.30656 13.1016 5.43937 12.9688L6.00969 12.3828L6.48625 11.8828L6.40812 12.9453V15.2266C6.40812 15.6562 6.7675 15.9609 7.205 15.9609Z" fill="white"/>
</svg>
