<svg width="16" height="16" viewBox="0 0 16 16" fill="none" xmlns="http://www.w3.org/2000/svg">
<path d="M14.7734 1.95312L15.3359 1.375C15.6016 1.09375 15.6016 0.71875 15.3359 0.460938L15.1562 0.273438C14.9141 0.03125 14.5312 0.0625 14.2734 0.3125L13.7031 0.875L14.7734 1.95312ZM5.375 10.4766L6.89844 9.8125L14.1953 2.52344L13.125 1.46875L5.83594 8.75781L5.13281 10.2266C5.07031 10.3594 5.22656 10.5391 5.375 10.4766ZM2.53125 15.5391H11.7031C13.1094 15.5391 13.9219 14.7266 13.9219 13.1172V4.76562L12.6641 6.02344V13.0547C12.6641 13.8672 12.2266 14.2812 11.6875 14.2812H2.55469C1.77344 14.2812 1.33594 13.8672 1.33594 13.0547V4.1875C1.33594 3.375 1.77344 2.95312 2.55469 2.95312H9.67188L10.9297 1.69531H2.53125C0.90625 1.69531 0.078125 2.50781 0.078125 4.11719V13.1172C0.078125 14.7344 0.90625 15.5391 2.53125 15.5391Z" fill="#8863F2"/>
</svg>
