<svg width="38" height="38" viewBox="0 0 38 38" fill="none" xmlns="http://www.w3.org/2000/svg">
<rect width="38" height="38" rx="8" fill="#FF9F1C"/>
<path d="M18.5156 13.334C18.763 13.334 18.9746 13.4219 19.1504 13.5977C19.3262 13.7734 19.4141 13.985 19.4141 14.2324V20.6973L18.4961 17.8945L21.6211 22.084C21.7839 22.2988 21.8555 22.5332 21.8359 22.7871C21.8164 23.0345 21.7025 23.2331 21.4941 23.3828C21.2728 23.5391 21.0384 23.5977 20.791 23.5586C20.5436 23.513 20.3288 23.373 20.1465 23.1387L17.8613 20.1309C17.7767 20.0202 17.7116 19.9095 17.666 19.7988C17.627 19.6816 17.6074 19.5579 17.6074 19.4277V14.2324C17.6074 13.985 17.6953 13.7734 17.8711 13.5977C18.0469 13.4219 18.2617 13.334 18.5156 13.334ZM18.877 8.77344C19.8991 8.77344 20.8984 8.93294 21.875 9.25195C22.8516 9.56445 23.7533 10.0072 24.5801 10.5801C25.4134 11.1465 26.1263 11.8073 26.7188 12.5625C26.9661 12.8555 27.0768 13.1582 27.0508 13.4707C27.0312 13.7832 26.8978 14.0306 26.6504 14.2129C26.39 14.4212 26.11 14.4961 25.8105 14.4375C25.5176 14.3789 25.2572 14.2227 25.0293 13.9688C24.5345 13.3633 23.9681 12.8392 23.3301 12.3965C22.6986 11.9538 22.0052 11.612 21.25 11.3711C20.5013 11.1302 19.7103 11.0098 18.877 11.0098C17.9525 11.0098 17.0768 11.1562 16.25 11.4492C15.4232 11.7422 14.6712 12.1523 13.9941 12.6797C13.3171 13.207 12.7376 13.8288 12.2559 14.5449C11.7806 15.2546 11.4323 16.0358 11.2109 16.8887H12.6074C12.8678 16.8887 13.0632 16.9505 13.1934 17.0742C13.3301 17.1979 13.3952 17.3542 13.3887 17.543C13.3822 17.7318 13.3105 17.9238 13.1738 18.1191L10.6738 21.5469C10.5046 21.7682 10.3027 21.8822 10.0684 21.8887C9.83398 21.8887 9.63216 21.7747 9.46289 21.5469L6.96289 18.1289C6.81966 17.9336 6.74479 17.7415 6.73828 17.5527C6.73177 17.3574 6.79362 17.1979 6.92383 17.0742C7.06055 16.9505 7.26237 16.8887 7.5293 16.8887H8.90625C9.14714 15.7363 9.57031 14.6686 10.1758 13.6855C10.7878 12.696 11.5365 11.8333 12.4219 11.0977C13.3138 10.362 14.3066 9.79232 15.4004 9.38867C16.4941 8.97852 17.653 8.77344 18.877 8.77344ZM18.877 29.1348C17.8548 29.1348 16.8555 28.9753 15.8789 28.6562C14.9023 28.3438 13.9974 27.901 13.1641 27.3281C12.3372 26.7552 11.6276 26.0944 11.0352 25.3457C10.7878 25.0462 10.6738 24.7435 10.6934 24.4375C10.7194 24.125 10.8529 23.8743 11.0938 23.6855C11.3607 23.4772 11.6406 23.4056 11.9336 23.4707C12.2331 23.5293 12.5 23.6823 12.7344 23.9297C13.2161 24.5352 13.776 25.0625 14.4141 25.5117C15.0521 25.9544 15.7454 26.2962 16.4941 26.5371C17.2428 26.778 18.0371 26.8984 18.877 26.8984C19.8014 26.8984 20.6771 26.752 21.5039 26.459C22.3307 26.1725 23.0827 25.7656 23.7598 25.2383C24.4368 24.7044 25.013 24.0794 25.4883 23.3633C25.9701 22.6471 26.3249 21.8659 26.5527 21.0195H25.1562C24.8893 21.0195 24.6875 20.9577 24.5508 20.834C24.4206 20.7038 24.3587 20.5443 24.3652 20.3555C24.3717 20.1667 24.4434 19.9746 24.5801 19.7793L27.0801 16.3613C27.2493 16.14 27.4512 16.0293 27.6855 16.0293C27.9199 16.0228 28.1185 16.1335 28.2812 16.3613L30.7812 19.7793C30.931 19.9746 31.0059 20.1699 31.0059 20.3652C31.0124 20.554 30.9473 20.7103 30.8105 20.834C30.6803 20.9577 30.4818 21.0195 30.2148 21.0195H28.8379C28.6035 22.1719 28.1803 23.2396 27.5684 24.2227C26.9629 25.2057 26.2142 26.0651 25.3223 26.8008C24.4368 27.5365 23.4473 28.1094 22.3535 28.5195C21.2598 28.9297 20.1009 29.1348 18.877 29.1348Z" fill="white"/>
</svg>
