<svg width="24" height="24" viewBox="0 0 24 24" fill="none" xmlns="http://www.w3.org/2000/svg">
<path d="M12.2666 23.5986C6.04688 23.5986 0.922852 18.4746 0.922852 12.2441C0.922852 6.02441 6.03613 0.900391 12.2666 0.900391C18.4863 0.900391 23.6104 6.02441 23.6104 12.2441C23.6104 18.4746 18.4971 23.5986 12.2666 23.5986ZM7.16406 13.8877H12.2666C12.8467 13.8877 13.2979 13.4258 13.2979 12.8457V6.16406C13.2979 5.58398 12.8467 5.13281 12.2666 5.13281C11.6865 5.13281 11.2246 5.58398 11.2246 6.16406V11.8145H7.16406C6.58398 11.8145 6.13281 12.2656 6.13281 12.8457C6.13281 13.4258 6.58398 13.8877 7.16406 13.8877Z" fill="#8E66FE"/>
</svg>
