<svg width="18" height="19" viewBox="0 0 18 19" fill="none" xmlns="http://www.w3.org/2000/svg">
<g clip-path="url(#clip0_32759_34770)">
<path d="M15.305 13.0332C14.5016 12.1627 13.5266 11.468 12.4415 10.9929C11.3563 10.5178 10.1846 10.2725 9 10.2725C7.81541 10.2725 6.64365 10.5178 5.55853 10.9929C4.4734 11.468 3.49843 12.1627 2.695 13.0332C2.57055 13.1701 2.5011 13.3482 2.5 13.5332V16.5332C2.50263 16.7304 2.58281 16.9186 2.72317 17.0571C2.86354 17.1956 3.05281 17.2733 3.25 17.2732H14.75C14.9489 17.2732 15.1397 17.1942 15.2803 17.0536C15.421 16.9129 15.5 16.7221 15.5 16.5232V13.5232C15.4965 13.3417 15.4272 13.1676 15.305 13.0332Z" fill="url(#paint0_linear_32759_34770)"/>
<path d="M9 9.27246C10.933 9.27246 12.5 7.70546 12.5 5.77246C12.5 3.83946 10.933 2.27246 9 2.27246C7.067 2.27246 5.5 3.83946 5.5 5.77246C5.5 7.70546 7.067 9.27246 9 9.27246Z" fill="url(#paint1_linear_32759_34770)"/>
</g>
<defs>
<linearGradient id="paint0_linear_32759_34770" x1="15.4146" y1="17.2732" x2="4.5259" y2="7.99512" gradientUnits="userSpaceOnUse">
<stop stop-color="#7A0FD9"/>
<stop offset="1" stop-color="#695CF8"/>
</linearGradient>
<linearGradient id="paint1_linear_32759_34770" x1="12.454" y1="9.27246" x2="4.09416" y2="5.4364" gradientUnits="userSpaceOnUse">
<stop stop-color="#7A0FD9"/>
<stop offset="1" stop-color="#695CF8"/>
</linearGradient>
<clipPath id="clip0_32759_34770">
<rect width="18" height="18" fill="white" transform="translate(0 0.772461)"/>
</clipPath>
</defs>
</svg>
