<svg width="18" height="19" viewBox="0 0 18 19" fill="none" xmlns="http://www.w3.org/2000/svg">
<g clip-path="url(#clip0_32759_34774)">
<path fill-rule="evenodd" clip-rule="evenodd" d="M12.4142 17.1006C11.3342 17.0608 8.27349 16.6378 5.06799 13.4331C1.86324 10.2276 1.44099 7.16758 1.40049 6.08683C1.34049 4.43983 2.60199 2.84008 4.05924 2.21533C4.23473 2.13956 4.42689 2.11071 4.61689 2.13161C4.80689 2.15252 4.98819 2.22246 5.14299 2.33458C6.34299 3.20908 7.17099 4.53208 7.88199 5.57233C8.03843 5.80088 8.10532 6.07899 8.06991 6.35368C8.0345 6.62837 7.89928 6.88043 7.68999 7.06183L6.22674 8.14858C6.15605 8.19963 6.10629 8.2746 6.0867 8.35958C6.06711 8.44455 6.07903 8.53374 6.12024 8.61058C6.45174 9.21283 7.04124 10.1098 7.71624 10.7848C8.39124 11.4598 9.33099 12.0883 9.97524 12.4573C10.056 12.5027 10.1511 12.5154 10.2409 12.4928C10.3308 12.4702 10.4085 12.414 10.4582 12.3358L11.4107 10.8861C11.5859 10.6535 11.8442 10.4976 12.1316 10.4512C12.4191 10.4048 12.7133 10.4714 12.9527 10.6371C14.008 11.3676 15.2395 12.1813 16.141 13.3356C16.2622 13.4915 16.3393 13.6771 16.3643 13.8731C16.3892 14.069 16.361 14.268 16.2827 14.4493C15.655 15.9141 14.0665 17.1613 12.4142 17.1006Z" fill="url(#paint0_linear_32759_34774)"/>
</g>
<defs>
<linearGradient id="paint0_linear_32759_34774" x1="16.2747" y1="17.1027" x2="-1.61026" y2="8.89757" gradientUnits="userSpaceOnUse">
<stop stop-color="#7A0FD9"/>
<stop offset="1" stop-color="#695CF8"/>
</linearGradient>
<clipPath id="clip0_32759_34774">
<rect width="18" height="18" fill="white" transform="translate(0 0.5)"/>
</clipPath>
</defs>
</svg>
