<svg width="10" height="10" viewBox="0 0 10 10" fill="none" xmlns="http://www.w3.org/2000/svg">
<g clip-path="url(#clip0_28992_41507)">
<path d="M3.07996 0.739258C3.31767 0.739258 4.26851 2.87865 4.26851 3.11636C4.26851 3.59178 3.55538 4.0672 3.31767 4.54261C3.07996 5.01803 3.55538 5.49345 4.0308 5.96887C4.21621 6.15429 4.98164 6.91971 5.45706 6.682C5.93248 6.44429 6.4079 5.73116 6.88332 5.73116C7.12103 5.73116 9.26042 6.682 9.26042 6.91971C9.26042 7.87055 8.54729 8.58368 7.83416 8.82139C7.12103 9.0591 6.64561 9.0591 5.69477 8.82139C4.74393 8.58368 4.0308 8.34597 2.84225 7.15742C1.6537 5.96887 1.41599 5.25574 1.17828 4.30491C0.940573 3.35407 0.940573 2.87865 1.17828 2.16552C1.41599 1.45239 2.12912 0.739258 3.07996 0.739258Z" stroke="#602FED" stroke-width="0.947036" stroke-linecap="round" stroke-linejoin="round"/>
</g>
<defs>
<clipPath id="clip0_28992_41507">
<rect width="10" height="10" fill="white"/>
</clipPath>
</defs>
</svg>
