<svg width="17" height="17" viewBox="0 0 17 17" fill="none" xmlns="http://www.w3.org/2000/svg">
<path d="M4.94629 12.1885C2.35352 9.5957 0.384766 6.48438 0.384766 3.91797C0.384766 2.77539 0.771484 1.75586 1.6416 0.929688C2.16895 0.428711 2.7666 0.165039 3.35547 0.165039C3.85645 0.165039 4.32227 0.358398 4.63867 0.806641L6.53711 3.47852C6.84473 3.90918 6.98535 4.26074 6.98535 4.57715C6.98535 4.99023 6.74805 5.35059 6.34375 5.76367L5.71973 6.40527C5.61426 6.50195 5.5791 6.625 5.5791 6.73926C5.5791 6.87109 5.63184 7.00293 5.68457 7.09961C5.97461 7.65332 6.79199 8.59375 7.66211 9.47266C8.54102 10.3428 9.49023 11.1602 10.0352 11.459C10.1318 11.5029 10.2637 11.5557 10.4043 11.5557C10.5186 11.5557 10.6416 11.5205 10.7383 11.4238L11.3799 10.791C11.7842 10.3867 12.1445 10.1582 12.5576 10.1582C12.874 10.1582 13.2344 10.2988 13.6562 10.5977L16.3545 12.5137C16.8027 12.8301 16.9785 13.2783 16.9785 13.7441C16.9785 14.3506 16.6885 14.957 16.2227 15.4844C15.4141 16.3809 14.4033 16.7764 13.252 16.7764C10.6855 16.7764 7.53906 14.7812 4.94629 12.1885Z" fill="#7A0FD9"/>
</svg>
