<svg width="21" height="21" viewBox="0 0 21 21" fill="none" xmlns="http://www.w3.org/2000/svg">
<path d="M10.205 20.6543C4.61906 20.6543 0.019453 16.0449 0.019453 10.4688C0.019453 4.88281 4.61906 0.273438 10.1952 0.273438C15.7812 0.273438 20.3905 4.88281 20.3905 10.4688C20.3905 16.0449 15.7909 20.6543 10.205 20.6543ZM8.11516 6.43555C8.11516 7.38281 8.74992 8.19336 9.61906 8.4668V11.6309C9.61906 12.9688 9.94133 13.8672 10.2245 13.8672C10.5175 13.8672 10.83 12.9785 10.83 11.6309V8.4668C11.6991 8.20312 12.3339 7.38281 12.3339 6.43555C12.3339 5.26367 11.4062 4.32617 10.2245 4.32617C9.05266 4.32617 8.11516 5.26367 8.11516 6.43555ZM9.63859 6.55273C9.27727 6.55273 8.94523 6.23047 8.94523 5.83984C8.94523 5.46875 9.27727 5.15625 9.63859 5.15625C10.0195 5.15625 10.3417 5.46875 10.3417 5.83984C10.3417 6.23047 10.0195 6.55273 9.63859 6.55273ZM10.2245 15.918C13.4277 15.918 15.4003 14.7949 15.4003 13.4668C15.4003 12.0312 13.2812 11.1133 11.6015 11.0547V12.1191C12.6855 12.1582 14.1015 12.6758 14.1015 13.3789C14.1015 14.209 12.4902 14.8047 10.2245 14.8047C7.94914 14.8047 6.34758 14.209 6.34758 13.3789C6.34758 12.6758 7.75383 12.1582 8.83781 12.1191V11.0547C7.16789 11.1133 5.03898 12.0312 5.03898 13.4668C5.03898 14.7949 7.02141 15.918 10.2245 15.918Z" fill="#7C14DA"/>
</svg>
