<svg width="18" height="18" viewBox="0 0 18 18" fill="none" xmlns="http://www.w3.org/2000/svg">
<circle cx="9" cy="9" r="9" fill="#8E66FE"/>
<g clip-path="url(#clip0_8705_27822)">
<path d="M5.9887 8.51107C5.60857 8.88294 5.37305 9.40253 5.37305 9.97686C5.37305 10.5502 5.60857 11.0698 5.9887 11.4416C6.07238 11.5243 6.20769 11.5243 6.29137 11.4416C6.67151 11.0698 6.90703 10.5502 6.90703 9.97686C6.90703 9.40252 6.67048 8.88396 6.29137 8.51209C6.20769 8.42843 6.07238 8.42843 5.9887 8.51107Z" fill="white"/>
<path d="M8.02675 11.0977C7.45345 11.0977 6.93385 11.3332 6.56198 11.7133C6.47934 11.797 6.47934 11.9323 6.56198 12.016C6.93489 12.3961 7.45345 12.6316 8.02675 12.6316C8.60109 12.6316 9.11964 12.3961 9.49254 12.016C9.57518 11.9313 9.57518 11.797 9.49254 11.7133C9.11861 11.3332 8.60005 11.0977 8.02675 11.0977Z" fill="white"/>
<path d="M7.47016 7.0306C7.09001 7.40247 6.85449 7.92206 6.85449 8.49639C6.85449 9.06969 7.09001 9.58929 7.47016 9.96116C7.55383 10.0438 7.68914 10.0438 7.77282 9.96116C8.15296 9.58929 8.38847 9.06969 8.38847 8.49639C8.38847 7.92205 8.15193 7.4035 7.77282 7.03162C7.68914 6.94796 7.55383 6.94796 7.47016 7.0306Z" fill="white"/>
<path d="M10.9729 10.2289C10.6 9.8488 10.0815 9.61328 9.50819 9.61328C8.93488 9.61328 8.4153 9.8488 8.04342 10.2289C7.96079 10.3126 7.96079 10.4479 8.04342 10.5316C8.41633 10.9117 8.93488 11.1473 9.50819 11.1473C10.0825 11.1473 10.6011 10.9117 10.974 10.5316C11.0556 10.4479 11.0556 10.3136 10.9729 10.2289Z" fill="white"/>
<path d="M9.25524 5.54635C9.17156 5.46372 9.03625 5.46372 8.95258 5.54635C8.57243 5.91823 8.33691 6.43782 8.33691 7.01215C8.33691 7.58545 8.57243 8.10504 8.95258 8.47691C9.03625 8.55955 9.17156 8.55955 9.25524 8.47691C9.63538 8.10504 9.8709 7.58545 9.8709 7.01215C9.8709 6.43678 9.63538 5.91823 9.25524 5.54635Z" fill="white"/>
<path d="M10.9896 8.13281C10.4163 8.13281 9.89674 8.36833 9.52487 8.74847C9.44223 8.83214 9.44223 8.96746 9.52487 9.05113C9.89778 9.43127 10.4163 9.66679 10.9896 9.66679C11.564 9.66679 12.0825 9.43127 12.4554 9.05113C12.5381 8.96643 12.5381 8.83214 12.4554 8.74847C12.0825 8.36935 11.564 8.13281 10.9896 8.13281Z" fill="white"/>
<path d="M10.7377 4.06588C10.654 3.98325 10.5187 3.98325 10.435 4.06588C10.0549 4.43776 9.81934 4.95736 9.81934 5.53168C9.81934 6.10498 10.0549 6.62457 10.435 6.99644C10.5187 7.07908 10.654 7.07908 10.7377 6.99644C11.1178 6.62457 11.3533 6.10498 11.3533 5.53168C11.3533 4.95736 11.1168 4.43776 10.7377 4.06588Z" fill="white"/>
<path d="M12.4721 6.64844C11.8988 6.64844 11.3792 6.88396 11.0073 7.26409C10.9247 7.34777 10.9247 7.48308 11.0073 7.56675C11.3802 7.9469 11.8988 8.18242 12.4721 8.18242C13.0464 8.18242 13.565 7.9469 13.9378 7.56675C14.0205 7.48206 14.0205 7.34777 13.9378 7.26409C13.565 6.88498 13.0464 6.64946 12.4721 6.64844Z" fill="white"/>
<path d="M12.2799 4.63542C11.874 5.04138 11.6746 5.57439 11.6798 6.10742C11.6808 6.22517 11.7759 6.32021 11.8936 6.32123C12.4256 6.3264 12.9596 6.12703 13.3656 5.72107C13.7716 5.31511 13.9709 4.78106 13.9658 4.24908C13.9647 4.13132 13.8697 4.03629 13.7519 4.03525C13.22 4.03009 12.6859 4.22945 12.2799 4.63542Z" fill="white"/>
<path d="M4.22182 13.9025C4.34268 14.0234 4.53895 14.0234 4.6598 13.9025L6.08221 12.4801C6.20307 12.3593 6.20307 12.163 6.08221 12.0421L5.95103 11.911C5.83017 11.7901 5.6339 11.7901 5.51304 11.911L4.09064 13.3323C3.96979 13.4532 3.96979 13.6494 4.09064 13.7703L4.22182 13.9025Z" fill="white"/>
</g>
<defs>
<clipPath id="clip0_8705_27822">
<rect width="10" height="10" fill="white" transform="translate(4 4)"/>
</clipPath>
</defs>
</svg>
