<svg width="14" height="15" viewBox="0 0 14 15" fill="none" xmlns="http://www.w3.org/2000/svg">
<path d="M2.35092 14.4648C1.58432 14.4648 1.00814 14.2744 0.622402 13.8936C0.241543 13.5176 0.0511131 12.9512 0.0511131 12.1943V3.25146C0.0511131 2.49463 0.241543 1.92822 0.622402 1.55225C1.00814 1.17139 1.58432 0.980957 2.35092 0.980957H11.2352C12.0018 0.980957 12.5755 1.17139 12.9564 1.55225C13.3421 1.92822 13.535 2.49463 13.535 3.25146V12.1943C13.535 12.9512 13.3421 13.5176 12.9564 13.8936C12.5755 14.2744 12.0018 14.4648 11.2352 14.4648H2.35092ZM2.36557 13.2856H11.2205C11.5819 13.2856 11.8602 13.1904 12.0555 13C12.2557 12.8047 12.3558 12.5166 12.3558 12.1357V3.31006C12.3558 2.9292 12.2557 2.64355 12.0555 2.45312C11.8602 2.25781 11.5819 2.16016 11.2205 2.16016H2.36557C1.99936 2.16016 1.71859 2.25781 1.52328 2.45312C1.32797 2.64355 1.23031 2.9292 1.23031 3.31006V12.1357C1.23031 12.5166 1.32797 12.8047 1.52328 13C1.71859 13.1904 1.99936 13.2856 2.36557 13.2856ZM3.40561 7.71191C3.40561 7.52637 3.46176 7.37744 3.57406 7.26514C3.69125 7.14795 3.84506 7.08936 4.03549 7.08936H6.18881V4.93604C6.18881 4.75049 6.24496 4.59912 6.35727 4.48193C6.46957 4.36475 6.61361 4.30615 6.78939 4.30615C6.97494 4.30615 7.12387 4.36475 7.23617 4.48193C7.35336 4.59424 7.41195 4.74561 7.41195 4.93604V7.08936H9.5726C9.75814 7.08936 9.90707 7.14795 10.0194 7.26514C10.1366 7.37744 10.1952 7.52637 10.1952 7.71191C10.1952 7.8877 10.1366 8.03174 10.0194 8.14404C9.90707 8.25635 9.75814 8.3125 9.5726 8.3125H7.41195V10.4731C7.41195 10.6587 7.35336 10.8101 7.23617 10.9272C7.12387 11.0396 6.97494 11.0957 6.78939 11.0957C6.61361 11.0957 6.46957 11.0396 6.35727 10.9272C6.24496 10.8101 6.18881 10.6587 6.18881 10.4731V8.3125H4.03549C3.84994 8.3125 3.69857 8.25635 3.58139 8.14404C3.4642 8.03174 3.40561 7.8877 3.40561 7.71191Z" fill="#8E66FE"/>
</svg>
