<svg width="16" height="17" viewBox="0 0 16 17" fill="none" xmlns="http://www.w3.org/2000/svg">
<path d="M8 16.3359C12.3594 16.3359 15.9688 12.7266 15.9688 8.36719C15.9688 4.01562 12.3516 0.398438 7.99219 0.398438C3.64062 0.398438 0.03125 4.01562 0.03125 8.36719C0.03125 12.7266 3.64844 16.3359 8 16.3359ZM6.15625 5.35156C6.15625 4.33594 6.99219 3.51562 8 3.51562C9.01562 3.51562 9.84375 4.33594 9.84375 5.35156C9.84375 6.1875 9.29688 6.875 8.55469 7.09375V11.1328C8.55469 12.3359 8.375 13.375 8 13.375C7.63281 13.375 7.4375 12.3125 7.4375 11.1328V7.09375C6.70312 6.86719 6.15625 6.17969 6.15625 5.35156ZM6.94531 4.88281C6.94531 5.19531 7.21875 5.46875 7.52344 5.46875C7.84375 5.46875 8.10938 5.19531 8.10938 4.88281C8.10938 4.5625 7.84375 4.28906 7.52344 4.28906C7.21875 4.28906 6.9375 4.5625 6.94531 4.88281Z" fill="#8863F2"/>
</svg>
