<svg width="20" height="21" viewBox="0 0 20 21" fill="none" xmlns="http://www.w3.org/2000/svg">
<path d="M10 20.9102C15.4492 20.9102 19.9609 16.3887 19.9609 10.9492C19.9609 5.5 15.4395 0.988281 9.99023 0.988281C4.55078 0.988281 0.0390625 5.5 0.0390625 10.9492C0.0390625 16.3887 4.56055 20.9102 10 20.9102ZM8.30078 15.9883C7.91016 15.9883 7.62695 15.7148 7.62695 15.3242V14.3086H6.74805C6.45508 14.3086 6.25 14.1035 6.25 13.8105C6.25 13.5273 6.45508 13.3125 6.74805 13.3125H7.62695V12.3359H6.73828C6.43555 12.3359 6.24023 12.1113 6.24023 11.8281C6.24023 11.5449 6.43555 11.3301 6.73828 11.3301H7.62695V7.00391C7.62695 6.60352 7.89062 6.33008 8.29102 6.33008H10.6738C12.5586 6.33008 13.7402 7.59961 13.7402 9.32812C13.7402 11.0762 12.5488 12.3262 10.6641 12.3262H8.94531V13.3125H11.2988C11.5918 13.3125 11.7871 13.5273 11.7871 13.8105C11.7871 14.1035 11.5918 14.3086 11.2988 14.3086H8.94531V15.3242C8.94531 15.7148 8.68164 15.9883 8.30078 15.9883ZM8.95508 11.1445L10.4395 11.1641C11.7383 11.1641 12.4121 10.4609 12.4121 9.33789C12.4121 8.23438 11.748 7.54102 10.4395 7.54102H8.95508V11.1445Z" fill="#8E66FE"/>
</svg>
