<svg width="15" height="15" viewBox="0 0 15 15" fill="none" xmlns="http://www.w3.org/2000/svg">
<path d="M3.35059 14.626C1.73193 14.626 0.867676 13.7764 0.867676 12.1724V3.27344C0.867676 1.66943 1.73193 0.8125 3.35059 0.8125H12.1982C13.8242 0.8125 14.6812 1.66943 14.6812 3.27344V12.1724C14.6812 13.7764 13.8242 14.626 12.1982 14.626H3.35059ZM6.54395 11.4546C6.9248 11.4546 7.18848 11.1909 7.18848 10.8101V10.2607H8.7998C9.01953 10.2607 9.15869 10.1143 9.15869 9.90918C9.15869 9.7041 9.01953 9.55762 8.7998 9.55762H7.18848V8.8252H8.36035C9.78857 8.8252 10.7188 7.89502 10.7188 6.59131C10.7188 5.28027 9.81055 4.3501 8.39697 4.3501H6.54395C6.13379 4.3501 5.88477 4.60645 5.88477 5.03857V8.10742H5.24023C5.02051 8.10742 4.88135 8.25391 4.88135 8.46631C4.88135 8.67139 5.02051 8.8252 5.24023 8.8252H5.88477V9.55762H5.24756C5.02783 9.55762 4.896 9.7041 4.896 9.90918C4.896 10.1143 5.02783 10.2607 5.24756 10.2607H5.88477V10.8101C5.88477 11.1982 6.14844 11.4546 6.54395 11.4546ZM7.1958 7.74121V5.4707H8.14062C8.96094 5.4707 9.40039 5.91016 9.40039 6.60596C9.40039 7.30908 8.95361 7.75586 8.1333 7.75586L7.1958 7.74121Z" fill="#7C14DA"/>
</svg>
