<svg width="16" height="17" viewBox="0 0 16 17" fill="none" xmlns="http://www.w3.org/2000/svg">
<path d="M8.00879 8.33887C10.127 8.33887 11.8496 6.4668 11.8496 4.16406C11.8496 1.90527 10.1357 0.0947266 8.00879 0.0947266C5.89062 0.0947266 4.15039 1.92285 4.15918 4.18164C4.16797 6.47559 5.88184 8.33887 8.00879 8.33887ZM8.00879 6.81836C6.78711 6.81836 5.75879 5.68457 5.75 4.18164C5.75 2.72266 6.77832 1.61523 8.00879 1.61523C9.23926 1.61523 10.2588 2.70508 10.2588 4.16406C10.2588 5.66699 9.23047 6.81836 8.00879 6.81836ZM2.52441 16.5127H13.4844C14.9961 16.5127 15.7256 16.0381 15.7256 15.0098C15.7256 12.6016 12.7197 9.36719 8 9.36719C3.28027 9.36719 0.274414 12.6016 0.274414 15.0098C0.274414 16.0381 1.00391 16.5127 2.52441 16.5127ZM2.22559 14.9922C2.02344 14.9922 1.94434 14.9307 1.94434 14.7637C1.94434 13.4189 4.11523 10.8877 8 10.8877C11.8848 10.8877 14.0645 13.4189 14.0645 14.7637C14.0645 14.9307 13.9766 14.9922 13.7744 14.9922H2.22559Z" fill="#8E66FE"/>
</svg>
