<svg width="28" height="29" viewBox="0 0 28 29" fill="none" xmlns="http://www.w3.org/2000/svg">
<path opacity="0.26" d="M25.6666 9.6117V19.3884C25.6666 22.6667 24.1616 24.9183 21.5133 25.77C20.7433 26.0383 19.8566 26.1667 18.8883 26.1667H9.11158C8.14325 26.1667 7.25658 26.0383 6.48658 25.77C3.83825 24.9183 2.33325 22.6667 2.33325 19.3884V9.6117C2.33325 5.36504 4.86492 2.83337 9.11158 2.83337H18.8883C23.1349 2.83337 25.6666 5.36504 25.6666 9.6117Z" fill="#0970FF"/>
<path d="M21.5135 25.77C20.7435 26.0383 19.8568 26.1667 18.8885 26.1667H9.11182C8.14348 26.1667 7.25682 26.0383 6.48682 25.77C6.89515 22.69 10.1152 20.2983 14.0002 20.2983C17.8852 20.2983 21.1052 22.69 21.5135 25.77Z" fill="#0970FF"/>
<path d="M18.1766 14.0101C18.1766 16.3201 16.3099 18.1984 13.9999 18.1984C11.6899 18.1984 9.82324 16.3201 9.82324 14.0101C9.82324 11.7001 11.6899 9.83337 13.9999 9.83337C16.3099 9.83337 18.1766 11.7001 18.1766 14.0101Z" fill="#0970FF"/>
</svg>
