<svg width="18" height="18" viewBox="0 0 18 18" fill="none" xmlns="http://www.w3.org/2000/svg">
<circle cx="9" cy="9" r="9" fill="#8E66FE"/>
<path d="M11.1506 6H9.54C9.39 6 9.24563 6.05467 9.135 6.15307L7.29187 7.7931C7.29 7.79492 7.28813 7.79857 7.28625 7.80039C6.975 8.08466 6.98063 8.5384 7.24688 8.82085C7.485 9.07415 7.98563 9.14157 8.29875 8.87005C8.30063 8.86823 8.30438 8.86823 8.30625 8.86641L9.80438 7.53252C9.92625 7.425 10.1175 7.43229 10.2281 7.55074C10.3406 7.66919 10.3313 7.85323 10.2094 7.96257L9.72 8.39809L12.45 10.552C12.5044 10.5957 12.5531 10.6431 12.5981 10.6923V7.16624L11.5744 6.17129C11.4637 6.06196 11.31 6 11.1506 6ZM13.2 7.16989V11.2499C13.2 11.5725 13.4681 11.833 13.8 11.833H15V7.16989H13.2ZM14.1 11.2499C13.935 11.2499 13.8 11.1187 13.8 10.9584C13.8 10.798 13.935 10.6668 14.1 10.6668C14.265 10.6668 14.4 10.798 14.4 10.9584C14.4 11.1187 14.265 11.2499 14.1 11.2499ZM3 11.8312H4.2C4.53188 11.8312 4.8 11.5706 4.8 11.2481V7.16989H3V11.8312ZM3.9 10.6668C4.065 10.6668 4.2 10.798 4.2 10.9584C4.2 11.1187 4.065 11.2499 3.9 11.2499C3.735 11.2499 3.6 11.1187 3.6 10.9584C3.6 10.7962 3.735 10.6668 3.9 10.6668ZM12.0731 11.0057L9.27375 8.79716L8.71125 9.29828C8.15438 9.79211 7.30125 9.74474 6.80437 9.2181C6.3 8.68236 6.33938 7.85323 6.88688 7.36487L8.42063 6H6.84938C6.69 6 6.53813 6.06196 6.42563 6.17129L5.4 7.16624V11.2463H5.74313L7.44 12.7387C7.95375 13.1451 8.70937 13.0685 9.1275 12.5692L9.13125 12.5656L9.46688 12.848C9.765 13.0849 10.2056 13.0394 10.4475 12.7496L11.0363 12.0462L11.1375 12.1264C11.3944 12.3287 11.7731 12.2922 11.9813 12.0408L12.1594 11.8276C12.3694 11.5761 12.33 11.2098 12.0731 11.0057Z" fill="white"/>
</svg>
