<svg width="13" height="14" viewBox="0 0 13 14" fill="none" xmlns="http://www.w3.org/2000/svg">
<path fill-rule="evenodd" clip-rule="evenodd" d="M3.2392 0.5C1.45024 0.5 0 1.95024 0 3.7392V10.2608C0 12.0498 1.45024 13.5 3.2392 13.5H9.7608C11.5498 13.5 13 12.0498 13 10.2608V3.7392C13 1.95024 11.5498 0.5 9.7608 0.5H3.2392ZM5.40663 7.43686C5.3472 7.62257 5.31749 7.83057 5.31749 8.06086V8.49543H6.86634V8.19457C6.86634 8.05343 6.88863 7.93457 6.9332 7.838C6.97777 7.74143 7.05949 7.64114 7.17834 7.53714C7.30463 7.43314 7.47549 7.30686 7.69092 7.15829C7.99549 6.95029 8.24063 6.74971 8.42634 6.55657C8.61949 6.356 8.76063 6.14057 8.84977 5.91029C8.94634 5.68 8.99463 5.41629 8.99463 5.11914C8.99463 4.53971 8.77177 4.068 8.32606 3.704C7.88777 3.33257 7.2712 3.14686 6.47634 3.14686C5.95634 3.14686 5.47349 3.21371 5.02777 3.34743C4.58206 3.47371 4.16977 3.64829 3.79092 3.87114L4.45949 5.19714C4.79377 5.01886 5.11692 4.88143 5.42892 4.78486C5.74092 4.68829 6.04549 4.64 6.34263 4.64C6.61006 4.64 6.82177 4.69571 6.97777 4.80714C7.1412 4.91114 7.22292 5.05971 7.22292 5.25286C7.22292 5.37914 7.19692 5.50171 7.14492 5.62057C7.09292 5.732 7.00377 5.84714 6.87749 5.966C6.7512 6.08486 6.5692 6.226 6.33149 6.38943C6.07892 6.56029 5.87834 6.73114 5.72977 6.902C5.5812 7.06543 5.47349 7.24371 5.40663 7.43686ZM5.41777 9.62086C5.2172 9.762 5.11692 10.0146 5.11692 10.3786C5.11692 10.7203 5.2172 10.9691 5.41777 11.1251C5.61834 11.2811 5.8672 11.3591 6.16434 11.3591C6.4392 11.3591 6.67692 11.2811 6.87749 11.1251C7.08549 10.9691 7.18949 10.7203 7.18949 10.3786C7.18949 10.0146 7.08549 9.762 6.87749 9.62086C6.67692 9.47229 6.4392 9.398 6.16434 9.398C5.8672 9.398 5.61834 9.47229 5.41777 9.62086Z" fill="url(#paint0_linear_28697_30694)"/>
<defs>
<linearGradient id="paint0_linear_28697_30694" x1="12.9146" y1="13.5" x2="-2.61085" y2="6.37589" gradientUnits="userSpaceOnUse">
<stop stop-color="#7A0FD9"/>
<stop offset="1" stop-color="#695CF8"/>
</linearGradient>
</defs>
</svg>
