<svg width="13" height="13" viewBox="0 0 13 13" fill="none" xmlns="http://www.w3.org/2000/svg">
<path fill-rule="evenodd" clip-rule="evenodd" d="M3.2392 0C1.45024 0 0 1.45024 0 3.2392V9.7608C0 11.5498 1.45024 13 3.2392 13H9.7608C11.5498 13 13 11.5498 13 9.7608V3.2392C13 1.45024 11.5498 0 9.7608 0H3.2392ZM5.29207 7.4389V7.90681H6.96241V7.62932C6.96241 7.51325 6.9878 7.40988 7.03858 7.3192C7.09299 7.22852 7.18185 7.13421 7.30518 7.03627C7.43213 6.93834 7.60443 6.82045 7.82206 6.68262C8.13038 6.48312 8.37884 6.27999 8.56746 6.07324C8.75607 5.86649 8.89391 5.64523 8.98096 5.40946C9.06802 5.17369 9.11154 4.91434 9.11154 4.63142C9.11154 4.03655 8.88484 3.55776 8.43144 3.19503C7.97803 2.82868 7.33964 2.64551 6.51626 2.64551C5.96855 2.64551 5.46255 2.71624 4.99826 2.8577C4.53398 2.99554 4.09689 3.18234 3.68702 3.41811L4.44329 4.89802C4.80602 4.70578 5.14698 4.56069 5.46617 4.46275C5.789 4.36482 6.08824 4.31585 6.36391 4.31585C6.58518 4.31585 6.76472 4.36119 6.90256 4.45187C7.04039 4.53892 7.10931 4.65862 7.10931 4.81097C7.10931 4.9089 7.09117 5.00684 7.0549 5.10477C7.01863 5.19908 6.94246 5.30427 6.82639 5.42034C6.71031 5.53278 6.52895 5.66699 6.2823 5.82296C6.02477 5.98619 5.82346 6.14941 5.67837 6.31264C5.53328 6.47586 5.43172 6.64816 5.37368 6.82952C5.31927 7.01088 5.29207 7.21401 5.29207 7.4389ZM5.39 9.00042C5.16874 9.15639 5.05811 9.42662 5.05811 9.8111C5.05811 10.1775 5.16874 10.4422 5.39 10.6055C5.61489 10.7687 5.88693 10.8503 6.20613 10.8503C6.51082 10.8503 6.77379 10.7687 6.99505 10.6055C7.21994 10.4422 7.33239 10.1775 7.33239 9.8111C7.33239 9.42662 7.21994 9.15639 6.99505 9.00042C6.77379 8.84445 6.51082 8.76646 6.20613 8.76646C5.88693 8.76646 5.61489 8.84445 5.39 9.00042Z" fill="url(#paint0_linear_18700_2376)"/>
<defs>
<linearGradient id="paint0_linear_18700_2376" x1="12.9146" y1="13" x2="-2.61085" y2="5.87589" gradientUnits="userSpaceOnUse">
<stop stop-color="#7A0FD9"/>
<stop offset="1" stop-color="#695CF8"/>
</linearGradient>
</defs>
</svg>
