<svg width="14" height="14" viewBox="0 0 14 14" fill="none" xmlns="http://www.w3.org/2000/svg">
<path d="M12.3848 1.65039C11.6875 0.953125 10.7031 0.84375 9.53418 0.84375H4.37305C3.22461 0.84375 2.24023 0.953125 1.54297 1.65039C0.845703 2.34766 0.743164 3.3252 0.743164 4.4668V9.63477C0.743164 10.8037 0.845703 11.7744 1.54297 12.4717C2.24023 13.1689 3.22461 13.2783 4.38672 13.2783H9.53418C10.7031 13.2783 11.6875 13.1689 12.3848 12.4717C13.082 11.7744 13.1846 10.8037 13.1846 9.63477V4.4873C13.1846 3.31836 13.082 2.34082 12.3848 1.65039ZM6.82715 8.52734C6.45801 8.52734 6.25977 8.33594 6.25977 7.9668V7.87793C6.25977 7.18066 6.63574 6.81152 7.1416 6.45605C7.75684 6.02539 8.05762 5.79297 8.05762 5.31445C8.05762 4.78125 7.63379 4.41895 6.99805 4.41895C6.5332 4.41895 6.16406 4.65137 5.91113 5.06152L5.78809 5.23242C5.6582 5.39648 5.50781 5.5127 5.26855 5.5127C5.0293 5.5127 4.77637 5.3418 4.77637 5.02734C4.77637 4.9043 4.80371 4.78809 4.83789 4.67871C5.03613 4.0293 5.8291 3.46191 7.0459 3.46191C8.24902 3.46191 9.28809 4.08398 9.28809 5.25977C9.28809 6.10742 8.7959 6.51758 8.1123 6.96875C7.62695 7.29004 7.39453 7.54297 7.39453 7.93945V8.02148C7.39453 8.30176 7.18262 8.52734 6.82715 8.52734ZM6.80664 10.626C6.40332 10.626 6.04102 10.2979 6.04102 9.89453C6.04102 9.49121 6.39648 9.15625 6.80664 9.15625C7.22363 9.15625 7.57227 9.48438 7.57227 9.89453C7.57227 10.3047 7.2168 10.626 6.80664 10.626Z" fill="#A6A4A4"/>
</svg>
