<svg width="12" height="13" viewBox="0 0 12 13" fill="none" xmlns="http://www.w3.org/2000/svg">
<path d="M11.7352 10.3716C11.7352 10.0207 11.4512 9.7367 11.1003 9.7367H10.6433L10.0084 7.19718H10.4654C10.8163 7.19718 11.1003 6.91322 11.1003 6.5623C11.1003 6.21138 10.8163 5.92742 10.4654 5.92742H9.69094L9.05602 3.3879H9.51299C9.86393 3.3879 10.1479 3.10394 10.1479 2.75302C10.1479 2.4021 9.86393 2.11814 9.51299 2.11814H8.73856L8.54138 1.32949C8.45644 0.989116 8.11046 0.780792 7.77192 0.867593C7.43152 0.952534 7.22442 1.29725 7.30999 1.63701L7.43028 2.11814H4.61157L4.73186 1.63702C4.81743 1.29725 4.61033 0.952534 4.26993 0.8676C3.92891 0.780177 3.58479 0.9885 3.50046 1.3295L3.30329 2.11814H2.52886C2.17792 2.11814 1.89394 2.4021 1.89394 2.75302C1.89394 3.10394 2.17792 3.3879 2.52886 3.3879H2.98583L2.35091 5.92742H1.57648C1.22554 5.92742 0.941561 6.21138 0.941561 6.5623C0.941561 6.91322 1.22554 7.19718 1.57648 7.19718H2.03345L1.39853 9.7367H0.941561C0.590622 9.7367 0.306641 10.0207 0.306641 10.3716C0.306641 10.7225 0.590622 11.0065 0.941561 11.0065H1.08107L0.960787 11.4876C0.875219 11.8273 1.08232 12.1721 1.42272 12.257C1.47418 12.27 1.52626 12.2762 1.5771 12.2762C1.8617 12.2762 2.12026 12.084 2.19218 11.7951L2.38935 11.0065H9.6525L9.84967 11.7951C9.92159 12.084 10.1802 12.2762 10.4647 12.2762C10.5156 12.2762 10.5677 12.27 10.6191 12.257C10.9595 12.1721 11.1666 11.8273 11.0811 11.4876L10.9608 11.0065H11.1003C11.4512 11.0065 11.7352 10.7225 11.7352 10.3716ZM4.29411 3.3879H7.74773L8.38265 5.92742H3.65919L4.29411 3.3879ZM2.70681 9.7367L3.34173 7.19718H8.70011L9.33504 9.7367H2.70681Z" fill="url(#paint0_linear_29921_50221)"/>
<defs>
<linearGradient id="paint0_linear_29921_50221" x1="11.6601" y1="12.2762" x2="-1.98861" y2="6.01327" gradientUnits="userSpaceOnUse">
<stop stop-color="#7A0FD9"/>
<stop offset="1" stop-color="#695CF8"/>
</linearGradient>
</defs>
</svg>
