<svg width="20" height="20" viewBox="0 0 20 20" fill="none" xmlns="http://www.w3.org/2000/svg">
<path d="M7.79747 2.44336L1.40177 17.5573H3.67152L8.32152 2.44336H7.79747ZM11.6785 2.44336L16.3266 17.5573H18.5975L12.2025 2.44336H11.6785ZM8.66329 3.65855L8.54557 4.0383H11.4544L11.3367 3.65855H8.66329ZM5.62911 5.02564L5.46203 5.55728H5.73544L5.95949 5.02564H5.62911ZM8.24177 5.02564L8.07848 5.55728H11.9215L11.7582 5.02564H8.24177ZM14.0405 5.02564L14.2646 5.55728H14.5608L14.3937 5.02564H14.0405ZM4.48228 6.92437L4.25063 7.60792H4.86962L5.15823 6.92437H4.48228ZM7.65696 6.92437L7.4481 7.60792H12.5519L12.343 6.92437H7.65696ZM14.8418 6.92437L15.1304 7.60792H15.757L15.5329 6.92437H14.8418ZM3.12203 9.2788L2.8524 10.2661H3.74367L4.15949 9.2788H3.12203ZM6.93165 9.2788L6.62785 10.2661H13.3722L13.0684 9.2788H6.93165ZM15.8405 9.2788L16.2582 10.2661H17.1468L16.8772 9.2788H15.8405ZM1.91253 12.1649L1.62772 13.3041H2.45861L2.94051 12.1649H1.91253ZM6.04683 12.1649L5.69367 13.3041H14.3063L13.9532 12.1649H6.04683ZM17.0595 12.1649L17.5418 13.3041H18.3734L18.0886 12.1649H17.0595ZM1 15.8104V16.7522L1.39835 15.8104H1ZM4.92278 15.8104L4.38354 17.5573H15.6165L15.0772 15.8104H4.92278ZM18.6013 15.8104L19 16.7522V15.8104H18.6013Z" fill="#433A4B"/>
</svg>
