<svg width="15" height="15" viewBox="0 0 15 15" fill="none" xmlns="http://www.w3.org/2000/svg">
<path d="M14.3379 12.1668C14.3379 11.7369 13.99 11.3891 13.5601 11.3891H13.0003L12.2225 8.27817H12.7823C13.2122 8.27817 13.5601 7.93031 13.5601 7.50044C13.5601 7.07057 13.2122 6.72271 12.7823 6.72271H11.8337L11.0559 3.6118H11.6157C12.0456 3.6118 12.3934 3.26394 12.3934 2.83407C12.3934 2.40419 12.0456 2.05634 11.6157 2.05634H10.667L10.4255 1.09025C10.3214 0.673288 9.89756 0.418092 9.48285 0.524423C9.06586 0.628475 8.81218 1.05076 8.91699 1.46696L9.06435 2.05634H5.61143L5.75878 1.46697C5.86361 1.05076 5.60991 0.628475 5.19292 0.524431C4.77517 0.417337 4.35362 0.672533 4.25032 1.09026L4.00879 2.05634H3.06011C2.63021 2.05634 2.28234 2.40419 2.28234 2.83407C2.28234 3.26394 2.63021 3.6118 3.06011 3.6118H3.6199L2.84212 6.72271H1.89345C1.46355 6.72271 1.11567 7.07057 1.11567 7.50044C1.11567 7.93031 1.46355 8.27817 1.89345 8.27817H2.45324L1.67546 11.3891H1.11567C0.685767 11.3891 0.337891 11.7369 0.337891 12.1668C0.337891 12.5967 0.685767 12.9445 1.11567 12.9445H1.28657L1.13922 13.5339C1.0344 13.9501 1.28809 14.3724 1.70508 14.4765C1.76812 14.4924 1.83192 14.5 1.89421 14.5C2.24284 14.5 2.55957 14.2646 2.64768 13.9106L2.88921 12.9445H11.7866L12.0281 13.9106C12.1162 14.2646 12.4329 14.5 12.7816 14.5C12.8439 14.5 12.9077 14.4924 12.9707 14.4765C13.3877 14.3724 13.6414 13.9501 13.5366 13.5339L13.3892 12.9445H13.5601C13.99 12.9445 14.3379 12.5967 14.3379 12.1668ZM5.22254 3.6118H9.45323L10.231 6.72271H4.44477L5.22254 3.6118ZM3.2781 11.3891L4.05588 8.27817H10.6199L11.3977 11.3891H3.2781Z" fill="url(#paint0_linear_18523_35841)"/>
<defs>
<linearGradient id="paint0_linear_18523_35841" x1="14.2459" y1="14.5" x2="-2.47379" y2="6.82788" gradientUnits="userSpaceOnUse">
<stop stop-color="#7A0FD9"/>
<stop offset="1" stop-color="#695CF8"/>
</linearGradient>
</defs>
</svg>
