<svg width="17" height="17" viewBox="0 0 17 17" fill="none" xmlns="http://www.w3.org/2000/svg">
<path d="M8.50137 3.80923C8.37963 3.80923 8.2492 3.82662 8.12746 3.83532L8.37094 3.55706C8.60572 3.28749 8.57963 2.8701 8.31006 2.63532C8.0405 2.40054 7.62311 2.42662 7.38832 2.69619L5.93615 4.35706C5.92746 4.36575 5.92745 4.37445 5.91876 4.38315C5.91006 4.39184 5.90136 4.39184 5.90136 4.40054C5.88397 4.42662 5.87529 4.46141 5.85789 4.49619C5.8405 4.53967 5.8144 4.57445 5.80571 4.61793C5.79701 4.66141 5.79702 4.69619 5.78833 4.73967C5.78833 4.78315 5.77962 4.81793 5.77962 4.86141C5.77962 4.90488 5.79702 4.93967 5.81441 4.98315C5.82311 5.02662 5.8405 5.06141 5.85789 5.09619C5.87529 5.13097 5.91006 5.16575 5.93615 5.20054C5.96224 5.22662 5.97093 5.26141 5.99701 5.2788C6.00571 5.28749 6.0144 5.28749 6.0231 5.29619C6.0318 5.30488 6.0318 5.31358 6.0405 5.31358L7.72745 6.54836C7.8405 6.63532 7.97963 6.6701 8.11006 6.6701C8.31006 6.6701 8.51007 6.57445 8.6405 6.40054C8.8492 6.11358 8.78832 5.70488 8.50137 5.48749L8.01441 5.13097C8.17093 5.11358 8.33615 5.09619 8.50137 5.09619C10.5361 5.09619 12.197 6.75706 12.197 8.79184C12.197 10.8266 10.5361 12.4875 8.50137 12.4875C6.46658 12.4875 4.80571 10.8266 4.80571 8.79184C4.80571 8.05271 5.02311 7.34836 5.42311 6.73967C5.62311 6.44402 5.54484 6.03532 5.2405 5.83532C4.94484 5.63532 4.53616 5.71358 4.33616 6.01793C3.78833 6.84402 3.49268 7.80054 3.49268 8.79184C3.49268 11.5484 5.73615 13.7918 8.49268 13.7918C11.2492 13.7918 13.4927 11.5484 13.4927 8.79184C13.4927 6.03532 11.2579 3.80923 8.50137 3.80923Z" fill="#0A6EFA"/>
</svg>
