<svg width="12" height="14" viewBox="0 0 12 14" fill="none" xmlns="http://www.w3.org/2000/svg">
<path d="M0.866943 7.67383C0.866943 4.71484 3.21069 2.36523 6.1521 2.36523C6.35718 2.36523 6.56812 2.38867 6.7439 2.41797L5.57788 1.27539C5.45483 1.14062 5.3728 0.988281 5.3728 0.783203C5.3728 0.367188 5.69507 0.0332031 6.10522 0.0332031C6.3103 0.0332031 6.48022 0.109375 6.61499 0.25L9.00562 2.6875C9.15796 2.83398 9.23999 3.02734 9.23999 3.23242C9.23999 3.44336 9.16382 3.61914 9.00562 3.77734L6.61499 6.20312C6.48022 6.33203 6.3103 6.40234 6.10522 6.40234C5.69507 6.40234 5.3728 6.08008 5.3728 5.66992C5.3728 5.46484 5.45483 5.3125 5.58374 5.18359L6.9021 3.87695C6.67944 3.83594 6.42749 3.81836 6.1521 3.81836C4.03687 3.81836 2.37866 5.51172 2.37866 7.67383C2.37866 9.78906 4.07788 11.5 6.19897 11.5C8.32007 11.5 10.031 9.78906 10.031 7.67383C10.031 7.2168 10.3298 6.90039 10.7693 6.90039C11.2146 6.90039 11.531 7.2168 11.531 7.67383C11.531 10.627 9.1521 13.0117 6.19897 13.0117C3.25171 13.0117 0.866943 10.627 0.866943 7.67383Z" fill="#433A4B"/>
</svg>
