<svg width="38" height="38" viewBox="0 0 38 38" fill="none" xmlns="http://www.w3.org/2000/svg">
<rect width="38" height="38" rx="8" fill="#E16060"/>
<path d="M26.1193 26.2133C25.1341 27.1985 24.0177 27.9374 22.7702 28.4299C21.5272 28.9271 20.2428 29.1757 18.917 29.1757C17.5912 29.1757 16.3068 28.9317 15.0638 28.4437C13.8209 27.9466 12.7045 27.2031 11.7147 26.2133C10.7296 25.2282 9.99069 24.1164 9.49811 22.878C9.00553 21.6305 8.75694 20.3461 8.75234 19.0249C8.75234 17.699 9.00093 16.4146 9.49811 15.1717C9.99069 13.9241 10.7296 12.8078 11.7147 11.8226C12.6999 10.8374 13.8163 10.0986 15.0638 9.60598C16.3114 9.10419 17.5958 8.8556 18.917 8.8602C20.2428 8.8602 21.5295 9.10649 22.7771 9.59907C24.02 10.087 25.1341 10.8236 26.1193 11.8088C27.109 12.7985 27.8502 13.9172 28.3428 15.1648C28.8308 16.4077 29.0747 17.6921 29.0747 19.018C29.0794 20.3392 28.8331 21.6213 28.3359 22.8642C27.8433 24.1118 27.1044 25.2282 26.1193 26.2133ZM24.5379 24.632C25.3159 23.854 25.8983 22.9816 26.285 22.0149C26.6763 21.0435 26.8742 20.0445 26.8789 19.018C26.8789 17.9868 26.6855 16.9878 26.2988 16.021C25.9075 15.0497 25.3205 14.1727 24.5379 13.3901C23.7599 12.6121 22.8853 12.0321 21.9139 11.65C20.9426 11.2587 19.9413 11.063 18.9101 11.063C17.8835 11.0584 16.8845 11.2517 15.9132 11.6431C14.9464 12.0298 14.0717 12.6144 13.2891 13.397C12.5111 14.175 11.9265 15.0497 11.5352 16.021C11.1485 16.9878 10.9551 17.9868 10.9551 19.018C10.9597 20.0445 11.1577 21.0435 11.549 22.0149C11.9403 22.977 12.525 23.8471 13.303 24.6251C14.0856 25.4077 14.9602 25.997 15.927 26.3929C16.8937 26.7796 17.8927 26.9729 18.9239 26.9729C19.9505 26.9683 20.9472 26.7727 21.9139 26.386C22.8853 25.9946 23.7599 25.41 24.5379 24.632ZM15.7267 22.2013C15.5196 21.9942 15.416 21.7617 15.416 21.5039C15.4114 21.2415 15.5127 21.0067 15.7198 20.7995L17.5083 19.011L15.7198 17.2226C15.5173 17.02 15.416 16.7898 15.416 16.532C15.416 16.265 15.515 16.0325 15.7129 15.8346C15.9201 15.6274 16.1526 15.5239 16.4104 15.5239C16.6728 15.5192 16.9075 15.6205 17.1147 15.8277L18.9032 17.6162L20.6986 15.8208C20.9011 15.6182 21.1336 15.5192 21.396 15.5239C21.6538 15.5239 21.8863 15.6274 22.0935 15.8346C22.2914 16.0325 22.3927 16.2627 22.3973 16.5251C22.3973 16.7829 22.296 17.0131 22.0935 17.2157L20.2981 19.011L22.0935 20.8064C22.296 21.009 22.395 21.2415 22.3904 21.5039C22.3904 21.7617 22.2868 21.9942 22.0796 22.2013C21.8817 22.3993 21.6515 22.5005 21.3891 22.5052C21.1313 22.5052 20.9011 22.4039 20.6986 22.2013L18.9032 20.4059L17.1147 22.1944C16.9121 22.397 16.6797 22.5005 16.4173 22.5052C16.1549 22.5005 15.9247 22.3993 15.7267 22.2013Z" fill="white"/>
</svg>
