<svg width="17" height="21" viewBox="0 0 17 21" fill="none" xmlns="http://www.w3.org/2000/svg">
<path d="M0.286055 12.1699C0.286055 11.0742 0.488203 10.0488 0.8925 9.09375C1.2968 8.13867 1.85637 7.30078 2.57121 6.58008C3.29191 5.85938 4.1298 5.29688 5.08488 4.89258C6.03996 4.48828 7.06242 4.28613 8.15227 4.28613C8.35148 4.28613 8.54484 4.29492 8.73234 4.3125C8.9257 4.33008 9.10441 4.35352 9.26848 4.38281L7.30852 2.44922C7.22648 2.36133 7.16203 2.26465 7.11516 2.15918C7.06828 2.04785 7.04484 1.92773 7.04484 1.79883C7.04484 1.5293 7.13566 1.30078 7.3173 1.11328C7.49895 0.925781 7.72453 0.832031 7.99406 0.832031C8.26359 0.832031 8.48625 0.925781 8.66203 1.11328L12.2655 4.76953C12.4648 4.97461 12.5644 5.21191 12.5644 5.48145C12.5644 5.61621 12.538 5.74512 12.4853 5.86816C12.4384 5.98535 12.3652 6.09375 12.2655 6.19336L8.66203 9.83203C8.49211 10.0078 8.26945 10.0957 7.99406 10.0957C7.73039 10.0957 7.5048 10.0049 7.3173 9.82324C7.13566 9.63574 7.04484 9.41016 7.04484 9.14648C7.04484 9.01172 7.06828 8.8916 7.11516 8.78613C7.16203 8.68066 7.22941 8.58398 7.3173 8.49609L9.53215 6.29883C9.33293 6.25781 9.11613 6.22852 8.88176 6.21094C8.64738 6.1875 8.40422 6.17578 8.15227 6.17578C7.32609 6.17578 6.55559 6.33105 5.84074 6.6416C5.1259 6.94629 4.49895 7.37402 3.95988 7.9248C3.42082 8.46973 2.99895 9.10547 2.69426 9.83203C2.38957 10.5527 2.23723 11.332 2.23723 12.1699C2.23723 12.9961 2.38957 13.7725 2.69426 14.499C3.0048 15.2197 3.43254 15.8525 3.97746 16.3975C4.52238 16.9424 5.1552 17.3701 5.8759 17.6807C6.5966 17.9854 7.37297 18.1377 8.205 18.1377C9.03117 18.1377 9.80168 17.9854 10.5165 17.6807C11.2372 17.3701 11.87 16.9424 12.415 16.3975C12.9657 15.8525 13.3935 15.2197 13.6982 14.499C14.0087 13.7725 14.164 12.9961 14.164 12.1699C14.164 11.877 14.2519 11.6367 14.4277 11.4492C14.6034 11.2617 14.8349 11.168 15.122 11.168C15.4091 11.168 15.6464 11.2617 15.8339 11.4492C16.0214 11.6367 16.1152 11.877 16.1152 12.1699C16.1152 13.2715 15.9101 14.3027 15.4999 15.2637C15.0956 16.2188 14.5302 17.0596 13.8036 17.7861C13.0771 18.5068 12.2333 19.0723 11.2724 19.4824C10.3173 19.8926 9.29484 20.0977 8.205 20.0977C7.1093 20.0977 6.08098 19.8926 5.12004 19.4824C4.16496 19.0723 3.32414 18.5068 2.59758 17.7861C1.87687 17.0596 1.31145 16.2188 0.901289 15.2637C0.491133 14.3027 0.286055 13.2715 0.286055 12.1699Z" fill="#8E66FE"/>
</svg>
