<svg width="21" height="20" viewBox="0 0 21 20" fill="none" xmlns="http://www.w3.org/2000/svg">
<path d="M6.83203 16C5.73203 16 4.84203 16.9 4.84203 18C4.84203 19.1 5.73203 20 6.83203 20C7.93203 20 8.83203 19.1 8.83203 18C8.83203 16.9 7.93203 16 6.83203 16ZM0.832031 1C0.832031 1.55 1.28203 2 1.83203 2H2.83203L6.43203 9.59L5.08203 12.03C4.35203 13.37 5.31203 15 6.83203 15H17.832C18.382 15 18.832 14.55 18.832 14C18.832 13.45 18.382 13 17.832 13H6.83203L7.93203 11H15.382C16.132 11 16.792 10.59 17.132 9.97L20.712 3.48C20.7963 3.32843 20.8395 3.15747 20.8375 2.98406C20.8354 2.81064 20.7881 2.64077 20.7002 2.49126C20.6123 2.34175 20.4869 2.21778 20.3364 2.13162C20.1859 2.04546 20.0155 2.00009 19.842 2H5.04203L4.37203 0.570001C4.29166 0.399307 4.16433 0.255042 4.00494 0.154095C3.84555 0.0531475 3.6607 -0.000302861 3.47203 1.29085e-06H1.83203C1.28203 1.29085e-06 0.832031 0.450001 0.832031 1ZM16.832 16C15.732 16 14.842 16.9 14.842 18C14.842 19.1 15.732 20 16.832 20C17.932 20 18.832 19.1 18.832 18C18.832 16.9 17.932 16 16.832 16Z" fill="#AEAEAE"/>
</svg>
