<svg width="9" height="13" viewBox="0 0 9 13" fill="none" xmlns="http://www.w3.org/2000/svg">
<path d="M8.18833 6.56445C8.18833 6.89941 8.07212 7.17969 7.78501 7.45312L2.61704 12.5186C2.41196 12.7236 2.15903 12.8262 1.85825 12.8262C1.25669 12.8262 0.764503 12.3408 0.764503 11.7393C0.764503 11.4316 0.88755 11.1582 1.11314 10.9326L5.61802 6.55762L1.11314 2.18945C0.88755 1.9707 0.764503 1.69043 0.764503 1.38965C0.764503 0.794922 1.25669 0.302734 1.85825 0.302734C2.15903 0.302734 2.41196 0.405273 2.61704 0.610352L7.78501 5.67578C8.06528 5.94238 8.18833 6.22266 8.18833 6.56445Z" fill="#8E66FE"/>
</svg>
