<svg width="31" height="30" viewBox="0 0 31 30" fill="none" xmlns="http://www.w3.org/2000/svg">
<path d="M15.5 29.6162C13.4883 29.6162 11.5938 29.2305 9.81641 28.459C8.04883 27.6973 6.48633 26.6426 5.12891 25.2949C3.78125 23.9375 2.72168 22.375 1.9502 20.6074C1.18848 18.8301 0.807617 16.9355 0.807617 14.9238C0.807617 12.9121 1.18848 11.0225 1.9502 9.25488C2.72168 7.47754 3.78125 5.91504 5.12891 4.56738C6.47656 3.20996 8.03418 2.15039 9.80176 1.38867C11.5791 0.617187 13.4736 0.231445 15.4854 0.231445C17.4971 0.231445 19.3916 0.617187 21.1689 1.38867C22.9463 2.15039 24.5088 3.20996 25.8564 4.56738C27.2041 5.91504 28.2637 7.47754 29.0352 9.25488C29.8066 11.0225 30.1924 12.9121 30.1924 14.9238C30.1924 16.9355 29.8066 18.8301 29.0352 20.6074C28.2637 22.375 27.2041 23.9375 25.8564 25.2949C24.5088 26.6426 22.9463 27.6973 21.1689 28.459C19.4014 29.2305 17.5117 29.6162 15.5 29.6162ZM15.5 27.7266C17.2676 27.7266 18.9229 27.3945 20.4658 26.7305C22.0186 26.0664 23.3809 25.1484 24.5527 23.9766C25.7344 22.8047 26.6523 21.4473 27.3066 19.9043C27.9707 18.3516 28.3027 16.6914 28.3027 14.9238C28.3027 13.1562 27.9707 11.501 27.3066 9.95801C26.6426 8.40527 25.7246 7.04297 24.5527 5.87109C23.3809 4.68945 22.0186 3.77148 20.4658 3.11719C18.9229 2.45313 17.2627 2.12109 15.4854 2.12109C13.7178 2.12109 12.0576 2.45313 10.5049 3.11719C8.96191 3.77148 7.60449 4.68945 6.43262 5.87109C5.27051 7.04297 4.35742 8.40527 3.69336 9.95801C3.03906 11.501 2.71191 13.1562 2.71191 14.9238C2.71191 16.6914 3.03906 18.3516 3.69336 19.9043C4.35742 21.4473 5.27539 22.8047 6.44727 23.9766C7.61914 25.1484 8.97656 26.0664 10.5195 26.7305C12.0625 27.3945 13.7227 27.7266 15.5 27.7266ZM10.373 20.9736C10.1289 20.9736 9.91406 20.8857 9.72852 20.71C9.55273 20.5244 9.46484 20.3047 9.46484 20.0508C9.46484 19.7969 9.55762 19.582 9.74316 19.4062L14.1963 14.9385L9.74316 10.4707C9.55762 10.2949 9.46484 10.0801 9.46484 9.82617C9.46484 9.57227 9.55273 9.3623 9.72852 9.19629C9.91406 9.02051 10.1289 8.93262 10.373 8.93262C10.6367 8.93262 10.8613 9.02539 11.0469 9.21094L15.4854 13.6641L19.9678 9.21094C20.1631 9.00586 20.3779 8.90332 20.6123 8.90332C20.876 8.90332 21.0957 8.99121 21.2715 9.16699C21.4473 9.34277 21.5352 9.55762 21.5352 9.81152C21.5352 10.0654 21.4424 10.2852 21.2568 10.4707L16.7891 14.9385L21.2422 19.3916C21.4277 19.5771 21.5205 19.7969 21.5205 20.0508C21.5205 20.3047 21.4326 20.5244 21.2568 20.71C21.0811 20.8857 20.8662 20.9736 20.6123 20.9736C20.3584 20.9736 20.1338 20.8711 19.9385 20.666L15.4854 16.2275L11.0615 20.666C10.876 20.8711 10.6465 20.9736 10.373 20.9736Z" fill="#BBA3FE"/>
</svg>
