<svg width="20" height="19" viewBox="0 0 20 19" fill="none" xmlns="http://www.w3.org/2000/svg">
<path d="M9.99121 18.7334C8.74902 18.7334 7.58008 18.4961 6.48438 18.0215C5.38867 17.5527 4.42188 16.8994 3.58398 16.0615C2.75195 15.2236 2.09863 14.2568 1.62402 13.1611C1.14941 12.0654 0.912109 10.8965 0.912109 9.6543C0.912109 8.41211 1.14941 7.24316 1.62402 6.14746C2.09863 5.05176 2.75195 4.08789 3.58398 3.25586C4.42188 2.41797 5.38574 1.76172 6.47559 1.28711C7.57129 0.8125 8.74023 0.575195 9.98242 0.575195C11.2305 0.575195 12.4023 0.8125 13.498 1.28711C14.5938 1.76172 15.5605 2.41797 16.3984 3.25586C17.2363 4.08789 17.8926 5.05176 18.3672 6.14746C18.8418 7.24316 19.0791 8.41211 19.0791 9.6543C19.0791 10.8965 18.8418 12.0654 18.3672 13.1611C17.8926 14.2568 17.2363 15.2236 16.3984 16.0615C15.5605 16.8994 14.5938 17.5527 13.498 18.0215C12.4023 18.4961 11.2334 18.7334 9.99121 18.7334ZM8.4707 14.1631C8.68164 14.1631 8.85156 14.0986 8.98047 13.9697C9.10938 13.8408 9.17383 13.6709 9.17383 13.46V12.6953H11.1777C11.3125 12.6953 11.418 12.6543 11.4941 12.5723C11.5703 12.4902 11.6084 12.3848 11.6084 12.2559C11.6084 12.1328 11.5703 12.0303 11.4941 11.9482C11.418 11.8662 11.3125 11.8252 11.1777 11.8252H9.17383V10.9463H10.6328C11.4824 10.9463 12.1621 10.6943 12.6719 10.1904C13.1816 9.68652 13.4365 9.04199 13.4365 8.25684C13.4365 7.47754 13.1846 6.83594 12.6807 6.33203C12.1826 5.82227 11.5117 5.56738 10.668 5.56738H8.4707C8.25391 5.56738 8.08105 5.63477 7.95215 5.76953C7.8291 5.89844 7.76758 6.07422 7.76758 6.29688V10.0762H6.97656C6.8418 10.0762 6.73633 10.1172 6.66016 10.1992C6.58398 10.2812 6.5459 10.3838 6.5459 10.5068C6.5459 10.6357 6.58398 10.7441 6.66016 10.832C6.73633 10.9141 6.8418 10.9551 6.97656 10.9551H7.76758V11.8252H6.98535C6.85645 11.8252 6.75098 11.8662 6.66895 11.9482C6.59277 12.0303 6.55469 12.1328 6.55469 12.2559C6.55469 12.3848 6.59277 12.4902 6.66895 12.5723C6.75098 12.6543 6.85645 12.6953 6.98535 12.6953H7.76758V13.46C7.76758 13.6709 7.83203 13.8408 7.96094 13.9697C8.08984 14.0986 8.25977 14.1631 8.4707 14.1631ZM9.18262 9.75098V6.79785H10.3955C10.9287 6.79785 11.333 6.92969 11.6084 7.19336C11.8838 7.45703 12.0215 7.81738 12.0215 8.27441C12.0215 8.72559 11.8809 9.08594 11.5996 9.35547C11.3242 9.625 10.9229 9.75977 10.3955 9.75977L9.18262 9.75098Z" fill="#F9F7FF"/>
</svg>
