<svg width="16" height="17" viewBox="0 0 16 17" fill="none" xmlns="http://www.w3.org/2000/svg">
<path d="M0.367188 6.89062C0.367188 10.3281 3.16406 13.125 6.60156 13.125C7.96094 13.125 9.20312 12.6875 10.2266 11.9531L14.0703 15.8047C14.25 15.9844 14.4844 16.0703 14.7344 16.0703C15.2656 16.0703 15.6328 15.6719 15.6328 15.1484C15.6328 14.8984 15.5391 14.6719 15.375 14.5078L11.5547 10.6641C12.3594 9.61719 12.8359 8.3125 12.8359 6.89062C12.8359 3.45312 10.0391 0.65625 6.60156 0.65625C3.16406 0.65625 0.367188 3.45312 0.367188 6.89062ZM1.70312 6.89062C1.70312 4.1875 3.89844 1.99219 6.60156 1.99219C9.30469 1.99219 11.5 4.1875 11.5 6.89062C11.5 9.59375 9.30469 11.7891 6.60156 11.7891C3.89844 11.7891 1.70312 9.59375 1.70312 6.89062Z" fill="#8863F2"/>
</svg>
