<svg width="16" height="16" viewBox="0 0 16 16" fill="none" xmlns="http://www.w3.org/2000/svg">
<path d="M14.7502 14.7499L10.9628 10.9625M10.9628 10.9625C11.4503 10.475 11.837 9.89621 12.1009 9.25921C12.3647 8.62222 12.5005 7.9395 12.5005 7.25002C12.5005 6.56055 12.3647 5.87782 12.1009 5.24083C11.837 4.60384 11.4503 4.02506 10.9628 3.53752C10.4752 3.04999 9.89645 2.66326 9.25946 2.39941C8.62247 2.13556 7.93974 1.99976 7.25027 1.99976C6.56079 1.99976 5.87807 2.13556 5.24108 2.39941C4.60409 2.66326 4.0253 3.04999 3.53777 3.53752C2.55315 4.52214 2 5.85757 2 7.25002C2 8.64248 2.55315 9.97791 3.53777 10.9625C4.52238 11.9471 5.85781 12.5003 7.25027 12.5003C8.64273 12.5003 9.97815 11.9471 10.9628 10.9625Z" stroke="url(#paint0_linear_20182_18154)" stroke-width="2.25" stroke-linecap="round" stroke-linejoin="round"/>
<defs>
<linearGradient id="paint0_linear_20182_18154" x1="14.6664" y1="14.7499" x2="-0.560676" y2="7.76273" gradientUnits="userSpaceOnUse">
<stop stop-color="#7A0FD9"/>
<stop offset="1" stop-color="#695CF8"/>
</linearGradient>
</defs>
</svg>
