<svg width="19" height="18" viewBox="0 0 19 18" fill="none" xmlns="http://www.w3.org/2000/svg">
<path d="M2.17721 0.356818C1.39539 -0.0338697 0.530019 0.712068 0.800832 1.54288L2.55696 6.92632C2.60663 7.07841 2.69704 7.21397 2.81838 7.31825C2.93971 7.42254 3.08732 7.49156 3.24514 7.51782L10.1839 8.67413C10.5492 8.73538 10.5492 9.26038 10.1839 9.32163L3.24558 10.4779C3.08776 10.5042 2.94015 10.5732 2.81882 10.6775C2.69748 10.7818 2.60706 10.9174 2.55739 11.0694L0.800832 16.4559C0.529582 17.2872 1.39539 18.0331 2.17721 17.6424L17.7058 9.88032C18.4316 9.51719 18.4316 8.48163 17.7058 8.11894L2.17721 0.356818Z" fill="url(#paint0_linear_19016_9787)"/>
<defs>
<linearGradient id="paint0_linear_19016_9787" x1="18.1352" y1="17.7493" x2="-2.76425" y2="8.15867" gradientUnits="userSpaceOnUse">
<stop stop-color="#7A0FD9"/>
<stop offset="1" stop-color="#695CF8"/>
</linearGradient>
</defs>
</svg>
