<svg width="19" height="17" viewBox="0 0 19 17" fill="none" xmlns="http://www.w3.org/2000/svg">
<path d="M13.0448 5.41992C12.0693 5.41992 11.2343 4.83105 10.8652 3.9873H1.39934C0.88957 3.9873 0.485273 3.55664 0.485273 3.05566C0.485273 2.5459 0.88957 2.12402 1.39934 2.12402H10.8652C11.2255 1.28027 12.0693 0.682617 13.0448 0.682617C14.0204 0.682617 14.8642 1.28027 15.2333 2.12402H18.037C18.5204 2.12402 18.9247 2.53711 18.9247 3.05566C18.9247 3.55664 18.5204 3.9873 18.037 3.9873H15.2245C14.8642 4.83105 14.0204 5.41992 13.0448 5.41992ZM13.0448 4.16309C13.6777 4.16309 14.1611 3.6709 14.1611 3.04688C14.1611 2.42285 13.6777 1.93945 13.0448 1.93945C12.4296 1.93945 11.9374 2.42285 11.9374 3.04688C11.9374 3.6709 12.4296 4.16309 13.0448 4.16309ZM1.37297 7.66992H4.28215C4.6425 6.82617 5.48625 6.2373 6.46184 6.2373C7.43742 6.2373 8.28117 6.82617 8.64152 7.66992H18.0107C18.5204 7.66992 18.9247 8.0918 18.9247 8.60156C18.9247 9.11133 18.5204 9.5332 18.0107 9.5332H8.64152C8.28117 10.377 7.43742 10.9746 6.46184 10.9746C5.48625 10.9746 4.6425 10.377 4.28215 9.5332H1.37297C0.88957 9.5332 0.485273 9.10254 0.485273 8.60156C0.485273 8.0918 0.88957 7.66992 1.37297 7.66992ZM6.46184 9.71777C7.09465 9.71777 7.57805 9.22559 7.57805 8.60156C7.57805 7.96875 7.09465 7.49414 6.46184 7.49414C5.8466 7.49414 5.35441 7.96875 5.35441 8.60156C5.35441 9.22559 5.8466 9.71777 6.46184 9.71777ZM13.0448 16.5293C12.0693 16.5293 11.2255 15.9316 10.8652 15.0791H1.39934C0.88957 15.0791 0.485273 14.6484 0.485273 14.1562C0.485273 13.6465 0.88957 13.2246 1.39934 13.2246H10.8652C11.2343 12.3809 12.0693 11.7832 13.0448 11.7832C14.0292 11.7832 14.8642 12.3809 15.2245 13.2246H18.037C18.5204 13.2246 18.9247 13.6377 18.9247 14.1562C18.9247 14.6572 18.5204 15.0791 18.037 15.0791H15.2333C14.8642 15.9316 14.0204 16.5293 13.0448 16.5293ZM13.0448 15.2637C13.6777 15.2637 14.1611 14.7715 14.1611 14.1562C14.1611 13.5234 13.6777 13.04 13.0448 13.04C12.4296 13.04 11.9374 13.5234 11.9374 14.1562C11.9374 14.7715 12.4296 15.2637 13.0448 15.2637Z" fill="#8E66FE"/>
</svg>
