<svg width="22" height="22" viewBox="0 0 22 22" fill="none" xmlns="http://www.w3.org/2000/svg">
<path fill-rule="evenodd" clip-rule="evenodd" d="M15.2778 8.66821C16.5112 8.66821 17.5614 7.87971 17.9506 6.77958H19.0556C19.306 6.77958 19.5463 6.68009 19.7234 6.503C19.9005 6.3259 20 6.08571 20 5.83526C20 5.58481 19.9005 5.34462 19.7234 5.16753C19.5463 4.99044 19.306 4.89095 19.0556 4.89095H17.9506C17.7554 4.33802 17.3936 3.85922 16.9149 3.52055C16.4362 3.18187 15.8642 3 15.2778 3C14.6914 3 14.1194 3.18187 13.6407 3.52055C13.162 3.85922 12.8001 4.33802 12.605 4.89095H3.94444C3.69396 4.89095 3.45374 4.99044 3.27662 5.16753C3.0995 5.34462 3 5.58481 3 5.83526C3 6.08571 3.0995 6.3259 3.27662 6.503C3.45374 6.68009 3.69396 6.77958 3.94444 6.77958H12.605C12.8004 7.33215 13.1624 7.81053 13.6411 8.14878C14.1198 8.48704 14.6916 8.66852 15.2778 8.66821ZM15.2778 6.77958C15.0273 6.77958 14.7871 6.68009 14.61 6.503C14.4328 6.3259 14.3333 6.08571 14.3333 5.83526C14.3333 5.58481 14.4328 5.34462 14.61 5.16753C14.7871 4.99044 15.0273 4.89095 15.2778 4.89095C15.5283 4.89095 15.7685 4.99044 15.9456 5.16753C16.1227 5.34462 16.2222 5.58481 16.2222 5.83526C16.2222 6.08571 16.1227 6.3259 15.9456 6.503C15.7685 6.68009 15.5283 6.77958 15.2778 6.77958ZM7.72222 14.3341C8.27849 14.3342 8.82247 14.1705 9.28635 13.8636C9.75022 13.5566 10.1135 13.1199 10.3308 12.6079L10.3941 12.4455H19.0556C19.2963 12.4452 19.5278 12.353 19.7028 12.1878C19.8779 12.0226 19.9832 11.7968 19.9973 11.5565C20.0114 11.3162 19.9333 11.0796 19.7787 10.8951C19.6242 10.7105 19.4051 10.5919 19.1661 10.5635L19.0556 10.5568H10.395C10.2046 10.0183 9.85589 9.54988 9.39458 9.21296C8.93327 8.87605 8.38091 8.68637 7.80992 8.66881C7.23892 8.65125 6.67594 8.80662 6.1948 9.11456C5.71366 9.42249 5.33681 9.86861 5.11367 10.3944L5.04944 10.5568H3.94444C3.70372 10.5571 3.47219 10.6493 3.29715 10.8145C3.12211 10.9797 3.01678 11.2055 3.00267 11.4458C2.98856 11.6861 3.06675 11.9227 3.22125 12.1072C3.37575 12.2918 3.59491 12.4104 3.83394 12.4389L3.94444 12.4455H5.04944C5.24483 12.998 5.60682 13.4764 6.08552 13.8147C6.56421 14.1529 7.13605 14.3344 7.72222 14.3341ZM7.72222 12.4455C7.47174 12.4455 7.23152 12.346 7.0544 12.1689C6.87728 11.9918 6.77778 11.7516 6.77778 11.5012C6.77778 11.2507 6.87728 11.0105 7.0544 10.8334C7.23152 10.6563 7.47174 10.5568 7.72222 10.5568C7.9727 10.5568 8.21293 10.6563 8.39005 10.8334C8.56716 11.0105 8.66667 11.2507 8.66667 11.5012C8.66667 11.7516 8.56716 11.9918 8.39005 12.1689C8.21293 12.346 7.9727 12.4455 7.72222 12.4455ZM15.2778 20C16.5112 20 17.5614 19.2115 17.9506 18.1114H19.0556C19.306 18.1114 19.5463 18.0119 19.7234 17.8348C19.9005 17.6577 20 17.4175 20 17.1671C20 16.9166 19.9005 16.6764 19.7234 16.4993C19.5463 16.3222 19.306 16.2227 19.0556 16.2227H17.9506C17.7554 15.6698 17.3936 15.191 16.9149 14.8523C16.4362 14.5137 15.8642 14.3318 15.2778 14.3318C14.6914 14.3318 14.1194 14.5137 13.6407 14.8523C13.162 15.191 12.8001 15.6698 12.605 16.2227H3.94444C3.69396 16.2227 3.45374 16.3222 3.27662 16.4993C3.0995 16.6764 3 16.9166 3 17.1671C3 17.4175 3.0995 17.6577 3.27662 17.8348C3.45374 18.0119 3.69396 18.1114 3.94444 18.1114H12.605C12.8004 18.6639 13.1624 19.1423 13.6411 19.4806C14.1198 19.8188 14.6916 20.0003 15.2778 20ZM15.2778 18.1114C15.0273 18.1114 14.7871 18.0119 14.61 17.8348C14.4328 17.6577 14.3333 17.4175 14.3333 17.1671C14.3333 16.9166 14.4328 16.6764 14.61 16.4993C14.7871 16.3222 15.0273 16.2227 15.2778 16.2227C15.5283 16.2227 15.7685 16.3222 15.9456 16.4993C16.1227 16.6764 16.2222 16.9166 16.2222 17.1671C16.2222 17.4175 16.1227 17.6577 15.9456 17.8348C15.7685 18.0119 15.5283 18.1114 15.2778 18.1114Z" fill="url(#paint0_linear_30483_8640)"/>
<defs>
<linearGradient id="paint0_linear_30483_8640" x1="19.8883" y1="3" x2="-0.414185" y2="12.3161" gradientUnits="userSpaceOnUse">
<stop stop-color="#7A0FD9"/>
<stop offset="1" stop-color="#695CF8"/>
</linearGradient>
</defs>
</svg>
