<svg width="15" height="20" viewBox="0 0 15 20" fill="none" xmlns="http://www.w3.org/2000/svg">
<path fill-rule="evenodd" clip-rule="evenodd" d="M8.18159 0.372239L11.7551 4.25637C11.9916 4.51238 11.9572 4.89763 11.6775 5.11544C11.5531 5.21216 11.4022 5.2593 11.2504 5.2593C11.0625 5.2593 10.8763 5.18696 10.7448 5.04392L8.16218 2.23587V13.2072C8.16218 13.5436 7.8657 13.8167 7.50041 13.8167C7.13512 13.8167 6.83865 13.5436 6.83865 13.2072V2.24319L4.25512 5.05123C4.12453 5.19265 3.93747 5.2658 3.75041 5.2658C3.59865 5.2658 3.44688 5.21866 3.32159 5.12113C3.04365 4.90413 3.00923 4.51888 3.24482 4.26206L6.81923 0.377928C6.82256 0.374337 6.82728 0.368803 6.83338 0.361668C6.90177 0.281608 7.14232 0 7.50041 0C7.86383 0 8.09657 0.272879 8.16663 0.355017C8.17295 0.36242 8.17794 0.368274 8.18159 0.372239ZM2.42647 20.0004H12.5735C13.9121 20.0004 15 18.9983 15 17.7654V9.54758C15 8.31464 13.9121 7.31252 12.5735 7.31252H10.7938V8.53164H12.5735C13.1815 8.53164 13.6765 8.9876 13.6765 9.54758V17.7654C13.6765 18.3254 13.1815 18.7813 12.5735 18.7813H2.42647C1.81853 18.7813 1.32353 18.3254 1.32353 17.7654V9.54758C1.32353 8.9876 1.81853 8.53164 2.42647 8.53164H4.24323V7.31252H2.42647C1.08794 7.31252 0 8.31464 0 9.54758V17.7654C0 18.9983 1.08794 20.0004 2.42647 20.0004Z" fill="#EFEBDE"/>
</svg>
