<svg width="18" height="18" viewBox="0 0 18 18" fill="none" xmlns="http://www.w3.org/2000/svg">
<path d="M9 15.375H5.25C3 15.375 1.5 14.25 1.5 11.625V6.375C1.5 3.75 3 2.625 5.25 2.625H12.75C15 2.625 16.5 3.75 16.5 6.375V8.625" stroke="#6E7A89" stroke-width="1.125" stroke-miterlimit="10" stroke-linecap="round" stroke-linejoin="round"/>
<path d="M12.75 6.75L10.4025 8.625C9.63 9.24 8.3625 9.24 7.59 8.625L5.25 6.75" stroke="#6E7A89" stroke-width="1.125" stroke-miterlimit="10" stroke-linecap="round" stroke-linejoin="round"/>
<path d="M14.4073 11.0775L11.7523 13.7325C11.6473 13.8375 11.5498 14.0325 11.5273 14.175L11.3848 15.1875C11.3323 15.555 11.5873 15.81 11.9548 15.7575L12.9673 15.615C13.1098 15.5925 13.3123 15.495 13.4098 15.39L16.0648 12.735C16.5223 12.2775 16.7398 11.745 16.0648 11.07C15.3973 10.4025 14.8648 10.62 14.4073 11.0775Z" stroke="#6E7A89" stroke-width="1.125" stroke-miterlimit="10" stroke-linecap="round" stroke-linejoin="round"/>
<path d="M14.0254 11.46C14.2504 12.27 14.8804 12.9 15.6904 13.125" stroke="#6E7A89" stroke-width="1.125" stroke-miterlimit="10" stroke-linecap="round" stroke-linejoin="round"/>
</svg>
