<svg width="16" height="15" viewBox="0 0 16 15" fill="none" xmlns="http://www.w3.org/2000/svg">
<path d="M3.25781 14.5625C1.625 14.5625 0.804688 13.7578 0.804688 12.1406V2.60156C0.804688 0.984375 1.625 0.179688 3.25781 0.179688H12.7344C14.375 0.179688 15.1875 0.992188 15.1875 2.60156V12.1406C15.1875 13.75 14.375 14.5625 12.7344 14.5625H3.25781ZM3.27344 13.3047H12.7188C13.4922 13.3047 13.9297 12.8906 13.9297 12.0781V2.66406C13.9297 1.85156 13.4922 1.4375 12.7188 1.4375H3.27344C2.49219 1.4375 2.0625 1.85156 2.0625 2.66406V12.0781C2.0625 12.8906 2.49219 13.3047 3.27344 13.3047ZM11.375 7.35156C11.0703 7.35156 10.8281 7.10938 10.8281 6.80469V6.42188L10.9062 5.1875L9.21875 6.96094C8.98438 7.21094 8.61719 7.20312 8.38281 6.96875C8.15625 6.74219 8.16406 6.35938 8.39062 6.14062L10.1562 4.46094L8.96094 4.53906H8.57812C8.27344 4.53906 8.02344 4.29688 8.02344 3.99219C8.02344 3.6875 8.27344 3.4375 8.57812 3.4375H11.2812C11.6875 3.4375 11.9297 3.61719 11.9297 4.08594V6.80469C11.9297 7.10938 11.6797 7.35156 11.375 7.35156ZM7.42969 11.2969H4.71875C4.3125 11.2969 4.07812 11.1172 4.07812 10.6484V7.92969C4.07812 7.625 4.32031 7.38281 4.625 7.38281C4.92969 7.38281 5.17969 7.625 5.17969 7.92969V8.3125L5.10156 9.54688L6.78906 7.77344C7.01562 7.52344 7.39062 7.53125 7.61719 7.76562C7.84375 7.99219 7.83594 8.375 7.60938 8.59375L5.85156 10.2734L7.04688 10.1953H7.42969C7.73438 10.1953 7.97656 10.4375 7.97656 10.7422C7.97656 11.0469 7.73438 11.2969 7.42969 11.2969Z" fill="#8863F2"/>
</svg>
