<svg width="20" height="20" viewBox="0 0 20 20" fill="none" xmlns="http://www.w3.org/2000/svg">
<path d="M9.99121 18.9421C8.74902 18.9421 7.58008 18.7048 6.48438 18.2302C5.38867 17.7615 4.42188 17.1082 3.58398 16.2703C2.75195 15.4324 2.09863 14.4656 1.62402 13.3699C1.14941 12.2742 0.912109 11.1052 0.912109 9.86304C0.912109 8.62085 1.14941 7.4519 1.62402 6.3562C2.09863 5.2605 2.75195 4.29663 3.58398 3.4646C4.42188 2.62671 5.38574 1.97046 6.47559 1.49585C7.57129 1.02124 8.74023 0.783936 9.98242 0.783936C11.2305 0.783936 12.4023 1.02124 13.498 1.49585C14.5938 1.97046 15.5605 2.62671 16.3984 3.4646C17.2363 4.29663 17.8926 5.2605 18.3672 6.3562C18.8418 7.4519 19.0791 8.62085 19.0791 9.86304C19.0791 11.1052 18.8418 12.2742 18.3672 13.3699C17.8926 14.4656 17.2363 15.4324 16.3984 16.2703C15.5605 17.1082 14.5938 17.7615 13.498 18.2302C12.4023 18.7048 11.2334 18.9421 9.99121 18.9421ZM5.30664 9.48511V13.1414C5.30664 13.3113 5.35938 13.4431 5.46484 13.5369C5.57031 13.6248 5.69629 13.6687 5.84277 13.6687C5.97754 13.6628 6.09766 13.616 6.20312 13.5281C6.31445 13.4343 6.37012 13.3054 6.37012 13.1414V8.59741H6.19434C5.93652 8.59741 5.72266 8.67358 5.55273 8.82593C5.38867 8.97827 5.30664 9.198 5.30664 9.48511ZM6.75684 14.3279H13.3047C13.75 14.3279 14.084 14.2166 14.3066 13.9939C14.5352 13.7712 14.6494 13.4402 14.6494 13.0007V6.73413C14.6494 6.29468 14.5352 5.96362 14.3066 5.74097C14.084 5.51831 13.75 5.40698 13.3047 5.40698H8.52344C8.07227 5.40698 7.73535 5.51831 7.5127 5.74097C7.29004 5.96362 7.17871 6.29468 7.17871 6.73413V13.5105C7.17871 13.9089 7.03809 14.1814 6.75684 14.3279ZM8.93652 7.98218C8.85449 7.98218 8.78418 7.95288 8.72559 7.89429C8.67285 7.83569 8.64648 7.76538 8.64648 7.68335C8.64648 7.49585 8.74316 7.4021 8.93652 7.4021H12.8916C13.0908 7.4021 13.1904 7.49585 13.1904 7.68335C13.1904 7.76538 13.1611 7.83569 13.1025 7.89429C13.0498 7.95288 12.9795 7.98218 12.8916 7.98218H8.93652ZM8.93652 9.40601C8.74316 9.40601 8.64648 9.31226 8.64648 9.12476C8.64648 8.9314 8.74316 8.83472 8.93652 8.83472H12.8916C12.9795 8.83472 13.0498 8.86108 13.1025 8.91382C13.1611 8.96655 13.1904 9.03687 13.1904 9.12476C13.1904 9.31226 13.0908 9.40601 12.8916 9.40601H8.93652ZM11.4502 10.865C11.3682 10.865 11.2979 10.8357 11.2393 10.7771C11.1865 10.7185 11.1602 10.6541 11.1602 10.5837C11.1602 10.4958 11.1865 10.4255 11.2393 10.3728C11.2979 10.3142 11.3682 10.2849 11.4502 10.2849H12.8916C13.085 10.2849 13.1816 10.3845 13.1816 10.5837C13.1816 10.6541 13.1553 10.7185 13.1025 10.7771C13.0498 10.8357 12.9795 10.865 12.8916 10.865H11.4502ZM11.4502 12.2888C11.3682 12.2888 11.2979 12.2625 11.2393 12.2097C11.1865 12.157 11.1602 12.0867 11.1602 11.9988C11.1602 11.9167 11.1865 11.8494 11.2393 11.7966C11.2979 11.738 11.3682 11.7087 11.4502 11.7087H12.8916C12.9795 11.7087 13.0498 11.738 13.1025 11.7966C13.1553 11.8494 13.1816 11.9167 13.1816 11.9988C13.1816 12.0867 13.1553 12.157 13.1025 12.2097C13.0498 12.2625 12.9795 12.2888 12.8916 12.2888H11.4502ZM9.12109 12.2888C8.96875 12.2888 8.84863 12.2449 8.76074 12.157C8.67871 12.0691 8.6377 11.949 8.6377 11.7966V10.7771C8.6377 10.449 8.79883 10.2849 9.12109 10.2849H10.1143C10.4541 10.2849 10.624 10.449 10.624 10.7771V11.7966C10.624 11.949 10.5771 12.0691 10.4834 12.157C10.3955 12.2449 10.2725 12.2888 10.1143 12.2888H9.12109Z" fill="#8E66FE"/>
</svg>
