<svg width="20" height="19" viewBox="0 0 20 19" fill="none" xmlns="http://www.w3.org/2000/svg">
<path d="M10 18.7422C5.03418 18.7422 0.920898 14.6377 0.920898 9.66309C0.920898 4.69727 5.02539 0.583984 9.99121 0.583984C14.9658 0.583984 19.0791 4.69727 19.0791 9.66309C19.0791 14.6377 14.9658 18.7422 10 18.7422ZM6.42285 11.3418C6.42285 11.7549 6.69531 12.0186 7.1084 12.0186H9.39355V13.6182C9.39355 14.5146 9.82422 15.4111 10.0088 15.4111C10.1846 15.4111 10.624 14.5146 10.624 13.6182V12.0186H12.9092C13.3223 12.0186 13.5947 11.7549 13.5947 11.3418C13.5947 10.3838 12.7861 9.37305 11.5117 8.91602L11.3711 6.81543C12.0303 6.44629 12.5576 6.0332 12.7949 5.73438C12.918 5.56738 12.9883 5.40039 12.9883 5.25098C12.9883 4.95215 12.7598 4.74121 12.4258 4.74121H7.5918C7.25781 4.74121 7.0293 4.95215 7.0293 5.25098C7.0293 5.40039 7.09961 5.56738 7.23145 5.73438C7.46875 6.0332 7.9873 6.44629 8.64648 6.81543L8.49707 8.91602C7.23145 9.37305 6.42285 10.3838 6.42285 11.3418Z" fill="#8E66FE"/>
</svg>
