<svg width="27" height="27" viewBox="0 0 27 27" fill="none" xmlns="http://www.w3.org/2000/svg">
<path d="M13.5308 0H13.4692C6.03038 0 0 6.03217 0 13.4732V13.5347C0 20.9758 6.03038 27.008 13.4692 27.008H13.5308C20.9696 27.008 27 20.9758 27 13.5347V13.4732C27 6.03217 20.9696 0 13.5308 0Z" fill="#00B0F2"/>
<path d="M6.7915 13.1731C6.8212 13.1583 6.85092 13.1442 6.87989 13.1308C7.3834 12.8975 7.89359 12.6791 8.40304 12.4607C8.43052 12.4607 8.47655 12.4288 8.50255 12.4184C8.54191 12.4013 8.58127 12.385 8.62063 12.3679L8.84714 12.2706C8.99864 12.2059 9.14939 12.1413 9.30088 12.0767C9.60314 11.9474 9.90539 11.8182 10.2076 11.6882C10.8122 11.4296 11.4174 11.1704 12.0219 10.9119C12.6264 10.6534 13.2317 10.3941 13.8362 10.1356C14.4407 9.87706 15.046 9.61781 15.6505 9.35929C16.255 9.10078 16.8602 8.84152 17.4647 8.583C17.5992 8.52506 17.7447 8.43889 17.8888 8.41363C18.0098 8.39209 18.1279 8.35049 18.2497 8.32746C18.4807 8.28363 18.7354 8.2658 18.9567 8.36163C19.0332 8.39506 19.1037 8.44186 19.1624 8.50055C19.4431 8.77837 19.4038 9.23449 19.3444 9.62523C18.9307 12.3486 18.5171 15.0726 18.1027 17.7959C18.0462 18.1696 17.969 18.5797 17.6742 18.8159C17.4246 19.0157 17.0696 19.038 16.7614 18.9533C16.4533 18.8679 16.1815 18.6889 15.9148 18.5128C14.8091 17.7803 13.7025 17.0479 12.5967 16.3154C12.3338 16.1416 12.0412 15.9143 12.0442 15.5986C12.0457 15.4084 12.1593 15.239 12.2752 15.0882C13.2361 13.8343 14.6227 12.9726 15.6542 11.7766C15.7997 11.6079 15.9141 11.3034 15.7143 11.206C15.5955 11.1481 15.4589 11.2268 15.3504 11.3019C13.9869 12.249 12.6242 13.1969 11.2607 14.144C10.8159 14.4531 10.3495 14.771 9.81332 14.8468C9.33357 14.9151 8.85086 14.7814 8.38671 14.6447C7.99756 14.5303 7.60915 14.413 7.22223 14.2919C7.01652 14.228 6.80413 14.1589 6.6452 14.014C6.48628 13.8692 6.39494 13.6255 6.49074 13.4324C6.5509 13.3113 6.66749 13.2348 6.79003 13.1724L6.7915 13.1731Z" fill="#FEFFFC"/>
</svg>
