<svg width="13" height="13" viewBox="0 0 13 13" fill="none" xmlns="http://www.w3.org/2000/svg">
<path d="M6.41992 12.3223C3.10938 12.3223 0.367188 9.58594 0.367188 6.26953C0.367188 2.95898 3.10352 0.216797 6.41406 0.216797C9.73047 0.216797 12.4727 2.95898 12.4727 6.26953C12.4727 9.58594 9.73047 12.3223 6.41992 12.3223ZM3.45508 6.99609H6.41406C6.67773 6.99609 6.88281 6.79102 6.88281 6.5332V2.68945C6.88281 2.43164 6.67773 2.22656 6.41406 2.22656C6.15625 2.22656 5.95117 2.43164 5.95117 2.68945V6.07031H3.45508C3.19141 6.07031 2.99219 6.26953 2.99219 6.5332C2.99219 6.79102 3.19141 6.99609 3.45508 6.99609Z" fill="#433A4B"/>
</svg>
