<svg width="13" height="13" viewBox="0 0 13 13" fill="none" xmlns="http://www.w3.org/2000/svg">
<path d="M6.10156 12.2222C2.79102 12.2222 0.0488281 9.48584 0.0488281 6.16943C0.0488281 2.85889 2.78516 0.116699 6.0957 0.116699C9.41211 0.116699 12.1543 2.85889 12.1543 6.16943C12.1543 9.48584 9.41211 12.2222 6.10156 12.2222ZM6.10156 11.0327C8.79688 11.0327 10.9648 8.86475 10.9648 6.16943C10.9648 3.47412 8.79102 1.31201 6.0957 1.31201C3.40039 1.31201 1.24414 3.47412 1.24414 6.16943C1.24414 8.86475 3.40625 11.0327 6.10156 11.0327ZM3.13672 6.896C2.87305 6.896 2.67383 6.69092 2.67383 6.43311C2.67383 6.16943 2.87305 5.97021 3.13672 5.97021H5.63281V2.58936C5.63281 2.33154 5.83789 2.12646 6.0957 2.12646C6.35938 2.12646 6.56445 2.33154 6.56445 2.58936V6.43311C6.56445 6.69092 6.35938 6.896 6.0957 6.896H3.13672Z" fill="#7A0FD9"/>
</svg>
