<svg width="20" height="19" viewBox="0 0 20 19" fill="none" xmlns="http://www.w3.org/2000/svg">
<path d="M10 18.7422C5.03418 18.7422 0.920898 14.6377 0.920898 9.66309C0.920898 4.69727 5.02539 0.583984 9.99121 0.583984C14.9658 0.583984 19.0791 4.69727 19.0791 9.66309C19.0791 14.6377 14.9658 18.7422 10 18.7422ZM5.08691 13.0205C5.08691 13.4951 5.39453 13.7939 5.86035 13.7939H14.3066C14.6143 13.7939 14.8691 13.5479 14.8691 13.2402C14.8691 12.9326 14.6143 12.6777 14.3066 12.6777H6.29102C6.23828 12.6777 6.21191 12.6514 6.21191 12.5898V10.8496L7.89941 9.14453C7.94336 9.0918 7.97852 9.0918 8.03125 9.14453L9.53418 10.7002C9.75391 10.9287 9.99121 11.0342 10.2549 11.0342C10.5186 11.0342 10.7646 10.9199 10.9844 10.7002L12.6543 8.98633L13.252 9.60156C13.498 9.84766 13.876 9.71582 13.9727 9.34668L14.6318 6.78906C14.7197 6.46387 14.4209 6.18262 14.0869 6.26172L11.5381 6.91211C11.1777 7.00879 11.0371 7.38672 11.292 7.62402L11.8896 8.21289L10.3252 9.80371C10.2812 9.86523 10.2461 9.86523 10.2021 9.8125L8.68164 8.23926C8.46191 8.01953 8.22461 7.90527 7.96094 7.90527C7.68848 7.90527 7.46875 8.02832 7.24902 8.23926L6.21191 9.29395V5.84863C6.21191 5.54102 5.95703 5.28613 5.64941 5.28613C5.3418 5.28613 5.08691 5.54102 5.08691 5.84863V13.0205Z" fill="#6E0EC4"/>
</svg>

