<svg width="20" height="20" viewBox="0 0 20 20" fill="none" xmlns="http://www.w3.org/2000/svg">
<path d="M9.99121 18.9424C8.74902 18.9424 7.58008 18.7051 6.48438 18.2305C5.38867 17.7617 4.42188 17.1084 3.58398 16.2705C2.75195 15.4326 2.09863 14.4658 1.62402 13.3701C1.14941 12.2744 0.912109 11.1055 0.912109 9.86328C0.912109 8.62109 1.14941 7.45215 1.62402 6.35645C2.09863 5.26074 2.75195 4.29688 3.58398 3.46484C4.42188 2.62695 5.38574 1.9707 6.47559 1.49609C7.57129 1.02148 8.74023 0.78418 9.98242 0.78418C11.2305 0.78418 12.4023 1.02148 13.498 1.49609C14.5938 1.9707 15.5605 2.62695 16.3984 3.46484C17.2363 4.29688 17.8926 5.26074 18.3672 6.35645C18.8418 7.45215 19.0791 8.62109 19.0791 9.86328C19.0791 11.1055 18.8418 12.2744 18.3672 13.3701C17.8926 14.4658 17.2363 15.4326 16.3984 16.2705C15.5605 17.1084 14.5938 17.7617 13.498 18.2305C12.4023 18.7051 11.2334 18.9424 9.99121 18.9424ZM5.08691 13.2207C5.08691 13.4551 5.15723 13.6426 5.29785 13.7832C5.43848 13.9238 5.62598 13.9941 5.86035 13.9941H14.3066C14.459 13.9941 14.5908 13.9414 14.7021 13.8359C14.8135 13.7246 14.8691 13.5898 14.8691 13.4316C14.8691 13.2793 14.8135 13.1504 14.7021 13.0449C14.5908 12.9336 14.459 12.8779 14.3066 12.8779H6.29102C6.23828 12.8779 6.21191 12.8486 6.21191 12.79V11.041L7.89941 9.33594C7.94043 9.28906 7.98145 9.28906 8.02246 9.33594L9.52539 10.9004C9.74805 11.1172 9.99121 11.2256 10.2549 11.2256C10.5127 11.2256 10.7529 11.1172 10.9756 10.9004L12.6543 9.17773L13.252 9.79297C13.375 9.92188 13.5127 9.95996 13.665 9.90723C13.8232 9.85449 13.9258 9.73438 13.9727 9.54688L14.623 6.98926C14.6699 6.8252 14.6318 6.6875 14.5088 6.57617C14.3916 6.45898 14.251 6.4209 14.0869 6.46191L11.5381 7.10352C11.3564 7.15625 11.2363 7.25879 11.1777 7.41113C11.125 7.56348 11.1631 7.69824 11.292 7.81543L11.8809 8.41309L10.3164 10.0039C10.2812 10.0566 10.2402 10.0596 10.1934 10.0127L8.67285 8.43945C8.46191 8.2168 8.22168 8.10547 7.95215 8.10547C7.70605 8.10547 7.47168 8.2168 7.24902 8.43945L6.21191 9.48535V6.04883C6.21191 5.89648 6.15625 5.76465 6.04492 5.65332C5.93359 5.54199 5.80176 5.48633 5.64941 5.48633C5.49121 5.48633 5.35645 5.54199 5.24512 5.65332C5.13965 5.76465 5.08691 5.89648 5.08691 6.04883V13.2207Z" fill="white"/>
</svg>
