<svg width="12" height="13" viewBox="0 0 12 13" fill="none" xmlns="http://www.w3.org/2000/svg">
<path fill-rule="evenodd" clip-rule="evenodd" d="M4.125 1.5C4.125 1.22386 4.34886 1 4.625 1H6.625C6.90114 1 7.125 1.22386 7.125 1.5C7.125 1.77614 7.34886 2 7.625 2C7.90114 2 8.125 1.77614 8.125 1.5C8.125 0.671573 7.45343 0 6.625 0H4.625C3.79657 0 3.125 0.671573 3.125 1.5C3.125 1.77614 3.34886 2 3.625 2C3.90114 2 4.125 1.77614 4.125 1.5ZM10.6243 3.75H10.5737L9.99931 10.625C9.99934 11.1033 9.81661 11.5634 9.48851 11.9114C9.16041 12.2594 8.71174 12.4688 8.23431 12.4969L8.12431 12.5H3.12431C2.12556 12.5 1.30931 11.7194 1.25431 10.7812L1.25118 10.6769L0.674308 3.75H0.624308C0.465008 3.74982 0.311788 3.68883 0.195952 3.57947C0.0801174 3.47011 0.0104107 3.32065 0.00107502 3.16163C-0.00826068 3.0026 0.0434792 2.84601 0.145723 2.72385C0.247967 2.6017 0.392998 2.52319 0.551183 2.50437L0.624308 2.5H10.6243C10.7836 2.50018 10.9368 2.56117 11.0527 2.67053C11.1685 2.77989 11.2382 2.92935 11.2475 3.08837C11.2569 3.2474 11.2051 3.40399 11.1029 3.52615C11.0006 3.6483 10.8556 3.72681 10.6974 3.74563L10.6243 3.75ZM8.76093 11.2254C8.61063 11.3848 8.40612 11.4819 8.18791 11.4978L8.11012 11.5H3.12431C2.64722 11.5 2.28275 11.127 2.25334 10.7339L2.25073 10.6469L2.24994 10.6204L2.24773 10.5939L1.67086 3.66701L1.65695 3.5H9.59109L9.57716 3.66674L9.00278 10.5417L8.99931 10.5833L8.99931 10.6251C8.99932 10.8482 8.91405 11.063 8.76093 11.2254Z" fill="url(#paint0_linear_21809_19571)"/>
<defs>
<linearGradient id="paint0_linear_21809_19571" x1="11.1747" y1="12.5" x2="-2.71874" y2="6.76298" gradientUnits="userSpaceOnUse">
<stop stop-color="#7A0FD9"/>
<stop offset="1" stop-color="#695CF8"/>
</linearGradient>
</defs>
</svg>
