<svg width="16" height="16" viewBox="0 0 16 16" fill="none" xmlns="http://www.w3.org/2000/svg">
<path opacity="0.47" d="M8.00016 14.6667C11.6821 14.6667 14.6668 11.6819 14.6668 8.00004C14.6668 4.31814 11.6821 1.33337 8.00016 1.33337C4.31826 1.33337 1.3335 4.31814 1.3335 8.00004C1.3335 11.6819 4.31826 14.6667 8.00016 14.6667Z" fill="#D9E9FF"/>
<path d="M8.70641 7.99999L10.2397 6.46666C10.4331 6.27332 10.4331 5.95332 10.2397 5.75999C10.0464 5.56666 9.72641 5.56666 9.53308 5.75999L7.99975 7.29332L6.46641 5.75999C6.27308 5.56666 5.95308 5.56666 5.75975 5.75999C5.56641 5.95332 5.56641 6.27332 5.75975 6.46666L7.29308 7.99999L5.75975 9.53332C5.56641 9.72666 5.56641 10.0467 5.75975 10.24C5.85975 10.34 5.98641 10.3867 6.11308 10.3867C6.23975 10.3867 6.36641 10.34 6.46641 10.24L7.99975 8.70666L9.53308 10.24C9.63308 10.34 9.75975 10.3867 9.88641 10.3867C10.0131 10.3867 10.1397 10.34 10.2397 10.24C10.4331 10.0467 10.4331 9.72666 10.2397 9.53332L8.70641 7.99999Z" fill="#C4D4EA"/>
</svg>
