<svg width="24" height="24" viewBox="0 0 24 24" fill="none" xmlns="http://www.w3.org/2000/svg">
<circle cx="12" cy="12" r="12" fill="url(#paint0_linear_22996_21369)"/>
<path d="M15.4843 14.0064C15.8436 13.6274 16.1059 13.1672 16.2487 12.665C16.3915 12.1628 16.4106 11.6336 16.3045 11.1224C16.2615 10.9174 16.1604 10.7291 16.0131 10.58C15.8657 10.431 15.6786 10.3276 15.4739 10.2821C15.8382 9.90404 16.1043 9.44261 16.2491 8.9381C16.3939 8.4336 16.4129 7.90135 16.3045 7.38782C16.2606 7.17872 16.1567 6.98692 16.0055 6.83585C15.8544 6.68478 15.6624 6.58099 15.4532 6.53716C14.7379 6.38856 13.9935 6.47971 13.3353 6.79651C13.8765 6.21122 14.181 5.44597 14.1897 4.64912C14.1847 4.11854 14.0485 3.59744 13.7931 3.13226C13.5377 2.66707 13.171 2.27226 12.7259 1.98303C12.5489 1.86196 12.3398 1.79632 12.1253 1.79447C11.9108 1.79263 11.7007 1.85466 11.5216 1.97265C11.0724 2.26181 10.7018 2.65751 10.4428 3.1245C10.1837 3.59148 10.0443 4.11525 10.037 4.64912C10.0426 5.44794 10.3505 6.21507 10.8987 6.79651C10.2416 6.47589 9.49593 6.38458 8.78081 6.53716C8.57099 6.57974 8.37837 6.68313 8.22698 6.8344C8.07558 6.98568 7.97212 7.17816 7.92951 7.38782C7.81975 7.90051 7.8371 8.43225 7.98005 8.93671C8.12299 9.44116 8.38721 9.90305 8.74967 10.2821C8.54638 10.3281 8.36076 10.432 8.21522 10.5811C8.06969 10.7302 7.97046 10.9182 7.92951 11.1224C7.82109 11.6327 7.83813 12.1617 7.97916 12.664C8.1202 13.1663 8.38103 13.6269 8.73928 14.0064C8.53822 14.0583 8.35577 14.1656 8.21264 14.316C8.0695 14.4663 7.97141 14.6538 7.92951 14.857C7.82416 15.321 7.82562 15.8029 7.93376 16.2663C8.04191 16.7297 8.25392 17.1625 8.55382 17.5321C8.85371 17.9017 9.23366 18.1984 9.66503 18.3999C10.0964 18.6014 10.5679 18.7024 11.044 18.6954C11.2288 18.6985 11.4133 18.6811 11.5943 18.6435V21.9113C11.5943 22.0488 11.649 22.1808 11.7463 22.278C11.8436 22.3753 11.9757 22.4299 12.1134 22.4299C12.251 22.4299 12.3831 22.3753 12.4804 22.278C12.5777 22.1808 12.6324 22.0488 12.6324 21.9113V18.6435C12.8169 18.681 13.0049 18.6984 13.1931 18.6954C13.6102 18.699 14.024 18.6202 14.4106 18.4635C14.7973 18.3069 15.1491 18.0754 15.4459 17.7824C15.819 17.4031 16.0928 16.9377 16.2431 16.4275C16.3934 15.9172 16.4156 15.3778 16.3076 14.857C16.2635 14.6526 16.163 14.4645 16.0175 14.3142C15.872 14.1639 15.6873 14.0572 15.4843 14.0064ZM11.5081 17.6165C11.1545 17.6923 10.7877 17.6799 10.44 17.5804C10.0923 17.4809 9.77457 17.2973 9.5148 17.0459C9.25703 16.7824 9.07259 16.4562 8.97972 16.0996C8.88686 15.7429 8.88879 15.3683 8.98533 15.0126C9.14639 14.984 9.3097 14.9702 9.47327 14.9711C9.75265 14.9656 10.0302 15.017 10.2891 15.1222C10.5479 15.2274 10.7825 15.3843 10.9786 15.5832C11.2391 15.8449 11.4253 16.1711 11.5184 16.5283C11.6114 16.8856 11.6078 17.2611 11.5081 17.6165ZM11.5081 13.8819C11.1545 13.9587 10.7874 13.9467 10.4396 13.8472C10.0918 13.7476 9.77405 13.5635 9.5148 13.3113C9.25702 13.05 9.07244 12.7256 8.97953 12.3706C8.88661 12.0156 8.88861 11.6424 8.98533 11.2884C9.14536 11.2519 9.30915 11.2345 9.47327 11.2365C9.75265 11.231 10.0302 11.2824 10.2891 11.3876C10.5479 11.4928 10.7825 11.6497 10.9786 11.8486C11.2391 12.1103 11.4253 12.4365 11.5184 12.7937C11.6114 13.151 11.6078 13.5265 11.5081 13.8819ZM11.5081 10.1473C11.1545 10.2241 10.7874 10.2121 10.4396 10.1126C10.0918 10.013 9.77405 9.82891 9.5148 9.57671C9.25702 9.31536 9.07244 8.99096 8.97953 8.63596C8.88661 8.28095 8.88861 7.90779 8.98533 7.5538C9.14607 7.52175 9.30939 7.50438 9.47327 7.50193C9.75265 7.49636 10.0302 7.54776 10.2891 7.65299C10.5479 7.75823 10.7825 7.91509 10.9786 8.11399C11.2391 8.37575 11.4253 8.7019 11.5184 9.05913C11.6114 9.41636 11.6078 9.79186 11.5081 10.1473ZM12.0895 6.46454C11.7824 6.27039 11.5287 6.0026 11.3516 5.68555C11.1745 5.36849 11.0794 5.01221 11.0752 4.64912C11.0779 4.2794 11.1794 3.91713 11.3692 3.59977C11.559 3.28242 11.8303 3.02152 12.1549 2.84406C12.4572 3.03932 12.7065 3.30636 12.8804 3.62133C13.0543 3.9363 13.1475 4.28941 13.1515 4.64912C13.1472 5.01775 13.047 5.37891 12.8608 5.69718C12.6746 6.01545 12.4088 6.27988 12.0895 6.46454ZM14.7161 17.0459C14.4506 17.3009 14.1241 17.4834 13.7678 17.5761C13.4115 17.6687 13.0374 17.6683 12.6812 17.575C12.6492 17.4213 12.6319 17.265 12.6293 17.1081V17.0874C12.6258 16.5216 12.846 15.9773 13.2418 15.5728C13.6303 15.1933 14.1521 14.981 14.6953 14.9815C14.8948 14.9809 15.0936 15.0053 15.287 15.0541C15.3611 15.4075 15.3478 15.7736 15.2483 16.1207C15.1488 16.4677 14.9661 16.7853 14.7161 17.0459ZM14.7161 13.3113C14.4518 13.568 14.1253 13.7517 13.7686 13.8445C13.4119 13.9372 13.0372 13.9358 12.6812 13.8404C12.6492 13.6867 12.6319 13.5304 12.6293 13.3735V13.3528C12.6261 13.074 12.6787 12.7973 12.7838 12.539C12.889 12.2807 13.0447 12.046 13.2418 11.8486C13.432 11.6569 13.6585 11.505 13.908 11.4017C14.1576 11.2984 14.4252 11.2458 14.6953 11.2469C14.8944 11.2521 15.0926 11.2765 15.287 11.3195C15.3611 11.6729 15.3478 12.039 15.2483 12.3861C15.1488 12.7331 14.9661 13.0507 14.7161 13.3113ZM14.7161 9.57671C14.4535 9.83607 14.1271 10.0216 13.7698 10.1145C13.4125 10.2074 13.037 10.2044 12.6812 10.1058C12.6492 9.95215 12.6319 9.79585 12.6293 9.63895V9.61821C12.6261 9.33937 12.6787 9.06269 12.7838 8.8044C12.889 8.5461 13.0447 8.31138 13.2418 8.11399C13.4341 7.92295 13.6626 7.77222 13.914 7.67068C14.1654 7.56914 14.4346 7.51882 14.7057 7.52268C14.9017 7.52295 15.097 7.54734 15.287 7.5953C15.3612 7.94705 15.3479 8.31159 15.2483 8.65701C15.1488 9.00244 14.966 9.31822 14.7161 9.57671Z" fill="white"/>
<defs>
<linearGradient id="paint0_linear_22996_21369" x1="21.2862" y1="19.9604" x2="-0.0192763" y2="10.0364" gradientUnits="userSpaceOnUse">
<stop stop-color="#FFD362"/>
<stop offset="1" stop-color="#FF9A2C"/>
</linearGradient>
</defs>
</svg>
