<svg width="20" height="20" viewBox="0 0 20 20" fill="none" xmlns="http://www.w3.org/2000/svg">
<path d="M9.97748 1.00033C9.82986 1.00537 9.68772 1.05749 9.57183 1.14907L3.01216 6.31694C2.17961 6.97307 1.69247 7.97567 1.69247 9.03564V17.8462C1.69247 18.4755 2.21696 19 2.8463 19H5.61548H14.3845H17.1537C17.7831 19 18.3076 18.4755 18.3076 17.8462V9.03564C18.3076 7.97567 17.8204 6.97307 16.9879 6.31695L10.4282 1.14907C10.3002 1.04794 10.1405 0.995258 9.97748 1.00033ZM10 2.57422L16.1315 7.40496C16.6319 7.79928 16.923 8.39903 16.923 9.03564V17.6154H15.0768V10.9232C15.0768 9.52951 13.9321 8.38481 12.5384 8.38481H7.4616C6.06788 8.38481 4.92318 9.52951 4.92318 10.9232V17.6154H3.07706V9.03564C3.07706 8.39903 3.36817 7.79928 3.86851 7.40496L10 2.57422ZM7.4616 9.7694H12.5384C13.1838 9.7694 13.6923 10.2779 13.6923 10.9232V17.6154H6.30777V10.9232C6.30777 10.2779 6.81627 9.7694 7.4616 9.7694ZM9.30772 15.3078C9.05805 15.3042 8.82582 15.4354 8.69996 15.651C8.5741 15.8667 8.5741 16.1334 8.69996 16.3491C8.82582 16.5647 9.05805 16.6959 9.30772 16.6923H10.6923C10.942 16.6959 11.1742 16.5647 11.3001 16.3491C11.4259 16.1334 11.4259 15.8667 11.3001 15.651C11.1742 15.4354 10.942 15.3042 10.6923 15.3078H9.30772Z" fill="#433A4B"/>
</svg>
