<svg width="16" height="19" viewBox="0 0 16 19" fill="none" xmlns="http://www.w3.org/2000/svg">
<path d="M1.20312 14.2891L7.35156 17.7734C7.78906 18.0234 8.20312 18.0234 8.64844 17.7734L14.7891 14.2891C15.5078 13.875 15.8828 13.4688 15.8828 12.3516V6.16406C15.8828 5.35156 15.5859 4.85156 14.9297 4.46875L9.39844 1.32812C8.45312 0.789062 7.53906 0.789062 6.59375 1.32812L1.07031 4.46875C0.40625 4.85156 0.109375 5.35156 0.109375 6.16406V12.3516C0.109375 13.4688 0.492188 13.875 1.20312 14.2891ZM11.6719 6.71875L5.61719 3.29688L7.11719 2.44531C7.71875 2.10156 8.27344 2.09375 8.88281 2.44531L14.0312 5.38281L11.6719 6.71875ZM8 8.79688L1.96875 5.38281L4.38281 4L10.4141 7.42969L8 8.79688ZM1.90625 13.2578C1.45312 13 1.29688 12.7422 1.29688 12.3125V6.41406L7.38281 9.89062V16.375L1.90625 13.2578ZM14.0938 13.2578L8.60938 16.375V9.89062L14.6953 6.41406V12.3125C14.6953 12.7422 14.5391 13 14.0938 13.2578Z" fill="#8863F2"/>
</svg>
