<svg width="20" height="19" viewBox="0 0 20 19" fill="none" xmlns="http://www.w3.org/2000/svg">
<path d="M10 18.7422C14.9658 18.7422 19.0791 14.6377 19.0791 9.66309C19.0791 4.69727 14.9658 0.583984 9.99121 0.583984C5.02539 0.583984 0.920898 4.69727 0.920898 9.66309C0.920898 14.6377 5.03418 18.7422 10 18.7422ZM7.83789 6.38477C7.83789 5.18945 8.80469 4.22266 10 4.22266C11.1953 4.22266 12.1709 5.18945 12.1709 6.38477C12.1709 7.34277 11.5557 8.14258 10.7031 8.42383V12.8623C10.7031 14.1191 10.4395 15.2969 10 15.2969C9.56055 15.2969 9.28809 14.0928 9.28809 12.8623V8.41504C8.45312 8.13379 7.83789 7.33398 7.83789 6.38477ZM8.77832 5.81348C8.77832 6.18262 9.10352 6.50781 9.46387 6.50781C9.8418 6.50781 10.1494 6.18262 10.1582 5.81348C10.1582 5.44434 9.8418 5.11914 9.46387 5.11914C9.10352 5.11914 8.77832 5.44434 8.77832 5.81348Z" fill="#8E66FE"/>
</svg>
