<svg width="20" height="18" viewBox="0 0 20 18" fill="none" xmlns="http://www.w3.org/2000/svg">
<path d="M3.20605 17.083C1.66797 17.083 0.709961 15.9756 0.709961 14.5957C0.709961 14.1738 0.824219 13.7432 1.06152 13.3301L7.86426 1.46484C8.33008 0.638672 9.15625 0.216797 10 0.216797C10.835 0.216797 11.6611 0.638672 12.1357 1.46484L18.9385 13.3301C19.167 13.7344 19.29 14.1738 19.29 14.5957C19.29 15.9756 18.3232 17.083 16.7939 17.083H3.20605ZM10.0088 11.0625C10.501 11.0625 10.791 10.7812 10.8086 10.2451L10.9404 5.82422C10.958 5.28809 10.5537 4.91016 10 4.91016C9.42871 4.91016 9.04199 5.28809 9.05957 5.82422L9.18262 10.2539C9.2002 10.7725 9.49023 11.0625 10.0088 11.0625ZM10.0088 14.0859C10.5889 14.0859 11.0811 13.6641 11.0811 13.084C11.0811 12.5039 10.5977 12.082 10.0088 12.082C9.41113 12.082 8.92773 12.5127 8.92773 13.084C8.92773 13.6641 9.41992 14.0859 10.0088 14.0859Z" fill="#8E66FE"/>
</svg>
