<svg width="18" height="17" viewBox="0 0 18 17" fill="none" xmlns="http://www.w3.org/2000/svg">
<path d="M1.39062 14.0469C0.984375 15.6719 1.67188 16.6094 3.24219 16.6094H14.7578C16.3281 16.6094 17.0156 15.6719 16.6094 14.0469L14.8828 7.07031C14.5938 5.92188 13.7656 5.25781 12.6016 5.25781H9.625V4.46094C10.5469 4.1875 11.2344 3.33594 11.2344 2.33594C11.2344 1.11719 10.2109 0.101562 9 0.101562C7.78125 0.101562 6.76562 1.11719 6.76562 2.33594C6.76562 3.33594 7.45312 4.1875 8.36719 4.46094V5.25781H5.39844C4.23438 5.25781 3.39844 5.92188 3.11719 7.07031L1.39062 14.0469ZM9 3.46875C8.38281 3.46875 7.85938 2.95312 7.85938 2.33594C7.85938 1.71875 8.375 1.1875 9 1.1875C9.61719 1.1875 10.1406 1.71875 10.1406 2.33594C10.1406 2.95312 9.625 3.46875 9 3.46875ZM2.60938 14.125L4.28906 7.50781C4.46094 6.83594 4.84375 6.51562 5.49219 6.51562H12.5078C13.1562 6.51562 13.5391 6.83594 13.7109 7.50781L15.3906 14.125C15.6016 14.9297 15.2891 15.3516 14.5938 15.3516H3.39844C2.71094 15.3516 2.39844 14.9297 2.60938 14.125Z" fill="#8863F2"/>
</svg>
