<svg width="27" height="27" viewBox="0 0 27 27" fill="none" xmlns="http://www.w3.org/2000/svg">
<path d="M13.5307 0H13.4693C6.03039 0 0 6.03217 0 13.4732V13.5347C0 20.9758 6.03039 27.0079 13.4693 27.0079H13.5307C20.9696 27.0079 27 20.9758 27 13.5347V13.4732C27 6.03217 20.9696 0 13.5307 0Z" fill="#00E510"/>
<path d="M15.7455 16.3071C12.7968 16.3071 10.3978 13.9066 10.397 10.957C10.3978 10.2093 11.0064 9.60132 11.7523 9.60132C11.829 9.60132 11.9048 9.60778 11.9775 9.6207C12.1373 9.64734 12.2891 9.70144 12.4287 9.78299C12.4489 9.7951 12.4626 9.81448 12.4658 9.83709L12.7774 11.8016C12.7814 11.825 12.7742 11.8476 12.7588 11.8646C12.5869 12.0551 12.3674 12.1924 12.1228 12.261L12.0049 12.2941L12.0493 12.408C12.4513 13.4318 13.2698 14.2497 14.2941 14.6535L14.408 14.6987L14.4411 14.5808C14.5097 14.3361 14.6469 14.1165 14.8374 13.9445C14.8511 13.9316 14.8697 13.9252 14.8882 13.9252C14.8923 13.9252 14.8963 13.9252 14.9012 13.926L16.8651 14.2376C16.8885 14.2417 16.9079 14.2546 16.92 14.2748C17.0007 14.4145 17.0548 14.5671 17.0822 14.7269C17.0951 14.798 17.1008 14.8731 17.1008 14.9514C17.1008 15.6983 16.493 16.3063 15.7455 16.3071Z" fill="#FDFDFD"/>
<path d="M20.9742 12.2894C20.8152 10.4921 19.9918 8.82472 18.6559 7.59499C17.3119 6.35799 15.5684 5.67651 13.7449 5.67651C9.74279 5.67651 6.48654 8.93372 6.48654 12.937C6.48654 14.2806 6.85704 15.5894 7.5585 16.7295L5.99414 20.1935L11.0028 19.6597C11.8738 20.0166 12.7956 20.1975 13.7441 20.1975C13.9935 20.1975 14.2494 20.1846 14.5061 20.1579C14.7321 20.1337 14.9605 20.0982 15.1849 20.053C18.5364 19.3755 20.9831 16.4001 21.0024 12.9758V12.937C21.0024 12.719 20.9928 12.501 20.9734 12.2894H20.9742ZM11.1958 18.1393L8.42463 18.4349L9.25201 16.6012L9.08653 16.3791C9.07443 16.363 9.06232 16.3468 9.0486 16.3283C8.33019 15.3359 7.9508 14.1635 7.9508 12.9378C7.9508 9.74197 10.55 7.14202 13.7449 7.14202C16.738 7.14202 19.275 9.47794 19.5196 12.4598C19.5325 12.6197 19.5398 12.7804 19.5398 12.9386C19.5398 12.9838 19.539 13.0282 19.5382 13.0759C19.4768 15.7493 17.6098 18.0198 14.9977 18.598C14.7983 18.6424 14.5941 18.6763 14.3907 18.6981C14.1792 18.7223 13.962 18.7344 13.7465 18.7344C12.9789 18.7344 12.233 18.5859 11.5283 18.2919C11.45 18.2605 11.3733 18.2265 11.3015 18.1918L11.1966 18.141L11.1958 18.1393Z" fill="#FDFDFD"/>
</svg>
