<svg width="16" height="14" viewBox="0 0 16 14" fill="none" xmlns="http://www.w3.org/2000/svg">
<path d="M1.18066 5.08789C0.79248 5.19775 0.492188 5.0293 0.396973 4.70703C0.309082 4.39209 0.470215 4.06982 0.829102 3.96729C1.95703 3.63037 3.18018 3.42529 4.3667 3.42529C5.7583 3.42529 6.77637 3.6377 7.96289 3.6377C8.62207 3.6377 9.04688 3.24951 9.04688 2.6416C9.04688 2.04102 8.62207 1.66016 8.06543 1.66016C7.6626 1.66016 7.30371 1.90918 7.1499 2.23877C6.9668 2.59033 6.60791 2.68555 6.31494 2.52441C6.02197 2.36328 5.95605 2.02637 6.10986 1.72607C6.44678 1.0083 7.21582 0.488281 8.06543 0.488281C9.2666 0.488281 10.2188 1.39648 10.2188 2.6416C10.2188 3.87207 9.3252 4.80957 7.96289 4.80957C6.6958 4.80957 5.70703 4.59717 4.3667 4.59717C3.32666 4.59717 2.23535 4.76562 1.18066 5.08789ZM12.687 8.66211C10.1748 8.66211 7.97754 7.3877 5.07715 7.3877C3.65625 7.3877 2.40381 7.58545 1.18799 8.0249C0.807129 8.15674 0.492188 7.98096 0.396973 7.65869C0.309082 7.34375 0.470215 7.02881 0.829102 6.91162C2.16211 6.45752 3.56104 6.21582 5.07715 6.21582C8.02148 6.21582 10.4678 7.49023 12.687 7.49023C13.8076 7.49023 14.5327 6.86768 14.5327 5.95215C14.5327 5.05859 13.8662 4.43604 13.0166 4.43604C12.3281 4.43604 11.7349 4.89746 11.5957 5.56396C11.4932 5.95947 11.1709 6.14258 10.8486 6.06201C10.5337 5.98145 10.3652 5.6665 10.4531 5.31494C10.7021 4.13574 11.7275 3.26416 13.0166 3.26416C14.5181 3.26416 15.7046 4.40674 15.7046 5.95215C15.7046 7.52686 14.4521 8.66211 12.687 8.66211ZM7.97754 13.9429C6.90088 13.9429 6.12451 13.2031 5.91211 12.2363C5.80957 11.8848 5.95605 11.5405 6.31494 11.46C6.6665 11.3867 6.94482 11.5918 7.04004 11.9141C7.16455 12.4487 7.47949 12.771 7.97754 12.771C8.50488 12.771 8.91504 12.4121 8.91504 11.8115C8.91504 10.8154 7.50146 10.1782 4.92334 10.1782C3.62695 10.1782 2.34521 10.3979 1.18799 10.8081C0.807129 10.9399 0.492188 10.7568 0.396973 10.4346C0.309082 10.127 0.470215 9.81201 0.829102 9.69482C2.08887 9.2627 3.56836 9.00635 4.92334 9.00635C8.24854 9.00635 10.0869 10.0098 10.0869 11.8115C10.0869 13.0566 9.16406 13.9429 7.97754 13.9429Z" fill="#433A4B"/>
</svg>
